<?xml version="1.0" standalone="no"?><!DOCTYPE svg PUBLIC "-//W3C//DTD SVG 1.1//EN" "http://www.w3.org/Graphics/SVG/1.1/DTD/svg11.dtd"><svg class="icon" width="200px" height="200.00px" viewBox="0 0 1024 1024" version="1.1" xmlns="http://www.w3.org/2000/svg"><path fill="#ffffff" d="M827.220511 960.00001a32.031995 32.031995 0 0 1-31.999995-31.999995v-79.231988c0-4.191999-7.999999-11.887998-21.279997-11.887998H250.948601c-13.183998 0-21.279997 7.695999-21.279997 11.887998V928.000015a32.047995 32.047995 0 0 1-22.703996 30.623995 32.351995 32.351995 0 0 1-9.279999 1.376H116.196622a117.439982 117.439982 0 0 1-28.687996-4.383999 118.415981 118.415981 0 0 1-45.759993-24.639996 118.543981 118.543981 0 0 1-33.055994-47.199993 118.751981 118.751981 0 0 1-7.871999-45.583993V637.13606a118.927981 118.927981 0 0 1 59.903991-106.207983 119.295981 119.295981 0 0 1 49.663992-15.279998c1.936-0.144 3.871999-0.256 5.807999-0.304h92.239985V160.000135a96.335985 96.335985 0 0 1 9.231999-41.039994 92.607986 92.607986 0 0 1 6.959999-12.287998 93.423985 93.423985 0 0 1 11.935998-14.559997A95.039985 95.039985 0 0 1 259.2046 75.328148 95.807985 95.807985 0 0 1 304.452592 64.00015h415.999935a95.951985 95.951985 0 0 1 95.535986 86.591986 98.175985 98.175985 0 0 1 0.479999 9.407999v355.343944h92.447986a111.743983 111.743983 0 0 1 79.727988 33.791995 124.703981 124.703981 0 0 1 33.279994 63.90399 124.431981 124.431981 0 0 1 2.128 24.239996v200.911969a119.583981 119.583981 0 0 1-5.903999 40.111994 120.543981 120.543981 0 0 1-12.367998 26.271996 119.503981 119.503981 0 0 1-31.807995 33.583994 120.591981 120.591981 0 0 1-25.551996 13.759998 118.719981 118.719981 0 0 1-39.743994 8.079999h-81.439987z m-53.279992-187.119971c47.007993 0 85.279987 34.031995 85.279987 75.871988V896.00002h49.455992a48.111992 48.111992 0 0 0 35.455994-16.143997 60.735991 60.735991 0 0 0 15.903998-41.599994V636.80006a59.919991 59.919991 0 0 0-16.799997-42.607993 48.159992 48.159992 0 0 0-34.239995-14.847998H116.196622a48.111992 48.111992 0 0 0-35.455995 16.143998 60.799991 60.799991 0 0 0-15.919997 41.647993v201.055969a60.639991 60.639991 0 0 0 15.999997 41.599994 47.999993 47.999993 0 0 0 25.455996 15.039997c3.263999 0.72 6.575999 1.12 9.919999 1.168h49.439992v-47.231993a72.303989 72.303989 0 0 1 15.887998-44.367993 72.687989 72.687989 0 0 1 11.295998-11.295998 90.927986 90.927986 0 0 1 42.415993-18.991997c5.167999-0.848 10.367998-1.264 15.599998-1.216l523.087918-0.016zM272.452597 160.000135v351.999945h479.999925V160.000135a32.047995 32.047995 0 0 0-22.703996-30.623995 32.207995 32.207995 0 0 0-9.279999-1.376h-415.999935a31.919995 31.919995 0 0 0-28.223995 16.911997 31.311995 31.311995 0 0 0-3.632 11.951998c-0.096 1.04-0.16 2.08-0.16 3.136z m31.999995 783.999877a32.031995 32.031995 0 0 1-29.551995-44.239993 31.247995 31.247995 0 0 1 4.815999-8.063998 31.519995 31.519995 0 0 1 9.663999-7.919999 32.143995 32.143995 0 0 1 15.071997-3.776h415.999935a32.079995 32.079995 0 0 1 26.607996 14.223998 32.287995 32.287995 0 0 1 5.247999 14.639998 32.047995 32.047995 0 0 1-25.599996 34.527995 32.831995 32.831995 0 0 1-6.239999 0.607999h-415.999935z m511.99992-271.999957a48.127992 48.127992 0 0 1 10.895999-30.447995A47.999993 47.999993 0 1 1 816.484512 672.000055zM632.708541 467.024087c-25.599996-6.143999-50.527992-13.791998-69.375989-19.775997a25.103996 25.103996 0 0 1-15.151998-12.943998 25.023996 25.023996 0 0 1-2.303999-14.959998 24.783996 24.783996 0 0 1 1.28-4.943999 24.463996 24.463996 0 0 1 11.311998-15.119997 24.191996 24.191996 0 0 1 18.719997-2.48h0.272l-13.983998-20.799997-38.543994-57.119991c-13.663998 11.983998-26.719996 23.359996-39.439994 34.415995l-0.752 0.656a36.319994 36.319994 0 0 1-23.519996 11.103998 32.607995 32.607995 0 0 1-20.543997-10.031998 32.639995 32.639995 0 0 1-4.639999-6.224c-28.143996-38.639994-57.199991-78.559988-85.535987-118.111981a30.287995 30.287995 0 0 1-6.559999-17.855997 30.239995 30.239995 0 0 1 1.76-11.391998 25.455996 25.455996 0 0 1 13.791998-13.551998c2.048-0.832 4.159999-1.408 6.351999-1.696 1.504-0.256 3.024-0.384 4.543999-0.384a29.023995 29.023995 0 0 1 19.295997 8.799999c1.68 1.728 3.136 3.647999 4.335999 5.743999 11.199998 15.599998 22.607996 31.407995 33.599995 46.703992s22.511996 31.135995 33.695995 46.735993l2.032 2.752 2.287999 3.199999c15.903998-13.839998 28.799996-24.991996 41.327994-35.599994a37.023994 37.023994 0 0 1 23.519996-10.991999 33.759995 33.759995 0 0 1 21.151997 11.215999 34.079995 34.079995 0 0 1 4.575999 6.735999c16.527997 24.543996 33.311995 49.599992 49.599992 73.679988l12.287998 18.303997a26.239996 26.239996 0 0 1 3.312-8.895998 26.367996 26.367996 0 0 1 8.111999-8.607999 26.847996 26.847996 0 0 1 15.775997-4.559999 25.071996 25.071996 0 0 1 18.319997 7.743999 28.527996 28.527996 0 0 1 6.879999 21.391996c-1.04 22.527996-2.672 46.399993-4.991999 73.023989a25.679996 25.679996 0 0 1-1.024 7.199999 24.639996 24.639996 0 0 1-18.799997 17.183997 24.975996 24.975996 0 0 1-4.847999 0.48c-2.752 0-5.455999-0.352-8.127999-1.024z"  /></svg>