<?xml version="1.0" standalone="no"?><!DOCTYPE svg PUBLIC "-//W3C//DTD SVG 1.1//EN" "http://www.w3.org/Graphics/SVG/1.1/DTD/svg11.dtd"><svg class="icon" width="200px" height="200.00px" viewBox="0 0 1024 1024" version="1.1" xmlns="http://www.w3.org/2000/svg"><path fill="#ffffff" d="M727.04 997.136H297.12a205.248 205.248 0 0 1-40.8-4.032c-6.72-1.328-13.328-2.992-19.84-4.992a200.16 200.16 0 0 1-37.76-15.712c-6.08-3.232-11.952-6.752-17.6-10.56a224.896 224.896 0 0 1-16.48-12.256c-5.232-4.336-10.288-8.944-15.2-13.792-4.8-4.832-9.392-9.872-13.76-15.152-4.368-5.28-8.432-10.752-12.16-16.432-3.84-5.68-7.36-11.536-10.56-17.568-3.312-6.016-6.24-12.192-8.8-18.512a206.88 206.88 0 0 1-7.04-19.28c-1.92-6.56-3.568-13.168-4.96-19.888a258.4 258.4 0 0 1-3.04-20.272c-0.64-6.8-0.96-13.632-0.96-20.464V397.008c0-13.728 1.328-27.328 4-40.8 2.768-13.44 6.768-26.528 12-39.2 5.232-12.672 11.632-24.704 19.2-36.112a212.528 212.528 0 0 1 26.08-31.664L310.56 88.096A211.072 211.072 0 0 1 378.24 42.88a209.92 209.92 0 0 1 79.84-16h268.96a208.864 208.864 0 0 1 60.64 9.04 208 208 0 0 1 19.2 6.928c6.4 2.624 12.592 5.552 18.56 8.8 6.08 3.216 11.952 6.736 17.6 10.56 5.648 3.808 11.152 7.888 16.48 12.24 5.232 4.352 10.24 8.944 15.04 13.792 4.912 4.816 9.488 9.872 13.76 15.152 4.368 5.28 8.48 10.752 12.32 16.432 3.84 5.68 7.36 11.52 10.56 17.552s6.128 12.192 8.8 18.512c2.672 6.32 4.96 12.736 6.88 19.28 2.032 6.544 3.68 13.168 4.96 19.872 1.392 6.72 2.4 13.472 3.04 20.272 0.752 6.8 1.12 13.632 1.12 20.464v552.464c0 6.832-0.368 13.664-1.12 20.48-0.64 6.784-1.648 13.552-3.04 20.256-1.28 6.704-2.928 13.328-4.96 19.872-1.92 6.544-4.208 12.96-6.88 19.28-2.672 6.32-5.6 12.48-8.8 18.512-3.2 6.032-6.72 11.872-10.56 17.552-3.84 5.68-7.952 11.152-12.32 16.432-4.272 5.28-8.848 10.32-13.76 15.152-4.8 4.848-9.808 9.44-15.04 13.792-5.328 4.352-10.832 8.432-16.48 12.256-5.648 3.808-11.52 7.328-17.6 10.56-5.968 3.232-12.16 6.16-18.56 8.8a207.968 207.968 0 0 1-39.04 11.92 208.736 208.736 0 0 1-40.8 4.032z m-0.16-64a146.992 146.992 0 0 0 28.32-2.8c4.592-0.944 9.168-2.08 13.76-3.472 4.48-1.392 8.912-2.992 13.28-4.816 4.48-1.824 8.8-3.856 12.96-6.112 4.16-2.24 8.208-4.688 12.16-7.328 3.952-2.64 7.728-5.472 11.36-8.496a125.12 125.12 0 0 0 10.56-9.584c3.312-3.36 6.512-6.848 9.6-10.512 2.992-3.664 5.808-7.472 8.48-11.408a137.792 137.792 0 0 0 13.44-25.024 148.672 148.672 0 0 0 8.32-27.184c0.848-4.64 1.552-9.344 2.08-14.08 0.432-4.704 0.64-9.44 0.64-14.192V235.904c0-4.752-0.208-9.488-0.64-14.208a207.52 207.52 0 0 0-2.08-14.064 153.792 153.792 0 0 0-8.32-27.168 143.232 143.232 0 0 0-31.52-46.96 124.944 124.944 0 0 0-10.56-9.584 136.576 136.576 0 0 0-11.36-8.48 148.208 148.208 0 0 0-24.96-13.44c-4.48-1.824-8.96-3.44-13.44-4.816a152.944 152.944 0 0 0-13.76-3.472A147.936 147.936 0 0 0 726.88 90.88H458.24c-8 0-15.952 0.656-23.84 1.968a145.024 145.024 0 0 0-64.96 28.432v164.016a23.552 23.552 0 0 1-0.64 5.504l-0.64 2.688-0.96 2.592a138.08 138.08 0 0 1-1.28 2.496c-0.432 0.8-0.912 1.6-1.44 2.368a74.608 74.608 0 0 1-1.6 2.208c-0.64 0.704-1.28 1.376-1.92 2.032-0.64 0.64-1.328 1.248-2.08 1.84-0.752 0.576-1.488 1.12-2.24 1.616l-2.4 1.408a34.72 34.72 0 0 1-5.12 2.064 33.936 33.936 0 0 1-5.44 1.024c-0.96 0.064-1.92 0.112-2.88 0.096H178.88c-4.368 6.08-8.208 12.48-11.52 19.152-3.312 6.688-6.08 13.584-8.32 20.688a127.344 127.344 0 0 0-5.12 21.744c-1.168 7.36-1.76 14.8-1.76 22.256v391.024c0 4.752 0.208 9.488 0.64 14.208 0.528 4.72 1.232 9.408 2.08 14.064a152.576 152.576 0 0 0 8.32 27.184 143.712 143.712 0 0 0 13.44 25.024c2.672 3.936 5.488 7.744 8.48 11.408 3.088 3.664 6.288 7.168 9.6 10.512 3.408 3.36 6.928 6.56 10.56 9.584a147.904 147.904 0 0 0 23.52 15.84c4.272 2.24 8.592 4.272 12.96 6.08 4.368 1.84 8.8 3.44 13.28 4.832a147.52 147.52 0 0 0 42.08 6.272h429.6l0.16 0.016zM776.16 640v-88h-48v56c0 0.8-0.048 1.568-0.16 2.352a8.704 8.704 0 0 1-0.32 2.336 16.256 16.256 0 0 1-0.48 2.272c-0.32 0.752-0.592 1.504-0.8 2.224a17.28 17.28 0 0 1-1.12 2.128 15.84 15.84 0 0 1-2.56 3.92 52.368 52.368 0 0 1-1.6 1.744 16.64 16.64 0 0 1-1.76 1.584 37.424 37.424 0 0 1-3.84 2.608 31.744 31.744 0 0 1-2.24 1.008 15.504 15.504 0 0 1-2.08 0.8 41.328 41.328 0 0 1-2.4 0.56 22.56 22.56 0 0 1-9.28 0 41.328 41.328 0 0 1-2.4-0.576 15.504 15.504 0 0 1-2.08-0.8 31.744 31.744 0 0 1-2.24-0.992 30.96 30.96 0 0 1-5.6-4.192 52.368 52.368 0 0 1-1.6-1.76 16.592 16.592 0 0 1-2.56-3.904 17.28 17.28 0 0 1-1.12-2.128 20.432 20.432 0 0 0-0.8-2.224 16.256 16.256 0 0 1-0.48-2.272 8.704 8.704 0 0 1-0.32-2.336 17.312 17.312 0 0 1-0.16-2.352v-56h-48v88c0 0.8-0.048 1.568-0.16 2.352a8.704 8.704 0 0 1-0.32 2.336 16.256 16.256 0 0 1-0.48 2.272c-0.32 0.752-0.592 1.504-0.8 2.224a17.28 17.28 0 0 1-1.12 2.128 15.84 15.84 0 0 1-2.56 3.92 52.368 52.368 0 0 1-1.6 1.744 16.64 16.64 0 0 1-1.76 1.584 37.424 37.424 0 0 1-3.84 2.608 31.744 31.744 0 0 1-2.24 1.008 15.504 15.504 0 0 1-2.08 0.8 41.328 41.328 0 0 1-2.4 0.56 22.56 22.56 0 0 1-9.28 0 41.328 41.328 0 0 1-2.4-0.576 15.504 15.504 0 0 1-2.08-0.8 31.744 31.744 0 0 1-2.24-0.992 30.96 30.96 0 0 1-5.6-4.192 52.368 52.368 0 0 1-1.6-1.76 16.592 16.592 0 0 1-2.56-3.904 17.28 17.28 0 0 1-1.12-2.128 20.432 20.432 0 0 0-0.8-2.224 16.256 16.256 0 0 1-0.48-2.272 8.704 8.704 0 0 1-0.32-2.336 17.312 17.312 0 0 1-0.16-2.352v-88h-48v56c0 0.8-0.048 1.568-0.16 2.352a8.704 8.704 0 0 1-0.32 2.336 16.256 16.256 0 0 1-0.48 2.272c-0.32 0.752-0.592 1.504-0.8 2.224a17.28 17.28 0 0 1-1.12 2.128 15.84 15.84 0 0 1-2.56 3.92 52.368 52.368 0 0 1-1.6 1.744 16.64 16.64 0 0 1-1.76 1.584 37.424 37.424 0 0 1-3.84 2.608 31.744 31.744 0 0 1-2.24 1.008 15.504 15.504 0 0 1-2.08 0.8 41.328 41.328 0 0 1-2.4 0.56 22.56 22.56 0 0 1-9.28 0 41.328 41.328 0 0 1-2.4-0.576 15.504 15.504 0 0 1-2.08-0.8 31.744 31.744 0 0 1-2.24-0.992 30.96 30.96 0 0 1-5.6-4.192 52.368 52.368 0 0 1-1.6-1.76 16.592 16.592 0 0 1-2.56-3.904 17.28 17.28 0 0 1-1.12-2.128 20.432 20.432 0 0 0-0.8-2.224 16.256 16.256 0 0 1-0.48-2.272 8.704 8.704 0 0 1-0.32-2.336 17.312 17.312 0 0 1-0.16-2.352v-56h-48v88c0 0.8-0.048 1.568-0.16 2.352a8.704 8.704 0 0 1-0.32 2.336 16.256 16.256 0 0 1-0.48 2.272c-0.32 0.752-0.592 1.504-0.8 2.224a17.28 17.28 0 0 1-1.12 2.128 15.84 15.84 0 0 1-2.56 3.92 52.368 52.368 0 0 1-1.6 1.744 16.64 16.64 0 0 1-1.76 1.584 37.424 37.424 0 0 1-3.84 2.608 31.744 31.744 0 0 1-2.24 1.008 15.504 15.504 0 0 1-2.08 0.8 41.328 41.328 0 0 1-2.4 0.56 22.56 22.56 0 0 1-9.28 0 41.328 41.328 0 0 1-2.4-0.576 15.504 15.504 0 0 1-2.08-0.8 31.744 31.744 0 0 1-2.24-0.992 30.96 30.96 0 0 1-5.6-4.192 52.368 52.368 0 0 1-1.6-1.76 16.592 16.592 0 0 1-2.56-3.904 17.28 17.28 0 0 1-1.12-2.128 20.432 20.432 0 0 0-0.8-2.224 16.256 16.256 0 0 1-0.48-2.272 8.704 8.704 0 0 1-0.32-2.336 17.312 17.312 0 0 1-0.16-2.352v-88h-48v56c0 0.8-0.048 1.568-0.16 2.352a8.704 8.704 0 0 1-0.32 2.336 16.256 16.256 0 0 1-0.48 2.272c-0.32 0.752-0.592 1.504-0.8 2.224a17.28 17.28 0 0 1-1.12 2.128 15.84 15.84 0 0 1-2.56 3.92 52.368 52.368 0 0 1-1.6 1.744 16.64 16.64 0 0 1-1.76 1.584 37.424 37.424 0 0 1-3.84 2.608 31.744 31.744 0 0 1-2.24 1.008 15.504 15.504 0 0 1-2.08 0.8 41.328 41.328 0 0 1-2.4 0.56 22.56 22.56 0 0 1-9.28 0 41.328 41.328 0 0 1-2.4-0.576 15.504 15.504 0 0 1-2.08-0.8 31.744 31.744 0 0 1-2.24-0.992 30.96 30.96 0 0 1-5.6-4.192 52.368 52.368 0 0 1-1.6-1.76 16.592 16.592 0 0 1-2.56-3.904 17.28 17.28 0 0 1-1.12-2.128 20.432 20.432 0 0 0-0.8-2.224 16.256 16.256 0 0 1-0.48-2.272 8.704 8.704 0 0 1-0.32-2.336 17.312 17.312 0 0 1-0.16-2.352v-56h-48v88c0 0.8-0.048 1.568-0.16 2.352a8.704 8.704 0 0 1-0.32 2.336 16.384 16.384 0 0 1-0.48 2.272 20.48 20.48 0 0 0-0.8 2.224 17.44 17.44 0 0 1-1.12 2.128 15.84 15.84 0 0 1-2.56 3.92 52.384 52.384 0 0 1-1.6 1.744c-0.528 0.544-1.12 1.072-1.76 1.584a36.592 36.592 0 0 1-3.84 2.608 31.648 31.648 0 0 1-2.24 1.008 15.568 15.568 0 0 1-2.08 0.8 41.6 41.6 0 0 1-2.4 0.56 22.656 22.656 0 0 1-9.28 0 41.6 41.6 0 0 1-2.4-0.576 15.568 15.568 0 0 1-2.08-0.8 31.648 31.648 0 0 1-2.24-0.992 30.4 30.4 0 0 1-5.6-4.192 52.384 52.384 0 0 1-1.6-1.76 16.736 16.736 0 0 1-2.56-3.904 17.44 17.44 0 0 1-1.12-2.128 20.48 20.48 0 0 0-0.8-2.224 16.384 16.384 0 0 1-0.48-2.272 8.704 8.704 0 0 1-0.32-2.336A17.28 17.28 0 0 1 200.16 640v-112c0-0.8 0.048-1.568 0.16-2.352 0-0.784 0.112-1.552 0.32-2.336 0.112-0.768 0.272-1.52 0.48-2.272a20.48 20.48 0 0 0 0.8-2.224c0.32-0.72 0.688-1.44 1.12-2.128a15.84 15.84 0 0 1 2.56-3.92l1.6-1.744c0.528-0.544 1.12-1.072 1.76-1.584a36.592 36.592 0 0 1 3.84-2.608c0.752-0.368 1.488-0.704 2.24-1.008a15.568 15.568 0 0 1 2.08-0.8 41.6 41.6 0 0 1 2.4-0.56 22.656 22.656 0 0 1 8.64-0.128c1.28-0.224 2.608-0.32 4-0.336h568a22.56 22.56 0 0 1 4.64 0.464c0.752 0.16 1.552 0.336 2.4 0.576 0.752 0.224 1.44 0.48 2.08 0.8 0.752 0.288 1.488 0.624 2.24 0.992a30.96 30.96 0 0 1 5.6 4.192c0.528 0.56 1.072 1.136 1.6 1.76a16.592 16.592 0 0 1 2.56 3.904c0.432 0.688 0.8 1.408 1.12 2.128 0.208 0.72 0.48 1.472 0.8 2.224 0.208 0.752 0.368 1.504 0.48 2.272 0.208 0.784 0.32 1.552 0.32 2.336 0.112 0.784 0.16 1.568 0.16 2.352v112c0 0.8-0.048 1.568-0.16 2.352a8.704 8.704 0 0 1-0.32 2.336 16.256 16.256 0 0 1-0.48 2.272c-0.32 0.752-0.592 1.504-0.8 2.224a17.28 17.28 0 0 1-1.12 2.128 15.84 15.84 0 0 1-2.56 3.92 52.368 52.368 0 0 1-1.6 1.744 16.64 16.64 0 0 1-1.76 1.584 37.424 37.424 0 0 1-3.84 2.608 31.744 31.744 0 0 1-2.24 1.008 15.504 15.504 0 0 1-2.08 0.8 41.328 41.328 0 0 1-2.4 0.56 22.56 22.56 0 0 1-9.28 0 41.328 41.328 0 0 1-2.4-0.576 15.504 15.504 0 0 1-2.08-0.8 31.744 31.744 0 0 1-2.24-0.992 30.96 30.96 0 0 1-5.6-4.192 52.368 52.368 0 0 1-1.6-1.76 16.592 16.592 0 0 1-2.56-3.904 17.28 17.28 0 0 1-1.12-2.128 20.432 20.432 0 0 0-0.8-2.224 16.256 16.256 0 0 1-0.48-2.272 8.704 8.704 0 0 1-0.32-2.336 17.312 17.312 0 0 1-0.16-2.352z"  /></svg>