<?xml version="1.0" standalone="no"?><!DOCTYPE svg PUBLIC "-//W3C//DTD SVG 1.1//EN" "http://www.w3.org/Graphics/SVG/1.1/DTD/svg11.dtd"><svg class="icon" width="200px" height="200.00px" viewBox="0 0 1024 1024" version="1.1" xmlns="http://www.w3.org/2000/svg"><path fill="#ffffff" d="M264.832 997.12a210.768 210.768 0 0 1-50.784-6.368 210.592 210.592 0 0 1-56.576-23.52 209.824 209.824 0 0 1-71.728-71.728A208.08 208.08 0 0 1 64.96 848.8 209.44 209.44 0 0 1 55.84 788.224V397.008A209.84 209.84 0 0 1 117.072 249.28L278.24 88.096A209.936 209.936 0 0 1 425.824 26.88h140.896a209.44 209.44 0 0 1 207.84 188.432 211.872 211.872 0 0 1 1.056 20.464v66.976a32.048 32.048 0 0 1-22.72 30.624 32.24 32.24 0 0 1-18.56 0 31.696 31.696 0 0 1-13.344-8 31.888 31.888 0 0 1-9.376-22.624v-66.848a146.304 146.304 0 0 0-8.592-48.8 146.496 146.496 0 0 0-20.08-37.472 144.032 144.032 0 0 0-24.48-25.68 146.32 146.32 0 0 0-36.432-21.92A145.616 145.616 0 0 0 566.608 90.88h-140.672a145.072 145.072 0 0 0-70.768 18.48c0.496 2.208 0.752 4.432 0.752 6.688v190.048a31.248 31.248 0 0 1-3.632 14.544 30.832 30.832 0 0 1-27.2 16.288H132.896A145.152 145.152 0 0 0 119.84 397.088v391.024a145.424 145.424 0 0 0 89.648 133.872 145.024 145.024 0 0 0 55.44 11.152h224.656a32.048 32.048 0 0 1 30.624 22.72 32.112 32.112 0 0 1-4.016 27.056 31.536 31.536 0 0 1-8.832 8.832 32.288 32.288 0 0 1-14.64 5.232c-1.04 0.112-2.08 0.16-3.136 0.16l-224.752-0.016z m362.672-105.76v-0.624a30.848 30.848 0 0 1-28.016-17.088 31.024 31.024 0 0 1-1.104-25.168 30.88 30.88 0 0 1 4.256-7.504 40.32 40.32 0 0 1 30.928-15.008h2.88l1.92-1.872a43.456 43.456 0 0 0 7.328-28.48V513.28h-145.744A422.192 422.192 0 0 1 551.84 633.616a109.984 109.984 0 0 1-8 80.128 82.288 82.288 0 0 1-71.088 38.688c-1.6 0-2.656 0-3.328-0.08-0.992 0-1.984-0.16-2.944-0.304a85.44 85.44 0 0 1-57.248-28.768 85.344 85.344 0 0 1-12.176-18.128c-14.928-30.96-11.648-74.08 9.744-128.144a478.464 478.464 0 0 1 32.704-66.416c0.704-1.152 1.488-2.24 2.32-3.312a31.6 31.6 0 0 1-13.696-18.432 31.376 31.376 0 0 1-1.104-7.744 35.168 35.168 0 0 1 3.456-13.168 34.304 34.304 0 0 1 10.944-12.944 34.16 34.16 0 0 1 12.384-5.616 34.784 34.784 0 0 1 10.208-0.816h427.904a34.4 34.4 0 0 1 16.672 3.008 34.784 34.784 0 0 1 19.952 26.128c0.176 1.12 0.304 2.272 0.368 3.408a30.88 30.88 0 0 1-18.816 28.16 427.808 427.808 0 0 1 54.288 124.432 110.64 110.64 0 0 1 3.52 40.832 110.544 110.544 0 0 1-11.648 39.28 82.032 82.032 0 0 1-39.968 33.088 82.208 82.208 0 0 1-30.992 5.552c-1.6 0-2.656 0-3.328-0.08-0.992 0-1.968-0.16-2.944-0.304a85.44 85.44 0 0 1-57.248-28.768 85.344 85.344 0 0 1-12.176-18.128c-14.928-30.96-11.648-74.08 9.744-128.144 8.8-21.984 19.168-43.2 31.072-63.68h-139.904v282.576a38.272 38.272 0 0 0 9.6 28.8l1.6 1.6 2.224 0.304a39.152 39.152 0 0 1 25.184 10.96 30.352 30.352 0 0 1 8 32.864 31.008 31.008 0 0 1-15.792 17.824 31.088 31.088 0 0 1-14.176 3.136l-99.648-0.048zM871.68 676.32c0.944 1.968 3.104 6.4 14.912 8.624a13.136 13.136 0 0 0 10.176-4.8c1.36-2.32 9.904-20.4-14.4-76.24-18.8 48.72-12.944 67.776-10.688 72.416z m-412.608 0c0.944 1.968 3.104 6.4 14.896 8.624a13.376 13.376 0 0 0 10.304-4.88c1.36-2.336 9.92-20.432-14.4-76.272-18.928 48.816-13.056 67.888-10.832 72.528h0.032z"  /></svg>