<?xml version="1.0" standalone="no"?><!DOCTYPE svg PUBLIC "-//W3C//DTD SVG 1.1//EN" "http://www.w3.org/Graphics/SVG/1.1/DTD/svg11.dtd"><svg class="icon" width="200px" height="200.00px" viewBox="0 0 1024 1024" version="1.1" xmlns="http://www.w3.org/2000/svg"><path fill="#ffffff" d="M726.27824 1006.928l-214.56-96.16-214.88 97.504-1.28 0.224a31.52 31.52 0 0 1-11.2 0.4 32.64 32.64 0 0 1-9.92-0.368l-1.12-0.24-1.12-0.448-247.68-102.4a33.12 33.12 0 0 1-4.64-2.336 28.736 28.736 0 0 1-4.16-3.04 24.64 24.64 0 0 1-3.68-3.68 25.536 25.536 0 0 1-3.04-4.24 26.912 26.912 0 0 1-3.84-9.648 28.256 28.256 0 0 1-0.64-10.368V537.504h3.36c0.752-1.776 1.664-3.488 2.72-5.104l0.64-0.992 2.88-2.816c1.504-1.952 3.264-3.68 5.28-5.216l3.2-2.384h4.16l225.6-91.984V143.28l0.16-1.136a33.92 33.92 0 0 1 3.68-9.568c1.712-3.008 3.904-5.648 6.56-7.936l1.44-1.744c1.6-2.192 3.424-4.16 5.44-5.888l1.28-1.12 1.12-0.448L498.43824 16.896a33.008 33.008 0 0 1 25.12-0.032l232.48 101.008 1.28 1.104c2.032 1.632 3.792 3.472 5.28 5.504l2.56 2.672 0.64 1.008c1.6 2.4 2.832 4.992 3.68 7.744 0.96 2.752 1.504 5.568 1.6 8.448v284.704l226.88 94.016h4l3.2 2.72c1.92 1.632 3.632 3.456 5.12 5.504l2.56 2.608 0.64 0.96c1.072 1.632 1.984 3.328 2.72 5.12h3.36v334.912c0 1.6-0.096 3.168-0.32 4.736a23.52 23.52 0 0 1-1.12 4.624c-0.416 1.52-0.96 2.992-1.6 4.416-0.736 1.44-1.536 2.8-2.4 4.128-0.848 1.312-1.808 2.56-2.88 3.728a61.12 61.12 0 0 1-3.52 3.264c-1.28 0.992-2.56 1.904-3.84 2.72-1.376 0.8-2.816 1.504-4.32 2.112l-247.68 102.4c-4.048 1.76-8.32 2.64-12.8 2.624a31.552 31.552 0 0 1-12.8-2.72z m-184.32-433.216l0.16 282.32 197.12 86.544 215.52-88.912 0.16-280.288-214.4-87.904-198.56 88.24zM68.99824 853.52l183.2 75.504V675.392l-183.2-75.392v253.52z m247.68-178.8v252.88l160.96-72.192v-252.8l-160.96 72.112z m-194.72-123.04l162.72 66.976 147.84-66.624-147.84-66.288-162.72 65.936z m421.12-288.096v238.4l163.36-72.304V193.824l-163.36 69.76z m-226.24 166.096l161.76 72.224V263.6l-54.08-22.992-107.84-46.688 0.16 235.76z m49.76-284.8l144.96 62.576 145.92-64-145.76-61.872-145.12 63.296z m345.6 671.872l-85.92-72a58.608 58.608 0 0 1-2.24-2.128 26.112 26.112 0 0 1-2.08-2.352 95.68 95.68 0 0 1-1.92-2.56 123.008 123.008 0 0 1-1.6-2.704 200.848 200.848 0 0 1-1.28-2.848l-0.96-2.96a31.184 31.184 0 0 1-0.8-3.056 15.312 15.312 0 0 1-0.32-3.12 30.656 30.656 0 0 1 2.4-15.36c0.432-0.96 0.912-1.888 1.44-2.8a15.376 15.376 0 0 1 1.6-2.688 15.984 15.984 0 0 1 1.92-2.496 25.808 25.808 0 0 1 4.48-4.384 23.296 23.296 0 0 1 5.12-3.424c0.96-0.48 1.92-0.928 2.88-1.312 0.96-0.4 1.984-0.736 3.04-1.024a36.32 36.32 0 0 1 6.08-1.152 33.408 33.408 0 0 1 9.44 0.544c0.96 0.224 1.984 0.48 3.04 0.8a35.184 35.184 0 0 1 8.48 4.096c0.864 0.592 1.664 1.232 2.4 1.904l61.28 51.424 102.88-122.576a73.472 73.472 0 0 1 4.48-4.384 49.12 49.12 0 0 1 2.56-1.84c0.864-0.576 1.76-1.12 2.72-1.6a38.56 38.56 0 0 1 5.76-2.32 34.144 34.144 0 0 1 12.48-1.088c1.072 0.096 2.08 0.272 3.04 0.48 1.072 0.224 2.08 0.48 3.04 0.8 1.072 0.32 2.08 0.672 3.04 1.088 0.96 0.416 1.92 0.864 2.88 1.376a41.696 41.696 0 0 1 5.12 3.536c0.752 0.672 1.504 1.392 2.24 2.128 0.752 0.752 1.44 1.536 2.08 2.352 0.64 0.816 1.28 1.664 1.92 2.544 0.544 0.88 1.072 1.776 1.6 2.72 0.432 0.912 0.864 1.872 1.28 2.848 0.432 0.96 0.752 1.952 0.96 2.96a30.288 30.288 0 0 1 1.28 6.16v3.136a30.592 30.592 0 0 1-2.56 12.224 155.52 155.52 0 0 1-1.28 2.816c-0.528 0.928-1.12 1.808-1.76 2.688-0.528 0.864-1.12 1.696-1.76 2.496l-123.52 147.104a32.752 32.752 0 0 1-4.96 4.816 34.624 34.624 0 0 1-12.64 5.856 31.12 31.12 0 0 1-17.76-1.216c-3.52-1.28-6.72-3.152-9.6-5.568v0.064z"  /></svg>