<?xml version="1.0" standalone="no"?><!DOCTYPE svg PUBLIC "-//W3C//DTD SVG 1.1//EN" "http://www.w3.org/Graphics/SVG/1.1/DTD/svg11.dtd"><svg class="icon" width="200px" height="197.49px" viewBox="0 0 1037 1024" version="1.1" xmlns="http://www.w3.org/2000/svg"><path fill="#ffffff" d="M448.244859 1007.837009l-98.698163-87.99478-77.583308 79.39964a58.349653 58.349653 0 0 1-13.13597 10.135779 59.111864 59.111864 0 0 1-15.455036 6.162554 59.030778 59.030778 0 0 1-13.233273 1.735245 60.506547 60.506547 0 0 1-40.056599-14.109005 59.695685 59.695685 0 0 1-11.027728-12.325107L108.169197 885.08867a67.496181 67.496181 0 0 1-10.638514-27.585537 66.766404 66.766404 0 0 1-0.713558-9.89252V105.13641a102.606519 102.606519 0 0 1 15.000953-53.468262 103.790378 103.790378 0 0 1 27.617971-30.066775A105.639145 105.639145 0 0 1 186.757974 2.254197 106.790569 106.790569 0 0 1 202.229228 1.135207h633.445653a106.806786 106.806786 0 0 1 59.84164 18.601182 105.60671 105.60671 0 0 1 25.769205 25.136732 103.563337 103.563337 0 0 1 18.974179 49.884251 102.152437 102.152437 0 0 1-2.643411 35.645508 102.849778 102.849778 0 0 1-20.109386 39.894427 104.212027 104.212027 0 0 1-27.196323 23.596094 106.774352 106.774352 0 0 1-16.282115 7.995102V449.217732a31.607414 31.607414 0 0 1-9.503307 22.623059 31.931759 31.931759 0 0 1-10.524993 6.940981 32.029062 32.029062 0 0 1-9.227613 2.270415 33.002097 33.002097 0 0 1-21.195942-5.238171 31.672283 31.672283 0 0 1-8.95192-8.822182 32.369624 32.369624 0 0 1-4.848957-11.530462 32.418276 32.418276 0 0 1-0.616255-6.24364V209.007875H202.229228a33.034531 33.034531 0 0 1-18.017361-5.400343 31.98041 31.98041 0 0 1-13.022449-35.888767 31.818238 31.818238 0 0 1 13.022449-17.32002A32.499362 32.499362 0 0 1 202.229228 145.014619a41.062068 41.062068 0 0 0 28.688309-11.741286 40.137685 40.137685 0 0 0 11.076379-20.4986 39.424127 39.424127 0 0 0-6.081467-30.034341 40.024165 40.024165 0 0 0-14.627956-13.038666A40.753941 40.753941 0 0 0 198.174916 65.193331a41.029634 41.029634 0 0 0-24.682649 11.595332 40.17012 40.17012 0 0 0-11.043945 20.514817A39.488996 39.488996 0 0 0 161.686111 105.13641v742.49042c0 0.810862 0.210824 1.524421 0.664907 2.189328l67.350226 100.498278 76.577838-78.394171a59.598381 59.598381 0 0 1 29.596475-16.525374 60.003813 60.003813 0 0 1 22.817666-0.778428 60.976847 60.976847 0 0 1 21.471635 7.735627 59.614599 59.614599 0 0 1 9.211396 6.730157l98.763032 88.010998 28.818047-28.445051a31.964193 31.964193 0 0 1 10.541211-6.924764 32.499362 32.499362 0 0 1 15.568556-2.270415 33.148052 33.148052 0 0 1 14.854998 5.238171 32.012845 32.012845 0 0 1 13.768443 32.856142 31.283069 31.283069 0 0 1-4.865174 11.546679 31.51011 31.51011 0 0 1-4.021878 4.848957l-32.223669 31.785803a59.647033 59.647033 0 0 1-29.482954 15.925337 61.576885 61.576885 0 0 1-16.930805 1.23251 60.328157 60.328157 0 0 1-35.921202-15.065822v0.016217zM307.511593 105.13641a101.649702 101.649702 0 0 1-8.108623 39.99173h536.207042a41.029634 41.029634 0 0 0 32.98588-13.784659 40.089034 40.089034 0 0 0 9.633045-22.08789 39.05113 39.05113 0 0 0-1.65416-16.071292 39.570082 39.570082 0 0 0-10.83312-17.060543 40.64042 40.64042 0 0 0-30.131645-10.865556H299.435404a102.038916 102.038916 0 0 1 8.076189 39.87821zM638.78129 875.893491v-33.796742a2.52989 2.52989 0 0 1 0.518952-1.556856 2.70828 2.70828 0 0 1 2.205545-1.070338 2.724497 2.724497 0 0 1 1.556856 0.551386c0.227041 0.162172 0.421648 0.372997 0.583821 0.600038 16.865937 23.563659 75.961583 41.597238 146.117392 41.597238s129.251456-17.709233 146.13361-41.597238a2.610977 2.610977 0 0 1 1.686593-1.135207 2.627194 2.627194 0 0 1 2.010939 0.405431 2.659628 2.659628 0 0 1 1.183859 2.205546v33.796742c0 30.893855-67.658353 55.754894-150.998784 55.754894s-150.998783-24.909691-150.998783-55.754894z m0-78.880688v-33.796742a2.578542 2.578542 0 0 1 0.778428-1.864983 2.692063 2.692063 0 0 1 4.11918 0.389214c16.882154 23.547442 75.961583 41.28911 146.13361 41.28911 70.172026 0 129.235238-17.725451 146.133609-41.613455a2.610977 2.610977 0 0 1 2.724498-1.135207 2.594759 2.594759 0 0 1 1.832549 1.362248 2.594759 2.594759 0 0 1 0.324345 1.232511v34.267042c0 30.877638-67.642136 55.754894-150.998784 55.754894s-151.047435-25.006994-151.047435-55.884632z m0-79.172598v-34.380563a2.546108 2.546108 0 0 1 0.518952-1.573073 2.70828 2.70828 0 0 1 2.205545-1.054121 2.724497 2.724497 0 0 1 1.556856 0.551387c0.227041 0.162172 0.421648 0.372997 0.583821 0.600038 16.882154 24.001525 75.961583 41.597238 146.133609 41.597237 70.172026 0 129.235238-17.709233 146.13361-41.597237a2.594759 2.594759 0 0 1 1.686593-1.135207 2.675846 2.675846 0 0 1 3.194798 2.594759v34.21839c0 31.023593-67.642136 55.83598-150.998783 55.835981s-151.015001-24.79617-151.015001-55.657591z m0.162172-80.794323c0-30.7479 67.512398-55.787328 150.998784-55.787328s150.998783 24.893474 150.998783 55.787328c0 30.877638-67.512398 55.771111-150.998783 55.771112s-150.998783-25.023212-150.998784-55.787329z m-348.80054-59.809205a33.002097 33.002097 0 0 1-18.017361-5.400343 32.872359 32.872359 0 0 1-8.95192-8.822183 32.110148 32.110148 0 0 1-5.30304-14.644173 31.493893 31.493893 0 0 1 5.30304-20.920248 31.429024 31.429024 0 0 1 6.389595-6.957199 32.077714 32.077714 0 0 1 11.157465-5.886861 33.650787 33.650787 0 0 1 9.422221-1.378466h227.041453a33.002097 33.002097 0 0 1 18.017361 5.400343 32.077714 32.077714 0 0 1 14.271177 29.742431 32.33719 32.33719 0 0 1-3.681315 11.952111 32.110148 32.110148 0 0 1-19.185003 15.536122 32.6291 32.6291 0 0 1-9.42222 1.378466h-227.041453z m0-159.999356a33.002097 33.002097 0 0 1-18.017361-5.400343 32.077714 32.077714 0 0 1-14.271177-29.74243 31.542545 31.542545 0 0 1 7.216674-17.157847 32.175017 32.175017 0 0 1 15.649643-10.330386 32.6291 32.6291 0 0 1 9.422221-1.378466h129.737973a33.002097 33.002097 0 0 1 18.017361 5.400343 32.045279 32.045279 0 0 1 14.271177 29.74243 32.418276 32.418276 0 0 1-2.319066 9.114093 31.86689 31.86689 0 0 1-11.952111 14.352263 32.937228 32.937228 0 0 1-18.017361 5.400343h-129.737973z"  /></svg>