<?xml version="1.0" standalone="no"?><!DOCTYPE svg PUBLIC "-//W3C//DTD SVG 1.1//EN" "http://www.w3.org/Graphics/SVG/1.1/DTD/svg11.dtd"><svg class="icon" width="200px" height="197.11px" viewBox="0 0 1039 1024" version="1.1" xmlns="http://www.w3.org/2000/svg"><path fill="#ffffff" d="M671.999895 792.000036c0-2.688 0.112-5.359999 0.32-7.999999H335.679948a99.727984 99.727984 0 0 1 0.16 13.887998 107.711983 107.711983 0 0 1-0.48 5.871999l-0.64 5.839999c-0.32 1.952-0.688 3.887999-1.12 5.808-0.32 1.92-0.752 3.839999-1.28 5.759999-0.432 1.888-0.912 3.791999-1.44 5.663999l-1.919999 5.599999a105.407984 105.407984 0 0 1-7.199999 16.127997 55.711991 55.711991 0 0 1-2.88 5.12 98.239985 98.239985 0 0 1-3.039999 4.991999 348.751946 348.751946 0 0 1-7.039999 9.439998c-1.28 1.536-2.56 3.024-3.84 4.48a258.39996 258.39996 0 0 1-8.319998 8.319998c-1.488 1.328-2.992 2.608-4.48 3.84l-4.639999 3.631999c-1.6 1.168-3.2 2.304-4.799999 3.392a171.359973 171.359973 0 0 1-10.239999 6.047999 144.319977 144.319977 0 0 1-5.119999 2.655999 145.999977 145.999977 0 0 1-10.879998 4.512 227.199965 227.199965 0 0 1-5.599999 1.839999 132.831979 132.831979 0 0 1-17.279997 3.872 111.135983 111.135983 0 0 1-11.679999 1.152 125.18398 125.18398 0 0 1-17.759997-0.432 119.935981 119.935981 0 0 1-17.279997-3.024c-1.92-0.48-3.839999-0.992-5.759999-1.568a227.199965 227.199965 0 0 1-5.599999-1.839999 138.591978 138.591978 0 0 1-10.879999-4.512 402.479937 402.479937 0 0 1-5.279999-2.655999 161.599975 161.599975 0 0 1-5.119999-2.896 1026.71984 1026.71984 0 0 1-4.959999-3.151999c-1.6-1.088-3.2-2.224-4.8-3.392a92.079986 92.079986 0 0 1-4.639999-3.615999 208.239967 208.239967 0 0 1-4.479999-3.84 223.615965 223.615965 0 0 1-8.319999-8.335998c-1.28-1.456-2.56-2.944-3.839999-4.48a97.999985 97.999985 0 0 1-3.68-4.639999 208.527967 208.527967 0 0 0-3.359999-4.799999 97.071985 97.071985 0 0 1-3.04-4.975999 102.031984 102.031984 0 0 1-3.039999-5.12 631.759901 631.759901 0 0 1-2.56-5.279999 103.551984 103.551984 0 0 1-4.479999-10.879998 1447.679774 1447.679774 0 0 1-1.92-5.583999l-1.6-5.679999-1.279999-5.743999-0.96-5.808a54.143992 54.143992 0 0 1-0.64-5.839999A107.391983 107.391983 0 0 1 96.319985 784.000037H95.999985a90.303986 90.303986 0 0 1-9.439999-0.479999 115.567982 115.567982 0 0 1-9.279998-1.392c-1.488-0.304-3.04-0.64-4.639999-1.024a99.775984 99.775984 0 0 1-21.919997-8.479999 63.67999 63.67999 0 0 1-3.999999-2.319999 66.11199 66.11199 0 0 1-4-2.528 138.319978 138.319978 0 0 1-3.839999-2.72 64.15999 64.15999 0 0 1-3.679999-2.879999 68.591989 68.591989 0 0 1-7.039999-6.335999 201.839968 201.839968 0 0 1-6.399999-6.975999 250.239961 250.239961 0 0 1-2.88-3.711999 122.655981 122.655981 0 0 0-2.72-3.84 63.45599 63.45599 0 0 1-2.399999-3.999999 68.079989 68.079989 0 0 1-4.479999-8.287999l-1.92-4.319999a69.487989 69.487989 0 0 1-3.2-8.847999 983.679846 983.679846 0 0 1-1.279999-4.543999l-0.96-4.591999a69.663989 69.663989 0 0 1-0.8-4.64 35.007995 35.007995 0 0 1-0.64-4.671999l-0.32-4.703999A68.943989 68.943989 0 0 1 0 688.000052V208.000127c0-1.568 0.048-3.136 0.16-4.703999l0.32-4.703999c0.112-1.568 0.32-3.12 0.64-4.671999 0.208-1.552 0.48-3.104 0.8-4.64l0.96-4.591999 1.279999-4.543999a67.03999 67.03999 0 0 1 3.2-8.863999l1.92-4.303999a66.83199 66.83199 0 0 1 4.479999-8.303999c0.752-1.344 1.552-2.672 2.399999-3.983999 0.96-1.296 1.872-2.576 2.72-3.84 0.96-1.264 1.92-2.496 2.88-3.711999a218.783966 218.783966 0 0 1 6.399999-6.975999 63.50399 63.50399 0 0 1 7.039999-6.335999 64.15999 64.15999 0 0 1 3.679999-2.879999c1.28-0.96 2.56-1.856 3.839999-2.72 1.28-0.88 2.608-1.712 4-2.528a63.80799 63.80799 0 0 1 8.319998-4.447999c1.392-0.672 2.832-1.296 4.32-1.92a107.039983 107.039983 0 0 1 13.279998-4.431999c1.6-0.384 3.152-0.72 4.639999-1.024 1.488-0.32 3.04-0.592 4.639999-0.816A100.879984 100.879984 0 0 1 95.999985 112.000142h479.999925a90.079986 90.079986 0 0 1 9.439999 0.48 116.639982 116.639982 0 0 1 9.279998 1.376 101.759984 101.759984 0 0 1 18.079997 5.471999c1.392 0.608 2.768 1.248 4.16 1.92a71.743989 71.743989 0 0 1 8.319998 4.447999c1.392 0.8 2.72 1.648 4 2.512 1.28 0.88 2.56 1.776 3.839999 2.72 1.28 0.928 2.512 1.904 3.68 2.895999a67.551989 67.551989 0 0 1 7.039998 6.319999 200.639969 200.639969 0 0 1 6.399999 6.991999c0.96 1.2 1.92 2.448 2.88 3.711999 0.848 1.248 1.76 2.544 2.72 3.84 0.848 1.312 1.648 2.64 2.399999 3.983999a67.327989 67.327989 0 0 1 4.479999 8.303999c0.752 1.424 1.392 2.848 1.92 4.303999a67.999989 67.999989 0 0 1 3.2 8.863999l1.279999 4.543999 0.96 4.591999c0.32 1.536 0.592 3.088 0.8 4.64 0.32 1.552 0.528 3.104 0.64 4.671999 0.208 1.568 0.32 3.136 0.32 4.703999 0.112 1.568 0.16 3.136 0.16 4.703999v99.007985a83.023987 83.023987 0 0 1 22.079997-2.992h81.439987a108.335983 108.335983 0 0 1 21.919996 2.24 109.775983 109.775983 0 0 1 31.039996 11.407998c3.311999 1.776 6.447999 3.711999 9.439998 5.807999 3.088 2.08 6.031999 4.319999 8.799999 6.719999 2.768 2.384 5.439999 4.895999 7.999998 7.551999l135.359979 138.239979c2.672 2.8 5.231999 5.727999 7.679999 8.767998 2.352 3.04 4.591999 6.191999 6.719999 9.455999 2.128 3.263999 4.111999 6.623999 5.919999 10.079998 1.712 3.439999 3.311999 6.959999 4.799999 10.559999 1.488 3.615999 2.768 7.279999 3.84 11.007998a134.831979 134.831979 0 0 1 4.479999 22.831996c0.32 3.871999 0.48 7.743999 0.48 11.631998v138.623979l-0.32 4.287999c-0.112 1.44-0.272 2.848-0.48 4.271999-0.112 1.44-0.32 2.848-0.64 4.256a57.695991 57.695991 0 0 1-1.919999 8.399998l-1.28 4.112a57.167991 57.167991 0 0 1-3.2 7.999999 55.679991 55.679991 0 0 1-3.839999 7.679998l-2.24 3.68c-0.752 1.2-1.552 2.384-2.399999 3.551999-0.848 1.168-1.712 2.32-2.56 3.44-0.96 1.12-1.872 2.24-2.72 3.311999-0.96 1.088-1.968 2.144-3.039999 3.168-0.96 1.04-1.968 2.048-3.04 3.039999a148.799977 148.799977 0 0 1-3.199999 2.88 56.031991 56.031991 0 0 1-3.36 2.703999c-1.072 0.88-2.24 1.728-3.519999 2.544-1.168 0.816-2.352 1.6-3.52 2.368-1.168 0.768-2.4 1.488-3.679999 2.191999a111.695983 111.695983 0 0 1-7.679999 3.84c-1.392 0.56-2.72 1.12-3.999999 1.615999a102.351984 102.351984 0 0 1-12.479998 3.68 86.847986 86.847986 0 0 1-16.959998 2.031999h-26.239995a99.727984 99.727984 0 0 1 0.16 13.887998 107.711983 107.711983 0 0 1-0.48 5.871999l-0.64 5.839999c-0.32 1.952-0.688 3.887999-1.12 5.808-0.32 1.92-0.752 3.839999-1.28 5.759999-0.432 1.888-0.912 3.791999-1.44 5.663999l-1.919999 5.599999a105.407984 105.407984 0 0 1-7.199999 16.127997 55.711991 55.711991 0 0 1-2.88 5.12 98.239985 98.239985 0 0 1-3.039999 4.991999 348.751946 348.751946 0 0 1-7.039999 9.439998c-1.28 1.536-2.56 3.024-3.84 4.48a258.39996 258.39996 0 0 1-8.319998 8.319998c-1.488 1.328-2.992 2.608-4.48 3.84l-4.639999 3.631999c-1.6 1.168-3.2 2.304-4.799999 3.392a171.359973 171.359973 0 0 1-10.239999 6.047999 144.319977 144.319977 0 0 1-5.119999 2.655999 145.999977 145.999977 0 0 1-10.879998 4.512 227.199965 227.199965 0 0 1-5.599999 1.839999 132.831979 132.831979 0 0 1-17.279997 3.872 111.135983 111.135983 0 0 1-11.679999 1.152 125.18398 125.18398 0 0 1-17.759997-0.432 119.935981 119.935981 0 0 1-17.279997-3.024 135.199979 135.199979 0 0 1-5.759999-1.568 227.199965 227.199965 0 0 1-5.599999-1.855999 138.591978 138.591978 0 0 1-10.879999-4.496 399.071938 399.071938 0 0 1-5.279999-2.655999 161.279975 161.279975 0 0 1-5.119999-2.896l-4.959999-3.151999c-1.6-1.104-3.2-2.24-4.8-3.392a92.767986 92.767986 0 0 1-4.639999-3.631999 204.415968 204.415968 0 0 1-4.479999-3.84 218.767966 218.767966 0 0 1-8.319999-8.319998c-1.28-1.472-2.56-2.944-3.839999-4.48a325.199949 325.199949 0 0 1-7.039999-9.439998 98.239985 98.239985 0 0 1-3.04-4.991999 55.679991 55.679991 0 0 1-2.879999-5.12 102.287984 102.287984 0 0 1-7.199999-16.143997 1582.079753 1582.079753 0 0 1-1.92-5.599999 1571.423754 1571.423754 0 0 1-1.6-5.663999l-1.279999-5.743999-0.96-5.808a54.207992 54.207992 0 0 1-0.64-5.839999A107.967983 107.967983 0 0 1 671.999895 792.000036z m63.99999 0c0 1.84 0.112 3.663999 0.32 5.487999 0.112 1.824 0.368 3.631999 0.8 5.44a46.479993 46.479993 0 0 0 3.199999 10.495998 44.223993 44.223993 0 0 0 5.12 9.679998c1.072 1.536 2.128 3.008 3.199999 4.416 1.168 1.424 2.448 2.784 3.839999 4.079999 1.28 1.296 2.608 2.528 4 3.679999 1.392 1.168 2.88 2.256 4.479999 3.28a52.015992 52.015992 0 0 0 9.599999 5.183999c1.712 0.704 3.407999 1.312 5.119999 1.84a61.43999 61.43999 0 0 0 10.879998 2.144 55.279991 55.279991 0 0 0 16.319998-0.8 61.43999 61.43999 0 0 0 5.439999-1.344c1.712-0.528 3.407999-1.136 5.119999-1.84a51.967992 51.967992 0 0 0 9.599998-5.183999c1.6-1.024 3.088-2.112 4.48-3.264 1.392-1.168 2.768-2.4 4.159999-3.695999 1.28-1.296 2.512-2.656 3.679999-4.079999 1.072-1.408 2.128-2.88 3.2-4.416a44.271993 44.271993 0 0 0 5.119999-9.679998 46.047993 46.047993 0 0 0 3.2-10.495998c0.432-1.808 0.688-3.615999 0.8-5.44a47.375993 47.375993 0 0 0 0-10.975998 31.439995 31.439995 0 0 0-0.8-5.439999 46.479993 46.479993 0 0 0-3.2-10.495998 44.223993 44.223993 0 0 0-5.119999-9.679999 157.487975 157.487975 0 0 0-3.2-4.415999 62.33599 62.33599 0 0 0-3.679999-4.08 103.599984 103.599984 0 0 0-4.159999-3.679999 42.335993 42.335993 0 0 0-4.48-3.279999 52.015992 52.015992 0 0 0-9.599998-5.184 61.96799 61.96799 0 0 0-5.119999-1.839999 62.03199 62.03199 0 0 0-10.879999-2.144 54.799991 54.799991 0 0 0-16.319997 0.8c-1.808 0.368-3.631999 0.8-5.439999 1.344a61.96799 61.96799 0 0 0-5.119999 1.839999 51.967992 51.967992 0 0 0-9.599999 5.184c-1.6 1.024-3.088 2.112-4.479999 3.263999-1.392 1.168-2.72 2.4-4 3.695999a44.079993 44.079993 0 0 0-3.839999 4.08c-1.072 1.408-2.128 2.88-3.199999 4.415999a44.271993 44.271993 0 0 0-5.12 9.679999 46.047993 46.047993 0 0 0-3.199999 10.495998 31.439995 31.439995 0 0 0-0.8 5.439999c-0.208 1.824-0.32 3.647999-0.32 5.487999z m-575.99991 0c0 1.84 0.112 3.663999 0.32 5.487999 0.112 1.824 0.368 3.631999 0.8 5.44a46.479993 46.479993 0 0 0 3.199999 10.495998 44.223993 44.223993 0 0 0 5.12 9.679998c1.072 1.536 2.128 3.008 3.199999 4.416 1.168 1.424 2.448 2.784 3.839999 4.079999 1.28 1.296 2.608 2.528 4 3.679999 1.392 1.168 2.88 2.256 4.479999 3.28a52.015992 52.015992 0 0 0 9.599999 5.183999c1.712 0.704 3.407999 1.312 5.119999 1.84a61.43999 61.43999 0 0 0 10.879998 2.144 55.279991 55.279991 0 0 0 16.319998-0.8 61.43999 61.43999 0 0 0 5.439999-1.344c1.712-0.528 3.407999-1.136 5.119999-1.84a51.967992 51.967992 0 0 0 9.599998-5.183999c1.6-1.024 3.088-2.112 4.48-3.264 1.392-1.168 2.72-2.4 3.999999-3.695999 1.392-1.296 2.672-2.656 3.839999-4.079999 1.072-1.408 2.128-2.88 3.2-4.416a44.271993 44.271993 0 0 0 5.119999-9.679998 46.047993 46.047993 0 0 0 3.2-10.495998c0.432-1.808 0.688-3.615999 0.8-5.44a47.375993 47.375993 0 0 0 0-10.975998 31.439995 31.439995 0 0 0-0.8-5.439999 46.479993 46.479993 0 0 0-3.2-10.495998 44.223993 44.223993 0 0 0-5.119999-9.679999 157.487975 157.487975 0 0 0-3.2-4.415999 44.079993 44.079993 0 0 0-3.839999-4.08 57.967991 57.967991 0 0 0-3.999999-3.679999 42.335993 42.335993 0 0 0-4.48-3.279999 52.015992 52.015992 0 0 0-9.599998-5.184 61.96799 61.96799 0 0 0-5.119999-1.839999 62.03199 62.03199 0 0 0-10.879999-2.144 54.799991 54.799991 0 0 0-16.319997 0.8c-1.808 0.368-3.631999 0.8-5.439999 1.344a61.96799 61.96799 0 0 0-5.119999 1.839999 51.967992 51.967992 0 0 0-9.599999 5.184c-1.6 1.024-3.088 2.112-4.479999 3.263999-1.392 1.168-2.72 2.4-4 3.695999a44.079993 44.079993 0 0 0-3.839999 4.08c-1.072 1.408-2.128 2.88-3.199999 4.415999a44.271993 44.271993 0 0 0-5.12 9.679999 46.047993 46.047993 0 0 0-3.199999 10.495998 31.439995 31.439995 0 0 0-0.8 5.439999c-0.208 1.824-0.32 3.647999-0.32 5.487999zM937.919853 720.000047a23.311996 23.311996 0 0 0 6.719999-1.535999c0.752-0.288 1.488-0.592 2.24-0.944a29.983995 29.983995 0 0 0 5.599999-3.999999 9.391999 9.391999 0 0 0 1.6-1.68 16.159997 16.159997 0 0 0 1.44-1.824c0.528-0.64 0.96-1.28 1.28-1.968a16.687997 16.687997 0 0 0 1.919999-4.239999 8.639999 8.639999 0 0 0 0.64-2.24 16.975997 16.975997 0 0 0 0.64-4.607999V560.320072c0-3.647999-0.32-7.263999-0.96-10.847998a51.295992 51.295992 0 0 0-3.039999-10.463998 63.56799 63.56799 0 0 0-4.96-9.695999 65.48799 65.48799 0 0 0-6.719999-8.559998l-135.359978-138.239979a45.439993 45.439993 0 0 0-15.199998-10.655998 46.463993 46.463993 0 0 0-18.399997-3.84h-81.279987a24.591996 24.591996 0 0 0-11.039999 3.648 14.335998 14.335998 0 0 0-1.759999 1.344 15.855998 15.855998 0 0 0-1.76 1.503999c-0.64 0.544-1.232 1.104-1.76 1.68a64.63999 64.63999 0 0 0-1.28 1.84 9.119999 9.119999 0 0 0-1.279999 1.952 16.799997 16.799997 0 0 0-1.92 4.239999 8.591999 8.591999 0 0 0-0.64 2.24 16.911997 16.911997 0 0 0-0.64 4.607999V696.960051a16.863997 16.863997 0 0 0 0.64 4.607999c0.112 0.768 0.32 1.504 0.64 2.24a16.431997 16.431997 0 0 0 1.92 4.255999 9.119999 9.119999 0 0 0 1.279999 1.952c0.432 0.64 0.912 1.248 1.44 1.824a46.399993 46.399993 0 0 0 1.6 1.68c0.528 0.544 1.12 1.056 1.76 1.519999 0.64 0.48 1.28 0.928 1.919999 1.344 0.64 0.416 1.328 0.8 2.08 1.136 0.64 0.352 1.328 0.672 2.08 0.96a26.463996 26.463996 0 0 0 6.719999 1.519999h1.919999c2.768-3.711999 5.759999-7.263999 8.959999-10.623998 3.2-3.359999 6.559999-6.543999 10.079998-9.519998 3.631999-2.976 7.359999-5.727999 11.199999-8.271999a128.15998 128.15998 0 0 1 24.799996-12.415998c4.367999-1.6 8.847999-2.912 13.439998-3.968a117.919982 117.919982 0 0 1 27.519995-3.199999 119.119981 119.119981 0 0 1 40.959994 7.167999c4.367999 1.568 8.591999 3.407999 12.639998 5.487999 4.159999 2.08 8.207999 4.383999 12.159998 6.927999 3.839999 2.544 7.567999 5.295999 11.199998 8.271999 3.519999 2.976 6.879999 6.143999 10.079999 9.519998 3.2 3.359999 6.191999 6.911999 8.959998 10.623998h49.919992zM575.99991 720.000047a33.471995 33.471995 0 0 0 6.239999-0.607999c1.072-0.208 2.08-0.48 3.04-0.768a23.359996 23.359996 0 0 0 5.759999-2.4c0.96-0.496 1.872-1.04 2.719999-1.616 0.848-0.576 1.712-1.2 2.56-1.871999a56.415991 56.415991 0 0 0 4.479999-4.432c0.64-0.8 1.232-1.648 1.76-2.527999a15.679998 15.679998 0 0 0 1.6-2.688c0.528-0.928 1.008-1.872 1.439999-2.847999a15.151998 15.151998 0 0 0 0.96-2.944A29.727995 29.727995 0 0 0 607.999905 688.000052V208.000127a30.655995 30.655995 0 0 0-1.44-9.279998 15.151998 15.151998 0 0 0-0.96-2.96 29.279995 29.279995 0 0 0-1.439999-2.847999 15.615998 15.615998 0 0 0-1.6-2.688 25.647996 25.647996 0 0 0-1.76-2.527999 72.527989 72.527989 0 0 0-4.479999-4.432 50.271992 50.271992 0 0 0-2.56-1.871999 25.567996 25.567996 0 0 0-2.719999-1.6 23.311996 23.311996 0 0 0-5.759999-2.4 37.151994 37.151994 0 0 0-6.079999-1.216 33.359995 33.359995 0 0 0-3.2-0.176H95.999985a33.343995 33.343995 0 0 0-6.239999 0.608c-1.072 0.208-2.08 0.48-3.04 0.768a23.423996 23.423996 0 0 0-5.759999 2.4c-0.96 0.496-1.872 1.04-2.719999 1.616a50.351992 50.351992 0 0 0-2.56 1.871999 58.159991 58.159991 0 0 0-4.479999 4.432 25.919996 25.919996 0 0 0-1.76 2.527999 15.727998 15.727998 0 0 0-1.6 2.688 29.279995 29.279995 0 0 0-1.439999 2.847999 15.151998 15.151998 0 0 0-0.96 2.944A29.967995 29.967995 0 0 0 63.99999 208.000127v479.999925a30.575995 30.575995 0 0 0 1.44 9.279999 15.135998 15.135998 0 0 0 0.96 2.96c0.432 0.96 0.912 1.92 1.439999 2.847999 0.432 0.928 0.96 1.824 1.6 2.688 0.528 0.88 1.12 1.712 1.76 2.527999a74.847988 74.847988 0 0 0 4.479999 4.432c0.848 0.672 1.712 1.28 2.56 1.871999 0.848 0.576 1.76 1.12 2.719999 1.6a23.455996 23.455996 0 0 0 5.759999 2.4c0.96 0.32 1.968 0.576 3.04 0.784A33.439995 33.439995 0 0 0 95.999985 720.000047h23.999996c2.768-3.711999 5.759999-7.263999 8.959999-10.623998 3.2-3.359999 6.559999-6.543999 10.079998-9.519998 3.631999-2.976 7.359999-5.727999 11.199999-8.271999a127.83998 127.83998 0 0 1 24.799996-12.415998c4.367999-1.6 8.847999-2.912 13.439998-3.968a117.919982 117.919982 0 0 1 27.519995-3.199999 119.823981 119.823981 0 0 1 40.959994 7.167999 128.15998 128.15998 0 0 1 24.799996 12.415998c3.839999 2.544 7.567999 5.295999 11.199998 8.271999 3.519999 2.976 6.879999 6.143999 10.079999 9.519998 3.2 3.359999 6.191999 6.911999 8.959998 10.623998H575.99991z m-111.039983-64.287989c-23.519996 0-28.479996-4.447999-28.479995-27.839996v-60.703991c1.12-22.271997 6.079999-27.839996 28.479995-27.839995h62.399991c23.359996 0 28.319996 4.447999 28.319995 27.839995v60.703991c0 23.391996-4.959999 27.839996-28.319995 27.839996h-62.399991z m-159.359975 0c-23.999996 0-28.319996-4.447999-28.319995-27.839996v-60.703991c0-22.271997 4.959999-27.839996 28.319995-27.839995h60.799991c23.999996 0 28.319996 4.447999 28.319995 27.839995v60.703991c0 23.391996-4.479999 27.839996-28.319995 27.839996h-60.799991z m-160.959975 0c-23.359996 0-28.319996-4.447999-28.319995-27.839996v-60.703991c0-22.271997 5.599999-27.839996 28.319995-27.839995h61.919991c23.359996 0 28.319996 4.447999 28.319995 27.839995v60.703991c0 23.391996-4.959999 27.839996-28.319995 27.839996H144.639977z m320.31995-149.247977c-23.359996 0-28.479996-4.447999-28.479995-27.855996v-61.24799c1.12-23.391996 6.079999-27.839996 28.479995-27.839996h62.399991c23.359996 0 28.319996 4.447999 28.319995 27.839996v61.26399c0 23.391996-4.959999 27.855996-28.319995 27.855996l-62.399991-0.016z m-159.359975 0c-23.999996 0-28.319996-4.447999-28.319995-27.855996v-61.24799c0-23.391996 4.959999-27.839996 28.319995-27.839996h60.799991c23.999996 0 28.319996 4.447999 28.319995 27.839996v61.26399c0 23.391996-4.479999 27.855996-28.319995 27.855996l-60.799991-0.016z m159.359975-149.807977c-23.359996 0-28.479996-4.447999-28.479995-27.855995v-62.399991c1.12-21.711997 6.079999-26.175996 28.479995-26.175996h62.399991c23.359996 0 28.319996 4.463999 28.319995 27.855996v60.687991c0 23.407996-4.959999 27.855996-28.319995 27.855995l-62.399991 0.032z"  /></svg>