<?xml version="1.0" standalone="no"?><!DOCTYPE svg PUBLIC "-//W3C//DTD SVG 1.1//EN" "http://www.w3.org/Graphics/SVG/1.1/DTD/svg11.dtd"><svg class="icon" width="200px" height="200.00px" viewBox="0 0 1024 1024" version="1.1" xmlns="http://www.w3.org/2000/svg"><path fill="#ffffff" d="M80.64 418.688C80.64 189.152 274.848 0 511.936 0s431.296 189.152 431.296 418.688C943.232 741.536 511.936 1024 511.936 1024S80.64 744 80.64 418.688zM368.768 91.744a370.016 370.016 0 0 0-117.184 77.008 356.768 356.768 0 0 0-91.312 146.016 338.48 338.48 0 0 0-16.288 103.904A412.192 412.192 0 0 0 202.72 618.4a874.992 874.992 0 0 0 137.296 178.944 1397.472 1397.472 0 0 0 171.776 149.088A1418.832 1418.832 0 0 0 683.84 796.496a883.712 883.712 0 0 0 137.392-179.2 409.92 409.92 0 0 0 58.656-198.624 338.24 338.24 0 0 0-28.8-136.8 356.64 356.64 0 0 0-78.8-113.12 375.344 375.344 0 0 0-137.824-84.672 374.384 374.384 0 0 0-147.12-19.872 375.168 375.168 0 0 0-118.576 27.536z m-51.728 534.4a276.208 276.208 0 1 1 194.896 80.48 273.44 273.44 0 0 1-153.168-46.128 273.408 273.408 0 0 1-41.728-34.304v-0.048z m44.8-344.944a211.52 211.52 0 0 0-36.528 48.56 209.856 209.856 0 0 0-14.752 33.408 212.896 212.896 0 0 0 11.84 165.76 212.288 212.288 0 0 0 52.832 66.288 214.4 214.4 0 0 0 40.64 26.784 213.008 213.008 0 0 0 142.32 17.792 211.808 211.808 0 0 0 56.8-21.552 213.2 213.2 0 0 0 64.512-55.04 214.464 214.464 0 0 0 25.392-41.504 212.16 212.16 0 0 0 18.912-70.288A211.84 211.84 0 0 0 720.64 390.72a213.872 213.872 0 0 0-14.848-46.336 212.4 212.4 0 0 0-58.832-76.736 210.912 210.912 0 0 0-40.896-26.384 212.24 212.24 0 0 0-81.968-21.616 213.488 213.488 0 0 0-12.192-0.352 210.32 210.32 0 0 0-100.032 24.848 210.416 210.416 0 0 0-49.968 37.104l-0.048-0.048zM661.44 498.784l-127.264-34.112a23.728 23.728 0 0 1-22.368 15.632 23.68 23.68 0 0 1-18.224-8.496 23.792 23.792 0 0 1-5.552-15.296v-4.192l-10.16-2.72a24.128 24.128 0 0 1-9.84-5.392 23.952 23.952 0 0 1-7.44-13.648 23.584 23.584 0 0 1 2.608-15.36 24.048 24.048 0 0 1 9.488-9.44 23.904 23.904 0 0 1 15.344-2.56v-105.232a23.696 23.696 0 0 1 8.688-18.4 23.696 23.696 0 0 1 24.224-3.616 23.584 23.584 0 0 1 10.672 8.784 23.28 23.28 0 0 1 3.552 8.592 23.472 23.472 0 0 1 0.448 4.64v117.856l138.08 36.976a24.224 24.224 0 0 1 8.496 4 24.464 24.464 0 0 1 6.288 7.008 23.68 23.68 0 0 1 1.76 20.496 24.32 24.32 0 0 1-4.992 7.968 23.52 23.52 0 0 1-12.176 6.88 23.84 23.84 0 0 1-11.696-0.4l0.064 0.032z"  /></svg>