<?xml version="1.0" standalone="no"?><!DOCTYPE svg PUBLIC "-//W3C//DTD SVG 1.1//EN" "http://www.w3.org/Graphics/SVG/1.1/DTD/svg11.dtd"><svg class="icon" width="200px" height="200.00px" viewBox="0 0 1024 1024" version="1.1" xmlns="http://www.w3.org/2000/svg"><path d="M524.32 985.392V649.392h-48v336a32.048 32.048 0 0 1-22.72 30.624 32.24 32.24 0 0 1-18.56 0 31.712 31.712 0 0 1-13.344-8A31.888 31.888 0 0 1 412.32 985.392V367.152l-1.136 1.696c-4.48 7.04-7.904 14.56-10.288 22.576v138.288a31.904 31.904 0 0 1-6.64 19.504l-70.192 91.2a32.352 32.352 0 0 1-12.176 10.032 31.488 31.488 0 0 1-12.304 3.024 32.08 32.08 0 0 1-29.152-16.176A31.968 31.968 0 0 1 273.36 601.392l63.552-82.624v-131.424c0-2.24 0.224-4.432 0.688-6.608a150.192 150.192 0 0 1 19.904-46.704 104.672 104.672 0 0 1 89.344-50.544c62.128-0.08 106.688 0 107.296 0h1.6c5.28 0.272 52.56 4.384 85.904 62.048 16.784 29.024 35.952 61.872 47.024 80.864h127.328a32.048 32.048 0 0 1 30.624 22.72 32.24 32.24 0 0 1 0 18.56 31.696 31.696 0 0 1-8 13.344 31.888 31.888 0 0 1-22.624 9.376h-145.6a31.872 31.872 0 0 1-22.528-9.264 32.064 32.064 0 0 1-5.088-6.56c-0.288-0.512-29.456-50.352-54.4-93.472V985.392a32.048 32.048 0 0 1-22.72 30.624 32.24 32.24 0 0 1-18.56 0 31.712 31.712 0 0 1-13.344-8A31.888 31.888 0 0 1 524.384 985.392H524.32z m-48-637.936V585.392h48V347.456h-48z m274.624 668.608a15.968 15.968 0 0 1-16-16v-2.288a15.968 15.968 0 0 1 16-16h69.728V549.696a32.048 32.048 0 0 1 22.72-30.624 32.24 32.24 0 0 1 9.28-1.376h4.576a32.048 32.048 0 0 1 30.624 22.72 32.24 32.24 0 0 1 1.376 9.28v432.08h69.728a15.968 15.968 0 0 1 16 16v2.288a15.968 15.968 0 0 1-16 16H750.944zM65.12 1016.064a15.968 15.968 0 0 1-16-16v-2.288a15.952 15.952 0 0 1 16-16h69.728V549.696a31.952 31.952 0 0 1 25.76-31.392 32.784 32.784 0 0 1 6.24-0.608h4.576a32.08 32.08 0 0 1 26.608 14.224 32.208 32.208 0 0 1 5.392 17.776v432.08H273.12a15.968 15.968 0 0 1 16 16v2.288a15.968 15.968 0 0 1-16 16H65.12zM433.12 193.392a72.256 72.256 0 0 1 10.24-37.008 72.96 72.96 0 0 1 13.408-16.336 71.424 71.424 0 0 1 24.096-14.448 71.568 71.568 0 0 1 31.312-3.856 72.08 72.08 0 0 1 58.032 40.864 72.032 72.032 0 0 1-68.624 102.704A72 72 0 0 1 433.12 193.392z" fill="#787878" /><path d="M739.888 315.088a33.072 33.072 0 0 1 21.088 7.552 32.976 32.976 0 0 1 10.72 16.048 33.152 33.152 0 0 1 1.44 9.648v28.032l-0.16 5.856a102.464 102.464 0 0 1-2.88 18.608 99.408 99.408 0 0 1-21.728 41.328 100.576 100.576 0 0 1-25.44 20.784 102.416 102.416 0 0 1-17.136 7.76 100.24 100.24 0 0 1-32.4 5.408h-28.032l-3.888-0.24a33.312 33.312 0 0 1-29.376-31.84 33.2 33.2 0 0 1 20.976-32.096 33.76 33.76 0 0 1 12.288-2.336h28.032l3.888-0.24a32.928 32.928 0 0 0 16.56-6.8 33.104 33.104 0 0 0 12.656-23.2c0.096-0.992 0.144-2 0.144-3.008v-28.016l0.24-3.888a32.368 32.368 0 0 1 2.272-8.752 33.216 33.216 0 0 1 30.752-20.608h-0.016z m-474.96 0a33.28 33.28 0 0 1 32.512 26.384c0.208 0.976 0.384 1.968 0.496 2.976l0.24 3.888v28.032a33.264 33.264 0 0 0 29.36 33.008l3.888 0.24h28.032a33.184 33.184 0 0 1 30.16 19.184 33.344 33.344 0 0 1-1.088 30.256 32.832 32.832 0 0 1-10.56 11.456 33.28 33.28 0 0 1-14.624 5.376l-3.888 0.24H331.424a100.64 100.64 0 0 1-27.904-3.984 100.272 100.272 0 0 1-37.04-20.048 99.024 99.024 0 0 1-21.072-25.2 100.272 100.272 0 0 1-12.576-35.312 99.68 99.68 0 0 1-0.992-9.376L231.68 376.368v-28.032a33.2 33.2 0 0 1 29.984-33.088c1.088-0.112 2.176-0.16 3.264-0.16zM673.392 6.512a99.744 99.744 0 0 1 99.568 93.904l0.16 5.84v28.032a33.184 33.184 0 0 1-19.184 30.16 33.344 33.344 0 0 1-30.256-1.088 32.928 32.928 0 0 1-11.456-10.56 33.28 33.28 0 0 1-5.376-14.624l-0.24-3.888V106.256a33.248 33.248 0 0 0-29.328-33.008l-3.888-0.24h-28.032a33.28 33.28 0 0 1-30.464-46.624 33.44 33.44 0 0 1 14.656-15.888 33.168 33.168 0 0 1 11.92-3.76L645.36 6.512h28.032zM359.456 6.512l3.888 0.24a33.232 33.232 0 0 1-3.888 66.272H331.424l-3.888 0.24a33.248 33.248 0 0 0-29.36 32.992v28.032l-0.24 3.888a33.216 33.216 0 0 1-41.152 28.32A33.2 33.2 0 0 1 231.68 134.272V106.256l0.16-5.856A99.68 99.68 0 0 1 294.608 13.552 99.824 99.824 0 0 1 331.424 6.512h28.032z" fill="#787878" opacity=".4" /></svg>