<?xml version="1.0" standalone="no"?><!DOCTYPE svg PUBLIC "-//W3C//DTD SVG 1.1//EN" "http://www.w3.org/Graphics/SVG/1.1/DTD/svg11.dtd"><svg class="icon" width="200px" height="200.00px" viewBox="0 0 1024 1024" version="1.1" xmlns="http://www.w3.org/2000/svg"><path fill="#ffffff" d="M191.973977 1023.993345a167.332892 167.332892 0 0 1-25.084576-1.877077 171.018789 171.018789 0 0 1-32.422241-8.139689 197.314933 197.314933 0 0 1-7.849596-3.020388 199.652747 199.652747 0 0 1-22.354282-11.296591 146.616787 146.616787 0 0 1-6.996378-4.487921 104.433745 104.433745 0 0 1-6.825735-4.812143 149.790754 149.790754 0 0 1-12.968896-10.631082c-2.04772-1.877077-4.095441-3.788283-6.143162-5.767746a361.934596 361.934596 0 0 1-5.801875-6.05784 395.329504 395.329504 0 0 1-5.460587-6.347934c-1.706434-2.167171-3.412867-4.351406-5.119302-6.603898a538.721131 538.721131 0 0 1-4.778014-6.825735 100.508947 100.508947 0 0 1-4.436728-7.0817c-1.484597-2.389007-2.900937-4.829207-4.266084-7.286472-1.245697-2.474329-2.508458-4.948658-3.754154-7.47418a1052.613652 1052.613652 0 0 1-3.412868-7.661887c-1.02386-2.576715-1.996527-5.187559-2.900937-7.815467a103.017405 103.017405 0 0 1-2.730294-7.934917 190.642777 190.642777 0 0 1-4.095441-16.245249l-1.365147-8.242075a102.897954 102.897954 0 0 1-1.02386-8.310332l-0.682574-8.361526C21.381796 858.947074 21.330603 856.148522 21.330603 853.349971V204.90515c0-2.798551 0.051193-5.580038 0.170643-8.361525l0.682574-8.361525a102.897954 102.897954 0 0 1 1.02386-8.310332l1.365147-8.242075a201.069087 201.069087 0 0 1 4.095441-16.24525c0.802024-2.662037 1.706434-5.307009 2.730294-7.934917 0.90441-2.627908 1.877077-5.238752 2.900937-7.815466l3.412868-7.661888 3.754154-7.474179c1.365147-2.457265 2.781487-4.8804 4.266084-7.286472 1.365147-2.389007 2.849744-4.743886 4.436728-7.064636 1.586983-2.32075 3.191031-4.607371 4.778014-6.842799 1.706434-2.252493 3.412867-4.436728 5.119302-6.603899 1.825884-2.150107 3.634704-4.266084 5.460587-6.330869 1.92827-2.081849 3.873605-4.095441 5.801875-6.074904 2.04772-1.979463 4.095441-3.890669 6.143162-5.767746a151.787281 151.787281 0 0 1 12.968896-10.631082c2.167171-1.655241 4.436728-3.259288 6.825735-4.812144a145.661184 145.661184 0 0 1 14.334043-8.61749c2.389007-1.313954 4.897465-2.559651 7.508309-3.754154 2.508458-1.194504 4.999851-2.337814 7.508308-3.412868 2.610844-1.075053 5.238752-2.081849 7.849596-3.020387a149.312952 149.312952 0 0 1 8.020238-2.627908 180.489497 180.489497 0 0 1 24.402003-5.511781A162.350106 162.350106 0 0 1 191.973977 34.261777h17.064337a32.69527 32.69527 0 0 1 1.53579-9.897316 16.159928 16.159928 0 0 1 1.023861-3.156902c0.460737-1.02386 0.972667-2.04772 1.53579-3.037453a16.654793 16.654793 0 0 1 1.706434-2.866808c0.563123-0.938539 1.194504-1.825884 1.877077-2.696166a77.420899 77.420899 0 0 1 4.778014-4.726821 53.582019 53.582019 0 0 1 2.730294-1.996527 27.30294 27.30294 0 0 1 2.900938-1.706434 24.86274 24.86274 0 0 1 6.143161-2.559651c1.02386-0.341287 2.098913-0.614316 3.242224-0.836152a35.579143 35.579143 0 0 1 13.310183 0c1.143311 0.221836 2.218364 0.51193 3.242224 0.819088a24.86274 24.86274 0 0 1 6.143162 2.55965c1.02386 0.528994 1.996527 1.109182 2.900937 1.723499 0.90441 0.614316 1.825884 1.279825 2.730294 1.996527a60.663719 60.663719 0 0 1 4.778015 4.726821c0.682573 0.853217 1.313954 1.757627 1.877077 2.696166 0.682573 0.921474 1.245697 1.877077 1.706433 2.866808 0.563123 0.989732 1.075053 1.996527 1.535791 3.037453 0.460737 1.02386 0.802024 2.081849 1.02386 3.139838A31.620217 31.620217 0 0 1 277.295663 34.261777h341.286748a32.69527 32.69527 0 0 1 1.53579-9.897316 16.159928 16.159928 0 0 1 1.023861-3.156902c0.460737-1.02386 0.972667-2.04772 1.53579-3.037453a16.654793 16.654793 0 0 1 1.706434-2.866808c0.563123-0.938539 1.194504-1.825884 1.877077-2.696166a77.420899 77.420899 0 0 1 4.778014-4.726821 53.582019 53.582019 0 0 1 2.730294-1.996527 27.30294 27.30294 0 0 1 2.900938-1.706434 24.86274 24.86274 0 0 1 6.143161-2.559651c1.02386-0.341287 2.098913-0.614316 3.242224-0.836152a35.579143 35.579143 0 0 1 13.310183 0c1.143311 0.221836 2.218364 0.51193 3.242225 0.819088a24.86274 24.86274 0 0 1 6.143161 2.55965c1.02386 0.528994 1.996527 1.109182 2.900937 1.723499 0.90441 0.614316 1.825884 1.279825 2.730294 1.996527a60.663719 60.663719 0 0 1 4.778015 4.726821c0.682573 0.853217 1.313954 1.757627 1.877077 2.696166 0.682573 0.921474 1.245697 1.877077 1.706434 2.866808 0.563123 0.989732 1.075053 1.996527 1.53579 3.037453 0.460737 1.02386 0.802024 2.081849 1.02386 3.139838A31.620217 31.620217 0 0 1 686.839761 34.261777h17.064337a167.145185 167.145185 0 0 1 25.084576 1.877077 173.646697 173.646697 0 0 1 40.271836 11.160076 198.407051 198.407051 0 0 1 22.354282 11.296592c2.389007 1.433404 4.726821 2.935066 6.996379 4.48792 2.389007 1.53579 4.658564 3.156902 6.825734 4.812144a151.087643 151.087643 0 0 1 12.968897 10.631082c2.04772 1.877077 4.095441 3.788283 6.143161 5.767746 1.92827 1.979463 3.873605 3.993055 5.801875 6.074904 1.825884 2.04772 3.634704 4.180763 5.460588 6.330869 1.706434 2.150107 3.412867 4.351406 5.119301 6.603899 1.706434 2.235428 3.293417 4.522049 4.778015 6.825735 1.586983 2.337814 3.071581 4.692693 4.436727 7.0817 1.484597 2.389007 2.900937 4.829207 4.266085 7.286472 1.245697 2.457265 2.508458 4.948658 3.754154 7.474179l3.412867 7.661888c1.02386 2.576715 1.996527 5.187559 2.900938 7.815466 1.02386 2.627908 1.92827 5.27288 2.730294 7.934917a191.956731 191.956731 0 0 1 4.095441 16.24525l1.365147 8.242075c0.460737 2.764423 0.802024 5.528845 1.02386 8.310332 0.341287 2.781487 0.563123 5.562974 0.682574 8.361525 0.11945 2.781487 0.170643 5.562974 0.170643 8.361525v119.450362a32.661142 32.661142 0 0 1-1.53579 9.897316 16.159928 16.159928 0 0 1-1.023861 3.156902c-0.460737 1.02386-0.972667 2.04772-1.53579 3.037452a16.723051 16.723051 0 0 1-1.706434 2.866809c-0.563123 0.938539-1.194504 1.825884-1.877077 2.696165a77.693928 77.693928 0 0 1-4.778014 4.726822c-0.90441 0.716702-1.825884 1.365147-2.730294 1.996527-0.90441 0.614316-1.877077 1.194504-2.900938 1.706434a24.913933 24.913933 0 0 1-6.143161 2.559651c-1.02386 0.341287-2.098913 0.614316-3.242224 0.836152a35.698594 35.698594 0 0 1-13.310183 0 28.565701 28.565701 0 0 1-3.242225-0.819088 24.913933 24.913933 0 0 1-6.143161-2.559651 27.320004 27.320004 0 0 1-2.900937-1.723498 54.247529 54.247529 0 0 1-2.730294-1.996527 60.168854 60.168854 0 0 1-4.778015-4.726822 27.439455 27.439455 0 0 1-1.877077-2.696165 16.723051 16.723051 0 0 1-1.706434-2.866809 31.295995 31.295995 0 0 1-1.53579-3.037452 16.159928 16.159928 0 0 1-1.02386-3.139838A31.705539 31.705539 0 0 1 806.290122 324.355512v-119.450362c0-1.672305-0.051193-3.34461-0.170643-5.016915 0-1.672305-0.11945-3.34461-0.341287-5.016915a37.353835 37.353835 0 0 0-0.682573-4.982786 75.33905 75.33905 0 0 0-0.853217-4.948658l-1.02386-4.897465-1.365147-4.846272a71.857925 71.857925 0 0 0-3.412868-9.453643 37.934022 37.934022 0 0 0-2.04772-4.607371 70.30507 70.30507 0 0 0-4.778015-8.839327 67.933127 67.933127 0 0 0-5.460588-8.361525c-1.02386-1.348083-2.04772-2.662037-3.07158-3.958926a226.546143 226.546143 0 0 0-6.825735-7.440051 67.813677 67.813677 0 0 0-7.508309-6.740414 67.847805 67.847805 0 0 0-3.924797-3.088645 150.285619 150.285619 0 0 0-4.095441-2.900937 71.363059 71.363059 0 0 0-4.266085-2.696165 68.632765 68.632765 0 0 0-8.873455-4.726822 74.127482 74.127482 0 0 0-4.607371-2.04772 72.318662 72.318662 0 0 0-4.607371-1.80882 114.245739 114.245739 0 0 0-9.556029-2.918002 160.490093 160.490093 0 0 0-4.948658-1.109182 124.194247 124.194247 0 0 0-9.897316-1.484597A107.52239 107.52239 0 0 0 703.904098 102.519126h-17.064337v34.128675a32.69527 32.69527 0 0 1-1.535791 9.897316 16.159928 16.159928 0 0 1-1.02386 3.156902 31.227737 31.227737 0 0 1-1.53579 3.037452 16.654793 16.654793 0 0 1-1.706434 2.866809c-0.563123 0.938539-1.194504 1.825884-1.877077 2.696165a77.352641 77.352641 0 0 1-4.778015 4.726822c-0.90441 0.716702-1.825884 1.365147-2.730294 1.996527-0.90441 0.614316-1.877077 1.194504-2.900937 1.706434a24.86274 24.86274 0 0 1-6.143161 2.55965c-1.02386 0.341287-2.098913 0.614316-3.242225 0.836153a35.579143 35.579143 0 0 1-13.310183 0 28.463315 28.463315 0 0 1-3.242224-0.819088 24.86274 24.86274 0 0 1-6.143161-2.559651 27.268811 27.268811 0 0 1-2.900938-1.723498 53.616148 53.616148 0 0 1-2.730294-1.996527 60.561333 60.561333 0 0 1-4.778014-4.726822 27.388262 27.388262 0 0 1-1.877077-2.696165 16.654793 16.654793 0 0 1-1.706434-2.866809 31.227737 31.227737 0 0 1-1.53579-3.037452 16.159928 16.159928 0 0 1-1.023861-3.139838A31.620217 31.620217 0 0 1 618.582411 136.647801V102.519126H277.295663v34.128675a32.69527 32.69527 0 0 1-1.53579 9.897316 16.159928 16.159928 0 0 1-1.02386 3.156902 31.227737 31.227737 0 0 1-1.535791 3.037452 16.654793 16.654793 0 0 1-1.706433 2.866809c-0.563123 0.938539-1.194504 1.825884-1.877077 2.696165a77.352641 77.352641 0 0 1-4.778015 4.726822c-0.90441 0.716702-1.825884 1.365147-2.730294 1.996527-0.90441 0.614316-1.877077 1.194504-2.900937 1.706434a24.86274 24.86274 0 0 1-6.143162 2.55965c-1.02386 0.341287-2.098913 0.614316-3.242224 0.836153a35.579143 35.579143 0 0 1-13.310183 0 28.463315 28.463315 0 0 1-3.242224-0.819088 24.86274 24.86274 0 0 1-6.143161-2.559651 27.268811 27.268811 0 0 1-2.900938-1.723498 53.616148 53.616148 0 0 1-2.730294-1.996527 60.561333 60.561333 0 0 1-4.778014-4.726822 27.388262 27.388262 0 0 1-1.877077-2.696165 16.654793 16.654793 0 0 1-1.706434-2.866809 31.227737 31.227737 0 0 1-1.53579-3.037452 16.159928 16.159928 0 0 1-1.023861-3.139838A31.620217 31.620217 0 0 1 209.038314 136.647801V102.519126h-17.064337a95.969833 95.969833 0 0 0-10.06796 0.51193 124.091861 124.091861 0 0 0-9.897315 1.467533 107.761291 107.761291 0 0 0-19.282701 5.836004 116.481167 116.481167 0 0 0-4.436728 2.04772 76.038687 76.038687 0 0 0-8.873456 4.726822c-1.484597 0.853217-2.900937 1.757627-4.266084 2.696165-1.365147 0.938539-2.730294 1.894141-4.095441 2.900937-1.365147 0.989732-2.679101 2.013592-3.924798 3.071581a72.864721 72.864721 0 0 0-7.508308 6.757478c-1.245697 1.194504-2.389007 2.389007-3.412867 3.634703-1.143311 1.245697-2.269557 2.508458-3.412868 3.805348-1.02386 1.29689-2.04772 2.610844-3.071581 3.958926a69.79314 69.79314 0 0 0-5.460588 8.361525 72.728206 72.728206 0 0 0-4.778014 8.856391 38.189987 38.189987 0 0 0-2.047721 4.590307 73.547294 73.547294 0 0 0-3.412867 9.453643l-1.365147 4.846272-1.02386 4.897465c-0.341287 1.638176-0.63138 3.293417-0.853217 4.948658-0.341287 1.655241-0.563123 3.310481-0.682574 4.982786-0.221836 1.672305-0.341287 3.34461-0.341286 5.016915-0.11945 1.672305-0.170643 3.34461-0.170644 5.016915v648.444821c0 1.672305 0.051193 3.34461 0.170644 5.016915 0 1.672305 0.11945 3.34461 0.341286 5.016915 0.11945 1.672305 0.341287 3.327546 0.682574 4.982787 0.221836 1.655241 0.51193 3.310481 0.853217 4.948658l1.02386 4.897465 1.365147 4.846271a71.550767 71.550767 0 0 0 3.412867 9.453643c0.563123 1.53579 1.245697 3.071581 2.047721 4.607371a71.107094 71.107094 0 0 0 4.778014 8.839327 67.711291 67.711291 0 0 0 5.460588 8.361526c1.02386 1.348083 2.04772 2.662037 3.071581 3.958926 1.143311 1.29689 2.269557 2.559651 3.412868 3.805347 1.02386 1.228632 2.167171 2.457265 3.412867 3.634704a66.926331 66.926331 0 0 0 7.508308 6.740413c1.245697 1.075053 2.559651 2.098913 3.924798 3.088645 1.365147 1.006796 2.730294 1.962399 4.095441 2.900938 1.365147 0.938539 2.781487 1.825884 4.266084 2.696165a67.916063 67.916063 0 0 0 8.873456 4.726821c1.484597 0.716702 2.95213 1.399276 4.436728 2.047721a122.453685 122.453685 0 0 0 14.334043 4.726821c1.706434 0.409544 3.361674 0.767895 4.948658 1.109182a123.170387 123.170387 0 0 0 9.897315 1.484598A107.488261 107.488261 0 0 0 191.973977 955.735995h460.737109a35.698594 35.698594 0 0 1 6.655091 0.648445c1.143311 0.221836 2.218364 0.51193 3.242225 0.819088a24.913933 24.913933 0 0 1 6.143161 2.559651c1.02386 0.528994 1.996527 1.109182 2.900937 1.723498 0.90441 0.614316 1.825884 1.279825 2.730294 1.996528a60.168854 60.168854 0 0 1 4.778015 4.726821c0.682573 0.853217 1.313954 1.757627 1.877077 2.696165a16.723051 16.723051 0 0 1 1.706434 2.866809c0.563123 0.989732 1.075053 1.996527 1.53579 3.037452 0.460737 1.02386 0.802024 2.081849 1.02386 3.139838A31.705539 31.705539 0 0 1 686.839761 989.86467a32.661142 32.661142 0 0 1-1.535791 9.897316 16.159928 16.159928 0 0 1-1.02386 3.156902c-0.460737 1.02386-0.972667 2.04772-1.53579 3.037452a16.723051 16.723051 0 0 1-1.706434 2.866809c-0.563123 0.938539-1.194504 1.825884-1.877077 2.696165a77.693928 77.693928 0 0 1-4.778015 4.726822c-0.90441 0.699638-1.825884 1.365147-2.730294 1.996527-0.90441 0.614316-1.877077 1.194504-2.900937 1.706434a24.623839 24.623839 0 0 1-6.143161 2.559651c-1.02386 0.341287-2.098913 0.614316-3.242225 0.836152A35.698594 35.698594 0 0 1 652.711086 1023.993345H191.973977z m395.380697-130.217959a62.71144 62.71144 0 0 1-39.759906-14.231657 46.312612 46.312612 0 0 1-4.436728-4.12957 73.410779 73.410779 0 0 1-4.266084-4.539113 75.731529 75.731529 0 0 1-6.825735-10.204474 89.297678 89.297678 0 0 1-2.559651-5.54591 53.172475 53.172475 0 0 1-2.047721-5.801875 105.372283 105.372283 0 0 1-1.53579-5.938389 108.853408 108.853408 0 0 1-0.853217-6.074904 55.442032 55.442032 0 0 1-0.170643-10.409246c0-1.433404 0.11945-2.849744 0.341287-4.266084 0.11945-1.433404 0.290094-2.849744 0.51193-4.266085 0.11945-1.399276 0.341287-2.798551 0.682573-4.197827a52.711738 52.711738 0 0 1 2.047721-8.293268l1.365147-4.061312c0.460737-1.365147 0.972667-2.679101 1.53579-3.993055l1.706434-3.924797 2.04772-3.805348c0.563123-1.262761 1.245697-2.491393 2.047721-3.720025a51.875586 51.875586 0 0 1 4.778014-7.115829 51.141819 51.141819 0 0 1 5.460588-6.603898c0.90441-1.057989 1.877077-2.098913 2.900938-3.10571a163.817639 163.817639 0 0 1 3.07158-2.95213c1.02386-0.955603 2.098913-1.877077 3.242224-2.781487a138.852513 138.852513 0 0 1 6.825735-5.119301l3.583511-2.269557c1.245697-0.733767 2.508458-1.433404 3.754154-2.115978 1.245697-0.682573 2.559651-1.313954 3.924798-1.92827 1.245697-0.597252 2.508458-1.194504 3.754154-1.740563a106.2255 106.2255 0 0 1 12.286323-4.027183 86.328483 86.328483 0 0 1 12.62761-2.2013 77.77925 77.77925 0 0 1 8.532169-0.426608h303.403918a83.239838 83.239838 0 0 1 12.798253 0.955603 86.328483 86.328483 0 0 1 16.552408 4.163698c1.365147 0.477801 2.679101 0.989732 3.924797 1.53579 1.365147 0.546059 2.679101 1.126246 3.924798 1.740563 1.365147 0.614316 2.679101 1.245697 3.924797 1.92827 1.245697 0.682573 2.508458 1.365147 3.754155 2.098913l3.58351 2.286622a135.354324 135.354324 0 0 1 6.825735 5.119301c1.143311 0.887346 2.218364 1.825884 3.242224 2.781487 1.02386 0.955603 2.04772 1.945334 3.071581 2.95213 1.02386 1.006796 1.996527 2.04772 2.900938 3.088645a54.486429 54.486429 0 0 1 5.460588 6.620963 53.769727 53.769727 0 0 1 4.778014 7.098764c0.802024 1.228632 1.53579 2.474329 2.218364 3.720026 0.563123 1.262761 1.194504 2.542586 1.877077 3.822412l1.706434 3.924797c0.563123 1.313954 1.075053 2.644972 1.53579 3.975991l1.365147 4.061312a54.179271 54.179271 0 0 1 2.047721 8.310332c0.341287 1.382211 0.563123 2.798551 0.682573 4.214892 0.221836 1.399276 0.39248 2.815616 0.51193 4.231955 0.221836 1.433404 0.341287 2.849744 0.341287 4.266085a53.42844 53.42844 0 0 1-0.170643 10.409246c-0.221836 2.04772-0.51193 4.061312-0.853217 6.074904a105.628248 105.628248 0 0 1-1.535791 5.955453 52.967703 52.967703 0 0 1-2.04772 5.767746c-0.802024 1.894141-1.655241 3.754154-2.559651 5.562974a83.529931 83.529931 0 0 1-6.825735 10.18741c-1.365147 1.586983-2.781487 3.088645-4.266084 4.539114-1.365147 1.450469-2.849744 2.83268-4.436728 4.129569a63.701171 63.701171 0 0 1-21.501065 11.518428 65.458798 65.458798 0 0 1-18.258841 2.730294l-352.54921 0.017064z m-11.433106-62.574925c0 0.750831 0.051193 1.484597 0.170643 2.218364l0.682574 2.150107c0.341287 0.682573 0.682573 1.348083 1.02386 1.962398 0.460737 0.63138 0.972667 1.194504 1.53579 1.723498 0.460737 0.528994 1.02386 1.02386 1.706434 1.41634a10.733468 10.733468 0 0 0 4.095441 1.706434c0.682573 0.153579 1.41634 0.221836 2.218364 0.221837h352.54921c0.802024 0 1.53579-0.068257 2.218364-0.221837a10.733468 10.733468 0 0 0 2.218364-0.648445 15.136067 15.136067 0 0 0 2.04772-1.057989c0.563123-0.409544 1.143311-0.887346 1.706434-1.41634 0.460737-0.51193 0.90441-1.092118 1.365147-1.706433a7.149957 7.149957 0 0 0 1.02386-1.979463 7.371794 7.371794 0 0 0 0.682574-2.150107 14.419365 14.419365 0 0 0 0.170643-2.218364 36.347039 36.347039 0 0 0-2.730294-13.77092 33.87271 33.87271 0 0 0-1.53579-3.208096 141.634 141.634 0 0 0-1.706434-3.020387 33.019493 33.019493 0 0 0-2.218364-2.849745 19.112058 19.112058 0 0 0-2.389007-2.610843 28.975245 28.975245 0 0 0-5.460588-4.470857 27.234682 27.234682 0 0 0-6.143161-3.327545 41.58579 41.58579 0 0 0-6.825735-2.047721 34.708862 34.708862 0 0 0-6.996379-0.699638H611.92732a38.258244 38.258244 0 0 0-6.996379 0.682574 38.394759 38.394759 0 0 0-6.825735 2.04772c-1.02386 0.443673-2.04772 0.955603-3.07158 1.501662a21.176843 21.176843 0 0 0-3.071581 1.825884 30.323328 30.323328 0 0 0-5.460588 4.470856c-0.802024 0.836153-1.586983 1.706434-2.389007 2.610844a18.139391 18.139391 0 0 0-2.047721 2.83268 32.558756 32.558756 0 0 0-4.607371 9.556029 34.862441 34.862441 0 0 0-1.53579 10.443374v0.034129z m99.997017-100.235918l0.682573-2.986259a13.480827 13.480827 0 0 1 0.682574-2.95213l1.02386-2.849744a25.767149 25.767149 0 0 1 2.730294-5.42646l1.706434-2.525522c0.563123-0.802024 1.194504-1.604048 1.877077-2.354878 0.682573-0.767895 1.365147-1.501662 2.04772-2.218364a65.697699 65.697699 0 0 1 4.778015-3.822412 25.255219 25.255219 0 0 1 2.55965-1.604047 45.612974 45.612974 0 0 1 5.460588-2.525522l2.900938-0.921474a41.142117 41.142117 0 0 1 6.143161-1.075054h4.266084c1.365147-1.757627 2.610844-3.61764 3.754155-5.597102 1.143311-1.962399 2.04772-4.010119 2.730294-6.143162a32.763528 32.763528 0 0 0 1.706433-6.535641c0.341287-2.218364 0.51193-4.470856 0.511931-6.723349v-10.409246a226.6144 226.6144 0 0 0-8.702813-41.671112 93.495505 93.495505 0 0 1-17.917554-10.972369 69.332403 69.332403 0 0 1-5.460588-4.436727 68.223221 68.223221 0 0 1-5.119301-4.829208 68.3768 68.3768 0 0 1-4.778014-5.136365 68.905794 68.905794 0 0 1-4.436728-5.460588 69.827269 69.827269 0 0 1-4.095441-5.750682 117.82925 117.82925 0 0 1-9.726672-18.736643 131.327141 131.327141 0 0 1-5.631232-20.289497 141.634 141.634 0 0 1-1.365147-13.975692v-4.163698a73.803259 73.803259 0 0 1 1.365147-9.897316 71.499574 71.499574 0 0 1 0.853217-4.914529 1518.947864 1518.947864 0 0 1 2.730294-9.607222l1.706434-4.709757c0.563123-1.552855 1.194504-3.088645 1.877077-4.607371l2.04772-4.539114 2.389008-4.419663c0.802024-1.450469 1.655241-2.883873 2.55965-4.283149 0.90441-1.41634 1.825884-2.815616 2.730294-4.180763 1.02386-1.365147 1.996527-2.71323 2.900938-4.027183a71.670217 71.670217 0 0 1 3.242224-3.890669 66.755688 66.755688 0 0 1 6.825735-7.303537 67.35294 67.35294 0 0 1 7.508308-6.620963c1.245697-1.040925 2.559651-2.04772 3.924798-3.037452 1.365147-0.972667 2.730294-1.92827 4.095441-2.83268 1.365147-0.921474 2.781487-1.791755 4.266084-2.644972 1.365147-0.853217 2.781487-1.655241 4.266084-2.423136 1.484597-0.78496 2.95213-1.53579 4.436728-2.218364 1.586983-0.716702 3.122774-1.365147 4.607371-2.013592a123.204516 123.204516 0 0 1 4.778015-1.774691 73.547294 73.547294 0 0 1 9.556029-2.883873 104.672646 104.672646 0 0 1 9.726672-1.945334 126.532062 126.532062 0 0 1 9.897316-1.02386 111.430123 111.430123 0 0 1 10.067959-0.034129 106.959267 106.959267 0 0 1 25.425862 2.184235c1.586983 0.341287 3.242224 0.733767 4.948658 1.177439 1.586983 0.426608 3.242224 0.90441 4.948658 1.41634a114.109224 114.109224 0 0 1 14.1634 5.66536c1.484597 0.733767 3.020388 1.53579 4.607371 2.337815 1.484597 0.819088 2.95213 1.672305 4.436728 2.55965l4.266084 2.781487c1.365147 0.972667 2.730294 1.962399 4.095441 2.986259 1.365147 1.02386 2.679101 2.098913 3.924798 3.191031a73.035364 73.035364 0 0 1 7.508308 6.928121 73.513165 73.513165 0 0 1 6.825735 7.627759c1.143311 1.331018 2.167171 2.679101 3.071581 4.061312 1.02386 1.365147 2.04772 2.781487 3.071581 4.197827 0.90441 1.433404 1.757627 2.883873 2.55965 4.351406a73.956838 73.956838 0 0 1 4.778015 9.044099l2.04772 4.692693a75.85098 75.85098 0 0 1 3.412868 9.641351l1.365147 4.948658 1.02386 4.982786a76.891904 76.891904 0 0 1 1.365147 10.119152c0.221836 1.706434 0.341287 3.412867 0.341287 5.102237v4.163698a100.389497 100.389497 0 0 1-1.535791 13.071283 122.351299 122.351299 0 0 1-3.412867 12.764124 81.379825 81.379825 0 0 1-4.778015 12.252194 92.147422 92.147422 0 0 1-6.313804 11.552557c-2.389007 3.720026-4.948658 7.286472-7.678952 10.665211a114.672347 114.672347 0 0 1-9.044099 9.624286 94.724137 94.724137 0 0 1-10.238603 8.412718 100.508947 100.508947 0 0 1-11.091819 7.0817 79.673391 79.673391 0 0 0-8.702812 31.261866v10.409246a42.814422 42.814422 0 0 0-0.682573 9.351257c0.11945 3.139838 0.51193 6.245547 1.194503 9.300064 0.802024 3.054516 1.877077 5.972518 3.242224 8.822262 1.365147 2.815616 3.020388 5.460588 4.948658 7.934917h4.436728a42.899744 42.899744 0 0 1 5.972518 1.075054c0.90441 0.273029 1.877077 0.563123 2.900937 0.921474a40.101193 40.101193 0 0 1 8.020239 4.129569 55.288453 55.288453 0 0 1 4.778014 3.839476c0.682573 0.699638 1.365147 1.433404 2.047721 2.2013 0.682573 0.750831 1.313954 1.53579 1.877077 2.354878 0.563123 0.819088 1.143311 1.655241 1.706434 2.525522a26.739817 26.739817 0 0 1 2.730294 5.42646l1.02386 2.849744c0.341287 0.972667 0.63138 1.962399 0.853217 2.95213 0.11945 0.989732 0.290094 1.979463 0.51193 2.986259H675.918585zM209.038314 614.449248a35.698594 35.698594 0 0 1-6.655092-0.648445 28.565701 28.565701 0 0 1-3.242224-0.819088 24.913933 24.913933 0 0 1-6.143161-2.559651 27.234682 27.234682 0 0 1-2.900938-1.723498 52.28513 52.28513 0 0 1-2.730294-1.996527 61.619322 61.619322 0 0 1-4.778014-4.726822 27.729548 27.729548 0 0 1-1.877077-2.696165 16.842501 16.842501 0 0 1-1.706434-2.866809 31.295995 31.295995 0 0 1-1.53579-3.037452 16.142863 16.142863 0 0 1-1.023861-3.139838 32.046826 32.046826 0 0 1-1.365146-13.25899 32.422241 32.422241 0 0 1 1.365146-6.56977 16.142863 16.142863 0 0 1 1.023861-3.139838c0.460737-1.02386 0.972667-2.04772 1.53579-3.037452a16.842501 16.842501 0 0 1 1.706434-2.866809c0.563123-0.938539 1.194504-1.825884 1.877077-2.696165a79.82697 79.82697 0 0 1 4.778014-4.726822c0.90441-0.716702 1.825884-1.365147 2.730294-1.996527 0.90441-0.614316 1.877077-1.194504 2.900938-1.706434a24.913933 24.913933 0 0 1 6.143161-2.559651c1.02386-0.341287 2.098913-0.614316 3.242224-0.836152A35.698594 35.698594 0 0 1 209.038314 546.191898h238.900723a35.698594 35.698594 0 0 1 6.655092 0.648445c1.143311 0.221836 2.218364 0.51193 3.242224 0.819088a24.913933 24.913933 0 0 1 6.143161 2.559651c1.02386 0.528994 1.996527 1.109182 2.900938 1.723498 0.90441 0.614316 1.825884 1.279825 2.730294 1.996527a60.168854 60.168854 0 0 1 4.778014 4.726822c0.682573 0.853217 1.313954 1.757627 1.877077 2.696165a16.723051 16.723051 0 0 1 1.706434 2.866809c0.563123 0.989732 1.075053 1.996527 1.53579 3.037452 0.460737 1.02386 0.802024 2.081849 1.023861 3.139838A31.705539 31.705539 0 0 1 482.067712 580.320573a32.661142 32.661142 0 0 1-1.53579 9.897316 16.159928 16.159928 0 0 1-1.023861 3.156902c-0.460737 1.02386-0.972667 2.04772-1.53579 3.037452a16.723051 16.723051 0 0 1-1.706434 2.866809c-0.563123 0.938539-1.194504 1.825884-1.877077 2.696165a77.693928 77.693928 0 0 1-4.778014 4.726822c-0.90441 0.716702-1.825884 1.365147-2.730294 1.996527-0.90441 0.614316-1.877077 1.194504-2.900938 1.706434a24.913933 24.913933 0 0 1-6.143161 2.55965c-1.02386 0.341287-2.098913 0.614316-3.242224 0.836153A35.698594 35.698594 0 0 1 447.939037 614.449248H209.038314z m0-204.772049a35.698594 35.698594 0 0 1-6.655092-0.648445 28.565701 28.565701 0 0 1-3.242224-0.819088 24.913933 24.913933 0 0 1-6.143161-2.559651 27.234682 27.234682 0 0 1-2.900938-1.723498 52.28513 52.28513 0 0 1-2.730294-1.996527 61.619322 61.619322 0 0 1-4.778014-4.726822 27.729548 27.729548 0 0 1-1.877077-2.696165 16.842501 16.842501 0 0 1-1.706434-2.866809 31.295995 31.295995 0 0 1-1.53579-3.037452 16.142863 16.142863 0 0 1-1.023861-3.139838 32.046826 32.046826 0 0 1-1.365146-13.25899 32.422241 32.422241 0 0 1 1.365146-6.56977 16.142863 16.142863 0 0 1 1.023861-3.139838c0.460737-1.02386 0.972667-2.04772 1.53579-3.037452a16.842501 16.842501 0 0 1 1.706434-2.866809c0.563123-0.938539 1.194504-1.825884 1.877077-2.696165a79.82697 79.82697 0 0 1 4.778014-4.726821c0.90441-0.716702 1.825884-1.365147 2.730294-1.996528 0.90441-0.614316 1.877077-1.194504 2.900938-1.706434a24.913933 24.913933 0 0 1 6.143161-2.55965c1.02386-0.341287 2.098913-0.614316 3.242224-0.836153A35.698594 35.698594 0 0 1 209.038314 341.41985h102.386024a35.698594 35.698594 0 0 1 6.655092 0.648444c1.143311 0.221836 2.218364 0.51193 3.242224 0.819089a24.913933 24.913933 0 0 1 6.143161 2.55965c1.02386 0.528994 1.996527 1.109182 2.900938 1.723498 0.90441 0.614316 1.825884 1.279825 2.730294 1.996528a60.168854 60.168854 0 0 1 4.778014 4.726821c0.682573 0.853217 1.313954 1.757627 1.877077 2.696165a16.723051 16.723051 0 0 1 1.706434 2.866809c0.563123 0.989732 1.075053 1.996527 1.53579 3.037452 0.460737 1.02386 0.802024 2.081849 1.023861 3.139838A31.705539 31.705539 0 0 1 345.553013 375.548524a32.661142 32.661142 0 0 1-1.53579 9.897316 16.159928 16.159928 0 0 1-1.023861 3.156902c-0.460737 1.02386-0.972667 2.04772-1.53579 3.037452a16.723051 16.723051 0 0 1-1.706434 2.866809c-0.563123 0.938539-1.194504 1.825884-1.877077 2.696165a77.693928 77.693928 0 0 1-4.778014 4.726822c-0.90441 0.716702-1.825884 1.365147-2.730294 1.996527-0.90441 0.614316-1.877077 1.194504-2.900938 1.706434a24.913933 24.913933 0 0 1-6.143161 2.559651c-1.02386 0.341287-2.098913 0.614316-3.242224 0.836152A35.698594 35.698594 0 0 1 311.424338 409.677199h-102.386024z"  /></svg>