<?xml version="1.0" standalone="no"?><!DOCTYPE svg PUBLIC "-//W3C//DTD SVG 1.1//EN" "http://www.w3.org/Graphics/SVG/1.1/DTD/svg11.dtd"><svg class="icon" width="200px" height="200.00px" viewBox="0 0 1024 1024" version="1.1" xmlns="http://www.w3.org/2000/svg"><path fill="#ffffff" d="M334.864055 959.93602a33.59999 33.59999 0 0 1-21.423993-7.679998 33.59999 33.59999 0 0 1-9.759997-13.199995 32.52799 32.52799 0 0 1-2.399999-9.615997 34.655989 34.655989 0 0 1 1.279999-13.119996 32.36799 32.36799 0 0 1 2.528-6.111998 33.08799 33.08799 0 0 1 3.679999-5.519999 35.247989 35.247989 0 0 1 4.671998-4.687998 32.25599 32.25599 0 0 1 5.503998-3.679999 35.407989 35.407989 0 0 1 6.111998-2.543999 35.535989 35.535989 0 0 1 6.495998-1.28 33.59999 33.59999 0 0 1 3.311999-0.176h312.143903a33.59999 33.59999 0 0 1 21.423993 7.679998 33.631989 33.631989 0 0 1 9.759997 13.199996 32.36799 32.36799 0 0 1 2.399999 9.615997 34.143989 34.143989 0 0 1-3.807998 19.231994 33.08799 33.08799 0 0 1-3.679999 5.519998 34.847989 34.847989 0 0 1-7.327998 6.655998 36.111989 36.111989 0 0 1-5.839998 3.135999 34.191989 34.191989 0 0 1-12.927996 2.575999H334.864055z m-201.599937-169.055947a101.599968 101.599968 0 0 1-47.759985-11.999996 98.559969 98.559969 0 0 1-12.591996-7.999998 116.383964 116.383964 0 0 1-7.679997-6.319998 103.647968 103.647968 0 0 1-13.327996-14.719995 102.895968 102.895968 0 0 1-16.863995-35.775989 95.95197 95.95197 0 0 1-2.527999-14.687996 109.279966 109.279966 0 0 1-0.48-9.935996V165.376268a110.927965 110.927965 0 0 1 0.48-9.935997 94.55997 94.55997 0 0 1 1.439999-9.839997 106.367967 106.367967 0 0 1 5.759999-19.007994 101.711968 101.711968 0 0 1 4.239998-8.991997 90.607972 90.607972 0 0 1 5.103999-8.543997 106.847967 106.847967 0 0 1 5.903998-7.999998 109.151966 109.151966 0 0 1 10.271997-10.799996 90.079972 90.079972 0 0 1 7.679997-6.319998 96.38397 96.38397 0 0 1 8.271998-5.535999A95.83997 95.83997 0 0 1 89.952132 73.712297a96.87997 96.87997 0 0 1 18.687994-6.719998 94.303971 94.303971 0 0 1 9.759997-1.951999 96.91197 96.91197 0 0 1 9.887997-0.976C129.952119 63.9843 131.616119 63.9363 133.264118 63.9363h757.519764a97.16797 97.16797 0 0 1 9.935997 0.496 94.095971 94.095971 0 0 1 9.839996 1.471999 96.15997 96.15997 0 0 1 14.351996 3.983999 109.631966 109.631966 0 0 1 9.183997 3.823999 95.37597 95.37597 0 0 1 17.039995 10.223997 99.695969 99.695969 0 0 1 14.703995 13.359996 110.207966 110.207966 0 0 1 6.303998 7.695997 106.847967 106.847967 0 0 1 7.951998 12.607996 91.311971 91.311971 0 0 1 4.255998 8.991997 98.031969 98.031969 0 0 1 3.327999 9.359998 105.759967 105.759967 0 0 1 2.416 9.647996 95.13597 95.13597 0 0 1 1.439999 9.839997 109.967966 109.967966 0 0 1 0.48 9.935997v524.063837a109.599966 109.599966 0 0 1-0.48 9.919996 94.71997 94.71997 0 0 1-1.455999 9.855997 106.687967 106.687967 0 0 1-2.4 9.647997 103.743968 103.743968 0 0 1-5.343998 13.919996 113.151965 113.151965 0 0 1-4.687999 8.767997 108.031966 108.031966 0 0 1-5.519998 8.271998 91.839971 91.839971 0 0 1-6.287998 7.679997 106.159967 106.159967 0 0 1-14.719995 13.375996 90.207972 90.207972 0 0 1-8.255998 5.519998 98.079969 98.079969 0 0 1-17.951994 8.511998 99.359969 99.359969 0 0 1-19.263994 4.847998 103.311968 103.311968 0 0 1-14.863995 1.12H133.264118zM99.520129 182.288263v486.639848a51.391984 51.391984 0 0 0 2.175999 14.719995 48.687985 48.687985 0 0 0 3.791999 9.167997 54.095983 54.095983 0 0 0 5.519998 8.255998 49.023985 49.023985 0 0 0 11.007997 9.999997 49.983984 49.983984 0 0 0 13.423996 6.367998 50.975984 50.975984 0 0 0 14.703995 2.207999h723.775774a50.479984 50.479984 0 0 0 28.127991-8.591997 50.623984 50.623984 0 0 0 18.639994-22.735993 49.935984 49.935984 0 0 0 3.855999-19.391994V182.288263a51.135984 51.135984 0 0 0-3.855999-19.391994 49.279985 49.279985 0 0 0-10.975996-16.431995 51.855984 51.855984 0 0 0-11.919997-8.863997 49.519985 49.519985 0 0 0-13.983995-5.039998 48.159985 48.159985 0 0 0-9.887997-0.992H150.144113a47.999985 47.999985 0 0 0-9.887997 0.992 53.871983 53.871983 0 0 0-9.487997 2.895999 52.479984 52.479984 0 0 0-8.751997 4.687998 54.287983 54.287983 0 0 0-7.663998 6.303998 50.127984 50.127984 0 0 0-10.975996 16.447995 50.543984 50.543984 0 0 0-3.855999 19.375994v0.016z m449.439859 353.31189v-30.175991a2.271999 2.271999 0 0 1 0.672-1.679999 2.383999 2.383999 0 0 1 1.664-0.688 2.335999 2.335999 0 0 1 1.967999 1.055999c14.863995 21.039993 66.895979 37.199988 128.68796 37.199989 61.791981 0 113.839964-15.807995 128.70396-37.199989a2.303999 2.303999 0 0 1 1.471999-0.975999 2.319999 2.319999 0 0 1 1.728 0.32c0.32 0.224 0.592 0.512 0.767999 0.847999a2.399999 2.399999 0 0 1 0.272 1.12v30.175991c0 27.567991-59.583981 49.775984-132.991958 49.775984-73.407977 0-132.943958-22.223993-132.943959-49.791984v0.016z m-310.399903 49.775984a29.599991 29.599991 0 0 1 0-59.167981H449.47202a29.567991 29.567991 0 0 1 0 59.167981H238.560085z m310.399903-120.175962v-30.175991a2.399999 2.399999 0 0 1 0.672-1.679999 2.383999 2.383999 0 0 1 2.783999-0.416 2.239999 2.239999 0 0 1 0.848 0.783999c14.863995 21.023993 66.895979 36.799989 128.68796 36.799989 61.791981 0 113.839964-15.807995 128.70396-37.199988a2.303999 2.303999 0 0 1 1.471999-0.976 2.319999 2.319999 0 0 1 1.728 0.32c0.32 0.224 0.576 0.496 0.751999 0.848a2.239999 2.239999 0 0 1 0.288 1.103999v30.575991c0 27.567991-59.583981 49.775984-132.991958 49.775984-73.407977 0-133.007958-22.255993-133.007959-49.823984l0.064 0.064z m-310.399903-6.607998a29.599991 29.599991 0 0 1 0-59.167982h126.543961a29.567991 29.567991 0 0 1 0 59.167982h-126.543961z m310.399903-64.07998v-30.703991a2.255999 2.255999 0 0 1 1.44-2.191999 2.367999 2.367999 0 0 1 2.863999 0.88c14.863995 21.423993 66.895979 37.199988 128.68796 37.199988 61.791981 0 113.839964-15.807995 128.70396-37.199988a2.303999 2.303999 0 0 1 1.471999-0.976 2.319999 2.319999 0 0 1 1.728 0.32 2.335999 2.335999 0 0 1 1.039999 1.967999v30.527991c0 27.695991-59.583981 49.871984-132.991958 49.871984-73.407977 0-133.007958-22.143993-133.007959-49.695984h0.064z m0.128-72.111978c0-27.423991 59.455981-49.775984 132.991959-49.775984 73.535977 0 132.991958 22.207993 132.991958 49.775984 0 27.567991-59.455981 49.775984-132.991958 49.775985-73.535977 0-133.007958-22.399993-133.007959-49.791985l0.016 0.016z m-308.287903 9.375997a29.071991 29.071991 0 0 1-13.919996-3.503999 33.31199 33.31199 0 0 1-2.495999-1.487999 33.679989 33.679989 0 0 1-4.463999-3.679999 28.447991 28.447991 0 0 1-3.679999-4.495999 30.89599 30.89599 0 0 1-2.719999-5.103998 27.823991 27.823991 0 0 1-1.679999-5.551998 29.071991 29.071991 0 0 1 0.704-14.335996 27.823991 27.823991 0 0 1 2.207999-5.359998 27.151992 27.151992 0 0 1 3.215999-4.831999 28.191991 28.191991 0 0 1 6.415998-5.823998 28.095991 28.095991 0 0 1 7.839997-3.727999 32.17599 32.17599 0 0 1 5.679999-1.135999c0.96-0.096 1.919999-0.144 2.895999-0.144h74.015977a29.071991 29.071991 0 0 1 13.919995 3.503999 30.59199 30.59199 0 0 1 12.127996 12.143996 26.623992 26.623992 0 0 1 2.208 5.359998 32.17599 32.17599 0 0 1 1.119999 5.679998 29.071991 29.071991 0 0 1-1.119999 11.471997 27.823991 27.823991 0 0 1-2.208 5.359998 30.89599 30.89599 0 0 1-5.167998 6.975998 28.191991 28.191991 0 0 1-4.463999 3.679999 32.99199 32.99199 0 0 1-5.103998 2.735999 34.495989 34.495989 0 0 1-5.551998 1.68 28.959991 28.959991 0 0 1-5.759998 0.575999l-74.015977 0.016z"  /></svg>