<?xml version="1.0" standalone="no"?><!DOCTYPE svg PUBLIC "-//W3C//DTD SVG 1.1//EN" "http://www.w3.org/Graphics/SVG/1.1/DTD/svg11.dtd"><svg class="icon" width="200px" height="200.00px" viewBox="0 0 1024 1024" version="1.1" xmlns="http://www.w3.org/2000/svg"><path fill="#ffffff" d="M661.28096 976a79.264 79.264 0 0 1-40.784-11.648 80.032 80.032 0 0 1-22.816-21.024 80 80 0 0 1-13.04-28.16 77.792 77.792 0 0 1-2.16-15.424 77.44 77.44 0 0 1-0.064-3.904V699.392c0-5.392 0.544-10.72 1.6-16H419.52096a28.208 28.208 0 0 1-6.368 17.792 27.888 27.888 0 0 1-16.208 9.728 27.904 27.904 0 0 1-5.472 0.544h-46.208a27.568 27.568 0 0 1-10.72-2.128 27.728 27.728 0 0 1-10.944-8.112 27.936 27.936 0 0 1-6.384-17.76h-105.44a28.656 28.656 0 0 1-2.16 10.72 28.384 28.384 0 0 1-8.128 10.928 28.096 28.096 0 0 1-17.76 6.352h-3.52v51.36a25.552 25.552 0 0 1-18.176 24.496 26.016 26.016 0 0 1-9.952 0.976A25.52 25.52 0 0 1 130.08096 770.24a25.568 25.568 0 0 1-1.104-7.424v-49.76-1.6h-7.456a28.272 28.272 0 0 1-18-6.544 27.872 27.872 0 0 1-8.848-13.392 27.888 27.888 0 0 1-0.08-16.048 80.528 80.528 0 0 1-32.592-29.76A80.32 80.32 0 0 1 50.08096 603.2v-116.208a161.2 161.2 0 0 1 42.048-109.008 31.888 31.888 0 0 1-5.84-25.152 31.92 31.92 0 0 1 18.528-23.328 32.016 32.016 0 0 1 12.912-2.72h3.728V190.4h-15.36a24.032 24.032 0 0 1-22.24-33.264 24.048 24.048 0 0 1 22.24-14.848h93.92a24.032 24.032 0 0 1 23.008 31.04 24.752 24.752 0 0 1-3.024 6.384 24.4 24.4 0 0 1-8.656 7.84 23.984 23.984 0 0 1-11.344 2.848h-15.392v136.544h7.44c1.296 0 2.592 0.08 3.872 0.224 3.936-0.288 7.888-0.448 11.888-0.448h36.448a322.368 322.368 0 0 1 95.824-188.672 323.104 323.104 0 0 1 82.128-57.408A322.176 322.176 0 0 1 560.96096 48a323.024 323.024 0 0 1 320 325.248v250.576a79.888 79.888 0 0 1 38.176 29.504 80.512 80.512 0 0 1 13.44 33.856 80.912 80.912 0 0 1 0.88 12.208v33.936a34.976 34.976 0 0 1 25.6 33.6V768a35.12 35.12 0 0 1-7.152 21.12 34.88 34.88 0 0 1-18.448 12.48v21.76a44.656 44.656 0 0 1 22.8 8.96 44.8 44.8 0 0 1 17.536 31.616c0.128 1.376 0.192 2.752 0.192 4.128v1.36a45.584 45.584 0 0 1-3.216 16.64 44.8 44.8 0 0 1-19.184 22.176 45.52 45.52 0 0 1-16 5.568 44.912 44.912 0 0 1-4.256 0.416 79.872 79.872 0 0 1-10.048 24.48 80.128 80.128 0 0 1-17.552 19.808A79.344 79.344 0 0 1 854.56096 976H661.28096z m-15.776-276.592v196.416a15.952 15.952 0 0 0 12.688 15.648c1.024 0.224 2.048 0.336 3.088 0.352h193.28a15.936 15.936 0 0 0 14.576-9.92 15.952 15.952 0 0 0 1.2-6.08V699.392a15.952 15.952 0 0 0-12.688-15.648 15.936 15.936 0 0 0-3.088-0.352H661.28096a15.952 15.952 0 0 0-14.528 9.936 15.792 15.792 0 0 0-1.184 6.064l-0.064 0.016zM113.18496 486.992V603.2a15.968 15.968 0 0 0 15.776 16h198.24a15.92 15.92 0 0 0 13.52-10.176 16 16 0 0 0 1.072-5.824V406.816a15.952 15.952 0 0 0-12.688-15.648 15.936 15.936 0 0 0-3.088-0.352H207.84096a95.088 95.088 0 0 0-40.688 9.52 96.4 96.4 0 0 0-23.152 15.744 96.064 96.064 0 0 0-21.92 30.08 95.68 95.68 0 0 0-8.88 40.832z m543.536 104.176a28.16 28.16 0 0 1 21.664 10.256 27.936 27.936 0 0 1 6.368 17.776h133.072V373.248a258.88 258.88 0 0 0-3.632-47.824 258.688 258.688 0 0 0-12.464-46.304 257.568 257.568 0 0 0-34.24-63.12 256.832 256.832 0 0 0-112.96-86.368 256.416 256.416 0 0 0-176.384-3.68 256.256 256.256 0 0 0-108.72 72.368 253.728 253.728 0 0 0-28.352 38.688 255.92 255.92 0 0 0-32.896 89.648h17.936a79.328 79.328 0 0 1 50.288 18.464 79.888 79.888 0 0 1 24.144 34.88 79.648 79.648 0 0 1 4.432 26.816V603.2c0 5.392-0.544 10.72-1.6 16h179.04a28.208 28.208 0 0 1 6.368-17.792 27.888 27.888 0 0 1 16.208-9.728 27.76 27.76 0 0 1 5.472-0.544l46.256 0.032z m42.208-77.568a29.52 29.52 0 0 1-7.024-1.152c-22.192-6.272-43.744-13.856-60.048-19.744a22.368 22.368 0 0 1-12.896-12.048 22 22 0 0 1-1.92-8.8 21.824 21.824 0 0 1 1.68-8.848 20.48 20.48 0 0 1 2.576-5.824 20.912 20.912 0 0 1 7.68-7.2 20.704 20.704 0 0 1 8.096-2.528 20.976 20.976 0 0 1 8.416 0.848h0.256a37717.984 37717.984 0 0 0-42.464-69.072l-1.088-1.76c-12.32 10.224-24.096 19.936-35.52 29.36l-0.672 0.544a31.552 31.552 0 0 1-20.928 9.152 28.64 28.64 0 0 1-17.632-9.632 28.64 28.64 0 0 1-3.824-5.648c-23.408-35.2-47.6-71.616-71.184-107.632a27.296 27.296 0 0 1-4.928-12.656 27.36 27.36 0 0 1 1.728-13.472 22.24 22.24 0 0 1 12.432-11.6c1.824-0.688 3.712-1.12 5.648-1.328 1.328-0.176 2.656-0.24 4-0.208a25.44 25.44 0 0 1 20.208 13.664c9.296 14.192 18.8 28.592 28 42.544 9.2 13.952 18.72 28.368 28.032 42.592l1.68 2.512 1.92 2.832 36.048-29.376 1.088-0.896a32.192 32.192 0 0 1 20.88-9.024A29.344 29.344 0 0 1 631.13696 336c13.712 22.32 27.616 45.04 41.056 67.024l10.192 16.64 10.672-15.328 13.76-3.44a21.728 21.728 0 0 1 15.76 7.456 25.584 25.584 0 0 1 5.376 19.2c-1.6 20-3.76 41.184-6.592 64.736a21.728 21.728 0 0 1-11.504 18.72 22.224 22.224 0 0 1-7.952 2.464 21.792 21.792 0 0 1-2.08 0.128h-0.896z m-96.208-135.2l0.56 0.896-0.56-0.896z"  /></svg>