<?xml version="1.0" standalone="no"?><!DOCTYPE svg PUBLIC "-//W3C//DTD SVG 1.1//EN" "http://www.w3.org/Graphics/SVG/1.1/DTD/svg11.dtd"><svg class="icon" width="200px" height="200.00px" viewBox="0 0 1024 1024" version="1.1" xmlns="http://www.w3.org/2000/svg"><path fill="#ffffff" d="M479.893603 991.885043v-17.083871a451.442878 451.442878 0 0 1-41.270024-4.718859 480.523848 480.523848 0 0 1-20.475051-3.743095 486.76234 486.76234 0 0 1-40.150295-10.205533c-6.606403-1.999517-13.228802-4.142999-19.835205-6.430446a459.248991 459.248991 0 0 1-19.355322-7.326229 412.620262 412.620262 0 0 1-37.750875-17.21184 498.919402 498.919402 0 0 1-18.395553-9.853618 502.646501 502.646501 0 0 1-17.755708-10.653425c-5.870581-3.679111-11.629189-7.518183-17.275824-11.453231a367.751108 367.751108 0 0 1-16.795941-12.221046 448.771524 448.771524 0 0 1-61.265191-55.986467c-4.686867-5.118763-9.277757-10.317506-13.756674-15.628223a702.710142 702.710142 0 0 1-12.956868-16.236075 510.420622 510.420622 0 0 1-23.674278-34.119753 542.268923 542.268923 0 0 1-20.475051-36.103273 574.96502 574.96502 0 0 1-17.275824-37.798863 425.817072 425.817072 0 0 1-7.19826-19.435302c-2.351432-6.526422-4.526906-13.116829-6.558415-19.739229-1.919536-6.638395-3.727099-13.308783-5.438685-20.011163-1.711586-6.718376-3.247215-13.468744-4.638879-20.251105a655.041664 655.041664 0 0 1-3.839072-20.427062 447.107926 447.107926 0 0 1-2.719342-20.571028c-0.847795-6.878337-1.48764-13.772671-1.919536-20.683H32.001867a33.431919 33.431919 0 0 1-6.238492-0.607853 26.745535 26.745535 0 0 1-3.039266-0.767815 23.450332 23.450332 0 0 1-5.758608-2.39942 25.577817 25.577817 0 0 1-2.719342-1.615609 48.948168 48.948168 0 0 1-2.559382-1.871548 57.810026 57.810026 0 0 1-4.478917-4.430929 26.025709 26.025709 0 0 1-1.759575-2.527389 15.788184 15.788184 0 0 1-1.599613-2.68735 29.272924 29.272924 0 0 1-1.439652-2.847312 15.132342 15.132342 0 0 1-0.959768-2.943289 30.072731 30.072731 0 0 1-1.279691-12.428995 30.424646 30.424646 0 0 1 1.279691-6.158512 15.132342 15.132342 0 0 1 0.959768-2.943288c0.431896-0.959768 0.91178-1.919536 1.439652-2.847312a15.788184 15.788184 0 0 1 1.599613-2.68735c0.527872-0.879787 1.119729-1.711586 1.759575-2.52739a75.053858 75.053858 0 0 1 4.478917-4.430929 48.948168 48.948168 0 0 1 2.559382-1.871547c0.847795-0.575861 1.759575-1.119729 2.719342-1.599613a23.450332 23.450332 0 0 1 5.758608-2.399421c0.959768-0.319923 1.967524-0.575861 3.039266-0.78381A33.431919 33.431919 0 0 1 32.001867 480.008773h17.115863c0.431896-6.91033 1.071741-13.804663 1.919536-20.683001 0.751818-6.878337 1.647602-13.740679 2.719342-20.571027 1.167718-6.846345 2.447408-13.644702 3.839072-20.427063 1.391664-6.782361 2.927292-13.532729 4.638879-20.251105 1.711586-6.718376 3.519149-13.372768 5.438685-19.995166 2.031509-6.638395 4.206983-13.228802 6.558415-19.755225 2.239459-6.542419 4.686867-13.020853 7.358222-19.435302 2.559381-6.430446 5.278724-12.796907 8.158028-19.099384 2.879304-6.28648 5.870581-12.524972 8.957834-18.69948a557.001362 557.001362 0 0 1 20.475051-36.103273 530.719715 530.719715 0 0 1 23.674278-34.119752c4.270968-5.50267 8.589924-10.925359 12.956868-16.236076 4.478917-5.310716 9.069808-10.525456 13.756674-15.628222 4.686867-5.118763 9.437719-10.125552 14.236559-15.020369a463.088063 463.088063 0 0 1 63.824573-53.187144c5.646635-3.951045 11.405243-7.758125 17.275824-11.453232 5.870581-3.679111 11.78915-7.230252 17.755708-10.653425 6.078531-3.423173 12.20505-6.718376 18.395553-9.853618a413.644014 413.644014 0 0 1 37.750875-17.211839c6.398453-2.591374 12.844895-5.022786 19.355322-7.326229 6.606403-2.287447 13.228802-4.430929 19.835205-6.430446a453.682336 453.682336 0 0 1 40.150295-10.205533 481.275667 481.275667 0 0 1 41.110063-6.558415c6.830349-0.799807 13.708686-1.439652 20.635012-1.90354V32.117037a30.648592 30.648592 0 0 1 1.439652-9.277758 15.148338 15.148338 0 0 1 0.959768-2.959284c0.431896-0.959768 0.91178-1.919536 1.439652-2.847312a15.612226 15.612226 0 0 1 1.599613-2.687351c0.527872-0.879787 1.119729-1.711586 1.759575-2.527389a72.510473 72.510473 0 0 1 4.478917-4.430929c0.847795-0.671838 1.711586-1.279691 2.559382-1.871547 0.847795-0.575861 1.759575-1.119729 2.719342-1.599614a23.306366 23.306366 0 0 1 5.758609-2.39942c0.959768-0.319923 1.967524-0.575861 3.039265-0.78381a33.351938 33.351938 0 0 1 12.476984 0c1.071741 0.20795 2.079497 0.479884 3.039265 0.767814a23.306366 23.306366 0 0 1 5.758608 2.39942c0.959768 0.49588 1.871548 1.039749 2.719343 1.61561 0.847795 0.575861 1.711586 1.19971 2.559381 1.871547a56.80227 56.80227 0 0 1 4.478918 4.430929c0.639845 0.799807 1.231702 1.647602 1.759574 2.527389 0.639845 0.863791 1.167718 1.759575 1.599614 2.687351 0.527872 0.927776 1.007756 1.871548 1.439652 2.847312 0.431896 0.959768 0.751818 1.951528 0.959768 2.943288A29.640835 29.640835 0 0 1 543.878137 32.117037v17.08387a451.68282 451.68282 0 0 1 41.270024 4.71886c6.830349 1.087737 13.644702 2.335435 20.475051 3.743095a484.442901 484.442901 0 0 1 40.150295 10.205533c6.606403 1.999517 13.228802 4.142999 19.835205 6.430446 6.510426 2.303443 12.956868 4.734855 19.355322 7.326229a413.644014 413.644014 0 0 1 37.750875 17.211839c6.190504 3.135242 12.317023 6.430446 18.395553 9.853618a501.926675 501.926675 0 0 1 35.191494 22.106657c5.646635 3.951045 11.197293 8.014063 16.635978 12.221046a448.931485 448.931485 0 0 1 47.028633 40.966098c4.910813 4.894817 9.645668 9.901607 14.236558 15.004373 4.686867 5.118763 9.277757 10.333502 13.756675 15.644218 4.366944 5.310716 8.6859 10.717409 12.956868 16.236076a508.581066 508.581066 0 0 1 23.674278 34.119752 542.28492 542.28492 0 0 1 20.475051 36.103273 572.117708 572.117708 0 0 1 17.275824 37.798864c2.559381 6.41445 4.958801 12.892884 7.19826 19.435302 2.351432 6.526422 4.526906 13.116829 6.558414 19.739229 1.919536 6.638395 3.727099 13.308783 5.438686 20.011162 1.711586 6.718376 3.247215 13.468744 4.638878 20.251105 1.391664 6.782361 2.671354 13.596713 3.839072 20.427063 1.071741 6.830349 1.967524 13.69269 2.719343 20.571027 0.847795 6.878337 1.48764 13.772671 1.919536 20.683001H991.769873a33.463911 33.463911 0 0 1 6.238492 0.607853c1.071741 0.20795 2.079497 0.479884 3.039265 0.767814a23.354355 23.354355 0 0 1 5.758608 2.39942c0.959768 0.49588 1.871548 1.039749 2.719343 1.61561 0.847795 0.575861 1.711586 1.19971 2.559381 1.871547a56.402366 56.402366 0 0 1 4.478918 4.430929c0.639845 0.799807 1.231702 1.647602 1.759574 2.52739a15.676211 15.676211 0 0 1 1.599614 2.68735c0.527872 0.927776 1.007756 1.871548 1.439652 2.847312 0.431896 0.959768 0.751818 1.951528 0.959768 2.943288A29.720816 29.720816 0 0 1 1023.76214 512.00104a30.616599 30.616599 0 0 1-1.439652 9.277757 15.148338 15.148338 0 0 1-0.959768 2.959285c-0.431896 0.959768-0.91178 1.919536-1.439652 2.847312a15.676211 15.676211 0 0 1-1.599614 2.68735c-0.527872 0.879787-1.119729 1.711586-1.759574 2.527389a72.830396 72.830396 0 0 1-4.478918 4.430929c-0.847795 0.671838-1.711586 1.279691-2.559381 1.871548-0.847795 0.575861-1.759575 1.119729-2.719343 1.599613a23.354355 23.354355 0 0 1-5.758608 2.39942c-0.959768 0.319923-1.967524 0.575861-3.039265 0.783811A33.463911 33.463911 0 0 1 991.769873 543.993307h-17.115863a339.917835 339.917835 0 0 1-1.919536 20.683c-0.751818 6.878337-1.647602 13.740679-2.719343 20.571028-1.167718 6.846345-2.447408 13.644702-3.839072 20.427062-1.391664 6.782361-2.927292 13.532729-4.638878 20.251105-1.711586 6.718376-3.519149 13.372768-5.438686 19.995167-2.031509 6.638395-4.206983 13.228802-6.558414 19.755225-2.239459 6.542419-4.638879 13.020853-7.19826 19.435302a595.312102 595.312102 0 0 1-17.275824 37.798863 562.408055 562.408055 0 0 1-20.475051 36.103273 528.096349 528.096349 0 0 1-23.674278 34.119753c-4.270968 5.50267-8.589924 10.925359-12.956868 16.236075-4.478917 5.310716-9.069808 10.525456-13.756675 15.628223-4.59089 5.118763-9.325746 10.125552-14.236558 15.020369a463.088063 463.088063 0 0 1-30.712577 28.025226c-5.326712 4.430929-10.717409 8.749885-16.156094 12.956868-5.550658 4.190987-11.149305 8.254005-16.79594 12.20505a526.688689 526.688689 0 0 1-35.191494 22.106656c-6.078531 3.423173-12.20505 6.718376-18.395553 9.853618a412.620262 412.620262 0 0 1-37.750875 17.21184c-6.398453 2.591374-12.844895 5.022786-19.355322 7.326229-6.606403 2.287447-13.228802 4.430929-19.835205 6.430446a453.010499 453.010499 0 0 1-40.150295 10.205533 480.523848 480.523848 0 0 1-41.110063 6.558414c-6.830349 0.799807-13.708686 1.439652-20.635012 1.90354V991.885043a30.616599 30.616599 0 0 1-1.439652 9.277757 15.148338 15.148338 0 0 1-0.959768 2.959285c-0.431896 0.959768-0.91178 1.919536-1.439652 2.847312a15.676211 15.676211 0 0 1-1.599614 2.68735c-0.527872 0.879787-1.119729 1.711586-1.759574 2.527389a72.830396 72.830396 0 0 1-4.478918 4.430929c-0.847795 0.671838-1.711586 1.279691-2.559381 1.871548-0.847795 0.575861-1.759575 1.119729-2.719343 1.599613a23.082421 23.082421 0 0 1-5.758608 2.39942c-0.959768 0.319923-1.967524 0.575861-3.039265 0.783811a33.463911 33.463911 0 0 1-12.476984 0 26.777527 26.777527 0 0 1-3.039265-0.767815 23.082421 23.082421 0 0 1-5.758609-2.39942 25.60981 25.60981 0 0 1-2.719342-1.615609 48.932172 48.932172 0 0 1-2.559382-1.871548 56.402366 56.402366 0 0 1-4.478917-4.430929 25.721783 25.721783 0 0 1-1.759575-2.527389 15.676211 15.676211 0 0 1-1.599613-2.68735 29.336909 29.336909 0 0 1-1.439652-2.847312 15.148338 15.148338 0 0 1-0.959768-2.943289A29.720816 29.720816 0 0 1 479.893603 991.885043zM143.334956 667.643418c5.00679 11.853135 10.605436 23.434335 16.79594 34.759598 6.078531 11.309266 12.748918 22.29861 19.995166 32.968031 7.150272 10.669421 14.828416 20.954935 23.034433 30.888534 8.206016 9.917603 16.843929 19.435302 25.913736 28.521106a395.104496 395.104496 0 0 0 28.473117 25.961724c10.029576 8.19002 20.363078 15.868164 31.032499 23.066425a399.071537 399.071537 0 0 0 128.28899 56.786273c20.683001 5.054778 41.70192 8.413966 63.024766 10.061568V895.908242a30.616599 30.616599 0 0 1 1.439652-9.277757 15.148338 15.148338 0 0 1 0.959768-2.959285c0.431896-0.959768 0.91178-1.919536 1.439652-2.847312a15.676211 15.676211 0 0 1 1.599613-2.68735c0.527872-0.879787 1.119729-1.711586 1.759575-2.527389a72.830396 72.830396 0 0 1 4.478917-4.430929c0.847795-0.671838 1.711586-1.279691 2.559382-1.871548 0.847795-0.575861 1.759575-1.119729 2.719342-1.599613a23.354355 23.354355 0 0 1 5.758609-2.39942c0.959768-0.319923 1.967524-0.575861 3.039265-0.783811a33.463911 33.463911 0 0 1 12.476984 0c1.071741 0.20795 2.079497 0.479884 3.039265 0.767815a23.354355 23.354355 0 0 1 5.758608 2.39942c0.959768 0.49588 1.871548 1.039749 2.719343 1.615609 0.847795 0.575861 1.711586 1.19971 2.559381 1.871548a56.402366 56.402366 0 0 1 4.478918 4.430929c0.639845 0.799807 1.231702 1.647602 1.759574 2.527389a15.676211 15.676211 0 0 1 1.599614 2.68735c0.527872 0.927776 1.007756 1.871548 1.439652 2.847312 0.431896 0.959768 0.751818 1.951528 0.959768 2.943289A29.720816 29.720816 0 0 1 543.878137 895.908242v14.732439a392.961014 392.961014 0 0 0 63.024766-10.077564 397.9838 397.9838 0 0 0 159.161527-79.852698 375.717182 375.717182 0 0 0 28.633079-25.945729 414.891713 414.891713 0 0 0 25.913736-28.521105c8.206016-9.917603 15.884161-20.219113 23.034432-30.888534 7.246248-10.669421 13.916636-21.658765 19.995167-32.984027a390.689563 390.689563 0 0 0 36.791107-95.352952c5.118763-20.730989 8.477951-41.749908 10.077564-63.040762H895.793072a33.463911 33.463911 0 0 1-6.238492-0.607853 26.777527 26.777527 0 0 1-3.039265-0.767814 23.354355 23.354355 0 0 1-5.758608-2.39942 25.60981 25.60981 0 0 1-2.719343-1.615609 48.932172 48.932172 0 0 1-2.559381-1.871548 56.402366 56.402366 0 0 1-4.478917-4.430929 25.721783 25.721783 0 0 1-1.759575-2.527389 15.548242 15.548242 0 0 1-1.599614-2.687351 29.336909 29.336909 0 0 1-1.439652-2.847311 15.148338 15.148338 0 0 1-0.959768-2.943289 29.720816 29.720816 0 0 1-1.439652-9.293753 30.648592 30.648592 0 0 1 1.439652-9.277758 15.148338 15.148338 0 0 1 0.959768-2.959284c0.431896-0.959768 0.91178-1.919536 1.439652-2.847312a15.676211 15.676211 0 0 1 1.599614-2.687351c0.527872-0.879787 1.119729-1.711586 1.759575-2.527389a72.830396 72.830396 0 0 1 4.478917-4.430929c0.847795-0.655841 1.711586-1.279691 2.559381-1.871547 0.847795-0.575861 1.759575-1.119729 2.719343-1.599614a23.354355 23.354355 0 0 1 5.758608-2.39942c0.959768-0.319923 1.967524-0.575861 3.039265-0.78381A33.463911 33.463911 0 0 1 895.793072 480.008773h14.716443c-1.599613-21.274857-4.958801-42.293777-10.077564-63.024766a390.609582 390.609582 0 0 0-36.791107-95.368947 370.694396 370.694396 0 0 0-19.995167-32.968031 380.995906 380.995906 0 0 0-23.034432-30.888534 414.827728 414.827728 0 0 0-25.913736-28.521106 394.784573 394.784573 0 0 0-28.473117-25.961725 421.738058 421.738058 0 0 0-31.032499-23.066424 398.623645 398.623645 0 0 0-128.28899-56.786274A393.232948 393.232948 0 0 0 543.878137 113.361398V128.093837a30.648592 30.648592 0 0 1-1.439652 9.277758 15.148338 15.148338 0 0 1-0.959768 2.959284 29.272924 29.272924 0 0 1-1.439652 2.847312 15.628222 15.628222 0 0 1-1.599614 2.687351c-0.527872 0.879787-1.119729 1.711586-1.759574 2.527389a73.342272 73.342272 0 0 1-4.478918 4.430929c-0.847795 0.671838-1.711586 1.279691-2.559381 1.871547-0.847795 0.575861-1.759575 1.119729-2.719343 1.599614a23.194393 23.194393 0 0 1-5.758608 2.39942c-0.959768 0.319923-1.967524 0.575861-3.039265 0.78381a33.463911 33.463911 0 0 1-12.476984 0 26.777527 26.777527 0 0 1-3.039265-0.767814 23.194393 23.194393 0 0 1-5.758609-2.39942 25.529829 25.529829 0 0 1-2.719342-1.61561 49.204106 49.204106 0 0 1-2.559382-1.871547 56.402366 56.402366 0 0 1-4.478917-4.430929 25.721783 25.721783 0 0 1-1.759575-2.527389 15.628222 15.628222 0 0 1-1.599613-2.687351 29.272924 29.272924 0 0 1-1.439652-2.847312 15.148338 15.148338 0 0 1-0.959768-2.943288A29.640835 29.640835 0 0 1 479.893603 128.093837v-14.748435a393.312929 393.312929 0 0 0-63.024766 10.077564 398.351711 398.351711 0 0 0-128.28899 56.770278c-10.669421 7.19826-21.002923 14.876404-31.032499 23.08242a395.104496 395.104496 0 0 0-28.473117 25.945729 414.443821 414.443821 0 0 0-25.913736 28.521106c-8.206016 9.917603-15.884161 20.219113-23.034433 30.872537a370.950334 370.950334 0 0 0-19.995166 32.984027 390.86552 390.86552 0 0 0-36.791107 95.368948c-5.118763 20.746985-8.477951 41.749908-10.077564 63.040762H127.978667a33.431919 33.431919 0 0 1 6.238493 0.607853c1.071741 0.20795 2.079497 0.479884 3.039265 0.767814a23.450332 23.450332 0 0 1 5.758608 2.39942c0.959768 0.49588 1.871548 1.039749 2.719343 1.61561 0.847795 0.575861 1.711586 1.19971 2.559381 1.871547a57.762038 57.762038 0 0 1 4.478917 4.430929c0.639845 0.799807 1.231702 1.647602 1.759575 2.52739 0.639845 0.863791 1.167718 1.759575 1.599613 2.68735 0.527872 0.927776 1.007756 1.871548 1.439652 2.847312 0.431896 0.959768 0.751818 1.951528 0.959768 2.943288a30.040739 30.040739 0 0 1 1.279691 12.428996 30.392654 30.392654 0 0 1-1.279691 6.158511 15.132342 15.132342 0 0 1-0.959768 2.943289c-0.431896 0.959768-0.91178 1.919536-1.439652 2.847312a15.788184 15.788184 0 0 1-1.599613 2.68735c-0.527872 0.879787-1.119729 1.711586-1.759575 2.527389a74.829912 74.829912 0 0 1-4.478917 4.430929c-0.847795 0.671838-1.711586 1.279691-2.559381 1.871548a25.593813 25.593813 0 0 1-2.719343 1.599613 23.450332 23.450332 0 0 1-5.758608 2.39942c-0.959768 0.319923-1.967524 0.575861-3.039265 0.783811A33.431919 33.431919 0 0 1 127.978667 543.993307h-14.716442c1.599613 21.274857 4.958801 42.309773 10.077564 63.040761 5.00679 20.746985 11.677177 40.950102 19.995167 60.60935zM207.959335 512.00104c0-4.958801 0.111973-9.949595 0.319922-14.908397 0.319923-4.958801 0.687834-9.917603 1.11973-14.876404 0.527872-4.958801 1.167718-9.88561 1.919536-14.812419 0.639845-4.926809 1.48764-9.821626 2.559381-14.700447 0.959768-4.878821 2.031509-9.725649 3.199227-14.556481 1.167718-4.814836 2.511393-9.59768 3.999033-14.364528 1.391664-4.766848 2.927292-9.485707 4.638879-14.172574 1.711586-4.686867 3.519149-9.325746 5.438685-13.916636 1.807563-4.59089 3.791084-9.133792 5.91857-13.628706a313.524215 313.524215 0 0 1 14.076597-26.31364 295.576554 295.576554 0 0 1 16.635979-24.794006c2.991277-3.999033 6.030542-7.918086 9.117796-11.757159 3.199227-3.839072 6.446442-7.61416 9.757641-11.309266 3.407176-3.679111 6.830349-7.278241 10.237526-10.79739 3.519149-3.519149 7.150272-6.942322 10.87737-10.285514a358.265401 358.265401 0 0 1 23.034432-18.923426c4.047022-2.959285 8.11004-5.822593 12.157062-8.589923a321.954178 321.954178 0 0 1 25.593813-15.340292c4.366944-2.335435 8.845862-4.574894 13.436752-6.70238a299.991486 299.991486 0 0 1 70.542949-23.338359 314.57996 314.57996 0 0 1 29.592847-4.38294A296.504329 296.504329 0 0 1 511.88587 208.074504a298.631815 298.631815 0 0 1 29.752808 1.455649 296.472337 296.472337 0 0 1 29.592847 4.38294c4.79884 0.959768 9.645668 2.063501 14.556481 3.263211 4.79884 1.215706 9.59768 2.543385 14.39652 3.999034a332.559614 332.559614 0 0 1 27.993234 10.029575c4.59089 1.919536 9.117796 3.919053 13.596713 6.046539 4.59089 2.127486 9.069808 4.366944 13.436752 6.718376a312.036575 312.036575 0 0 1 25.593814 15.324296c4.047022 2.767331 8.11004 5.630639 12.157061 8.589923a333.711336 333.711336 0 0 1 33.911803 29.20894c3.407176 3.519149 6.830349 7.118279 10.237526 10.79739 3.3112 3.679111 6.558415 7.454198 9.757641 11.309266 3.087254 3.839072 6.126519 7.758125 9.117796 11.757159a289.546011 289.546011 0 0 1 16.635979 24.794006 302.918779 302.918779 0 0 1 14.076597 26.297644c2.127486 4.494913 4.111006 9.053812 5.91857 13.644702 1.919536 4.59089 3.727099 9.229769 5.438685 13.916636 1.711586 4.686867 3.247215 9.405726 4.638879 14.172574 1.48764 4.750852 2.831316 9.549692 3.999033 14.364528 1.167718 4.830832 2.287447 9.677661 3.359188 14.556481 0.959768 4.878821 1.759575 9.773638 2.39942 14.716443 0.751818 4.910813 1.391664 9.837622 1.919536 14.796423 0.431896 4.958801 0.799807 9.917603 1.119729 14.876404a348.571744 348.571744 0 0 1 0 29.816793c-0.319923 4.958801-0.687834 9.917603-1.119729 14.876404-0.527872 4.958801-1.167718 9.88561-1.919536 14.81242-0.639845 4.926809-1.439652 9.821626-2.39942 14.700446-1.071741 4.878821-2.19147 9.725649-3.359188 14.556482-1.167718 4.814836-2.511393 9.59768-3.999033 14.364528-1.391664 4.766848-2.927292 9.485707-4.638879 14.172574-1.711586 4.686867-3.519149 9.325746-5.438685 13.916636-1.807563 4.59089-3.791084 9.133792-5.91857 13.628706a313.524215 313.524215 0 0 1-14.076597 26.313639 295.640538 295.640538 0 0 1-16.635979 24.794007c-2.991277 3.999033-6.030542 7.918086-9.117796 11.773154-3.199227 3.839072-6.446442 7.598163-9.757641 11.29327-3.407176 3.679111-6.830349 7.278241-10.237526 10.79739-3.519149 3.519149-7.150272 6.942322-10.87737 10.285514a358.265401 358.265401 0 0 1-23.034433 18.923426c-4.047022 2.959285-8.11004 5.822593-12.157061 8.589924a321.954178 321.954178 0 0 1-25.593814 15.340292c-4.366944 2.335435-8.845862 4.574894-13.436752 6.70238a299.991486 299.991486 0 0 1-70.542948 23.338358 314.57996 314.57996 0 0 1-29.592847 4.366945A296.504329 296.504329 0 0 1 511.88587 815.927575a298.631815 298.631815 0 0 1-29.752808-1.471644 296.472337 296.472337 0 0 1-29.592847-4.366945c-4.79884-0.959768-9.645668-2.063501-14.556482-3.263211-4.79884-1.215706-9.59768-2.543385-14.39652-3.999033a332.559614 332.559614 0 0 1-27.993233-10.029576c-4.59089-1.919536-9.117796-3.919053-13.596714-6.046538s-8.957835-4.366944-13.436752-6.718376a312.036575 312.036575 0 0 1-25.593813-15.324296 446.100169 446.100169 0 0 1-12.157062-8.589924 333.711336 333.711336 0 0 1-23.034432-18.923426 367.799096 367.799096 0 0 1-21.114896-21.082904c-3.3112-3.679111-6.558415-7.454198-9.757641-11.29327-3.087254-3.839072-6.126519-7.774121-9.117796-11.773154a291.641505 291.641505 0 0 1-23.9942-37.766871 313.524215 313.524215 0 0 1-6.718376-13.340775 222.250278 222.250278 0 0 1-5.91857-13.628706c-1.919536-4.59089-3.727099-9.229769-5.438685-13.916636a226.233315 226.233315 0 0 1-4.638879-14.172574 229.784457 229.784457 0 0 1-3.999033-14.364528c-1.167718-4.830832-2.239459-9.677661-3.199227-14.556482-1.071741-4.878821-1.919536-9.773638-2.559381-14.716442a343.277024 343.277024 0 0 1-1.919536-14.796424c-0.431896-4.958801-0.799807-9.917603-1.11973-14.876404-0.20795-4.958801-0.319923-9.933599-0.319922-14.908396z m303.926535 239.942001a239.302156 239.302156 0 0 0 112.452818-27.833272c-0.431896-2.559381-0.91178-5.118763-1.439652-7.678144a91.609856 91.609856 0 0 0-1.919536-7.550175 166.199826 166.199826 0 0 0-2.39942-7.390214c-0.959768-2.431412-1.967524-4.830832-3.039265-7.19826a89.242428 89.242428 0 0 0-3.51915-6.958318 62.400917 62.400917 0 0 0-3.999033-6.686383 85.691287 85.691287 0 0 0-4.478918-6.398454 83.067921 83.067921 0 0 0-10.237525-11.693173 82.108153 82.108153 0 0 0-5.758608-5.278724 81.276354 81.276354 0 0 0-6.078531-4.830833 155.434429 155.434429 0 0 0-6.398453-4.38294 143.245375 143.245375 0 0 0-6.718376-3.903057 133.471737 133.471737 0 0 0-7.038299-3.39118 101.959355 101.959355 0 0 0-14.716443-5.246732 102.311269 102.311269 0 0 0-28.153194-3.743095c-2.239459 0-4.430929-0.319923-6.558415-0.91178a23.674277 23.674277 0 0 1-6.558415 0.91178 102.311269 102.311269 0 0 0-35.511416 6.094527 128.768874 128.768874 0 0 0-7.358221 2.879304 132.256031 132.256031 0 0 0-7.038299 3.407176c-2.239459 1.231702-4.478917 2.527389-6.718376 3.903057a155.434429 155.434429 0 0 0-6.398454 4.38294c-2.127486 1.535629-4.158995 3.151238-6.07853 4.846829a82.108153 82.108153 0 0 0-5.758608 5.262728c-1.807563 1.823559-3.631122 3.711103-5.438686 5.662631a83.067921 83.067921 0 0 0-4.79884 6.046538c-1.599613 2.079497-3.087254 4.190987-4.478917 6.382458a62.400917 62.400917 0 0 0-3.999033 6.686383c-1.279691 2.271451-2.447408 4.59089-3.51915 6.958318-1.071741 2.367428-2.079497 4.766848-3.039265 7.19826-0.847795 2.431412-1.647602 4.894817-2.39942 7.390214a91.609856 91.609856 0 0 0-1.919536 7.550175c-0.527872 2.559381-1.007756 5.118763-1.439652 7.678144 8.637912 4.574894 17.547758 8.60592 26.713543 12.093077 9.069808 3.487157 18.347565 6.398453 27.833272 8.749885A239.622079 239.622079 0 0 0 511.88587 751.943041z m48.148362-162.488723a157.753868 157.753868 0 0 1 96.616645 79.276837c4.270968 8.461955 7.726132 17.243832 10.397487 26.345632 5.00679-4.270968 9.80563-8.717893 14.39652-13.356772 5.646635-5.550658 10.989344-11.357255 15.996134-17.419789 5.00679-6.078531 9.709653-12.365011 14.076597-18.891433 4.366944-6.542419 8.429962-13.276791 12.157062-20.203117 3.631122-6.926326 6.99031-14.028609 10.077564-21.290854 2.991277-7.278241 5.598647-14.668454 7.838105-22.202633 2.351432-7.518183 4.270968-15.148338 5.758608-22.858474a245.508656 245.508656 0 0 0 3.359188-70.382988 245.380687 245.380687 0 0 0-3.359188-23.306366c-1.599613-7.710136-3.519149-15.340292-5.758608-22.858475-2.239459-7.518183-4.846828-14.924392-7.838105-22.186637a296.600306 296.600306 0 0 0-10.077564-21.274857 245.588637 245.588637 0 0 0-12.157062-20.203117 234.023432 234.023432 0 0 0-14.076597-18.891433 247.348211 247.348211 0 0 0-52.147395-47.348555 254.418502 254.418502 0 0 0-20.31509-12.125069 239.542098 239.542098 0 0 0-66.223992-23.70627A237.478597 237.478597 0 0 0 511.88587 272.059038a236.982717 236.982717 0 0 0-46.868671 4.51091c-7.678144 1.535629-15.3083 3.439169-22.874471 5.710619a241.47763 241.47763 0 0 0-82.540048 44.197317 247.68413 247.68413 0 0 0-33.271958 33.271958c-5.00679 6.078531-9.709653 12.381007-14.076597 18.907429-4.366944 6.526422-8.429962 13.260795-12.157062 20.187121a296.248391 296.248391 0 0 0-10.077564 21.274857c-2.991277 7.278241-5.598647 14.668454-7.838105 22.186637s-4.158995 15.148338-5.758608 22.874471A245.268714 245.268714 0 0 0 271.943868 512.00104a247.972061 247.972061 0 0 0 4.478918 46.836678c1.599613 7.710136 3.519149 15.324296 5.758608 22.842479 2.239459 7.518183 4.846828 14.924392 7.838105 22.186637 3.087254 7.262245 6.446442 14.364528 10.077564 21.274858 3.727099 6.942322 7.790117 13.676694 12.157062 20.203116 4.366944 6.526422 9.069808 12.828899 14.076597 18.891434 5.00679 6.078531 10.285514 11.869131 15.836172 17.419789 4.686867 4.670871 9.485707 9.117796 14.39652 13.356771 2.671354-9.117796 6.190504-17.883677 10.557448-26.345631a151.643345 151.643345 0 0 1 31.832306-42.485731 155.866324 155.866324 0 0 1 41.270024-27.993233c7.566171-3.519149 15.356288-6.446442 23.354355-8.749885a151.035492 151.035492 0 0 1 41.589947-5.678628c2.239459 0 4.430929 0.303927 6.558415 0.91178 2.127486-0.607853 4.318956-0.91178 6.558414-0.91178a151.275434 151.275434 0 0 1 41.749909 5.678628v0.015996z m-152.123229-119.18719c0-1.69559 0.047988-3.407176 0.159961-5.102767l0.319923-5.08677 0.639845-5.070775c0.20795-1.679594 0.479884-3.359188 0.799807-5.022786a86.219159 86.219159 0 0 0 1.119729-4.974797c0.431896-1.663598 0.91178-3.295203 1.439652-4.926809l1.599613-4.846829c0.527872-1.599613 1.119729-3.199227 1.759575-4.750851 0.751818-1.583617 1.439652-3.135242 2.079497-4.670871 0.751818-1.535629 1.551625-3.055261 2.39942-4.558898 0.751818-1.503637 1.551625-2.975281 2.39942-4.446925l2.879304-4.318956c0.847795-1.40766 1.807563-2.799323 2.879304-4.158995 0.959768-1.359671 2.031509-2.719343 3.199227-4.031026 1.071741-1.311683 2.127486-2.591374 3.199227-3.855068 1.167718-1.263695 2.351432-2.495397 3.519149-3.695107 1.279691-1.19971 2.511393-2.383424 3.679111-3.519149 1.279691-1.151722 2.60737-2.255455 3.999033-3.343192 1.279691-1.071741 2.60737-2.127486 3.999034-3.135242s2.767331-1.999517 4.158994-2.943289c1.391664-0.943772 2.831316-1.855551 4.318956-2.719342a138.766458 138.766458 0 0 1 8.957835-4.79884c1.599613-0.735822 3.151238-1.439652 4.638879-2.079498a119.363148 119.363148 0 0 1 9.59768-3.439168c1.711586-0.49588 3.359188-0.959768 4.958801-1.359672a112.132895 112.132895 0 0 1 20.155128-2.991277 104.934635 104.934635 0 0 1 35.351455 4.350949 111.653011 111.653011 0 0 1 14.236559 5.50267 130.40048 130.40048 0 0 1 8.957835 4.79884c1.48764 0.879787 2.927292 1.791567 4.318956 2.735338 1.391664 0.959768 2.767331 1.919536 4.158994 2.943289 1.391664 1.007756 2.719343 2.063501 3.999034 3.135242 1.391664 1.087737 2.671354 2.19147 3.839072 3.343192 1.279691 1.135725 2.559381 2.319439 3.839072 3.519149 1.167718 1.19971 2.351432 2.431412 3.519149 3.679111l3.199227 3.871064c1.167718 1.327679 2.239459 2.655358 3.199226 4.031026 1.071741 1.359671 2.031509 2.751335 2.879304 4.158995l2.879304 4.318956c0.847795 1.471644 1.647602 2.943289 2.39942 4.446925 0.847795 1.503637 1.647602 3.023269 2.399421 4.558898 0.639845 1.535629 1.327679 3.087254 2.079497 4.670871 0.639845 1.567621 1.231702 3.151238 1.759575 4.750851l1.599613 4.846829c0.527872 1.631606 1.007756 3.263211 1.439652 4.926809 0.319923 1.647602 0.687834 3.3112 1.119729 4.958801 0.319923 1.679594 0.591857 3.359188 0.799807 5.038782l0.639845 5.070775 0.319923 5.08677a81.00442 81.00442 0 0 1 0 10.205533l-0.319923 5.086771-0.639845 5.070774c-0.20795 1.679594-0.479884 3.359188-0.799807 5.022786a86.219159 86.219159 0 0 0-1.119729 4.974797 82.172137 82.172137 0 0 1-1.439652 4.926809l-1.599613 4.846829c-0.527872 1.599613-1.119729 3.199227-1.759575 4.750851-0.751818 1.583617-1.439652 3.135242-2.079497 4.670871a78.509023 78.509023 0 0 1-2.399421 4.558898 75.917649 75.917649 0 0 1-2.39942 4.446926l-2.879304 4.318956a42.165808 42.165808 0 0 1-2.879304 4.158994 44.149328 44.149328 0 0 1-3.199226 4.031026c-1.071741 1.311683-2.127486 2.591374-3.199227 3.855068-1.167718 1.263695-2.351432 2.495397-3.519149 3.695107-1.279691 1.19971-2.511393 2.383424-3.679111 3.519149-1.279691 1.151722-2.60737 2.255455-3.999033 3.343192-1.279691 1.071741-2.60737 2.127486-3.999034 3.135242a153.882804 153.882804 0 0 1-4.158994 2.927293c-1.391664 0.959768-2.831316 1.855551-4.318956 2.735339a138.766458 138.766458 0 0 1-8.957835 4.79884c-1.48764 0.735822-3.039265 1.439652-4.638879 2.079497a119.363148 119.363148 0 0 1-9.59768 3.439169c-1.711586 0.49588-3.359188 0.959768-4.958801 1.359671a112.132895 112.132895 0 0 1-20.155128 2.991277 104.934635 104.934635 0 0 1-35.351455-4.350948 113.908466 113.908466 0 0 1-14.236559-5.50267 127.649145 127.649145 0 0 1-8.957835-4.79884 75.117843 75.117843 0 0 1-4.318956-2.751335 153.882804 153.882804 0 0 1-4.158994-2.927293 73.18231 73.18231 0 0 1-3.999034-3.151238 77.549255 77.549255 0 0 1-3.999033-3.327196 297.208159 297.208159 0 0 0-3.679111-3.519149 206.861998 206.861998 0 0 1-3.519149-3.695107l-3.199227-3.871064a43.925382 43.925382 0 0 1-3.199227-4.01503 42.389754 42.389754 0 0 1-2.879304-4.174991 360.392886 360.392886 0 0 1-2.879304-4.318956 75.917649 75.917649 0 0 1-2.39942-4.430929 79.564768 79.564768 0 0 1-2.39942-4.558898 105.158581 105.158581 0 0 0-2.079497-4.670871 77.373297 77.373297 0 0 1-1.759575-4.766847l-1.599613-4.846829a82.572041 82.572041 0 0 1-1.439652-4.910813 85.979217 85.979217 0 0 0-1.119729-4.990793 82.20413 82.20413 0 0 1-0.799807-5.022786l-0.639845-5.070775-0.319923-5.08677a81.100397 81.100397 0 0 1-0.159961-5.102767v0.015997z m47.9884 0c0 1.839555 0.111973 3.663115 0.319923 5.486673 0.111973 1.823559 0.367911 3.631122 0.799806 5.438686a46.468768 46.468768 0 0 0 3.199227 10.493463 44.213313 44.213313 0 0 0 5.118763 9.677661c1.071741 1.535629 2.127486 3.007273 3.199226 4.414933 1.167718 1.423656 2.447408 2.783327 3.839072 4.079014 1.279691 1.295687 2.60737 2.527389 3.999034 3.679111 1.391664 1.167718 2.879304 2.255455 4.478917 3.279207a52.00343 52.00343 0 0 0 9.59768 5.182747c1.711586 0.70383 3.407176 1.311683 5.118763 1.839555a61.425152 61.425152 0 0 0 10.877371 2.143482 54.786757 54.786757 0 0 0 16.316056-0.799806 61.425152 61.425152 0 0 0 5.438685-1.343676c1.711586-0.527872 3.407176-1.151722 5.118763-1.839555a51.955441 51.955441 0 0 0 9.59768-5.182747c1.599613-1.023753 3.087254-2.11149 4.478917-3.279207 1.391664-1.151722 2.767331-2.383424 4.158995-3.679111 1.279691-1.295687 2.511393-2.655358 3.679111-4.079014 1.071741-1.40766 2.127486-2.879304 3.199226-4.414933a44.261301 44.261301 0 0 0 5.118763-9.677661 46.036872 46.036872 0 0 0 3.199227-10.493463c0.431896-1.807563 0.687834-3.615126 0.799806-5.438686a47.364551 47.364551 0 0 0 0-10.973347 31.432402 31.432402 0 0 0-0.799806-5.438686 46.468768 46.468768 0 0 0-3.199227-10.493463 44.213313 44.213313 0 0 0-5.118763-9.677661 157.449941 157.449941 0 0 0-3.199226-4.414933 62.320936 62.320936 0 0 0-3.679111-4.079014 103.574964 103.574964 0 0 0-4.158995-3.67911 42.325769 42.325769 0 0 0-4.478917-3.279208 52.00343 52.00343 0 0 0-9.59768-5.182747 61.953025 61.953025 0 0 0-5.118763-1.839555 61.425152 61.425152 0 0 0-10.877371-2.143482 54.786757 54.786757 0 0 0-16.316056 0.799807c-1.807563 0.367911-3.631122 0.799807-5.438685 1.343675a62.544882 62.544882 0 0 0-5.118763 1.839555 52.323352 52.323352 0 0 0-9.59768 5.182747c-1.599613 1.007756-3.087254 2.095493-4.478917 3.263212-1.391664 1.167718-2.719343 2.39942-3.999034 3.67911a43.845402 43.845402 0 0 0-3.839072 4.079014c-1.071741 1.423656-2.127486 2.879304-3.199226 4.414933a44.229309 44.229309 0 0 0-5.118763 9.677661 46.020876 46.020876 0 0 0-3.199227 10.493463 31.432402 31.432402 0 0 0-0.799806 5.438686 47.348555 47.348555 0 0 0-0.319923 5.486673v0.015997z"  /></svg>