<?xml version="1.0" standalone="no"?><!DOCTYPE svg PUBLIC "-//W3C//DTD SVG 1.1//EN" "http://www.w3.org/Graphics/SVG/1.1/DTD/svg11.dtd"><svg class="icon" width="200px" height="200.00px" viewBox="0 0 1024 1024" version="1.1" xmlns="http://www.w3.org/2000/svg"><path fill="#ffffff" d="M148.687977 925.024015v-36.799994a32.687995 32.687995 0 1 1 65.39199 0v36.799994a32.975995 32.975995 0 0 1-3.872 15.407998 32.591995 32.591995 0 0 1-22.447996 16.655997 32.719995 32.719995 0 0 1-39.071994-32.063995z m114.847982-20.495996l-25.919996-25.935996a32.527995 32.527995 0 0 1-9.567999-23.103997 32.399995 32.399995 0 0 1 3.856-15.391997 32.943995 32.943995 0 0 1 13.407998-13.407998 32.591995 32.591995 0 0 1 33.551994 1.632 32.543995 32.543995 0 0 1 4.96 4.063999l25.919996 25.935996a32.639995 32.639995 0 0 1 9.487998 26.319996 33.263995 33.263995 0 0 1-2.352 9.295998 32.671995 32.671995 0 0 1-14.831997 16.319998 32.863995 32.863995 0 0 1-18.607997 3.711999 32.719995 32.719995 0 0 1-19.903997-9.439998z m-210.335967 0a32.751995 32.751995 0 0 1-9.007999-16.719998 32.511995 32.511995 0 0 1 9.007999-29.487995l25.951996-25.935996a32.879995 32.879995 0 0 1 19.887997-9.391999 32.895995 32.895995 0 0 1 18.591997 3.696 32.319995 32.319995 0 0 1 11.759998 10.655998 32.799995 32.799995 0 0 1 4.879999 24.527996 32.767995 32.767995 0 0 1-8.911999 16.719998l-25.951996 25.951996a32.479995 32.479995 0 0 1-23.103996 9.599998 32.959995 32.959995 0 0 1-15.391998-3.871999 32.767995 32.767995 0 0 1-7.711998-5.727999v-0.016z m380.59194-23.103997a32.975995 32.975995 0 0 1-15.423997-3.855999 32.591995 32.591995 0 0 1-16.639998-22.463997 32.719995 32.719995 0 0 1 32.047995-39.071994h478.639925a46.399993 46.399993 0 0 0 46.399993-46.399992V331.504108h-661.919896v258.28796a31.967995 31.967995 0 0 1-8.735999 22.239996l-72.367989 77.375988v82.831987a32.975995 32.975995 0 0 1-3.839999 15.407998 32.591995 32.591995 0 0 1-22.463997 16.655997A32.719995 32.719995 0 0 1 150.399977 772.240039v-82.831987l-72.351989-77.375988a32.431995 32.431995 0 0 1-8.719999-22.239996V98.928145A32.607995 32.607995 0 0 1 95.679985 66.86415 32.639995 32.639995 0 0 1 102.047984 66.24015H264.639959a32.607995 32.607995 0 0 1 32.687995 32.687995V112.640142h615.295903a111.615983 111.615983 0 0 1 82.607987 36.703995 112.287982 112.287982 0 0 1 20.351997 32.239995 112.047982 112.047982 0 0 1 8.431999 42.687993v545.343915a111.999983 111.999983 0 0 1-49.711992 92.943985 112.495982 112.495982 0 0 1-40.287994 16.703998 112.191982 112.191982 0 0 1-21.791997 2.159999H433.759932zM134.511979 577.15207l48.591992 51.871992 48.591993-51.871992V131.632139H134.511979v445.519931z m162.367975-311.039952h661.759896V224.272125a46.415993 46.415993 0 0 0-46.399993-46.399993h-615.359903v88.239986z m-3.488 542.735916a32.975995 32.975995 0 0 1-15.407997-3.856 32.591995 32.591995 0 0 1-16.639998-22.463996 32.719995 32.719995 0 0 1 32.047995-39.071994h36.799994a32.975995 32.975995 0 0 1 15.423998 3.855999 32.591995 32.591995 0 0 1 16.639997 22.463997 32.719995 32.719995 0 0 1-32.047995 39.071994h-36.799994z m-260.687959 0a32.975995 32.975995 0 0 1-15.423998-3.856 32.399995 32.399995 0 0 1-11.775998-10.671998 32.879995 32.879995 0 0 1-5.343999-21.375997 32.735995 32.735995 0 0 1 32.527995-29.487995h36.799994a32.527995 32.527995 0 0 1 20.751997 7.471999 32.479995 32.479995 0 0 1 11.279998 18.943997 32.575995 32.575995 0 0 1-6.879999 27.119995 32.815995 32.815995 0 0 1-22.143996 11.711999c-1.072 0.096-2.144 0.16-3.2 0.144H32.671995z m719.327887-100.527985c-26.127996-6.287999-51.519992-14.079998-70.751988-20.175997a25.663996 25.663996 0 0 1-16.479998-33.503994 25.391996 25.391996 0 0 1 4.207999-8.863999 24.799996 24.799996 0 0 1 26.367996-9.071998h0.32l-14.271997-21.167997c-13.439998-19.919997-26.191996-38.847994-39.311994-58.255991-13.935998 12.207998-27.199996 23.823996-40.239994 35.087994l-0.768 0.656a37.039994 37.039994 0 0 1-23.999996 11.327999 33.375995 33.375995 0 0 1-20.895997-10.287999 33.311995 33.311995 0 0 1-4.703999-6.351999 20853.756742 20853.756742 0 0 1-87.247987-120.447981 31.071995 31.071995 0 0 1-4.799999-29.839995A26.175996 26.175996 0 0 1 479.999925 421.872094c1.536-0.256 3.088-0.4 4.639999-0.4a29.551995 29.551995 0 0 1 19.679997 8.959999c1.728 1.792 3.2 3.743999 4.432 5.887999 11.407998 15.903998 23.071996 31.999995 34.335994 47.615992 11.295998 15.615998 22.975996 31.759995 34.367995 47.679993l2.047999 2.815999c0.752 1.008 1.6 2.064 2.336 3.2 16.223997-14.111998 29.439995-25.487996 42.175993-36.319994a37.823994 37.823994 0 0 1 23.999997-11.199999 34.143995 34.143995 0 0 1 24.143996 14.735998c0.784 1.152 1.488 2.352 2.128 3.584 16.847997 25.023996 33.967995 50.495992 50.511992 75.199988l12.543998 18.655997a26.879996 26.879996 0 0 1 3.359999-9.007999 27.487996 27.487996 0 0 1 19.311997-13.119998 27.375996 27.375996 0 0 1 4.799999-0.32 25.439996 25.439996 0 0 1 18.671998 7.887999 28.927995 28.927995 0 0 1 7.039998 21.823997 1806.399718 1806.399718 0 0 1-5.119999 74.479988 25.327996 25.327996 0 0 1-7.327999 17.967997 24.639996 24.639996 0 0 1-8.239998 5.503999 25.375996 25.375996 0 0 1-9.711999 1.904 34.783995 34.783995 0 0 1-8.111999-1.088z"  /></svg>