<?xml version="1.0" standalone="no"?><!DOCTYPE svg PUBLIC "-//W3C//DTD SVG 1.1//EN" "http://www.w3.org/Graphics/SVG/1.1/DTD/svg11.dtd"><svg class="icon" width="200px" height="200.00px" viewBox="0 0 1024 1024" version="1.1" xmlns="http://www.w3.org/2000/svg"><path fill="#ffffff" d="M405.344376 999.294719a596.957896 596.957896 0 0 1-112.191605-64.751772A598.74989 598.74989 0 0 1 48.001635 451.20065V228.321435a53.711811 53.711811 0 0 1 31.999887-49.119826L474.096134 4.642224A53.87181 53.87181 0 0 1 507.200017 1.186236c3.679987 0.799997 7.263974 1.935993 10.703962 3.471988L911.99859 179.201609a54.04781 54.04781 0 0 1 23.279918 19.80793 53.711811 53.711811 0 0 1 8.71997 29.279897V451.20065a601.58188 601.58188 0 0 1-9.711966 107.567621 596.653897 596.653897 0 0 1-28.895898 104.079633 599.933886 599.933886 0 0 1-70.719751 133.43953 597.245895 597.245895 0 0 1-85.647698 97.183657 597.917893 597.917893 0 0 1-142.751497 96.73566c-6.495977 3.151989-13.039954 6.175978-19.631931 9.087968A234.591173 234.591173 0 0 1 496.000056 1023.998631a234.463174 234.463174 0 0 1-90.65568-24.703912zM112.00141 234.881412V451.20065a534.270117 534.270117 0 0 0 34.447878 189.087334 533.42212 533.42212 0 0 0 63.199777 119.19958 532.830122 532.830122 0 0 0 76.479731 86.847694 532.958122 532.958122 0 0 0 93.391671 68.351759 535.086114 535.086114 0 0 0 51.679818 26.207907A177.759374 177.759374 0 0 0 496.000056 960.158856a177.791373 177.791373 0 0 0 64.799772-19.279932 533.51812 533.51812 0 0 0 100.223647-57.855796 534.302117 534.302117 0 0 0 132.175534-139.535508 531.134128 531.134128 0 0 0 37.391868-67.583762 533.278121 533.278121 0 0 0 36.92787-109.663613 532.526123 532.526123 0 0 0 12.143957-95.743663c0.223999-6.431977 0.335999-12.879955 0.335999-19.311932V234.881412L496.000056 64.786012 112.00141 234.865412z m523.950153 409.598557l-47.327833 47.167834-27.023905-26.879906 47.359833-47.167833-47.359833-47.199834 27.039905-26.943905 47.327833 47.167834 47.327833-47.167834 27.039905 26.959905L663.039468 617.600064l47.359833 47.167833-27.039905 26.959905-47.407833-47.247833z m-364.238716 11.071961a31.903888 31.903888 0 1 1 0-63.839775H464.000169a31.903888 31.903888 0 1 1 0 63.839775H271.712847zM561.599825 370.144936l20.799927-16.927941 46.815835 37.359869a519.32617 519.32617 0 0 1 120.463575-105.919627l4.943983 11.615959a507.198213 507.198213 0 0 0-111.999605 157.663444L561.599825 370.144936z m-289.838978 30.143893a31.903888 31.903888 0 1 1 0-63.839775H464.000169a31.903888 31.903888 0 1 1 0 63.839775H271.760847z"  /></svg>