<?xml version="1.0" standalone="no"?><!DOCTYPE svg PUBLIC "-//W3C//DTD SVG 1.1//EN" "http://www.w3.org/Graphics/SVG/1.1/DTD/svg11.dtd"><svg class="icon" width="200px" height="200.00px" viewBox="0 0 1024 1024" version="1.1" xmlns="http://www.w3.org/2000/svg"><path fill="#ffffff" d="M752 944l-3.744-0.224a32.224 32.224 0 0 1-16.48-6.992A31.984 31.984 0 0 1 752 880h96l3.744-0.224a32.144 32.144 0 0 0 20.16-10.512A32.096 32.096 0 0 0 880 848v-96l0.224-3.744a32.224 32.224 0 0 1 6.992-16.48A31.984 31.984 0 0 1 944 752v96l-0.16 5.632a94.704 94.704 0 0 1-3.984 22.272 96.128 96.128 0 0 1-48.16 57.584 94.896 94.896 0 0 1-25.664 8.8A98.448 98.448 0 0 1 848 944h-96zM176 944a95.248 95.248 0 0 1-31.184-5.2 95.824 95.824 0 0 1-55.808-50.192 96.832 96.832 0 0 1-7.888-25.952 96.304 96.304 0 0 1-0.96-9.024L80 848v-96a31.952 31.952 0 0 1 25.76-31.392 32.784 32.784 0 0 1 9.136-0.48 31.712 31.712 0 0 1 16.112 6.128 31.84 31.84 0 0 1 12.304 19.136c0.192 0.96 0.352 1.904 0.464 2.864L144 752v96a31.952 31.952 0 0 0 22.576 30.576 31.584 31.584 0 0 0 5.68 1.2L176 880h96a32.208 32.208 0 0 1 19.632 6.768 31.52 31.52 0 0 1 7.92 9.024 31.728 31.728 0 0 1 4.384 17.36 32.16 32.16 0 0 1-9.472 21.6 31.984 31.984 0 0 1-18.72 9.024L272 944H176z m496-208a159.92 159.92 0 0 0-89.392-143.36 161.216 161.216 0 0 0-36.448-12.736 160.704 160.704 0 0 0-53.856-2.48 160.128 160.128 0 0 0-125.632 91.84 159.952 159.952 0 0 0-14.512 59.792L352 736a32.048 32.048 0 0 1-22.72 30.624 32.24 32.24 0 0 1-18.56 0 31.696 31.696 0 0 1-13.344-8A31.888 31.888 0 0 1 288 736a224.656 224.656 0 0 1 12.816-74.704 224.8 224.8 0 0 1 37.008-66.144A224.24 224.24 0 0 1 408 537.6a158.736 158.736 0 0 1-27.168-29.968 161.056 161.056 0 0 1-18.784-35.84 158.832 158.832 0 0 1-9.2-39.392 159.056 159.056 0 0 1 2.4-48.432 161.04 161.04 0 0 1 13.04-38.304 159.68 159.68 0 0 1 52.256-60.928 161.04 161.04 0 0 1 35.84-18.752A160 160 0 0 1 616 537.6a223.424 223.424 0 0 1 68.368 55.312 225.568 225.568 0 0 1 24.736 36.608 222.832 222.832 0 0 1 20.912 55.008 224.48 224.48 0 0 1 5.856 43.792l0.112 6.624V736a32.048 32.048 0 0 1-22.72 30.624 32.24 32.24 0 0 1-18.56 0 31.696 31.696 0 0 1-13.344-8A31.888 31.888 0 0 1 671.984 736H672zM416 416a96.352 96.352 0 0 0 9.216 41.04 94.08 94.08 0 0 0 9.68 16.16 95.536 95.536 0 0 0 36.064 29.584 95.712 95.712 0 0 0 59.776 7.36 94.4 94.4 0 0 0 22.304-7.36 94.08 94.08 0 0 0 16.16-9.68 95.536 95.536 0 0 0 29.584-36.064 95.712 95.712 0 0 0 7.36-59.776 94.4 94.4 0 0 0-7.36-22.304 94.08 94.08 0 0 0-9.68-16.16 95.536 95.536 0 0 0-36.064-29.584 95.712 95.712 0 0 0-59.776-7.36 94.4 94.4 0 0 0-22.304 7.36 94.08 94.08 0 0 0-16.16 9.68 95.536 95.536 0 0 0-29.584 36.064A95.712 95.712 0 0 0 416 416z m464.224-140.256L880 272V176a32.544 32.544 0 0 0-3.248-14.032 32.096 32.096 0 0 0-22.144-17.264 32.128 32.128 0 0 0-2.864-0.464L848 144h-96a31.936 31.936 0 0 1-28.976-18.48A32 32 0 0 1 742.352 81.552a31.872 31.872 0 0 1 5.888-1.28L752 80h96a95.936 95.936 0 0 1 90.432 63.776 96.848 96.848 0 0 1 5.408 26.592L944 176v96a31.68 31.68 0 0 1-3.52 14.56 31.952 31.952 0 0 1-26.608 17.344h-1.904a32.4 32.4 0 0 1-14-3.232 32.096 32.096 0 0 1-17.28-22.08 32 32 0 0 1-0.464-2.848z m-770.096 28.16a32.064 32.064 0 0 1-27.856-20.096A32.208 32.208 0 0 1 80 272V176l0.16-5.632A96.064 96.064 0 0 1 144.816 85.2 96.016 96.016 0 0 1 176 80h96l3.744 0.208a31.92 31.92 0 0 1 25.504 18.88 31.68 31.68 0 0 1 2.336 17.728 32.224 32.224 0 0 1-7.536 16.24A31.984 31.984 0 0 1 272 144H176l-3.744 0.224A31.968 31.968 0 0 0 144 176v96l-0.224 3.744A31.968 31.968 0 0 1 112 304c-0.592 0-1.232 0-1.872-0.096z"  /></svg>