<?xml version="1.0" standalone="no"?><!DOCTYPE svg PUBLIC "-//W3C//DTD SVG 1.1//EN" "http://www.w3.org/Graphics/SVG/1.1/DTD/svg11.dtd"><svg class="icon" width="200px" height="200.00px" viewBox="0 0 1024 1024" version="1.1" xmlns="http://www.w3.org/2000/svg"><path fill="#ffffff" d="M392.354548 1023.248016h-0.159997a31.215356 31.215356 0 0 1-6.255871-2.127957L39.75382 863.731306a31.247356 31.247356 0 0 1-13.439723-11.599761A31.359353 31.359353 0 0 1 21.290201 835.075897V488.699041a31.455351 31.455351 0 0 1 14.399703-26.463455l0.895981-0.559988 140.413104-89.262159V196.017077a31.51935 31.51935 0 0 1 15.51968-27.199439L466.273023 7.860958A31.423352 31.423352 0 0 1 494.400443 0.869102a31.439352 31.439352 0 0 1 9.23181 3.839921L987.670269 304.49484a31.951341 31.951341 0 0 1 8.73582 8.079833 31.359353 31.359353 0 0 1 6.143873 18.623616v346.440855a31.375353 31.375353 0 0 1-11.103771 23.999505c-1.599967 1.375972-3.359931 2.559947-5.199892 3.583926l-571.828206 314.809507a31.199357 31.199357 0 0 1-15.135688 3.87192h-0.335993a29.535391 29.535391 0 0 1-6.591864-0.639987zM84.264902 814.788315l283.386155 128.813343V666.615371l-2.223954-1.007979c-8.73582-3.919919-21.535556-9.727799-38.079215-17.263644a123980.802896 123980.802896 0 0 1-243.050987-111.101709l-0.031999 277.546276z m346.360856-150.028906V939.201749l508.965503-280.154222V384.349193a622556.759767 622556.759767 0 0 1-177.93233 98.317972c-62.622708 34.559287-112.509679 62.094719-148.316941 81.822312-21.263561 11.711758-37.743222 20.799571-48.97499 26.927445-5.967877 3.199934-10.65578 5.82388-13.855714 7.551844l-3.87192 2.095957a37.871219 37.871219 0 0 1-2.495949 1.215975l-113.517659 62.478711z m72.398507-227.195314l-212.155624 124.797426 106.925794 48.638997L612.638004 492.650959l-101.021916-62.55871c-2.399951 2.991938-5.279891 5.471887-8.591823 7.423847v0.032zM240.341683 335.05421v183.996205l215.227561-126.621389V87.219321l-215.579554 126.813385v116.381599c0.223995 1.535968 0.351993 3.087936 0.351993 4.639905zM177.366982 510.618588v-63.790684l-58.350797 37.087235 58.350797 26.719449z m341.176963-150.3009l157.58075 97.597987c77.966392-43.023113 168.476525-93.038081 232.379207-128.365352L518.543945 88.019305v272.314383z"  /></svg>