<?xml version="1.0" standalone="no"?><!DOCTYPE svg PUBLIC "-//W3C//DTD SVG 1.1//EN" "http://www.w3.org/Graphics/SVG/1.1/DTD/svg11.dtd"><svg class="icon" width="200px" height="200.00px" viewBox="0 0 1024 1024" version="1.1" xmlns="http://www.w3.org/2000/svg"><path fill="#ffffff" d="M64.01103 992.000005a33.439995 33.439995 0 0 1-6.239999-0.608 26.751996 26.751996 0 0 1-3.04-0.768 23.199996 23.199996 0 0 1-5.759999-2.399999 25.583996 25.583996 0 0 1-2.719999-1.616 50.879992 50.879992 0 0 1-2.56-1.872 57.823991 57.823991 0 0 1-4.479999-4.431999 26.031996 26.031996 0 0 1-1.76-2.528 15.791998 15.791998 0 0 1-1.6-2.687999 29.279995 29.279995 0 0 1-1.439999-2.848 15.135998 15.135998 0 0 1-0.96-2.943999 30.079995 30.079995 0 0 1-1.28-12.431999 30.431995 30.431995 0 0 1 1.28-6.159999 15.135998 15.135998 0 0 1 0.96-2.943999c0.432-0.96 0.912-1.92 1.439999-2.848a15.791998 15.791998 0 0 1 1.6-2.687999c0.528-0.88 1.12-1.712 1.76-2.528a75.071988 75.071988 0 0 1 4.479999-4.431999 48.959992 48.959992 0 0 1 2.56-1.872c0.848-0.576 1.76-1.12 2.719999-1.6a23.455996 23.455996 0 0 1 5.759999-2.399999c0.96-0.32 1.968-0.576 3.04-0.784A33.439995 33.439995 0 0 1 64.01103 928.000015h95.999985v-63.99999H64.01103a33.439995 33.439995 0 0 1-6.239999-0.608 26.751996 26.751996 0 0 1-3.04-0.768 23.455996 23.455996 0 0 1-5.759999-2.399999 25.583996 25.583996 0 0 1-2.719999-1.616 50.879992 50.879992 0 0 1-2.56-1.872 57.823991 57.823991 0 0 1-4.479999-4.431999 26.031996 26.031996 0 0 1-1.76-2.528 15.791998 15.791998 0 0 1-1.6-2.687999 29.279995 29.279995 0 0 1-1.439999-2.848 15.135998 15.135998 0 0 1-0.96-2.943999 30.079995 30.079995 0 0 1-1.28-12.431999 30.431995 30.431995 0 0 1 1.28-6.159999 15.135998 15.135998 0 0 1 0.96-2.943999c0.432-0.96 0.912-1.92 1.439999-2.848a15.791998 15.791998 0 0 1 1.6-2.687999c0.528-0.88 1.12-1.712 1.76-2.528a75.071988 75.071988 0 0 1 4.479999-4.431999 48.959992 48.959992 0 0 1 2.56-1.872c0.848-0.576 1.76-1.12 2.719999-1.6a23.455996 23.455996 0 0 1 5.759999-2.399999c0.96-0.32 1.968-0.576 3.04-0.784A33.439995 33.439995 0 0 1 64.01103 800.000035h37.439994A96.111985 96.111985 0 0 1 96.011025 768.00004V512.00008c0-1.568 0.048-3.136 0.16-4.703999 0-1.568 0.112-3.136 0.32-4.704 0.112-1.568 0.272-3.12 0.48-4.671999l0.96-4.639999c0.208-1.552 0.528-3.088 0.96-4.607999l1.279999-4.544a66.83199 66.83199 0 0 1 3.2-8.863998c0.528-1.44 1.168-2.88 1.92-4.32 0.64-1.408 1.328-2.816 2.079999-4.191999l2.24-4.111999c0.848-1.344 1.712-2.672 2.559999-3.968 0.848-1.312 1.76-2.592 2.72-3.855999 0.96-1.28 1.92-2.496 2.88-3.711999 1.072-1.216 2.08-2.4 3.039999-3.568 1.072-1.168 2.192-2.304 3.36-3.423999 1.072-1.12 2.192-2.192 3.359999-3.248 1.168-1.056 2.352-2.08 3.52-3.071999 1.28-0.992 2.56-1.968 3.839999-2.896 1.168-0.944 2.448-1.84 3.839999-2.72 1.28-0.864 2.608-1.712 4-2.511999 1.28-0.8 2.608-1.6 3.999999-2.32 1.392-0.752 2.768-1.456 4.159999-2.127999l4.32-1.92a117.423982 117.423982 0 0 1 8.959998-3.168c1.488-0.448 2.992-0.864 4.48-1.247999a145.599977 145.599977 0 0 1 4.639999-1.04 115.247982 115.247982 0 0 1 9.279998-1.376A102.911984 102.911984 0 0 1 192.01101 416.000095h101.439984a96.095985 96.095985 0 0 1-5.439999-31.999995V128.00014c0-1.568 0.048-3.136 0.16-4.703999 0-1.568 0.112-3.136 0.32-4.704 0.112-1.568 0.272-3.12 0.48-4.671999a72.639989 72.639989 0 0 0 0.8-4.639999c0.32-1.552 0.688-3.088 1.12-4.607999 0.32-1.52 0.752-3.04 1.279999-4.544a67.263989 67.263989 0 0 1 3.2-8.863998c0.528-1.44 1.12-2.88 1.76-4.32a508.383921 508.383921 0 0 1 4.479999-8.303998c0.848-1.344 1.712-2.672 2.559999-3.968 0.848-1.312 1.76-2.592 2.72-3.855999 0.96-1.28 1.92-2.496 2.88-3.711999a64.04799 64.04799 0 0 1 6.399999-6.991999c1.072-1.12 2.192-2.192 3.359999-3.248 1.168-1.056 2.352-2.08 3.52-3.071999l3.679999-2.896c1.28-0.944 2.608-1.84 3.999999-2.72 1.28-0.864 2.56-1.712 3.84-2.511999a130.92798 130.92798 0 0 1 8.319998-4.447999l4.32-1.92a113.695982 113.695982 0 0 1 13.439998-4.415999c1.488-0.384 3.04-0.736 4.639999-1.04 1.488-0.304 3.04-0.576 4.639999-0.8a82.079987 82.079987 0 0 1 9.279999-0.928C380.810981 32.032155 382.41098 32.000155 384.01098 32.000155h255.99996a90.047986 90.047986 0 0 1 9.439999 0.464 116.159982 116.159982 0 0 1 9.279998 1.376 101.439984 101.439984 0 0 1 18.079997 5.455999c1.392 0.608 2.768 1.248 4.16 1.92a71.679989 71.679989 0 0 1 8.319998 4.447999c1.392 0.8 2.72 1.648 4 2.511999 1.392 0.88 2.672 1.776 3.839999 2.72 1.28 0.928 2.56 1.904 3.839999 2.88 1.168 1.008 2.352 2.032 3.52 3.087999 1.168 1.056 2.288 2.144 3.359999 3.248 1.168 1.12 2.24 2.24 3.2 3.423999 1.072 1.152 2.128 2.352 3.199999 3.568 0.96 1.216 1.92 2.448 2.88 3.711999 0.96 1.264 1.872 2.544 2.72 3.839999 0.848 1.312 1.712 2.64 2.559999 4l2.24 4.095999c0.752 1.376 1.44 2.784 2.079999 4.207999 0.752 1.408 1.392 2.848 1.92 4.304a68.095989 68.095989 0 0 1 3.2 8.863998l1.279999 4.544 0.96 4.591999c0.32 1.552 0.592 3.088 0.8 4.639999 0.32 1.568 0.528 3.12 0.64 4.687999l0.32 4.704c0.112 1.568 0.16 3.136 0.16 4.703999v255.99996c0 10.975998-1.808 21.647997-5.439999 31.999995H832.01091a90.399986 90.399986 0 0 1 9.439999 0.464 115.631982 115.631982 0 0 1 9.279998 1.376 76.671988 76.671988 0 0 1 9.119999 2.287999 106.127983 106.127983 0 0 1 13.279998 5.088c1.392 0.672 2.768 1.376 4.159999 2.127999 1.392 0.736 2.72 1.504 3.999999 2.32 1.392 0.8 2.72 1.648 4 2.511999 1.392 0.88 2.672 1.776 3.839999 2.72 1.28 0.928 2.56 1.904 3.839999 2.88 1.168 1.008 2.352 2.032 3.52 3.087999 1.168 1.056 2.288 2.144 3.359999 3.248 1.168 1.12 2.288 2.24 3.36 3.423999 0.96 1.152 1.968 2.352 3.039999 3.568 0.96 1.216 1.92 2.448 2.88 3.711999 0.96 1.264 1.872 2.544 2.72 3.839999 0.848 1.312 1.712 2.64 2.559999 4l2.24 4.095999c0.752 1.376 1.44 2.784 2.079999 4.207999 0.752 1.408 1.392 2.848 1.92 4.304a67.839989 67.839989 0 0 1 3.2 8.863998l1.279999 4.544c0.432 1.52 0.752 3.056 0.96 4.591999l0.96 4.639999c0.208 1.568 0.368 3.12 0.48 4.687999 0.208 1.568 0.32 3.136 0.32 4.704 0.112 1.568 0.16 3.136 0.16 4.703999v255.99996c0 10.975998-1.808 21.647997-5.439999 31.999995H960.01089a33.471995 33.471995 0 0 1 6.239999 0.608c1.072 0.208 2.08 0.48 3.04 0.768a23.359996 23.359996 0 0 1 5.759999 2.399999c0.96 0.496 1.872 1.04 2.719999 1.616 0.848 0.576 1.712 1.2 2.56 1.872a56.415991 56.415991 0 0 1 4.479999 4.431999c0.64 0.8 1.232 1.648 1.76 2.528a15.679998 15.679998 0 0 1 1.6 2.687999c0.528 0.928 1.008 1.872 1.439999 2.848 0.432 0.96 0.752 1.952 0.96 2.943999A29.727995 29.727995 0 0 1 992.010885 832.00003a30.623995 30.623995 0 0 1-1.44 9.279999 15.151998 15.151998 0 0 1-0.96 2.959999c-0.432 0.96-0.912 1.92-1.439999 2.848a15.679998 15.679998 0 0 1-1.6 2.687999c-0.528 0.88-1.12 1.712-1.76 2.528a72.847989 72.847989 0 0 1-4.479999 4.431999c-0.848 0.656-1.712 1.28-2.56 1.872-0.848 0.576-1.76 1.12-2.719999 1.6a23.359996 23.359996 0 0 1-5.759999 2.399999c-0.96 0.32-1.968 0.576-3.04 0.784A33.471995 33.471995 0 0 1 960.01089 864.000025h-95.999985v63.99999h95.999985a33.471995 33.471995 0 0 1 6.239999 0.608c1.072 0.208 2.08 0.48 3.04 0.768a23.359996 23.359996 0 0 1 5.759999 2.399999c0.96 0.496 1.872 1.04 2.719999 1.616 0.848 0.576 1.712 1.2 2.56 1.872a56.415991 56.415991 0 0 1 4.479999 4.431999c0.64 0.8 1.232 1.648 1.76 2.528a15.679998 15.679998 0 0 1 1.6 2.687999c0.528 0.928 1.008 1.872 1.439999 2.848 0.432 0.96 0.752 1.952 0.96 2.943999A29.727995 29.727995 0 0 1 992.010885 960.00001a30.623995 30.623995 0 0 1-1.44 9.279999 15.151998 15.151998 0 0 1-0.96 2.959999c-0.432 0.96-0.912 1.92-1.439999 2.848a15.679998 15.679998 0 0 1-1.6 2.687999c-0.528 0.88-1.12 1.712-1.76 2.528a72.847989 72.847989 0 0 1-4.479999 4.431999c-0.848 0.656-1.712 1.28-2.56 1.872-0.848 0.576-1.76 1.12-2.719999 1.6a23.087996 23.087996 0 0 1-5.759999 2.399999c-0.96 0.32-1.968 0.576-3.04 0.784A33.471995 33.471995 0 0 1 960.01089 992.000005H64.01103z m639.9999-63.99999v-63.99999H320.01099v63.99999h383.99994z m127.99998-127.99998a33.471995 33.471995 0 0 0 6.239999-0.608c1.072-0.208 2.08-0.48 3.04-0.768a23.359996 23.359996 0 0 0 5.759999-2.399999c0.96-0.496 1.872-1.04 2.719999-1.616 0.848-0.576 1.712-1.2 2.56-1.872a56.415991 56.415991 0 0 0 4.479999-4.431999c0.64-0.8 1.232-1.648 1.76-2.528a15.679998 15.679998 0 0 0 1.6-2.687999c0.528-0.928 1.008-1.872 1.439999-2.848a15.151998 15.151998 0 0 0 0.96-2.943999A29.727995 29.727995 0 0 0 864.010905 768.00004V512.00008a30.623995 30.623995 0 0 0-1.44-9.279999 15.151998 15.151998 0 0 0-0.96-2.959999 29.343995 29.343995 0 0 0-1.439999-2.848 15.679998 15.679998 0 0 0-1.6-2.687999 25.727996 25.727996 0 0 0-1.76-2.528 72.847989 72.847989 0 0 0-4.479999-4.431999 48.943992 48.943992 0 0 0-2.56-1.872 25.615996 25.615996 0 0 0-2.719999-1.6 23.359996 23.359996 0 0 0-5.759999-2.399999 26.783996 26.783996 0 0 0-3.04-0.784A33.471995 33.471995 0 0 0 832.01091 480.000085H576.01095a33.471995 33.471995 0 0 0-6.239999 0.608c-1.072 0.208-2.08 0.48-3.04 0.768a23.359996 23.359996 0 0 0-5.759999 2.399999c-0.96 0.496-1.872 1.04-2.719999 1.616a48.943992 48.943992 0 0 0-2.56 1.872 56.415991 56.415991 0 0 0-4.479999 4.431999c-0.64 0.8-1.232 1.648-1.76 2.528a15.679998 15.679998 0 0 0-1.6 2.687999 29.343995 29.343995 0 0 0-1.439999 2.848 15.151998 15.151998 0 0 0-0.96 2.943999A29.727995 29.727995 0 0 0 544.010955 512.00008v255.99996a30.623995 30.623995 0 0 0 1.44 9.279999 15.151998 15.151998 0 0 0 0.96 2.959999c0.432 0.96 0.912 1.92 1.439999 2.848a15.679998 15.679998 0 0 0 1.6 2.687999c0.528 0.88 1.12 1.712 1.76 2.528a72.847989 72.847989 0 0 0 4.479999 4.431999c0.848 0.672 1.712 1.28 2.56 1.872 0.848 0.576 1.76 1.12 2.719999 1.6a23.359996 23.359996 0 0 0 5.759999 2.399999c0.96 0.32 1.968 0.576 3.04 0.784A33.471995 33.471995 0 0 0 576.01095 800.000035h255.99996z m-383.99994 0a33.471995 33.471995 0 0 0 6.239999-0.608c1.072-0.208 2.08-0.48 3.04-0.768a23.359996 23.359996 0 0 0 5.759999-2.399999c0.96-0.496 1.872-1.04 2.719999-1.616 0.848-0.576 1.712-1.2 2.56-1.872a56.415991 56.415991 0 0 0 4.479999-4.431999c0.64-0.8 1.232-1.648 1.76-2.528a15.679998 15.679998 0 0 0 1.6-2.687999c0.528-0.928 1.008-1.872 1.439999-2.848a15.151998 15.151998 0 0 0 0.96-2.943999A29.727995 29.727995 0 0 0 480.010965 768.00004V512.00008a30.623995 30.623995 0 0 0-1.44-9.279999 15.151998 15.151998 0 0 0-0.96-2.959999 29.343995 29.343995 0 0 0-1.439999-2.848 15.679998 15.679998 0 0 0-1.6-2.687999 25.727996 25.727996 0 0 0-1.76-2.528 72.847989 72.847989 0 0 0-4.479999-4.431999 48.943992 48.943992 0 0 0-2.56-1.872 25.615996 25.615996 0 0 0-2.719999-1.6 23.359996 23.359996 0 0 0-5.759999-2.399999 26.783996 26.783996 0 0 0-3.04-0.784A33.471995 33.471995 0 0 0 448.01097 480.000085h-47.999992v31.999995a30.623995 30.623995 0 0 1-1.44 9.279999 15.151998 15.151998 0 0 1-0.96 2.959999c-0.432 0.96-0.912 1.92-1.44 2.848a15.679998 15.679998 0 0 1-1.6 2.687999c-0.528 0.88-1.12 1.712-1.759999 2.528a72.847989 72.847989 0 0 1-4.48 4.431999c-0.848 0.672-1.712 1.28-2.559999 1.872-0.848 0.576-1.76 1.12-2.72 1.6a23.359996 23.359996 0 0 1-5.759999 2.399999c-0.96 0.32-1.968 0.576-3.039999 0.784A33.471995 33.471995 0 0 1 368.010983 544.000075h-95.999985a33.471995 33.471995 0 0 1-6.24-0.608 26.783996 26.783996 0 0 1-3.039999-0.768 23.359996 23.359996 0 0 1-5.759999-2.399999 25.615996 25.615996 0 0 1-2.72-1.616 48.943992 48.943992 0 0 1-2.559999-1.872 56.415991 56.415991 0 0 1-4.48-4.431999 25.727996 25.727996 0 0 1-1.759999-2.528 15.679998 15.679998 0 0 1-1.6-2.687999 29.343995 29.343995 0 0 1-1.44-2.848 15.151998 15.151998 0 0 1-0.96-2.943999A29.727995 29.727995 0 0 1 240.011003 512.00008v-31.999995h-47.999993a33.439995 33.439995 0 0 0-6.239999 0.608c-1.072 0.208-2.08 0.48-3.04 0.768a23.455996 23.455996 0 0 0-5.759999 2.399999 25.599996 25.599996 0 0 0-2.719999 1.616 49.023992 49.023992 0 0 0-2.56 1.872 57.775991 57.775991 0 0 0-4.479999 4.431999c-0.64 0.8-1.232 1.648-1.76 2.528a15.791998 15.791998 0 0 0-1.6 2.687999 29.343995 29.343995 0 0 0-1.439999 2.848 15.135998 15.135998 0 0 0-0.96 2.943999A30.047995 30.047995 0 0 0 160.011015 512.00008v255.99996a30.575995 30.575995 0 0 0 1.44 9.279999 15.135998 15.135998 0 0 0 0.96 2.959999c0.432 0.96 0.912 1.92 1.439999 2.848 0.432 0.928 0.96 1.824 1.6 2.687999 0.528 0.88 1.12 1.712 1.76 2.528a74.847988 74.847988 0 0 0 4.479999 4.431999c0.848 0.672 1.712 1.28 2.56 1.872 0.848 0.576 1.76 1.12 2.719999 1.6a23.455996 23.455996 0 0 0 5.759999 2.399999c0.96 0.32 1.968 0.576 3.04 0.784A33.439995 33.439995 0 0 0 192.01101 800.000035h255.99996z m191.99997-383.99994a33.471995 33.471995 0 0 0 6.239999-0.608c1.072-0.208 2.08-0.48 3.04-0.768a23.359996 23.359996 0 0 0 5.759999-2.399999c0.96-0.496 1.872-1.04 2.719999-1.616 0.848-0.576 1.712-1.2 2.56-1.872a56.415991 56.415991 0 0 0 4.479999-4.431999c0.64-0.8 1.232-1.648 1.76-2.528a15.679998 15.679998 0 0 0 1.6-2.687999c0.528-0.928 1.008-1.872 1.439999-2.848a15.151998 15.151998 0 0 0 0.96-2.943999A29.727995 29.727995 0 0 0 672.010935 384.0001V128.00014a30.655995 30.655995 0 0 0-1.44-9.279999 15.151998 15.151998 0 0 0-0.96-2.959999 29.279995 29.279995 0 0 0-1.439999-2.848 15.615998 15.615998 0 0 0-1.6-2.687999 25.647996 25.647996 0 0 0-1.76-2.528 72.527989 72.527989 0 0 0-4.479999-4.431999 50.271992 50.271992 0 0 0-2.56-1.872 25.567996 25.567996 0 0 0-2.719999-1.6 23.311996 23.311996 0 0 0-5.759999-2.399999 37.151994 37.151994 0 0 0-6.079999-1.216 33.359995 33.359995 0 0 0-3.2-0.176h-47.999992v31.999995a30.655995 30.655995 0 0 1-1.44 9.279999 15.151998 15.151998 0 0 1-0.96 2.959999 29.279995 29.279995 0 0 1-1.44 2.848 15.615998 15.615998 0 0 1-1.6 2.687999c-0.528 0.88-1.12 1.712-1.759999 2.528a72.527989 72.527989 0 0 1-4.48 4.431999c-0.848 0.672-1.712 1.28-2.559999 1.872-0.848 0.576-1.76 1.12-2.72 1.6a23.311996 23.311996 0 0 1-5.759999 2.399999c-0.96 0.32-1.968 0.576-3.039999 0.784A33.359995 33.359995 0 0 1 560.010953 160.000135h-95.999985a33.359995 33.359995 0 0 1-6.24-0.608 26.687996 26.687996 0 0 1-3.039999-0.768 23.311996 23.311996 0 0 1-5.759999-2.399999 25.567996 25.567996 0 0 1-2.72-1.616 50.271992 50.271992 0 0 1-2.559999-1.872 56.783991 56.783991 0 0 1-4.48-4.431999 25.647996 25.647996 0 0 1-1.759999-2.528 15.615998 15.615998 0 0 1-1.6-2.687999 29.279995 29.279995 0 0 1-1.44-2.848 15.151998 15.151998 0 0 1-0.96-2.943999A29.647995 29.647995 0 0 1 432.010973 128.00014V96.000145h-47.999993a33.359995 33.359995 0 0 0-6.239999 0.608c-1.072 0.208-2.08 0.48-3.04 0.768a23.311996 23.311996 0 0 0-5.759999 2.399999c-0.96 0.496-1.872 1.04-2.719999 1.616a50.271992 50.271992 0 0 0-2.56 1.872 56.783991 56.783991 0 0 0-4.479999 4.431999c-0.64 0.8-1.232 1.648-1.76 2.528a15.615998 15.615998 0 0 0-1.6 2.687999 29.279995 29.279995 0 0 0-1.439999 2.848 15.151998 15.151998 0 0 0-0.96 2.943999A29.647995 29.647995 0 0 0 352.010985 128.00014v255.99996a30.623995 30.623995 0 0 0 1.44 9.279999 15.151998 15.151998 0 0 0 0.96 2.959999c0.432 0.96 0.912 1.92 1.439999 2.848a15.679998 15.679998 0 0 0 1.6 2.687999c0.528 0.88 1.12 1.712 1.76 2.528a72.847989 72.847989 0 0 0 4.479999 4.431999c0.848 0.672 1.712 1.28 2.56 1.872 0.848 0.576 1.76 1.12 2.719999 1.6a23.359996 23.359996 0 0 0 5.759999 2.399999c0.96 0.32 1.968 0.576 3.04 0.784A33.471995 33.471995 0 0 0 384.01098 416.000095h255.99996z m24.639996 320.65595l-73.599988-61.69599a27.183996 27.183996 0 0 1-2.4-2.128 94.639985 94.639985 0 0 0-2.08-2.352 26.271996 26.271996 0 0 1-1.759999-2.559999 127.03998 127.03998 0 0 1-1.6-2.704 170.223973 170.223973 0 0 1-1.28-2.847999 29.919995 29.919995 0 0 1-1.12-2.96 501.039922 501.039922 0 0 1-0.64-3.056 30.927995 30.927995 0 0 1-0.64-6.255999l0.32-3.135999a30.751995 30.751995 0 0 1 1.28-6.143999l0.96-2.944c0.432-0.96 0.912-1.904 1.44-2.815999a116.159982 116.159982 0 0 1 1.6-2.688c0.64-0.864 1.28-1.696 1.919999-2.495999a73.471989 73.471989 0 0 1 4.48-4.384 48.159992 48.159992 0 0 1 2.559999-1.839999c0.848-0.576 1.76-1.104 2.72-1.6a39.519994 39.519994 0 0 1 5.759999-2.32c1.072-0.288 2.08-0.528 3.039999-0.736a34.175995 34.175995 0 0 1 9.439999-0.352 34.415995 34.415995 0 0 1 6.239999 1.28 35.199995 35.199995 0 0 1 5.759999 2.48 42.463993 42.463993 0 0 1 5.119999 3.535999l48.959993 41.135994 92.639985-110.319983a25.599996 25.599996 0 0 1 4.479999-4.383999c0.752-0.656 1.6-1.28 2.56-1.856a25.599996 25.599996 0 0 1 2.72-1.584 34.479995 34.479995 0 0 1 5.759999-2.335999 34.239995 34.239995 0 0 1 12.479998-1.088c1.072 0.112 2.08 0.272 3.039999 0.48 1.072 0.224 2.08 0.48 3.04 0.8a27.759996 27.759996 0 0 1 5.759999 2.479999c0.96 0.496 1.872 1.04 2.719999 1.632 0.848 0.592 1.712 1.232 2.56 1.904 0.752 0.672 1.488 1.392 2.24 2.127999 0.752 0.752 1.44 1.536 2.079999 2.352 0.64 0.816 1.28 1.664 1.92 2.56 0.528 0.864 1.008 1.76 1.44 2.703999 0.528 0.928 1.008 1.872 1.44 2.848l0.959999 2.959999c0.32 1.008 0.592 2.032 0.8 3.056l0.32 3.119999a30.719995 30.719995 0 0 1-2.399999 15.359998c-0.432 0.96-0.912 1.904-1.44 2.815999a15.423998 15.423998 0 0 1-1.6 2.688 15.967998 15.967998 0 0 1-1.92 2.496l-113.119982 134.815979a32.783995 32.783995 0 0 1-4.959999 4.815999 34.559995 34.559995 0 0 1-12.639998 5.871999 31.519995 31.519995 0 0 1-17.759997-1.168c-3.519999-1.28-6.719999-3.136-9.599999-5.551999v-0.016z"  /></svg>