<?xml version="1.0" standalone="no"?><!DOCTYPE svg PUBLIC "-//W3C//DTD SVG 1.1//EN" "http://www.w3.org/Graphics/SVG/1.1/DTD/svg11.dtd"><svg class="icon" width="200px" height="200.00px" viewBox="0 0 1024 1024" version="1.1" xmlns="http://www.w3.org/2000/svg"><path fill="#ffffff" d="M80.00032 963.728c0-20.272 1.648-40.4 4.96-60.4 3.312-20 8.272-39.584 14.88-58.752 6.4-18.56 14.288-36.48 23.68-53.744a361.472 361.472 0 0 1 71.2-92.656 363.2 363.2 0 0 1 45.6-36.704 379.68 379.68 0 0 1 108-50.896 361.024 361.024 0 0 1 98.08-13.312 32.96 32.96 0 0 1 9.44 1.392 34.368 34.368 0 0 1 8.48 4.048c0.96 0.592 1.808 1.216 2.56 1.888a27.12 27.12 0 0 1 4.48 4.48c0.752 0.816 1.392 1.664 1.92 2.544 0.64 0.88 1.168 1.776 1.6 2.72 0.528 0.928 1.008 1.888 1.44 2.864l0.96 2.976a30.416 30.416 0 0 1 1.44 9.376 31.68 31.68 0 0 1-1.44 9.376l-0.96 2.976a29.92 29.92 0 0 1-1.44 2.88 15.936 15.936 0 0 1-1.6 2.72 16.432 16.432 0 0 1-1.92 2.528 25.872 25.872 0 0 1-4.48 4.48c-0.752 0.672-1.6 1.296-2.56 1.888-0.848 0.592-1.76 1.12-2.72 1.632a34.368 34.368 0 0 1-5.76 2.416 34.496 34.496 0 0 1-9.44 1.392 293.232 293.232 0 0 0-91.68 14.24 279.152 279.152 0 0 0-23.04 8.448 280.64 280.64 0 0 0-33.12 16.128c-3.632 2.016-7.2 4.096-10.72 6.24-3.408 2.16-6.832 4.4-10.24 6.688a295.04 295.04 0 0 0-19.84 14.576c-3.088 2.56-6.192 5.2-9.28 7.888a307.584 307.584 0 0 0-17.92 16.88c-2.88 2.928-5.648 5.92-8.32 8.96-2.768 3.04-5.488 6.144-8.16 9.312-2.56 3.152-5.072 6.352-7.52 9.6a221.232 221.232 0 0 0-14.08 20.144 220.8 220.8 0 0 0-6.4 10.48 224.16 224.16 0 0 0-11.52 21.68c-1.808 3.68-3.52 7.424-5.12 11.184a156.896 156.896 0 0 0-4.64 11.36c-1.488 3.84-2.88 7.68-4.16 11.568a156.896 156.896 0 0 0-3.68 11.712c-1.168 3.936-2.288 7.888-3.36 11.856-0.96 3.968-1.872 7.968-2.72 11.984-0.848 4-1.6 8.032-2.24 12.064-0.64 4.048-1.232 8.096-1.76 12.16l-1.28 12.224c-0.32 4.08-0.528 8.16-0.64 12.256-0.208 4.096-0.32 8.192-0.32 12.288a31.728 31.728 0 0 1-1.44 9.376l-0.96 2.976c-0.432 0.976-0.912 1.936-1.44 2.88a120 120 0 0 1-1.6 2.72c-0.64 0.864-1.28 1.712-1.92 2.528a25.536 25.536 0 0 1-4.48 4.48 50.4 50.4 0 0 1-2.56 1.888c-0.848 0.592-1.76 1.12-2.72 1.632-0.848 0.48-1.808 0.96-2.88 1.344a34.4 34.4 0 0 1-2.88 1.072 36.864 36.864 0 0 1-6.24 1.232 32.944 32.944 0 0 1-12.64-1.216 33.84 33.84 0 0 1-8.48-4.048 17.264 17.264 0 0 1-2.56-1.888 26.72 26.72 0 0 1-4.48-4.48 16.464 16.464 0 0 1-1.92-2.56 15.968 15.968 0 0 1-1.6-2.72 29.632 29.632 0 0 1-1.44-2.88l-0.96-2.976a30.704 30.704 0 0 1-1.44-9.392z m800 19.968l-64.8-64.752c-2.24 1.568-4.48 3.104-6.72 4.576a262.24 262.24 0 0 1-7.04 4.272 157.696 157.696 0 0 1-7.2 3.952c-2.352 1.28-4.8 2.496-7.36 3.648-2.448 1.168-4.912 2.272-7.36 3.328-2.56 1.056-5.12 2.048-7.68 2.992-2.56 0.944-5.168 1.824-7.84 2.656-2.56 0.832-5.168 1.6-7.84 2.32a158.48 158.48 0 0 1-15.84 3.6 173.36 173.36 0 0 1-24.48 2.752 192.032 192.032 0 0 1-24.48-0.448 173.952 173.952 0 0 1-16.32-2.08 194.336 194.336 0 0 1-31.68-8.352c-2.56-0.928-5.12-1.92-7.68-2.944-2.448-1.04-4.96-2.128-7.52-3.264a237.472 237.472 0 0 1-7.36-3.6 154.832 154.832 0 0 1-14.08-8.128 160.96 160.96 0 0 1-13.44-9.36c-2.24-1.648-4.432-3.36-6.56-5.088-2.032-1.76-4.048-3.552-6.08-5.376-2.032-1.84-4-3.728-5.92-5.648a127.2 127.2 0 0 1-6.4-6.72c-2.032-2.304-4-4.64-5.92-7.04a127.984 127.984 0 0 1-5.76-7.312 205.792 205.792 0 0 1-5.28-7.568 126.08 126.08 0 0 1-4.8-7.84c-1.6-2.656-3.152-5.344-4.64-8.064-1.392-2.72-2.72-5.488-4-8.272a89.488 89.488 0 0 1-3.68-8.48 239.456 239.456 0 0 1-3.36-8.64 129.536 129.536 0 0 1-2.88-8.784c-0.848-2.944-1.648-5.92-2.4-8.912a131.264 131.264 0 0 1-1.92-9.024 131.456 131.456 0 0 1-1.6-9.12c-0.432-3.04-0.8-6.112-1.12-9.184l-0.64-9.216c-0.112-3.072-0.16-6.16-0.16-9.232 0-3.088 0.112-6.16 0.32-9.248a133.392 133.392 0 0 1 1.92-18.368c0.432-3.04 0.96-6.08 1.6-9.104 0.64-3.024 1.328-6.016 2.08-9.008 0.752-2.976 1.6-5.952 2.56-8.896a130.56 130.56 0 0 1 2.88-8.752c1.072-2.896 2.192-5.76 3.36-8.608 1.168-2.848 2.448-5.648 3.84-8.432 1.28-2.784 2.672-5.52 4.16-8.224a216.96 216.96 0 0 1 14.88-23.344c1.92-2.464 3.84-4.88 5.76-7.248 1.92-2.368 3.952-4.704 6.08-6.976 2.032-2.272 4.16-4.48 6.4-6.656 2.128-2.192 4.368-4.32 6.72-6.4 2.24-2.08 4.528-4.112 6.88-6.08 2.352-1.968 4.8-3.872 7.36-5.728 2.448-1.84 4.96-3.632 7.52-5.36 2.56-1.712 5.12-3.376 7.68-4.976 2.672-1.6 5.328-3.136 8-4.592a244.144 244.144 0 0 1 16.64-8c2.88-1.184 5.76-2.304 8.64-3.36 2.88-1.056 5.808-2.032 8.8-2.944a208.16 208.16 0 0 1 17.92-4.576 174.992 174.992 0 0 1 27.52-3.52 178.864 178.864 0 0 1 18.4-0.112 192.08 192.08 0 0 1 18.4 1.712 173.312 173.312 0 0 1 18.08 3.52 169.808 169.808 0 0 1 17.76 5.28 170.112 170.112 0 0 1 17.12 6.976c2.768 1.28 5.552 2.672 8.32 4.096 2.672 1.44 5.328 2.944 8 4.512 2.672 1.584 5.28 3.2 7.84 4.912 2.56 1.696 5.12 3.456 7.68 5.28 2.448 1.824 4.848 3.712 7.2 5.648 2.448 1.936 4.8 3.936 7.04 6 2.352 2.048 4.592 4.16 6.72 6.336 1.92 1.936 3.84 3.92 5.76 5.936 1.808 2.032 3.568 4.08 5.28 6.192 1.808 2.08 3.52 4.224 5.12 6.4 1.712 2.176 3.312 4.384 4.8 6.624 1.6 2.24 3.088 4.528 4.48 6.832 1.488 2.32 2.928 4.64 4.32 7.024 1.392 2.368 2.672 4.768 3.84 7.2 1.28 2.432 2.512 4.88 3.68 7.36l3.2 7.52c1.072 2.512 2.08 5.072 3.04 7.632l2.56 7.776 2.24 7.872c0.752 2.64 1.392 5.28 1.92 7.968l1.6 8.032c0.432 2.704 0.8 5.392 1.12 8.112 0.432 2.704 0.752 5.424 0.96 8.144a211.264 211.264 0 0 1 0.48 24.56l-0.64 8.16c-0.208 2.72-0.528 5.44-0.96 8.16-0.32 2.688-0.752 5.392-1.28 8.08-0.432 2.688-0.96 5.36-1.6 8.032a104.432 104.432 0 0 1-1.92 7.952c-0.752 2.624-1.552 5.248-2.4 7.84-0.752 2.608-1.6 5.2-2.56 7.76a193.392 193.392 0 0 1-10.08 22.448c-1.168 2.416-2.448 4.8-3.84 7.168a181.6 181.6 0 0 1-8.96 13.792l64.8 64.752c0.752 0.768 1.488 1.584 2.24 2.432 0.64 0.848 1.28 1.712 1.92 2.624 0.528 0.912 1.072 1.84 1.6 2.816a31.648 31.648 0 0 1 2.56 6.032c0.32 1.04 0.528 2.08 0.64 3.168a33.344 33.344 0 0 1-0.8 16.128 32.208 32.208 0 0 1-2.56 6c-0.528 0.96-1.072 1.888-1.6 2.8-0.64 0.896-1.328 1.76-2.08 2.608-0.64 0.832-1.328 1.632-2.08 2.4a37.12 37.12 0 0 1-5.12 4.192 32.784 32.784 0 0 1-12.16 5.024 33.088 33.088 0 0 1-24.8-4.864 30.288 30.288 0 0 1-4.96-4.096zM622.72032 679.232c-1.392 1.408-2.72 2.848-4 4.32a100.64 100.64 0 0 0-7.68 9.2c-1.168 1.6-2.352 3.216-3.52 4.88-1.072 1.648-2.128 3.328-3.2 5.024a56.112 56.112 0 0 0-2.88 5.2c-0.96 1.76-1.872 3.52-2.72 5.312l-2.56 5.456c-0.752 1.84-1.44 3.696-2.08 5.568a56.48 56.48 0 0 0-1.92 5.664c-0.64 1.92-1.168 3.84-1.6 5.76-0.528 1.92-1.008 3.872-1.44 5.824l-0.96 5.888a112.16 112.16 0 0 0-1.28 23.84l0.32 5.952c0.208 1.984 0.48 3.968 0.8 5.936 0.208 1.984 0.528 3.936 0.96 5.904 0.32 1.952 0.752 3.904 1.28 5.84 0.432 1.92 0.96 3.84 1.6 5.76a107.52 107.52 0 0 0 8.96 22.112l2.88 5.216c1.072 1.712 2.128 3.408 3.2 5.072a98.16 98.16 0 0 0 7.04 9.632c1.28 1.552 2.56 3.072 3.84 4.56 1.392 1.488 2.768 2.928 4.16 4.352a94.608 94.608 0 0 0 8.96 7.968 90.976 90.976 0 0 0 9.6 7.056 91.296 91.296 0 0 0 10.24 6.08 153.12 153.12 0 0 0 10.88 5.056c1.808 0.752 3.68 1.456 5.6 2.112 1.808 0.672 3.68 1.28 5.6 1.856a130.32 130.32 0 0 0 11.68 2.832c1.92 0.384 3.888 0.704 5.92 0.992a108.176 108.176 0 0 0 11.84 1.104 122.4 122.4 0 0 0 47.04-7.2 135.2 135.2 0 0 0 10.88-4.64c1.808-0.848 3.632-1.76 5.44-2.704a157.488 157.488 0 0 0 10.24-6.192c1.6-1.12 3.2-2.256 4.8-3.456 1.6-1.2 3.152-2.432 4.64-3.696 1.6-1.28 3.152-2.576 4.64-3.92 1.392-1.344 2.768-2.72 4.16-4.144 1.488-1.408 2.88-2.848 4.16-4.32a97.792 97.792 0 0 0 7.68-9.2c1.168-1.6 2.352-3.216 3.52-4.864l3.2-5.04 2.88-5.184c0.96-1.76 1.872-3.52 2.72-5.328l2.56-5.44c0.752-1.856 1.44-3.712 2.08-5.584 0.752-1.872 1.392-3.76 1.92-5.664a56 56 0 0 0 1.6-5.76c0.528-1.92 1.008-3.872 1.44-5.824l0.96-5.872a112.16 112.16 0 0 0 1.28-23.84l-0.32-5.968a112.496 112.496 0 0 0-0.8-5.936 56.8 56.8 0 0 0-0.96-5.888 55.712 55.712 0 0 0-1.28-5.84 56.032 56.032 0 0 0-1.6-5.76 106.032 106.032 0 0 0-8.96-22.128l-2.88-5.216a438.208 438.208 0 0 0-3.2-5.072 98.24 98.24 0 0 0-7.04-9.632c-1.28-1.552-2.56-3.072-3.84-4.56a266.88 266.88 0 0 0-4.16-4.352 108.944 108.944 0 0 0-8.8-7.952 104.624 104.624 0 0 0-9.44-7.04 119.536 119.536 0 0 0-10.24-6.08 111.424 111.424 0 0 0-21.76-9.008 128.16 128.16 0 0 0-11.52-2.864 117.52 117.52 0 0 0-23.52-2.256 120.384 120.384 0 0 0-24 2.368 121.392 121.392 0 0 0-33.92 12.176 107.056 107.056 0 0 0-10.4 6.24c-3.312 2.24-6.56 4.64-9.76 7.2-3.088 2.56-6.032 5.264-8.8 8.112h-0.16z m44.48 127.04a45.28 45.28 0 0 1-3.84-4.256 33.76 33.76 0 0 1-3.36-4.592c-1.072-1.6-2.08-3.232-3.04-4.912a82.832 82.832 0 0 1-2.4-5.184 89.76 89.76 0 0 1-1.76-5.376c-0.64-1.824-1.12-3.68-1.44-5.552a97.568 97.568 0 0 1-0.8-5.648 50.752 50.752 0 0 1-0.32-5.712l0.32-5.696c0.208-1.888 0.528-3.776 0.96-5.648 0.32-1.856 0.8-3.712 1.44-5.52 0.528-1.824 1.168-3.616 1.92-5.376 0.752-1.76 1.552-3.472 2.4-5.136a78.56 78.56 0 0 1 6.4-9.44c1.28-1.488 2.56-2.88 3.84-4.224a63.84 63.84 0 0 1 4.32-3.84 42.88 42.88 0 0 1 4.48-3.44c1.6-1.072 3.248-2.048 4.96-2.96 1.6-0.912 3.312-1.728 5.12-2.464a52.4 52.4 0 0 1 10.88-3.36 54.128 54.128 0 0 1 11.36-1.184 61.92 61.92 0 0 1 11.36 1.056 59.792 59.792 0 0 1 25.6 11.968c1.488 1.2 2.88 2.464 4.16 3.808 1.392 1.36 2.672 2.768 3.84 4.256 1.168 1.472 2.288 3.008 3.36 4.592 1.072 1.6 2.032 3.232 2.88 4.912 0.96 1.68 1.808 3.408 2.56 5.168 0.64 1.76 1.232 3.568 1.76 5.392 0.64 1.824 1.12 3.68 1.44 5.536 0.32 1.872 0.592 3.76 0.8 5.648 0.208 1.904 0.32 3.808 0.32 5.712l-0.32 5.696a50.464 50.464 0 0 1-0.96 5.648c-0.32 1.856-0.8 3.712-1.44 5.52a48.784 48.784 0 0 1-1.92 5.376c-0.752 1.76-1.552 3.472-2.4 5.136a77.76 77.76 0 0 1-6.4 9.44c-1.28 1.488-2.56 2.88-3.84 4.224-2.768 2.736-5.76 5.184-8.96 7.328-3.2 2.16-6.56 3.968-10.08 5.44a59.424 59.424 0 0 1-33.76 3.36 58.24 58.24 0 0 1-10.88-3.248 62.4 62.4 0 0 1-9.92-5.312 58.832 58.832 0 0 1-8.64-7.136z m-435.2-529.6c0-4.272 0.112-8.528 0.32-12.8 0.208-4.256 0.48-8.512 0.8-12.752a254.72 254.72 0 0 1 3.84-25.312c0.848-4.176 1.76-8.336 2.72-12.48 1.072-4.144 2.24-8.256 3.52-12.336 1.168-4.08 2.512-8.128 4-12.16 1.392-4 2.928-8 4.64-11.936a236.032 236.032 0 0 1 10.88-23.12c2.032-3.76 4.112-7.472 6.24-11.136 2.24-3.664 4.528-7.264 6.88-10.816 2.352-3.536 4.8-7.04 7.36-10.448 2.56-3.44 5.168-6.8 7.84-10.08a325.984 325.984 0 0 1 17.28-18.976c2.992-3.008 6.08-5.952 9.28-8.816 3.088-2.88 6.288-5.648 9.6-8.352 3.312-2.72 6.672-5.328 10.08-7.872 3.52-2.56 7.04-5.008 10.56-7.36 3.52-2.384 7.088-4.656 10.72-6.848 3.728-2.208 7.472-4.304 11.2-6.32 3.728-2 7.52-3.92 11.36-5.744A318.992 318.992 0 0 1 404.80032 31.216c4.048-1.44 8.112-2.768 12.16-4 4.048-1.248 8.16-2.384 12.32-3.424A273.504 273.504 0 0 1 454.40032 18.816a263.952 263.952 0 0 1 63.84-1.552 247.888 247.888 0 0 1 37.76 6.56c4.16 1.024 8.272 2.16 12.32 3.408a250.176 250.176 0 0 1 47.2 19.552c3.728 2 7.472 4.112 11.2 6.304 3.632 2.192 7.2 4.48 10.72 6.848 3.632 2.368 7.152 4.816 10.56 7.36 3.408 2.544 6.768 5.168 10.08 7.872 3.312 2.72 6.512 5.488 9.6 8.352 3.2 2.88 6.288 5.808 9.28 8.832 3.088 3.008 6.032 6.096 8.8 9.264 2.88 3.168 5.712 6.4 8.48 9.68 2.672 3.312 5.28 6.672 7.84 10.08 2.56 3.44 5.008 6.928 7.36 10.48 2.352 3.536 4.64 7.152 6.88 10.8 2.128 3.664 4.208 7.36 6.24 11.136a236.448 236.448 0 0 1 10.88 23.12c1.712 3.952 3.248 7.92 4.64 11.936 1.488 4.032 2.832 8.08 4 12.16 1.28 4.08 2.448 8.192 3.52 12.32 0.96 4.144 1.872 8.32 2.72 12.48a251.248 251.248 0 0 1 3.84 25.312c0.32 4.24 0.592 8.496 0.8 12.768a256.384 256.384 0 0 1 0 25.568c-0.208 4.272-0.48 8.512-0.8 12.768a254.768 254.768 0 0 1-3.84 25.296c-0.848 4.192-1.76 8.352-2.72 12.48-1.072 4.16-2.24 8.256-3.52 12.336-1.168 4.08-2.512 8.128-4 12.16-1.392 4-2.928 8-4.64 11.92a237.376 237.376 0 0 1-10.88 23.136c-2.032 3.76-4.112 7.472-6.24 11.12-2.24 3.664-4.528 7.264-6.88 10.816-2.352 3.552-4.8 7.04-7.36 10.464-2.56 3.424-5.168 6.784-7.84 10.08a322.56 322.56 0 0 1-17.28 18.944c-2.992 3.024-6.08 5.968-9.28 8.832-3.088 2.864-6.288 5.648-9.6 8.352-3.312 2.72-6.672 5.328-10.08 7.872-3.408 2.544-6.928 4.992-10.56 7.36-3.52 2.384-7.088 4.656-10.72 6.848-3.728 2.192-7.472 4.304-11.2 6.304a250.896 250.896 0 0 1-47.2 19.568 244.432 244.432 0 0 1-24.8 6.208c-4.16 0.832-8.368 1.568-12.64 2.192a246.768 246.768 0 0 1-25.44 2.496 260.832 260.832 0 0 1-112.48-19.52c-3.952-1.632-7.84-3.36-11.68-5.184-3.84-1.824-7.68-3.744-11.52-5.76a254.72 254.72 0 0 1-11.04-6.304c-3.728-2.192-7.36-4.48-10.88-6.848a268.512 268.512 0 0 1-20.48-15.232c-3.312-2.704-6.56-5.488-9.76-8.352-3.088-2.88-6.192-5.808-9.28-8.832a307.84 307.84 0 0 1-8.8-9.264c-2.88-3.152-5.648-6.384-8.32-9.68a163.68 163.68 0 0 1-7.84-10.08c-2.56-3.44-5.008-6.912-7.36-10.464a167.248 167.248 0 0 1-6.88-10.816 234.72 234.72 0 0 1-6.4-11.12c-1.92-3.776-3.84-7.584-5.76-11.44-1.808-3.84-3.52-7.744-5.12-11.68-1.6-3.952-3.152-7.936-4.64-11.952-1.392-4-2.72-8.064-4-12.144a461.36 461.36 0 0 1-3.36-12.32 249.328 249.328 0 0 1-2.88-12.48c-0.752-4.192-1.44-8.4-2.08-12.624a254.592 254.592 0 0 1-2.88-38.24z m121.6-139.056c-4.592 4.544-8.96 9.296-13.12 14.272-4.048 4.96-7.888 10.144-11.52 15.488-3.52 5.36-6.832 10.88-9.92 16.544-2.992 5.68-5.712 11.504-8.16 17.456-2.56 5.952-4.752 12-6.56 18.176-1.92 6.176-3.472 12.416-4.64 18.72-1.28 6.336-2.24 12.704-2.88 19.12-0.64 6.4-0.912 12.832-0.8 19.28-0.112 6.448 0.16 12.864 0.8 19.28s1.6 12.784 2.88 19.104c1.168 6.32 2.72 12.56 4.64 18.72 1.808 6.176 4 12.24 6.56 18.192 2.448 5.952 5.168 11.76 8.16 17.44 3.088 5.696 6.4 11.2 9.92 16.56 3.632 5.344 7.472 10.512 11.52 15.488 4.16 4.96 8.528 9.728 13.12 14.272 4.48 4.56 9.232 8.896 14.24 12.992 4.912 4.096 10.08 7.952 15.52 11.52a195.36 195.36 0 0 0 33.92 18.208 196.592 196.592 0 0 0 75.36 14.88 193.76 193.76 0 0 0 38.4-3.696 198.4 198.4 0 0 0 18.72-4.688c6.192-1.856 12.208-4.032 18.08-6.496 5.968-2.464 11.792-5.216 17.44-8.256 5.76-3.04 11.312-6.352 16.64-9.936 5.328-3.584 10.512-7.424 15.52-11.52 4.912-4.112 9.648-8.432 14.24-13.008 4.592-4.544 8.912-9.296 12.96-14.272 4.048-4.96 7.888-10.144 11.52-15.488 3.632-5.36 6.928-10.88 9.92-16.544a178.88 178.88 0 0 0 14.72-35.632c1.92-6.176 3.52-12.416 4.8-18.72 1.168-6.336 2.08-12.704 2.72-19.12a193.616 193.616 0 0 0 0-38.56c-0.64-6.416-1.552-12.8-2.72-19.104-1.28-6.32-2.88-12.576-4.8-18.72a183.84 183.84 0 0 0-14.72-35.648c-2.992-5.68-6.288-11.2-9.92-16.544a218.592 218.592 0 0 0-11.52-15.488 181.6 181.6 0 0 0-12.96-14.272 220.064 220.064 0 0 0-14.24-12.992 207.424 207.424 0 0 0-15.52-11.536c-5.328-3.584-10.88-6.896-16.64-9.936-5.648-3.04-11.472-5.808-17.44-8.272-5.872-2.464-11.888-4.64-18.08-6.496a198.288 198.288 0 0 0-18.72-4.672 201.328 201.328 0 0 0-57.76-2.784 193.552 193.552 0 0 0-37.76 7.472c-6.192 1.856-12.272 4.032-18.24 6.496-5.872 2.464-11.68 5.216-17.44 8.256-5.648 3.04-11.152 6.352-16.48 9.92a207.52 207.52 0 0 0-15.52 11.536c-4.912 4.096-9.648 8.432-14.24 12.992v0.016z"  /></svg>