<?xml version="1.0" standalone="no"?><!DOCTYPE svg PUBLIC "-//W3C//DTD SVG 1.1//EN" "http://www.w3.org/Graphics/SVG/1.1/DTD/svg11.dtd"><svg class="icon" width="200px" height="200.00px" viewBox="0 0 1024 1024" version="1.1" xmlns="http://www.w3.org/2000/svg"><path fill="#ffffff" d="M871.26896 303.648a268.592 268.592 0 0 1-8.032 63.84 269.616 269.616 0 0 1-68.16 122.592 267.84 267.84 0 0 1-39.216 33.392 268.8 268.8 0 0 1-68.896 34.672 268.656 268.656 0 0 1-63.024 12.992c-4.288 0.352-8.576 0.608-12.88 0.768-2.272 0.496-4.56 0.736-6.88 0.736a374.288 374.288 0 0 0-117.072 18.176 385.36 385.36 0 0 0-229.328 199.92 387.12 387.12 0 0 0-26.512 73.424 385.248 385.248 0 0 0-11.488 92.88 32.112 32.112 0 0 1-11.68 24.736 32.32 32.32 0 0 1-14.08 6.656 31.84 31.84 0 0 1-21.312-3.168 32.288 32.288 0 0 1-11.52-10.448 32.064 32.064 0 0 1-5.408-17.76 443.824 443.824 0 0 1 92.272-271.808 452.592 452.592 0 0 1 103.888-98.048 462.192 462.192 0 0 1 107.424-54.4 271.568 271.568 0 0 1-26.4-18.128c-3.2 0.912-6.4 1.744-9.6 2.496a31.04 31.04 0 0 1-17.728 5.472c-17.904 0.016-35.648 1.712-53.232 5.12-154.64 29.728-266.64 181.808-266.64 361.952v11.456a30.688 30.688 0 0 1-18.464 29.12 31.088 31.088 0 0 1-11.888 2.624h-0.8a30.928 30.928 0 0 1-25.696-13.296 30.88 30.88 0 0 1-5.552-16.928C23.07696 898.24 23.07696 894.096 23.07696 889.648a462.624 462.624 0 0 1 69.472-246c6.512-10.496 13.424-20.704 20.736-30.64a388.128 388.128 0 0 1 146.816-120 219.152 219.152 0 0 1-61.712-53.072 218.96 218.96 0 0 1-37.984-72 217.92 217.92 0 0 1-9.008-80.896 218.048 218.048 0 0 1 27.568-90.672 219.552 219.552 0 0 1 32.448-43.712 217.632 217.632 0 0 1 30.912-26.752 221.952 221.952 0 0 1 43.6-24.352 223.408 223.408 0 0 1 122.64-14.432 222.512 222.512 0 0 1 24.4 5.44A271.392 271.392 0 0 1 664.56496 42.832a271.088 271.088 0 0 1 153.776 102.48 271.632 271.632 0 0 1 49.952 120.768 270.432 270.432 0 0 1 2.976 37.568z m-65.12 0a205.296 205.296 0 0 0-15.04-79.04 206.352 206.352 0 0 0-51.472-74.288 206.352 206.352 0 0 0-68.736-41.84 204.208 204.208 0 0 0-49.2-11.376 206.528 206.528 0 0 0-70.352 4.8 208.576 208.576 0 0 0-38.144 13.408 206.736 206.736 0 0 0-50.48 33.392 205.28 205.28 0 0 0-48.192 64.432 207.44 207.44 0 0 0-13.76 38.016 204.624 204.624 0 0 0-6.336 50.08 203.296 203.296 0 0 0 3.84 40.256 203.824 203.824 0 0 0 11.664 38.72A205.6 205.6 0 0 0 477.44496 467.04a205.248 205.248 0 0 0 62.976 31.76 205.68 205.68 0 0 0 59.856 8.896 206.4 206.4 0 0 0 49.792-5.968 202.8 202.8 0 0 0 37.872-13.376 204.688 204.688 0 0 0 64.4-47.328 203.52 203.52 0 0 0 29.072-40.864 204.752 204.752 0 0 0 24.704-96.432v-0.08zM278.75696 176.016a157.184 157.184 0 0 0-65.84 127.84 158.016 158.016 0 0 0 7.76 48.944 157.6 157.6 0 0 0 48.016 71.36 156.72 156.72 0 0 0 42.432 25.6 156.672 156.672 0 0 0 60.736 11.52c3.04 0 6.08-0.096 9.12-0.272a264.032 264.032 0 0 1-26.752-45.216 264.304 264.304 0 0 1-19.648-59.856 269.952 269.952 0 0 1-4.992-41.76 268.24 268.24 0 0 1 3.088-52.448 266.8 266.8 0 0 1 31.04-88.96 266.96 266.96 0 0 1 17.12-26.528 160.736 160.736 0 0 0-66.4 10.56 160.256 160.256 0 0 0-35.664 19.296v-0.08z m629.536 448.208a179.952 179.952 0 0 1 28.768 37.456 180 180 0 0 1 18.112 43.616 182.576 182.576 0 0 1 6.24 46.8 180.208 180.208 0 0 1-6.064 46.832 182.384 182.384 0 0 1-17.936 43.68 181.92 181.92 0 0 1-8.448 13.328l62.64 62.688a32.272 32.272 0 0 1 9.248 16.464 31.792 31.792 0 0 1-1.648 18.8 32.08 32.08 0 0 1-26.88 19.808 31.648 31.648 0 0 1-15.584-2.56 31.632 31.632 0 0 1-10.384-7.28l-62.688-62.672a179.408 179.408 0 0 1-29.792 16.8 180.416 180.416 0 0 1-49.248 14.032 180.592 180.592 0 0 1-59.648-1.76 181.488 181.488 0 0 1-107.28-65.68 178.08 178.08 0 0 1-14.416-21.232 181.6 181.6 0 0 1-24.448-89.888 179.68 179.68 0 0 1 4.784-42.448 182.576 182.576 0 0 1 14.592-40.16 182.624 182.624 0 0 1 23.568-35.616 176.704 176.704 0 0 1 17.936-18.368 181.056 181.056 0 0 1 117.184-45.712 181.872 181.872 0 0 1 67.12 11.616 182.016 182.016 0 0 1 58.08 35.552c2.112 1.92 4.176 3.888 6.192 5.92z m-45.264 211.072a116.768 116.768 0 0 0 25.856-38.96 115.76 115.76 0 0 0 7.168-25.856 116.64 116.64 0 0 0 0.448-33.504 117.872 117.872 0 0 0-15.2-44.208 117.04 117.04 0 0 0-42.464-42.16 118.24 118.24 0 0 0-37.68-13.856 117.888 117.888 0 0 0-46.736 0.96 118.32 118.32 0 0 0-31.312 11.904 115.888 115.888 0 0 0-21.808 15.632 116.864 116.864 0 0 0-27.696 37.664 116.048 116.048 0 0 0-8.416 25.488 117.392 117.392 0 0 0 197.84 106.896z"  /></svg>