<?xml version="1.0" standalone="no"?><!DOCTYPE svg PUBLIC "-//W3C//DTD SVG 1.1//EN" "http://www.w3.org/Graphics/SVG/1.1/DTD/svg11.dtd"><svg class="icon" width="200px" height="200.00px" viewBox="0 0 1024 1024" version="1.1" xmlns="http://www.w3.org/2000/svg"><path fill="#ffffff" d="M215.369467 979.304346L58.918679 803.72113c-3.199403-3.759298-5.918895-7.87053-8.158476-12.3177a59.300927 59.300927 0 0 1-4.959075-13.997386l-0.31994-1.007812a65.475774 65.475774 0 0 1 0-19.420374c0.431919-2.1436 0.91183-4.255205 1.439731-6.334817 0.639881-2.079612 1.39174-4.143226 2.239582-6.142853 0.75186-2.015624 1.647692-3.967259 2.719492-5.870904 1.0718-1.887648 2.239582-3.727304 3.519343-5.502972 1.279761-1.759671 2.607513-3.471352 3.999254-5.087051l0.63988-0.607886a821.190668 821.190668 0 0 1 83.664378-79.185215c48.63092-39.224676 89.583273-59.732847 125.416583-62.676297 12.15773-1.055803 27.514862-1.599701 46.871248-1.599701 75.505902 0 191.324276 7.998507 268.109939 13.293518 27.514862 1.903645 49.2708 3.407364 61.10859 3.967259a89.455297 89.455297 0 0 1 28.314713 5.438984c4.479164 1.695683 8.798357 3.727304 12.95758 6.142853 4.271202 2.399552 8.270456 5.119044 11.99776 8.190471 3.311382 2.687498 6.286826 5.694937 8.958328 9.006318 2.671501 3.295385 5.007065 6.846722 7.038685 10.638014 1.919642 3.775295 3.471352 7.726557 4.639134 11.83779 1.167782 4.111232 1.919642 8.286453 2.239582 12.541658 0.207961 3.775295 0.047991 7.55059-0.479911 11.293891-0.639881 3.743301-1.599701 7.39062-2.879462 10.941957a59.12496 59.12496 0 0 1-5.119044 10.126109c-2.031621 3.199403-4.367185 6.142853-7.038686 8.862346a76.689681 76.689681 0 0 1-9.598208 8.110485 79.457164 79.457164 0 0 1-22.875728 10.877969c-4.047244 1.183779-8.158477 2.015624-12.3177 2.495534-26.235101 3.823286-75.505902 8.222465-123.017031 12.445676-22.715759 2.031621-48.79089 4.351188-67.667365 6.270829 1.919642 0.287946 3.839283 0.575892 6.078865 0.831845l1.119791 0.143973a1127.053558 1127.053558 0 0 0 199.802693 11.757805 197.03521 197.03521 0 0 0 43.991786-31.54611c22.075878-18.844481 46.391338-41.976162 67.987305-62.388351 21.435997-20.412189 38.072891-36.31322 49.750711-45.383526l0.31994-0.239955a125.16063 125.16063 0 0 1 32.953847-17.532726 119.481691 119.481691 0 0 1 18.076625-4.799104 120.169562 120.169562 0 0 1 23.675579-1.967633 74.786036 74.786036 0 0 1 15.037193 2.1436 76.577702 76.577702 0 0 1 18.716505 7.646572 98.301645 98.301645 0 0 1 8.318447 5.710934c1.279761 1.055803 2.559522 2.1436 3.839283 3.295384 1.279761 1.119791 2.511531 2.319567 3.679313 3.53534l3.359372 3.791292a65.699733 65.699733 0 0 1 5.758925 8.254459c0.959821 1.439731 1.807662 2.911456 2.559522 4.415176 0.75186 2.015624 1.39174 3.999253 1.919642 6.014877 0.527901 2.031621 0.91183 4.063241 1.119791 6.126856 0.31994 2.079612 0.47991 4.159223 0.47991 6.238835a60.980614 60.980614 0 0 1-1.279761 12.381688 57.829202 57.829202 0 0 1-1.919641 5.982883c-0.639881 1.951636-1.439731 3.871277-2.399552 5.72693-0.959821 1.855654-2.031621 3.647319-3.199403 5.374997-7.150665 14.269336-16.156983 27.194922-27.034952 38.808753-25.275281 26.954967-75.185961 79.393176-128.296045 128.64798-101.421063 94.222407-142.853327 110.619345-165.089175 114.746574-18.876475 2.959447-37.86493 4.255205-56.949366 3.871277-38.392831 0-86.06393-3.199403-128.136075-6.014877-35.193429-2.367558-68.467216-4.575146-90.063183-4.575145a113.338838 113.338838 0 0 0-16.156983 0.735862 233.924322 233.924322 0 0 0-60.62868 30.490307 61.636491 61.636491 0 0 1-29.594474 10.92596c-2.127603 0.239955-4.319194 0.351934-6.558775 0.351934a60.78865 60.78865 0 0 1-36.63316-11.837789 67.507395 67.507395 0 0 1-9.598208-8.814354z m59.508888-334.673511c-35.673339 2.863465-100.621212 50.294609-165.889025 120.857434a1.279761 1.279761 0 0 0-0.31994 0.847842c0 0.095982 0.047991 0.175967 0.15997 0.255952l153.571325 172.463798c23.5636-15.997013 48.902869-28.410695 75.985812-37.273041l0.959821-0.287946 0.959821-0.239955a134.070966 134.070966 0 0 1 34.233608-3.199403c23.99552 0 58.229128 2.30357 94.702317 4.799104 40.952353 2.751486 87.503661 5.870904 123.496941 5.870904 14.925213 0.31994 29.706453-0.575892 44.311726-2.719492a157.442603 157.442603 0 0 0 27.674833-12.509665 152.611505 152.611505 0 0 0 24.47543-17.660702 1015.394407 1015.394407 0 0 0 80.305005-68.323243c51.670352-47.991039 100.621212-99.357448 125.256612-125.672534l0.159971-0.255953a106.220167 106.220167 0 0 0 18.076624-26.539044 14.797237 14.797237 0 0 0-4.159223-0.447917 54.229874 54.229874 0 0 0-15.037192 3.311382c-4.911083 1.839657-9.486229 4.319194-13.757432 7.454608-9.278268 7.262644-26.555042 23.771561-44.951606 41.2403-23.035699 21.867917-49.11083 46.663287-73.42629 67.091473-33.273787 28.01077-55.509635 41.2403-74.066171 44.167753l-2.079611 0.351934h-2.079612a1194.305001 1194.305001 0 0 1-215.479766-12.285706 133.735029 133.735029 0 0 1-53.749964-15.997013 43.511876 43.511876 0 0 1-5.119044-3.199403 45.399523 45.399523 0 0 1-8.958327-8.046497 48.310979 48.310979 0 0 1-7.038686-9.886154 51.510382 51.510382 0 0 1-4.479164-11.197909 55.573623 55.573623 0 0 1-1.279761-5.918895 67.315431 67.315431 0 0 1-0.15997-4.639134l0.31994-4.639134c0.111979-1.55171 0.31994-3.087424 0.639881-4.623137 0.207961-1.519716 0.527901-3.039432 0.959821-4.543151 0.431919-1.503719 0.91183-2.991441 1.439731-4.44717 0.431919-1.471725 0.959821-2.911456 1.599701-4.319193a60.868635 60.868635 0 0 1 4.479164-8.206468c0.847842-1.295758 1.71168-2.559522 2.559522-3.807289 0.959821-1.23177 1.967633-2.415549 3.039432-3.583331 1.0718-1.151785 2.127603-2.255579 3.199403-3.327379 1.167782-1.0718 2.351561-2.079612 3.519343-3.071426a50.086648 50.086648 0 0 1 7.678566-5.247021 75.697866 75.697866 0 0 1 8.318447-3.967259c8.958327-3.055429 24.95534-4.879089 107.020017-12.173727 44.471696-3.951262 94.862287-8.446423 119.177748-12.013757 2.127603-0.239955 4.207214-0.831845 6.238835-1.775668-0.959821-2.191591-5.279014-6.398805-15.517103-6.862719-12.47767-0.607886-34.553548-2.127603-62.548321-4.063241-75.825842-5.231023-190.204485-13.133548-263.470805-13.133548-16.956834 0.047991-30.874235 0.495907-40.952354 1.375743v0.015997z m539.419281-86.639822c-20.316207 0-36.63316-23.851546-36.63316-53.286051v-95.91809c-1.167782-23.99552-4.527155-47.671099-10.078118-71.042735h3.039432a131.207501 131.207501 0 0 1 55.829576 11.965766c26.395072 13.421494 39.192682 51.030472 39.192682 80.448978v74.578075c0 29.434504-16.476923 53.28605-36.63316 53.286051l-14.717252-0.031994z m-350.814497-46.567305v-123.416956c0-62.084408 59.828829-112.411011 133.575059-112.411011 73.74623 0 133.575059 50.326603 133.575059 112.411011v123.44895c0 31.034205-66.707544 46.567305-133.575059 46.567305-66.707544 0-133.575059-15.565094-133.575059-46.567305v-0.031994z m57.589247-123.416956v103.036761a261.551163 261.551163 0 0 0 75.985812 9.454235c25.803182 0.575892 51.190442-2.575519 76.145783-9.454235v-103.036761c0-29.786438-34.873488-54.933743-76.145783-54.933743-41.272294 0-75.985812 25.147305-75.985812 54.933743z m-156.450787 169.968264c-19.996266 0-36.15325-23.851546-36.15325-53.286051v-74.578075c0-29.434504 12.63764-67.027485 38.552802-80.448978a128.663976 128.663976 0 0 1 55.029725-11.965766h3.039432a380.217006 380.217006 0 0 0-9.918148 71.042735v95.902093c0 29.434504-16.156983 53.28605-36.15325 53.286051l-14.397311 0.047991z m351.774317-311.173898c0-1.215773 0.047991-2.447543 0.15997-3.663316a41.56024 41.56024 0 0 1 0.63988-7.278641l0.639881-3.615325c0.207961-1.199776 0.47991-2.399552 0.799851-3.567334l0.95982-3.519343a41.864183 41.864183 0 0 1 2.559523-6.91071 41.592234 41.592234 0 0 1 1.439731-3.359372l1.599701-3.263391c0.639881-1.0718 1.23177-2.127603 1.759671-3.183406 0.639881-1.039806 1.327752-2.079612 2.079612-3.087423a40.472443 40.472443 0 0 1 2.079612-2.991442c0.75186-0.991815 1.487722-1.951636 2.239582-2.879462a42.712025 42.712025 0 0 1 2.399552-2.78348 156.690743 156.690743 0 0 1 5.119044-5.183033l2.879462-2.399551c0.847842-0.767857 1.807662-1.519716 2.879463-2.239582 0.959821-0.735863 1.919642-1.439731 2.879462-2.111606a107.355955 107.355955 0 0 1 9.598208-5.40699c1.0718-0.527901 2.191591-1.023809 3.359372-1.487723 1.167782-0.47991 2.287573-0.91183 3.359373-1.311755a86.575835 86.575835 0 0 1 7.038686-2.127602 59.988799 59.988799 0 0 1 3.679313-0.799851 73.698239 73.698239 0 0 1 14.397312-1.439731 72.546454 72.546454 0 0 1 14.557282 1.439731 59.940808 59.940808 0 0 1 7.198655 1.759671c1.167782 0.367931 2.351561 0.75186 3.519343 1.167782 1.0718 0.399925 2.191591 0.847842 3.359373 1.311755 1.167782 0.47991 2.287573 0.959821 3.359373 1.487723a89.231339 89.231339 0 0 1 9.598208 5.40699c0.959821 0.671875 1.919642 1.375743 2.879462 2.111606 1.0718 0.719866 2.031621 1.471725 2.879462 2.239582l2.879463 2.399551a135.222751 135.222751 0 0 1 5.119044 5.183033c0.847842 0.895833 1.647692 1.823659 2.399552 2.767483l2.239582 2.879462c0.75186 0.991815 1.439731 1.98363 2.079611 3.007439 0.75186 1.007812 1.439731 2.047618 2.079612 3.087423 0.527901 1.055803 1.119791 2.111606 1.759671 3.199403l1.599702 3.263391a41.592234 41.592234 0 0 1 1.439731 3.359372c0.527901 1.119791 1.007812 2.239582 1.439731 3.407364 0.31994 1.151785 0.687872 2.30357 1.119791 3.471352l0.959821 3.519343c0.31994 1.199776 0.591889 2.399552 0.79985 3.583331l0.639881 3.615325a42.488067 42.488067 0 0 1 0.639881 7.278641 43.127947 43.127947 0 0 1 0 7.326632 42.136132 42.136132 0 0 1-0.639881 7.278641l-0.639881 3.615324c-0.207961 1.199776-0.47991 2.383555-0.79985 3.567334l-0.959821 3.519343c-0.431919 1.183779-0.799851 2.335564-1.119791 3.487349a43.223929 43.223929 0 0 1-1.439731 3.407364 41.592234 41.592234 0 0 1-1.439731 3.359373l-1.599702 3.26339a56.789396 56.789396 0 0 0-1.759671 3.199403c-0.639881 1.039806-1.327752 2.079612-2.079612 3.087423-0.639881 1.007812-1.327752 1.999627-2.079611 2.991442l-2.239582 2.879462a41.816192 41.816192 0 0 1-2.399552 2.767483 151.0278 151.0278 0 0 1-5.119044 5.183033 130.855567 130.855567 0 0 1-2.879463 2.399552 26.587036 26.587036 0 0 1-2.879462 2.239582c-0.959821 0.735863-1.919642 1.439731-2.879462 2.111605a107.419943 107.419943 0 0 1-9.598208 5.406991 47.287171 47.287171 0 0 1-3.359373 1.487722c-1.167782 0.47991-2.287573 0.91183-3.359373 1.311755a83.456417 83.456417 0 0 1-7.038685 2.127603c-1.167782 0.303943-2.399552 0.575892-3.679313 0.79985a73.506275 73.506275 0 0 1-14.557282 1.439731 71.778598 71.778598 0 0 1-14.397312-1.439731 59.988799 59.988799 0 0 1-7.198656-1.775668 85.871966 85.871966 0 0 1-3.519343-1.151785 334.449552 334.449552 0 0 1-3.359373-1.327752 47.575117 47.575117 0 0 1-3.359372-1.471725 89.231339 89.231339 0 0 1-9.598208-5.422988 101.389069 101.389069 0 0 1-5.758925-4.351187 134.662856 134.662856 0 0 1-2.879462-2.399552 145.476837 145.476837 0 0 1-5.119044-5.167036 43.11195 43.11195 0 0 1-2.399552-2.78348c-0.75186-0.927827-1.487722-1.903645-2.239582-2.879462a40.824377 40.824377 0 0 1-2.079612-2.991442 253.920588 253.920588 0 0 1-3.839283-6.270829 527.021595 527.021595 0 0 1-1.599701-3.279387 41.56024 41.56024 0 0 1-1.439731-3.343376 21.292024 21.292024 0 0 1-1.279762-3.407364 889.177974 889.177974 0 0 1-1.279761-3.487349l-0.95982-3.519343a42.184123 42.184123 0 0 1-0.799851-3.567334l-0.639881-3.615324-0.31994-3.631322a21.116057 21.116057 0 0 1-0.31994-3.647319 41.752204 41.752204 0 0 1-0.15997-3.663316z m42.712025 0c0 1.055803 0.047991 2.079612 0.15997 3.135414l0.31994 3.103421a31.018208 31.018208 0 0 0 1.919642 5.99888l1.279761 2.847468 1.599701 2.687498c0.639881 0.879836 1.279761 1.71168 1.919642 2.527528a26.075131 26.075131 0 0 0 4.479163 4.431173c0.75186 0.671875 1.599701 1.279761 2.559522 1.87165 0.847842 0.575892 1.71168 1.119791 2.559522 1.599702a27.002958 27.002958 0 0 0 5.918895 2.399552 27.610845 27.610845 0 0 0 9.278268 1.375743 31.86605 31.86605 0 0 0 15.037192-3.759298 25.595221 25.595221 0 0 0 5.119044-3.487349 26.267095 26.267095 0 0 0 4.479164-4.431173c0.639881-0.799851 1.279761-1.647692 1.919641-2.527528a113.098882 113.098882 0 0 0 1.599702-2.687498 15.197162 15.197162 0 0 0 1.279761-2.847468 29.56248 29.56248 0 0 0 2.399552-9.102301 31.082196 31.082196 0 0 0-1.279761-12.429679 29.56248 29.56248 0 0 0-1.119791-2.94345 15.197162 15.197162 0 0 0-1.279761-2.847469 113.098882 113.098882 0 0 0-1.599702-2.687498 85.104109 85.104109 0 0 0-1.919641-2.527528 25.355266 25.355266 0 0 0-4.479164-4.431173 23.259657 23.259657 0 0 0-5.119044-3.487348 40.040524 40.040524 0 0 0-5.758925-2.399552 46.663287 46.663287 0 0 0-3.039432-0.767857 35.577357 35.577357 0 0 0-6.238835-0.607887 33.465751 33.465751 0 0 0-6.238835 0.623884c-1.0718 0.207961-2.079612 0.447916-3.039433 0.767857-1.0718 0.303943-2.079612 0.639881-3.039432 1.055802-0.959821 0.399925-1.919642 0.847842-2.879463 1.34375-0.847842 0.47991-1.71168 1.023809-2.559522 1.599701-0.959821 0.591889-1.807662 1.215773-2.559522 1.887647a26.507051 26.507051 0 0 0-4.479163 4.431173c-0.639881 0.799851-1.279761 1.647692-1.919642 2.511531-0.527901 0.879836-1.0718 1.775668-1.599701 2.703495-0.431919 0.91183-0.847842 1.871651-1.279761 2.831472-0.431919 0.959821-0.799851 1.951636-1.119791 2.959447l-0.639881 3.039433a30.410322 30.410322 0 0 0-0.63988 6.238835z m-430.639592 0c0-1.215773 0.047991-2.447543 0.15997-3.663316 0-1.215773 0.047991-2.431546 0.15997-3.647319 0.207961-1.215773 0.367931-2.431546 0.479911-3.631322l0.63988-3.615325c0.207961-1.199776 0.47991-2.399552 0.799851-3.567334l0.959821-3.519343c0.431919-1.183779 0.799851-2.335564 1.119791-3.487349a42.072144 42.072144 0 0 1 1.439731-3.423361 41.592234 41.592234 0 0 1 1.439731-3.343375l1.599701-3.263391 1.919642-3.199403a22.395818 22.395818 0 0 1 1.919642-3.087423 40.472443 40.472443 0 0 1 2.079611-2.991442c0.75186-0.975818 1.487722-1.951636 2.239582-2.879462 0.75186-0.959821 1.55171-1.871651 2.399552-2.78348a163.121542 163.121542 0 0 1 5.119044-5.167036 139.749906 139.749906 0 0 1 5.758925-4.639133c0.959821-0.735863 1.919642-1.439731 2.879462-2.127603a109.835492 109.835492 0 0 1 9.598208-5.40699c1.0718-0.527901 2.191591-1.007812 3.359373-1.487723l3.359373-1.311755a83.456417 83.456417 0 0 1 7.038685-2.127602c1.167782-0.303943 2.399552-0.559895 3.679313-0.799851a72.530457 72.530457 0 0 1 29.114564 0 76.945633 76.945633 0 0 1 17.276774 5.726931 89.231339 89.231339 0 0 1 9.598208 5.40699c0.959821 0.671875 1.919642 1.375743 2.879462 2.111606 1.0718 0.719866 2.031621 1.471725 2.879463 2.239582l2.879462 2.399551a135.222751 135.222751 0 0 1 5.119044 5.183033c0.847842 0.895833 1.647692 1.823659 2.399552 2.767483l2.239582 2.879462c0.75186 0.991815 1.439731 1.98363 2.079612 3.007439 0.75186 1.007812 1.439731 2.047618 2.079611 3.087423 0.527901 1.055803 1.119791 2.111606 1.759672 3.199403l1.599701 3.263391a41.592234 41.592234 0 0 1 1.439731 3.359372 43.223929 43.223929 0 0 1 2.559522 6.878716l0.959821 3.519343c0.31994 1.199776 0.591889 2.399552 0.799851 3.583331l0.63988 3.615325a42.488067 42.488067 0 0 1 0.639881 7.278641 43.127947 43.127947 0 0 1 0 7.326632 42.136132 42.136132 0 0 1-0.639881 7.278641l-0.63988 3.615324c-0.207961 1.199776-0.47991 2.383555-0.799851 3.567334l-0.959821 3.519343c-0.431919 1.183779-0.799851 2.335564-1.119791 3.487349a43.223929 43.223929 0 0 1-1.439731 3.407364 41.592234 41.592234 0 0 1-1.439731 3.359373l-1.599701 3.26339a56.789396 56.789396 0 0 0-1.759672 3.199403c-0.639881 1.039806-1.327752 2.079612-2.079611 3.087423-0.639881 1.007812-1.327752 1.999627-2.079612 2.991442l-2.239582 2.879462a41.816192 41.816192 0 0 1-2.399552 2.767483 151.0278 151.0278 0 0 1-5.119044 5.183033 130.855567 130.855567 0 0 1-2.879462 2.399552 26.587036 26.587036 0 0 1-2.879463 2.239582c-0.959821 0.735863-1.919642 1.439731-2.879462 2.111605a107.419943 107.419943 0 0 1-9.598208 5.406991 47.287171 47.287171 0 0 1-3.359373 1.487722c-1.167782 0.47991-2.287573 0.91183-3.359372 1.311755a83.456417 83.456417 0 0 1-10.558029 2.927453 114.058703 114.058703 0 0 1-3.679313 0.639881 64.020046 64.020046 0 0 1-7.358626 0.703868 69.874953 69.874953 0 0 1-10.877969-0.271949 63.940061 63.940061 0 0 1-7.198656-1.0718 58.821017 58.821017 0 0 1-7.198656-1.775668 83.456417 83.456417 0 0 1-3.519342-1.151785 334.449552 334.449552 0 0 1-3.359373-1.311755 47.575117 47.575117 0 0 1-3.359373-1.487722 94.814296 94.814296 0 0 1-6.398805-3.455355c-1.0718-0.639881-2.079612-1.279761-3.039433-1.967633a45.943422 45.943422 0 0 1-3.039432-2.095608 118.009965 118.009965 0 0 1-5.758925-4.639134 135.078778 135.078778 0 0 1-5.119044-5.183033 42.264108 42.264108 0 0 1-2.399552-2.78348c-0.75186-0.927827-1.487722-1.903645-2.239582-2.879462a40.472443 40.472443 0 0 1-2.079611-2.991442 253.920588 253.920588 0 0 1-3.839284-6.270829 527.021595 527.021595 0 0 1-1.599701-3.279387 41.56024 41.56024 0 0 1-1.439731-3.343376 21.292024 21.292024 0 0 1-1.279761-3.407364 803.817912 803.817912 0 0 1-1.279761-3.487349l-0.959821-3.519343a43.86381 43.86381 0 0 0-0.799851-3.567334l-0.63988-3.615324-0.31994-3.631322a21.116057 21.116057 0 0 1-0.319941-3.647319 41.752204 41.752204 0 0 1-0.15997-3.663316z m42.712025 0a30.618283 30.618283 0 0 0 0.639881 6.238835c0.111979 1.023809 0.31994 2.047618 0.63988 3.039432 0.31994 1.007812 0.687872 1.999627 1.119791 2.959448l1.279761 2.847468 1.599701 2.687498c0.639881 0.879836 1.279761 1.71168 1.919642 2.527528a26.075131 26.075131 0 0 0 4.479164 4.431173c0.75186 0.671875 1.599701 1.279761 2.559522 1.87165 0.847842 0.575892 1.71168 1.119791 2.559522 1.599702a27.002958 27.002958 0 0 0 5.918895 2.399552 27.610845 27.610845 0 0 0 9.278267 1.375743 35.577357 35.577357 0 0 0 6.238835-0.607887c0.959821-0.191964 1.967633-0.447916 3.039433-0.751859a34.249605 34.249605 0 0 0 11.037939-5.886901c0.75186-0.671875 1.487722-1.359746 2.239582-2.111606 0.75186-0.735863 1.439731-1.519716 2.079611-2.319567 0.75186-0.799851 1.39174-1.647692 1.919642-2.527528a113.098882 113.098882 0 0 0 1.599701-2.687498c0.527901-0.927827 1.007812-1.871651 1.439731-2.847468l0.959821-2.943451a29.72245 29.72245 0 0 0 1.439731-9.294264 31.082196 31.082196 0 0 0-1.439731-9.278268l-0.959821-2.959447a29.338522 29.338522 0 0 0-1.439731-2.847469 113.098882 113.098882 0 0 0-1.599701-2.687498 16.092995 16.092995 0 0 0-1.919642-2.527528c-0.639881-0.799851-1.327752-1.583704-2.079611-2.319567a55.301674 55.301674 0 0 0-2.239582-2.111606 48.262988 48.262988 0 0 0-2.559522-1.87165 25.595221 25.595221 0 0 0-2.719493-1.599701 40.040524 40.040524 0 0 0-5.758924-2.399552 46.663287 46.663287 0 0 0-3.039433-0.783854 35.577357 35.577357 0 0 0-6.238835-0.607887 33.465751 33.465751 0 0 0-6.238835 0.623884c-1.0718 0.207961-2.079612 0.447916-3.039432 0.767857-1.0718 0.303943-2.079612 0.639881-3.039433 1.055802-0.959821 0.399925-1.919642 0.847842-2.879462 1.34375a41.016341 41.016341 0 0 0-7.518596 5.598954 25.851173 25.851173 0 0 0-3.839284 4.831098c-0.639881 0.879836-1.23177 1.775668-1.759671 2.703495-0.431919 0.91183-0.847842 1.871651-1.279761 2.831472-0.431919 0.959821-0.799851 1.951636-1.119791 2.959447l-0.63988 3.039433a30.410322 30.410322 0 0 0-0.639881 6.238835zM485.559017 136.133781c0-1.839657 0.047991-3.663316 0.159971-5.486975 0-1.839657 0.111979-3.679313 0.31994-5.486976l0.63988-5.454981 0.959821-5.422988 1.279761-5.358999a91.566903 91.566903 0 0 1 3.199403-10.510038l1.919641-5.119044 2.239582-5.039059c0.75186-1.647692 1.55171-3.295385 2.399552-4.911083 0.959821-1.599701 1.871651-3.199403 2.719492-4.783107 0.959821-1.567707 1.967633-3.119418 3.039433-4.639134a50.230621 50.230621 0 0 1 3.199402-4.479163c1.0718-1.487722 2.191591-2.927453 3.359373-4.351188 1.167782-1.407737 2.351561-2.799477 3.519343-4.159223 1.279761-1.359746 2.559522-2.687498 3.839283-3.983256 1.279761-1.279761 2.607513-2.559522 3.999253-3.791292 1.279761-1.23177 2.671501-2.415549 4.159224-3.583331a82.224647 82.224647 0 0 1 4.319193-3.37537c1.487722-1.103794 2.991441-2.159597 4.479164-3.167409 1.487722-1.023809 3.039432-1.999627 4.639134-2.94345 1.599701-0.943824 3.199403-1.839657 4.799104-2.719492 1.599701-0.847842 3.247394-1.679686 4.959074-2.46354 1.599701-0.783854 3.247394-1.519716 4.959074-2.239582 1.71168-0.687872 3.407364-1.343749 5.119044-1.967633 1.71168-0.607886 3.471352-1.183779 5.279014-1.727677a89.423303 89.423303 0 0 1 5.279015-1.455728 116.506246 116.506246 0 0 1 21.595967-3.2154 119.75364 119.75364 0 0 1 11.037939 0 110.827306 110.827306 0 0 1 16.316954 2.015624c1.807662 0.351934 3.631322 0.75186 5.438984 1.199776 1.807662 0.447916 3.567334 0.927827 5.279014 1.455728l5.279015 1.727677c1.71168 0.623884 3.407364 1.279761 5.119044 1.98363 1.71168 0.703869 3.359373 1.439731 4.959074 2.239582 1.71168 0.767857 3.359373 1.599701 4.959074 2.46354 1.599701 0.863839 3.199403 1.759671 4.799104 2.703495l4.639134 2.94345c1.487722 1.007812 2.991441 2.079612 4.479163 3.167409 1.487722 1.087797 2.927453 2.207588 4.319194 3.359373 1.39174 1.183779 2.767483 2.367558 4.159223 3.599328a83.584393 83.584393 0 0 1 7.678566 7.774548 88.015566 88.015566 0 0 1 7.038686 8.494414c1.0718 1.471725 2.127603 2.975444 3.199403 4.49516l2.879462 4.639134c0.959821 1.583704 1.871651 3.167409 2.719492 4.799104l2.559522 4.895086 2.239582 5.023062 1.919642 5.119044a92.702691 92.702691 0 0 1 4.319193 15.885034c0.431919 1.807662 0.75186 3.615325 0.959821 5.422988 0.31994 1.807662 0.527901 3.631322 0.639881 5.438984a95.43818 95.43818 0 0 1 0 21.963899c-0.111979 1.823659-0.31994 3.647319-0.639881 5.454982a47.207186 47.207186 0 0 1-0.959821 5.422987 91.822855 91.822855 0 0 1-4.319193 15.869037l-1.919642 5.119044-2.239582 5.039059-2.559522 4.911083c-0.847842 1.599701-1.759671 3.199403-2.719492 4.783107l-2.879462 4.639134c-1.0718 1.519716-2.127603 3.023435-3.199403 4.479164a85.855969 85.855969 0 0 1-7.038686 8.510411 81.712743 81.712743 0 0 1-7.678566 7.774548c-1.39174 1.23177-2.767483 2.415549-4.159223 3.583331a82.576581 82.576581 0 0 1-4.319194 3.391367c-1.487722 1.087797-2.991441 2.1436-4.479163 3.151411l-4.639134 2.943451c-1.599701 0.943824-3.199403 1.839657-4.799104 2.719492-1.599701 0.847842-3.247394 1.679686-4.959074 2.46354-1.599701 0.783854-3.247394 1.519716-4.959074 2.239582a130.343662 130.343662 0 0 1-5.119044 1.967632 217.239437 217.239437 0 0 1-5.279015 1.727678 118.761825 118.761825 0 0 1-27.034952 4.687125 110.21942 110.21942 0 0 1-21.915908-1.087797 115.130503 115.130503 0 0 1-10.717998-2.1436 89.743243 89.743243 0 0 1-5.279015-1.471725 89.151354 89.151354 0 0 1-5.279014-1.727678 128.775955 128.775955 0 0 1-5.119044-1.967632 82.752549 82.752549 0 0 1-4.959074-2.239582 86.703811 86.703811 0 0 1-4.959074-2.46354c-1.599701-0.863839-3.199403-1.759671-4.799104-2.719492-1.599701-0.943824-3.151412-1.919642-4.639134-2.943451-1.487722-1.007812-2.991441-2.063615-4.479164-3.151411a82.576581 82.576581 0 0 1-4.319193-3.391367 197.819063 197.819063 0 0 1-4.159224-3.583331 82.672563 82.672563 0 0 1-3.999253-3.791292 229.237197 229.237197 0 0 1-3.839283-3.983256 259.151612 259.151612 0 0 1-3.519343-4.159224 86.06393 86.06393 0 0 1-3.359373-4.319193 331.250149 331.250149 0 0 1-3.199402-4.511158 47.463138 47.463138 0 0 1-2.879463-4.639134 88.127545 88.127545 0 0 1-2.719492-4.783107 531.420774 531.420774 0 0 1-2.559522-4.911083 681.792697 681.792697 0 0 1-2.239582-5.023062l-1.919641-5.119044a91.614894 91.614894 0 0 1-3.199403-10.510038l-1.279761-5.374996a93.598523 93.598523 0 0 1-0.799851-5.40699 95.486171 95.486171 0 0 1-0.79985-5.454982l-0.31994-5.486975a95.358195 95.358195 0 0 1-0.159971-5.486976z m55.989546 0c0 1.839657 0.047991 3.663316 0.15997 5.486976 0.207961 1.823659 0.527901 3.631322 0.959821 5.438984 0.31994 1.791665 0.75186 3.567334 1.279761 5.327006 0.527901 1.759671 1.119791 3.471352 1.759672 5.167035 0.75186 1.695683 1.55171 3.359373 2.399551 4.959074 0.847842 1.631695 1.807662 3.199403 2.879463 4.719119 0.959821 1.535713 2.031621 3.007438 3.199402 4.415175 1.167782 1.423734 2.399552 2.78348 3.679313 4.079239 1.279761 1.295758 2.671501 2.527528 4.159224 3.679313 1.39174 1.167782 2.831471 2.255579 4.319193 3.279387 1.599701 1.023809 3.199403 1.967633 4.799104 2.831472 1.599701 0.863839 3.247394 1.647692 4.959074 2.35156 1.71168 0.687872 3.407364 1.311755 5.119045 1.839657a61.204572 61.204572 0 0 0 10.717998 2.1436 59.748844 59.748844 0 0 0 11.037939 0 56.901375 56.901375 0 0 0 20.956087-6.334817c1.599701-0.863839 3.151412-1.807662 4.639134-2.831472 1.599701-1.023809 3.087424-2.111606 4.479164-3.26339a57.957178 57.957178 0 0 0 7.678566-7.774549c1.167782-1.407737 2.287573-2.879462 3.359373-4.415175 0.959821-1.519716 1.871651-3.087424 2.719492-4.703122 0.959821-1.615698 1.759671-3.279388 2.399552-4.959074a45.751457 45.751457 0 0 0 3.199403-10.510038c0.31994-1.807662 0.591889-3.615325 0.79985-5.438984a47.351159 47.351159 0 0 0 0-10.973951 92.910652 92.910652 0 0 0-0.79985-5.438985 45.847439 45.847439 0 0 0-3.199403-10.49404c-0.639881-1.695683-1.439731-3.359373-2.399552-4.959074-0.847842-1.631695-1.759671-3.199403-2.719492-4.719119a68.307246 68.307246 0 0 0-7.038686-8.478417 58.245125 58.245125 0 0 0-3.999253-3.711307 42.232114 42.232114 0 0 0-4.479164-3.263391 52.4862 52.4862 0 0 0-14.877222-7.038685 57.301301 57.301301 0 0 0-21.755938-2.1436 61.844452 61.844452 0 0 0-10.717998 2.1436 62.164393 62.164393 0 0 0-5.119045 1.87165c-1.71168 0.703869-3.359373 1.487722-4.959074 2.351561-1.599701 0.863839-3.199403 1.807662-4.799104 2.831471a54.469829 54.469829 0 0 0-4.319193 3.263391c-1.39174 1.167782-2.767483 2.399552-4.159224 3.679313-1.279761 1.311755-2.511531 2.671501-3.679313 4.079238-1.167782 1.423734-2.239582 2.879462-3.199402 4.415176a44.279732 44.279732 0 0 0-5.119044 9.678193 45.719463 45.719463 0 0 0-3.199403 10.49404 31.594101 31.594101 0 0 0-0.799851 5.438985c-0.207961 1.823659-0.31994 3.647319-0.31994 5.486975z"  /></svg>