<?xml version="1.0" standalone="no"?><!DOCTYPE svg PUBLIC "-//W3C//DTD SVG 1.1//EN" "http://www.w3.org/Graphics/SVG/1.1/DTD/svg11.dtd"><svg class="icon" width="200px" height="200.00px" viewBox="0 0 1024 1024" version="1.1" xmlns="http://www.w3.org/2000/svg"><path fill="#ffffff" d="M2.051999 840.112115c-3.359998-46.111971-0.64-92.607942-1.599999-138.863913 2.239999-37.519977-5.711996-76.511952 6.879995-112.63993 67.391958-127.24792 138.431913-252.799842 207.311871-379.359763 18.095989-41.087974 54.399966-79.51995 104.287935-80.575949h360.383774a119.775925 119.775925 0 0 1 113.13593 48.655969c57.343964 103.039936 113.599929 206.591871 170.591893 309.839807 19.887988 40.255975 48.38397 77.503952 59.423963 121.023924 1.791999 67.615958 0.272 135.391915 0.799999 203.071873a73.343954 73.343954 0 0 1-4.351997 37.007977 74.783953 74.783953 0 0 1-9.007994 16.47999 75.023953 75.023953 0 0 1-12.895992 13.663991 74.271954 74.271954 0 0 1-22.927986 12.751992 75.983953 75.983953 0 0 1-14.655991 3.359998c-1.247999 0.16-2.495998 0.272-3.759997 0.368-240.991849 0.688-482.079699 0.32-723.087548 0.319999H96.67594a107.631933 107.631933 0 0 1-12.575993 0.8c-36.719977 0-74.847953-18.719988-82.047948-55.903965zM296.243815 202.800513a89.583944 89.583944 0 0 0-22.879986 32.15998c-0.752 1.599999-1.599999 3.295998-2.399998 4.895997a26939.407163 26939.407163 0 0 1-78.063952 142.015911c-41.839974 75.743953-85.055947 154.015904-126.191921 231.519856a185.759884 185.759884 0 0 0-2.239998 48.319969c0.384 13.007992 0.8 26.431983 0 40.735975 0.288 17.279989 0.112 34.431978 0 51.039968-0.224 25.727984-0.4 50.111969 0.895999 73.919954a36.447977 36.447977 0 0 0 18.735988 4.607997c1.663999 0 3.327998-0.096 4.975997-0.288a63.039961 63.039961 0 0 1 7.551996-0.464h520.479674c134.127916 0 237.871851-0.112 335.99979-0.399999a7.679995 7.679995 0 0 0 4.607997-3.039998 9.711994 9.711994 0 0 0 2.431999-6.719996 61.983961 61.983961 0 0 1-0.768-9.407994c-0.192-25.999984-0.08-52.255967 0-77.663952 0.16-38.239976 0.32-77.711951-0.559999-116.255927a322.559798 322.559798 0 0 0-29.599982-59.359963c-7.663995-13.215992-15.56799-26.879983-22.863985-41.599974-21.503987-38.975976-43.199973-78.591951-64.25596-116.927927-34.031979-61.983961-69.231957-126.175921-104.255935-189.039882a55.695965 55.695965 0 0 0-44.783972-18.831988c-2.479998 0-4.959997 0.112-7.407996 0.368-2.079999 0.208-4.223997 0.32-6.399996 0.32H319.7638a38.031976 38.031976 0 0 0-23.519985 10.095993z m-104.159935 581.215637a80.27195 80.27195 0 0 1-41.135974-11.375993 81.583949 81.583949 0 0 1-15.439991-12.047992 80.76795 80.76795 0 0 1-13.983991-18.863989 81.071949 81.071949 0 0 1-7.919995-22.095986 80.01595 80.01595 0 0 1-1.535999-15.61599v-63.99996a80.06395 80.06395 0 0 1 49.391969-73.919954 77.503952 77.503952 0 0 1 15.007991-4.543997 79.45595 79.45595 0 0 1 15.59999-1.535999h639.9996a80.27195 80.27195 0 0 1 41.119974 11.391993 79.27995 79.27995 0 0 1 20.735987 17.855989 77.919951 77.919951 0 0 1 8.703995 13.039992 78.079951 78.079951 0 0 1 5.999996 14.49599 80.65595 80.65595 0 0 1 3.439998 23.215986v63.99996a80.31995 80.31995 0 0 1-9.439994 37.711976 80.67195 80.67195 0 0 1-19.807988 24.127985 83.599948 83.599948 0 0 1-9.615994 6.783996 82.479948 82.479948 0 0 1-14.175991 6.703996 79.98395 79.98395 0 0 1-26.959983 4.671997h-639.9996z m-15.99999-143.99991v63.99996a15.98399 15.98399 0 0 0 15.99999 15.99999h639.9996a15.96799 15.96799 0 0 0 15.99999-15.99999v-63.99996a15.96799 15.96799 0 0 0-15.99999-15.99999h-639.9996a15.96799 15.96799 0 0 0-15.99999 15.99999z m575.99964 31.99998a32.03198 32.03198 0 0 1 44.239972-29.567982 31.24798 31.24798 0 0 1 8.047995 4.831997 31.51998 31.51998 0 0 1 7.919995 9.647994 32.14398 32.14398 0 0 1 3.167998 21.327987 32.35198 32.35198 0 0 1-6.655995 14.063991 32.22398 32.22398 0 0 1-15.439991 10.319994 32.23998 32.23998 0 0 1-18.575988 0 32.15998 32.15998 0 0 1-17.311989-12.847992 32.28798 32.28798 0 0 1-5.247997-14.639991 32.07998 32.07998 0 0 1-0.16-3.135998z m-111.99993-155.631903c-26.127984-6.271996-51.519968-14.079991-70.767956-20.159987a26.335984 26.335984 0 0 1-7.039995-3.407998 25.967984 25.967984 0 0 1-8.447995-9.791994 25.839984 25.839984 0 0 1-2.591999-12.671992 25.247984 25.247984 0 0 1 1.599999-7.647995 24.479985 24.479985 0 0 1 5.791997-10.719993 24.799985 24.799985 0 0 1 24.735984-7.167996h0.32l-14.287991-21.151987c-13.423992-19.919988-26.191984-38.847976-39.311975-58.239963-13.919991 12.207992-27.199983 23.807985-40.223975 35.087978l-0.768 0.655999a37.023977 37.023977 0 0 1-23.999985 11.327993 33.439979 33.439979 0 0 1-25.599984-16.623989 20097.443439 20097.443439 0 0 1-87.231945-120.463925 31.007981 31.007981 0 0 1-5.903996-26.047984c0.288-1.279999 0.656-2.543998 1.119999-3.775997A26.015984 26.015984 0 0 1 368.00377 230.016496c1.535999-0.272 3.087998-0.4 4.639997-0.4a29.615981 29.615981 0 0 1 19.679988 8.975995c1.727999 1.759999 3.199998 3.727998 4.431997 5.871996 11.407993 15.88799 23.055986 31.99998 34.319979 47.59997 11.263993 15.59999 22.959986 31.75998 34.367978 47.695971l2.079999 2.799998c0.736 0.991999 1.487999 2.079999 2.319998 3.199998 16.22399-14.079991 29.439982-25.487984 42.159974-36.303977a37.711976 37.711976 0 0 1 23.999985-11.199993 34.143979 34.143979 0 0 1 24.159985 14.73599c0.768 1.151999 1.487999 2.351999 2.111999 3.583998 16.863989 25.023984 33.967979 50.495968 50.511968 75.199953l12.527992 18.655988a27.775983 27.775983 0 0 1 4.639997-11.103993 27.007983 27.007983 0 0 1 8.959995-8.031995 26.847983 26.847983 0 0 1 11.519992-3.423997c0.815999-0.048 1.631999-0.064 2.431999-0.048a25.439984 25.439984 0 0 1 18.671988 7.887995 28.927982 28.927982 0 0 1 7.039996 21.823986c-1.087999 22.975986-2.751998 47.35997-5.119997 74.479953a25.855984 25.855984 0 0 1-1.871999 9.727994 25.551984 25.551984 0 0 1-7.311995 9.919994 25.439984 25.439984 0 0 1-13.615992 5.615997 25.327984 25.327984 0 0 1-2.495998 0.112 34.047979 34.047979 0 0 1-8.095995-1.056v0.032z"  /></svg>