<?xml version="1.0" standalone="no"?><!DOCTYPE svg PUBLIC "-//W3C//DTD SVG 1.1//EN" "http://www.w3.org/Graphics/SVG/1.1/DTD/svg11.dtd"><svg class="icon" width="200px" height="200.00px" viewBox="0 0 1024 1024" version="1.1" xmlns="http://www.w3.org/2000/svg"><path fill="#ffffff" d="M176.000155 1008.000015a61.567942 61.567942 0 0 1-12.479988-1.247999 68.287936 68.287936 0 0 1-11.999989-3.647996 60.191944 60.191944 0 0 1-5.599995-2.687998 51.343952 51.343952 0 0 1-5.439995-3.231997 99.791906 99.791906 0 0 1-5.119995-3.727996c-1.599999-1.343999-3.151997-2.735997-4.639996-4.223996a51.391952 51.391952 0 0 1-4.159996-4.639996 39.247963 39.247963 0 0 1-3.679996-5.055995 91.343914 91.343914 0 0 1-3.359997-5.375995 56.271947 56.271947 0 0 1-2.559998-5.679995 59.151945 59.151945 0 0 1-2.239998-5.919994 114.463893 114.463893 0 0 1-1.439998-6.079995A61.231943 61.231943 0 0 1 112.000215 944.000075V80.000885a61.759942 61.759942 0 0 1 1.279999-12.479988c0.432-2.063998 0.911999-4.095996 1.439998-6.095995a103.839903 103.839903 0 0 1 2.079999-5.919994c0.847999-1.919998 1.759998-3.823996 2.719997-5.679995a55.279948 55.279948 0 0 1 7.039993-10.43199 51.519952 51.519952 0 0 1 4.159996-4.639996c1.487999-1.487999 3.039997-2.879997 4.639996-4.223996 1.599999-1.327999 3.311997-2.575998 5.119995-3.743996 1.711998-1.167999 3.471997-2.239998 5.279995-3.231997 1.919998-0.975999 3.839996-1.871998 5.759995-2.687998a67.871936 67.871936 0 0 1 11.999989-3.647996A61.231943 61.231943 0 0 1 176.000155 16.000945h703.99934a61.871942 61.871942 0 0 1 12.479988 1.231999 67.839936 67.839936 0 0 1 11.999989 3.631996c1.919998 0.799999 3.839996 1.711998 5.759995 2.687998 1.807998 0.991999 3.567997 2.079998 5.279995 3.231997 1.807998 1.167999 3.519997 2.399998 5.119995 3.743996 1.599999 1.327999 3.151997 2.719997 4.639996 4.223996 1.487999 1.471999 2.879997 3.039997 4.159996 4.639996a55.039948 55.039948 0 0 1 7.039993 10.43199c0.959999 1.855998 1.871998 3.743996 2.719998 5.679995 0.751999 1.935998 1.439999 3.903996 2.079998 5.919994 0.528 1.999998 1.007999 4.031996 1.439998 6.079995A60.895943 60.895943 0 0 1 943.999435 80.000885v863.99919a61.791942 61.791942 0 0 1-1.279999 12.479988 114.031893 114.031893 0 0 1-1.439998 6.095995c-0.639999 1.999998-1.327999 3.983996-2.079998 5.919994-0.847999 1.919998-1.759998 3.839996-2.719998 5.679995a55.295948 55.295948 0 0 1-7.039993 10.43199 51.679952 51.679952 0 0 1-4.159996 4.639996c-1.487999 1.487999-3.039997 2.879997-4.639996 4.223996-1.599999 1.327999-3.311997 2.575998-5.119995 3.743996-1.711998 1.167999-3.471997 2.239998-5.279995 3.231997-1.919998 0.975999-3.839996 1.871998-5.759995 2.687998a60.943943 60.943943 0 0 1-11.999989 3.631996A60.863943 60.863943 0 0 1 879.999495 1008.000015H176.000155z m0-95.99991a30.575971 30.575971 0 0 0 1.439999 9.279991 15.135986 15.135986 0 0 0 0.959999 2.959998c0.432 0.959999 0.911999 1.919998 1.439998 2.847997 0.432 0.927999 0.959999 1.823998 1.599999 2.687997 0.528 0.879999 1.119999 1.711998 1.759998 2.527998a74.84793 74.84793 0 0 0 4.479996 4.431996c0.847999 0.671999 1.711998 1.279999 2.559998 1.871998 0.847999 0.575999 1.759998 1.119999 2.719997 1.599999a23.455978 23.455978 0 0 0 5.759995 2.399997c0.959999 0.32 1.967998 0.575999 3.039997 0.784A33.439969 33.439969 0 0 0 208.000125 944.000075h639.9994a33.471969 33.471969 0 0 0 6.239994-0.607999c1.071999-0.208 2.079998-0.48 3.039997-0.768a23.359978 23.359978 0 0 0 5.759995-2.399997c0.959999-0.496 1.871998-1.039999 2.719997-1.615999 0.847999-0.575999 1.711998-1.199999 2.559998-1.871998a56.415947 56.415947 0 0 0 4.479996-4.431996c0.639999-0.799999 1.231999-1.647998 1.759998-2.527998a15.679985 15.679985 0 0 0 1.599999-2.687997c0.528-0.927999 1.007999-1.871998 1.439998-2.847997a15.151986 15.151986 0 0 0 0.959999-2.943998A29.727972 29.727972 0 0 0 879.999495 912.000105V560.000435H176.000155v351.99967z m703.99934-415.99961V112.000855a30.655971 30.655971 0 0 0-1.439999-9.279991 15.151986 15.151986 0 0 0-0.959999-2.959998 29.279973 29.279973 0 0 0-1.439998-2.847997 15.615985 15.615985 0 0 0-1.599999-2.687997 25.647976 25.647976 0 0 0-1.759998-2.527998 72.527932 72.527932 0 0 0-4.479996-4.431996 50.271953 50.271953 0 0 0-2.559998-1.871998 25.567976 25.567976 0 0 0-2.719997-1.599999 23.311978 23.311978 0 0 0-5.759995-2.399997 37.151965 37.151965 0 0 0-6.079994-1.215999 33.359969 33.359969 0 0 0-3.199997-0.176H208.000125a33.343969 33.343969 0 0 0-6.239994 0.607999c-1.071999 0.208-2.079998 0.48-3.039997 0.768a23.423978 23.423978 0 0 0-5.759995 2.399997c-0.959999 0.496-1.871998 1.039999-2.719997 1.615999a50.351953 50.351953 0 0 0-2.559998 1.871998 58.159945 58.159945 0 0 0-4.479996 4.431996 25.919976 25.919976 0 0 0-1.759998 2.527998 15.727985 15.727985 0 0 0-1.599999 2.687997 29.279973 29.279973 0 0 0-1.439998 2.847997 15.151986 15.151986 0 0 0-0.959999 2.943998A29.967972 29.967972 0 0 0 176.000155 112.000855v383.99964h703.99934zM595.519762 821.39219a9.647991 9.647991 0 0 1 0-2.463998c0-0.831999 0.048-1.647998 0.16-2.463997 0-0.815999 0.112-1.631998 0.319999-2.431998l0.64-2.399998c0.208-0.767999 0.48-1.551999 0.799999-2.303998a25.919976 25.919976 0 0 0 1.119999-2.207998c0.432-0.719999 0.847999-1.423999 1.279999-2.079998a64.959939 64.959939 0 0 1 1.599998-1.967998c0.528-0.623999 1.119999-1.215999 1.759999-1.791998a16.095985 16.095985 0 0 1 3.839996-3.039997c0.639999-0.432 1.327999-0.831999 2.079998-1.199999a30.079972 30.079972 0 0 1 2.239998-1.007999c0.847999-0.288 1.647998-0.543999 2.399998-0.752a28.447973 28.447973 0 0 1 4.799995-0.799999l0.32-0.016-20.319981-15.359985c-19.199982-14.399987-37.439965-28.191974-56.159947-42.271961-9.119991 16.079985-18.079983 31.407971-26.559976 46.287957l-0.479999 0.863999c-0.959999 2.063998-2.127998 3.999996-3.519997 5.871995a34.143968 34.143968 0 0 1-9.599991 9.423991c-1.919998 1.247999-3.887996 2.335998-5.919994 3.231997a33.007969 33.007969 0 0 1-15.679986-0.128 36.815965 36.815965 0 0 1-7.519993-2.799998 30.495971 30.495971 0 0 1-6.399994-4.463995c-39.999963-27.935974-81.279924-56.799947-121.759885-85.48792a47.407956 47.407956 0 0 1-3.199997-2.335998 59.199945 59.199945 0 0 1-2.879998-2.719998 33.967968 33.967968 0 0 1-4.479995-6.399994 42.28796 42.28796 0 0 1-1.759999-3.599996 44.015959 44.015959 0 0 1-1.119999-3.759997c-0.32-1.279999-0.528-2.559998-0.639999-3.887996a16.095985 16.095985 0 0 1-0.16-3.935996c0-1.119999 0.16-2.239998 0.48-3.343997 0.208-1.103999 0.48-2.175998 0.799999-3.247997l1.279999-3.103997a30.031972 30.031972 0 0 1 3.839996-5.567995c0.751999-0.847999 1.551999-1.647998 2.399998-2.399998 0.847999-0.719999 1.711998-1.407999 2.559997-2.031998 0.959999-0.639999 1.967998-1.199999 3.039997-1.695998 1.279999-0.751999 2.671997-1.375999 4.159997-1.887998 2.447998-0.671999 4.911995-1.039999 7.359993-1.119999a30.399972 30.399972 0 0 1 14.239986 3.199997c2.127998 1.119999 4.159996 2.479998 6.079995 4.095996 15.999985 11.311989 32.15997 22.767979 47.999955 33.855968 15.839985 11.08799 31.99997 22.543979 47.999955 33.903968l2.879997 1.967998 3.199997 2.239998c10.71999-18.623983 19.519982-33.679968 27.999974-47.999955 0.959999-2.031998 2.079998-3.967996 3.359997-5.791994 1.391999-1.839998 2.879997-3.535997 4.479995-5.119996 1.599999-1.551999 3.359997-2.975997 5.279995-4.223996 1.807998-1.263999 3.791996-2.335998 5.919995-3.247997a35.503967 35.503967 0 0 1 8.319992-0.719999 37.407965 37.407965 0 0 1 8.159992 1.279999 37.391965 37.391965 0 0 1 7.679993 3.231997c1.167999 0.687999 2.287998 1.439999 3.359997 2.287998 1.167999 0.831999 2.239998 1.727998 3.199997 2.687997 24.159977 18.175983 48.639954 36.687966 72.319932 54.607949l17.919983 13.567987-0.319999-2.415997v-2.431998c0-0.799999 0.048-1.615998 0.16-2.415998l0.319999-2.399998 0.64-2.367997c0.208-0.783999 0.48-1.535999 0.799999-2.303998l0.959999-2.207998a108.911898 108.911898 0 0 1 2.559998-4.127996c0.528-0.639999 1.071999-1.279999 1.599998-1.871999a18.559983 18.559983 0 0 1 1.759998-1.727998 16.575984 16.575984 0 0 1 3.839997-2.959997c0.639999-0.448 1.327999-0.847999 2.079998-1.215999a30.143972 30.143972 0 0 1 4.479996-1.855998 24.271977 24.271977 0 0 1 10.23999-1.391999c1.711998 0.112 3.407997 0.4 5.119995 0.863999 1.711998 0.48 3.311997 1.119999 4.799996 1.903998 1.711998 0.975999 3.311997 2.127998 4.799995 3.439997 1.487999 1.295999 2.831997 2.751997 3.999997 4.319996 1.167999 1.583999 2.191998 3.263997 3.039997 5.039995 0.847999 1.791998 1.487999 3.631997 1.919998 5.551995 6.559994 22.095979 12.799988 45.679957 19.519982 72.079933l0.639999 2.399997a19.471982 19.471982 0 0 1 0.639999 4.911996 9.823991 9.823991 0 0 1 0 2.479998c0 0.831999-0.048 1.663998-0.159999 2.479997a520.575512 520.575512 0 0 1-1.279999 4.799996l-0.959999 2.303998a113.199894 113.199894 0 0 1-1.279999 2.175997 18.655983 18.655983 0 0 1-1.439999 2.063999 10.49599 10.49599 0 0 1-1.599998 1.903998c-0.528 0.607999-1.119999 1.183999-1.759999 1.727998-0.639999 0.559999-1.279999 1.071999-1.919998 1.567999-0.639999 0.48-1.327999 0.927999-2.079998 1.343998a32.12797 32.12797 0 0 1-4.479996 2.063998c-2.671997 0.895999-5.391995 1.439999-8.159992 1.679999-26.719975 2.559998-53.27995 3.471997-73.439931 3.951996h-0.799999a25.375976 25.375976 0 0 1-7.519993-1.119999 31.99997 31.99997 0 0 1-2.559998-0.879999 29.951972 29.951972 0 0 1-6.559994-3.999996 17.279984 17.279984 0 0 1-1.759998-1.743999 19.487982 19.487982 0 0 1-3.199997-3.999996 10.70399 10.70399 0 0 1-1.279999-2.239998 20.095981 20.095981 0 0 1-1.919998-4.767995 433.823593 433.823593 0 0 1-0.64-2.511998l-0.319999-2.559997v-2.559998z m-118.399889-463.327566c0-1.679998 0.048-3.359997 0.16-5.023995a79.039926 79.039926 0 0 1 1.919998-9.887991 70.815934 70.815934 0 0 1 3.839996-9.311991c0.751999-1.487999 1.599999-2.927997 2.559998-4.335996 0.959999-1.407999 1.919998-2.751997 2.879997-4.063996a55.519948 55.519948 0 0 1 3.359997-3.759997c1.167999-1.199999 2.447998-2.335998 3.839996-3.407996a49.871953 49.871953 0 0 1 12.799988-7.839993 45.215958 45.215958 0 0 1 9.599991-2.991997 47.375956 47.375956 0 0 1 9.919991-1.055999 53.21595 53.21595 0 0 1 10.079991 1.055999 53.24795 53.24795 0 0 1 18.399982 7.807992 49.599954 49.599954 0 0 1 3.999997 3.039998c1.279999 1.055999 2.559998 2.191998 3.839996 3.391996 1.167999 1.199999 2.287998 2.447998 3.359997 3.759997 0.959999 1.295999 1.919998 2.655998 2.879997 4.063996 0.959999 1.391999 1.807998 2.847997 2.559998 4.319996a65.503939 65.503939 0 0 1 3.839996 9.327991 75.279929 75.279929 0 0 1 1.919998 9.887991 81.087924 81.087924 0 0 1 0 10.063991 80.175925 80.175925 0 0 1-1.919998 9.88799 73.695931 73.695931 0 0 1-3.839996 9.327992c-0.751999 1.487999-1.599999 2.927997-2.559998 4.335996a60.159944 60.159944 0 0 1-6.399994 7.839992 52.527951 52.527951 0 0 1-7.679993 6.431994 47.775955 47.775955 0 0 1-4.319996 2.607998c-1.487999 0.799999-2.991997 1.535999-4.479995 2.191998a59.647944 59.647944 0 0 1-9.599991 2.975997 56.079947 56.079947 0 0 1-10.079991 1.055999 55.551948 55.551948 0 0 1-10.079991-1.055999 53.79195 53.79195 0 0 1-14.079986-5.183995 48.159955 48.159955 0 0 1-8.319993-5.647995 51.775951 51.775951 0 0 1-7.039993-7.167993 60.127944 60.127944 0 0 1-3.039997-4.063996 184.415827 184.415827 0 0 1-2.559998-4.335996 65.887938 65.887938 0 0 1-2.079998-4.575996 38.303964 38.303964 0 0 1-1.599998-4.751996 39.263963 39.263963 0 0 1-1.919998-9.87199 79.871925 79.871925 0 0 1-0.16-5.039996z m183.839827-1.407998a133.967874 133.967874 0 0 0-2.559997-25.887976 130.767877 130.767877 0 0 0-5.279995-18.815982 123.407884 123.407884 0 0 0-2.399998-6.079995c-0.847999-2.015998-1.711998-3.999996-2.559998-5.951994a121.087886 121.087886 0 0 0-3.039997-5.823995 65.983938 65.983938 0 0 0-3.199997-5.663994 116.159891 116.159891 0 0 0-3.359997-5.503995c-1.279999-1.807998-2.559998-3.583997-3.839996-5.327995a114.031893 114.031893 0 0 0-8.319992-10.079991 68.479936 68.479936 0 0 0-4.479996-4.703995 107.1999 107.1999 0 0 0-9.599991-8.751992c-1.711998-1.375999-3.407997-2.719997-5.119995-3.999996a105.583901 105.583901 0 0 0-10.87999-7.247994 104.479902 104.479902 0 0 0-11.519989-6.143994 107.1679 107.1679 0 0 0-5.919995-2.655997 155.087855 155.087855 0 0 0-12.159988-4.399996 149.11986 149.11986 0 0 0-19.039982-4.303996 127.295881 127.295881 0 0 0-26.079976-1.279999 132.335876 132.335876 0 0 0-31.99997 5.599995c-2.031998 0.623999-4.111996 1.311999-6.239994 2.031998a154.047856 154.047856 0 0 0-6.079994 2.351998c-1.919998 0.831999-3.887996 1.711998-5.919995 2.639997a162.847847 162.847847 0 0 0-11.519989 6.159994c-1.807998 1.119999-3.631997 2.271998-5.439995 3.487997a105.615901 105.615901 0 0 0-5.279995 3.743997c-1.807998 1.295999-3.519997 2.639998-5.119995 4.015996-1.711998 1.375999-3.359997 2.799997-4.959996 4.255996-1.599999 1.455999-3.199997 2.959997-4.799995 4.479996-1.487999 1.551999-2.991997 3.119997-4.479996 4.735995-1.487999 1.599999-2.879997 3.247997-4.159996 4.927996-1.391999 1.679998-2.767997 3.391997-4.159996 5.135995a112.959894 112.959894 0 0 0-3.679997 5.327995c-1.167999 1.807998-2.351998 3.631997-3.519996 5.503995a609.119429 609.119429 0 0 0-3.199997 5.663994c-0.959999 1.919998-1.919998 3.839996-2.879998 5.823995-0.959999 1.951998-1.871998 3.935996-2.719997 5.951994l-2.239998 6.079995a128.15988 128.15988 0 0 0-7.679993 38.191964c-0.112 2.175998-0.16 4.335996-0.16 6.511994a30.623971 30.623971 0 0 1-1.439998 9.279991l-0.959999 2.959997c-0.432 0.959999-0.911999 1.919998-1.439999 2.847997a15.567985 15.567985 0 0 1-1.599999 2.687998 16.287985 16.287985 0 0 1-1.919998 2.527998c-0.639999 0.799999-1.327999 1.583999-2.079998 2.319997-0.751999 0.751999-1.487999 1.439999-2.239998 2.111998a50.879952 50.879952 0 0 1-2.559997 1.871999c-0.847999 0.575999-1.759998 1.119999-2.719998 1.599998a40.047962 40.047962 0 0 1-5.759994 2.399998c-1.071999 0.32-2.079998 0.575999-3.039997 0.783999a35.503967 35.503967 0 0 1-6.239995 0.608 33.471969 33.471969 0 0 1-6.239994-0.608 26.751975 26.751975 0 0 1-3.039997-0.767999 27.375974 27.375974 0 0 1-5.759995-2.399998 25.599976 25.599976 0 0 1-2.719997-1.615998 50.879952 50.879952 0 0 1-2.559998-1.871999 26.927975 26.927975 0 0 1-6.239994-6.959993 30.015972 30.015972 0 0 1-1.759998-2.687998 198.383814 198.383814 0 0 1-1.279999-2.847997 30.399972 30.399972 0 0 1-1.119999-2.943997 496.911534 496.911534 0 0 1-0.639999-3.039997 30.943971 30.943971 0 0 1-0.64-6.255994c0-6.447994 0.272-12.879988 0.8-19.295982 0.639999-6.431994 1.599999-12.799988 2.879997-19.119982 1.279999-6.335994 2.831997-12.575988 4.639996-18.751983 1.919998-6.175994 4.111996-12.239989 6.559993-18.191983 2.447998-5.967994 5.167995-11.791989 8.159993-17.471983 3.087997-5.695995 6.399994-11.19999 9.91999-16.575985a191.99982 191.99982 0 0 1 11.67999-15.503985c4.047996-4.959995 8.367992-9.743991 12.959987-14.287987 4.479996-4.575996 9.231991-8.911992 14.239987-13.007988 5.007995-4.095996 10.19199-7.935993 15.519985-11.519989 5.327995-3.599997 10.87999-6.911994 16.639985-9.951991 5.647995-3.039997 11.471989-5.791995 17.439984-8.255992 5.967994-2.463998 11.999989-4.639996 18.079983-6.495994 6.191994-1.871998 12.479988-3.423997 18.879982-4.671995a193.215819 193.215819 0 0 1 38.399964-3.695997 193.791818 193.791818 0 0 1 38.399964 3.679997 198.335814 198.335814 0 0 1 36.959965 11.183989c5.967994 2.463998 11.791989 5.215995 17.439984 8.255992a185.311826 185.311826 0 0 1 31.99997 21.47198 197.887814 197.887814 0 0 1 27.359974 27.295975c4.159996 4.975995 7.999993 10.14399 11.519989 15.519985 3.631997 5.343995 6.927994 10.87999 9.919991 16.559985 3.087997 5.679995 5.871994 11.503989 8.319992 17.455983 2.447998 5.967994 4.639996 12.031989 6.559994 18.207983 1.807998 6.175994 3.359997 12.415988 4.639996 18.751983 1.167999 6.319994 2.079998 12.687988 2.719997 19.119982 0.639999 6.399994 0.959999 12.847988 0.959999 19.295982a31.087971 31.087971 0 0 1-1.439998 9.279991l-0.959999 2.959997c-0.432 0.959999-0.911999 1.919998-1.439999 2.847997a15.567985 15.567985 0 0 1-1.599999 2.687998 16.383985 16.383985 0 0 1-1.919998 2.527998 25.599976 25.599976 0 0 1-2.079998 2.319997c-0.751999 0.751999-1.487999 1.439999-2.239998 2.111998-0.847999 0.655999-1.711998 1.279999-2.559997 1.871999a25.439976 25.439976 0 0 1-2.719998 1.599998 40.079962 40.079962 0 0 1-5.759994 2.399998c-1.071999 0.32-2.079998 0.575999-3.039997 0.783999a35.503967 35.503967 0 0 1-6.239995 0.608 32.927969 32.927969 0 0 1-6.239994-0.592 26.543975 26.543975 0 0 1-3.039997-0.751999 27.439974 27.439974 0 0 1-3.039997-1.055999 39.967963 39.967963 0 0 1-2.879997-1.343999 25.503976 25.503976 0 0 1-2.719998-1.599998 50.303953 50.303953 0 0 1-2.559997-1.871999 56.543947 56.543947 0 0 1-2.239998-2.111998 26.111976 26.111976 0 0 1-2.079998-2.335997 16.239985 16.239985 0 0 1-1.919999-2.527998 15.599985 15.599985 0 0 1-1.599998-2.703998 29.631972 29.631972 0 0 1-1.439999-2.831997l-0.959999-2.975997a30.719971 30.719971 0 0 1-1.439998-9.311991l0.159999 0.016z"  /></svg>