<?xml version="1.0" standalone="no"?><!DOCTYPE svg PUBLIC "-//W3C//DTD SVG 1.1//EN" "http://www.w3.org/Graphics/SVG/1.1/DTD/svg11.dtd"><svg class="icon" width="200px" height="200.00px" viewBox="0 0 1024 1024" version="1.1" xmlns="http://www.w3.org/2000/svg"><path fill="#ffffff" d="M292.192 957.136a210.88 210.88 0 0 1-50.784-6.368 210.64 210.64 0 0 1-47.664-18.464 210.88 210.88 0 0 1-41.76-29.456 208.96 208.96 0 0 1-48.56-65.408 208.848 208.848 0 0 1-19.168-68.752A209.488 209.488 0 0 1 83.2 748.224V437.008A209.84 209.84 0 0 1 144.432 289.28L305.6 128.096A209.936 209.936 0 0 1 453.184 66.88h140.896a209.44 209.44 0 0 1 207.84 188.432 211.872 211.872 0 0 1 1.056 20.464v66.976a32.048 32.048 0 0 1-22.72 30.624 32.24 32.24 0 0 1-18.56 0 31.696 31.696 0 0 1-13.344-8 31.888 31.888 0 0 1-9.376-22.624v-66.848a146.304 146.304 0 0 0-8.592-48.8 146.496 146.496 0 0 0-20.08-37.472 144.032 144.032 0 0 0-24.48-25.68 146.32 146.32 0 0 0-36.432-21.92A145.616 145.616 0 0 0 593.968 130.88h-140.672a144.64 144.64 0 0 0-88.784 30.4v164.032a28.112 28.112 0 0 1-6.624 17.872 28 28 0 0 1-11.136 8.064 28.24 28.24 0 0 1-10.848 2.032H173.888A144.768 144.768 0 0 0 147.2 437.088v311.008a145.424 145.424 0 0 0 89.648 133.872 144.752 144.752 0 0 0 41.232 10.416 146.08 146.08 0 0 0 14.208 0.736h192.656a32.048 32.048 0 0 1 30.624 22.72 32.24 32.24 0 0 1 0 18.56 31.696 31.696 0 0 1-8 13.344 31.888 31.888 0 0 1-22.624 9.376l-192.752 0.016z m337.072-76.8l-7.312-8.736-0.192-0.224-3.936-4.8c-46.48-56.944-71.904-101.12-79.136-137.888l-3.088-3.2-0.128-0.112A333.152 333.152 0 0 1 483.2 655.12a254.48 254.48 0 0 1-19.952-45.504 248.8 248.8 0 0 1-10.576-48.4 220.688 220.688 0 0 1 11.056-95.296 72.256 72.256 0 0 1 36.848-41.552c2.432-1.184 4.944-2.24 7.504-3.136l0.352-0.112 4.64-1.6 1.04-0.336 4.8-1.424h0.176a215.216 215.216 0 0 1 60.8-8.864 231.632 231.632 0 0 1 115.2 32.208l0.272 0.16 5.504 3.2 0.768 0.464 5.968 3.68 0.432 0.272a335.968 335.968 0 0 1 49.856 39.072c42.592 2.096 94.24 31.472 166.4 94.4l0.8 0.72 1.072 0.992c0.784 0.736 1.6 1.504 2.24 2.32l0.976 1.12a49.36 49.36 0 0 1 7.616 51.488 49.424 49.424 0 0 1-24.272 25.008 49.968 49.968 0 0 1-5.52 2.192l-0.304 0.096-72.24 23.36c-14.4 20.8-3.088 68.272-99.2 102.64l-22.208 70.928c-0.16 0.48-0.304 0.928-0.48 1.376l-0.56 1.6-0.448 1.12a49.2 49.2 0 0 1-20.032 23.36 49.328 49.328 0 0 1-17.536 6.416 49.552 49.552 0 0 1-18.128-0.56 48.48 48.48 0 0 1-26.8-16.24v0.048z m-92.192-401.12l-4.144 1.232-3.888 1.312a7.76 7.76 0 0 0-4.8 4.8 156.8 156.8 0 0 0-8 67.904 185.312 185.312 0 0 0 22.96 69.632 269.264 269.264 0 0 0 42.064 56.672l5.008 5.104 4.8 4.688a31.936 31.936 0 0 1 9.472 19.904l0.128 1.264c2.656 23.712 22.736 59.2 59.76 105.744l17.12-54.592a31.904 31.904 0 0 1 12.608-16.928l1.984-1.344c89.152-39.232 80.72-77.456 93.904-97.344l1.312-2.032a31.744 31.744 0 0 1 17.056-13.104l57.6-18.592c-61.264-50.544-92.992-61.76-109.088-61.76h-1.92l-1.792 0.16a31.84 31.84 0 0 1-21.296-4.704 31.792 31.792 0 0 1-5.76-4.656l-2.896-2.96a271.792 271.792 0 0 0-45.632-36.8l-5.344-3.312-4.976-2.88a168.32 168.32 0 0 0-61.584-21.984 168.672 168.672 0 0 0-21.84-1.824 151.76 151.76 0 0 0-42.816 6.352v0.048z m282.8 412.096c-14.4-14.032-28.928-27.888-43.344-41.968a15.04 15.04 0 0 1-5.552-15.2 15.04 15.04 0 0 1 11.376-11.52 131.792 131.792 0 0 0 68.512-56.272 131.68 131.68 0 0 0 12.4-27.392 15.072 15.072 0 0 1 9.984-11.376 15.04 15.04 0 0 1 5.2-0.768 13.136 13.136 0 0 1 10.368 4.128 28622.176 28622.176 0 0 1 46.768 45.232 14.048 14.048 0 0 1 2.352 14.448 14.704 14.704 0 0 1-13.776 10.16c-4.592 0.288-9.2 0.32-13.808 0.448-7.616 0.288-7.76 0.448-5.28 7.456 5.648 16.208 11.504 32.384 17.072 48.608a14.896 14.896 0 0 1-0.576 13.328 14.768 14.768 0 0 1-5.824 5.76 13.504 13.504 0 0 1-6.72 1.856 22.528 22.528 0 0 1-7.232-1.248c-16-4.976-32-9.984-48-15.024a22.128 22.128 0 0 0-5.456-1.344c-2.048 0-2.064 1.936-2.112 7.152 0 4.384 0.144 8.784 0 13.184a15.84 15.84 0 0 1-15.168 15.664h-0.224a15.76 15.76 0 0 1-10.96-5.312z m-215.52-266.256a44 44 0 0 1-7.52-10.544 44.48 44.48 0 0 1-3.984-29.44 45.056 45.056 0 0 1 9.248-19.328 44.432 44.432 0 0 1 17.184-12.8 44.032 44.032 0 0 1 12.528-3.248 44.768 44.768 0 0 1 35.712 12.16 44.96 44.96 0 0 1 12.224 22.88 44.08 44.08 0 0 1 0 17.44 45.168 45.168 0 0 1-6.672 16.112 44.544 44.544 0 0 1-32.768 19.648 44.512 44.512 0 0 1-32.736-9.92 44.96 44.96 0 0 1-3.248-2.96h0.032z"  /></svg>