<?xml version="1.0" standalone="no"?><!DOCTYPE svg PUBLIC "-//W3C//DTD SVG 1.1//EN" "http://www.w3.org/Graphics/SVG/1.1/DTD/svg11.dtd"><svg class="icon" width="200px" height="200.00px" viewBox="0 0 1024 1024" version="1.1" xmlns="http://www.w3.org/2000/svg"><path fill="#ffffff" d="M277.792 957.136a210.88 210.88 0 0 1-50.784-6.368 210.64 210.64 0 0 1-47.664-18.464 210.88 210.88 0 0 1-41.76-29.456 208.96 208.96 0 0 1-48.56-65.408 208.848 208.848 0 0 1-19.168-68.752A209.488 209.488 0 0 1 68.8 748.224V437.008A209.84 209.84 0 0 1 130.032 289.28L291.2 128.096A209.936 209.936 0 0 1 438.784 66.88h140.896a209.44 209.44 0 0 1 207.84 188.432 211.872 211.872 0 0 1 1.056 20.464v50.976a32.048 32.048 0 0 1-22.72 30.624 32.24 32.24 0 0 1-18.56 0 31.696 31.696 0 0 1-13.344-8 31.888 31.888 0 0 1-9.376-22.624v-50.848a146.304 146.304 0 0 0-8.592-48.8 146.496 146.496 0 0 0-20.08-37.472 144.032 144.032 0 0 0-24.48-25.68 146.32 146.32 0 0 0-36.432-21.92A145.616 145.616 0 0 0 579.568 130.88h-140.672a145.072 145.072 0 0 0-70.768 18.48c0.496 2.208 0.752 4.432 0.752 6.688v190.048a31.248 31.248 0 0 1-3.632 14.544 30.832 30.832 0 0 1-27.2 16.288H145.856A145.152 145.152 0 0 0 132.8 437.088v311.008a145.424 145.424 0 0 0 89.648 133.872 144.8 144.8 0 0 0 41.232 10.416 146.08 146.08 0 0 0 14.208 0.736h128.672a32.048 32.048 0 0 1 30.624 22.72 32.24 32.24 0 0 1 0 18.56 31.696 31.696 0 0 1-8 13.344 31.888 31.888 0 0 1-22.624 9.376l-128.768 0.016z m391.6-41.824a177.76 177.76 0 0 1-70-30.4 38.688 38.688 0 0 1-12.24-8.32 55.04 55.04 0 0 1-15.168-24.72 25.36 25.36 0 0 1 6.24-22.768c0.8-0.864 1.664-1.664 2.576-2.4a29.232 29.232 0 0 1 22.992-9.776 52.544 52.544 0 0 1 25.008 7.328c6.08 5.392 12.784 9.872 20.08 13.456 9.28 4.704 18.976 8.208 29.12 10.528 11.84 2.72 23.84 4.192 35.984 4.4 13.92 0.208 27.6-1.44 41.056-4.96 15.392-3.984 30.08-9.76 44.048-17.376a221.6 221.6 0 0 0 45.04-32.544 140.896 140.896 0 0 0 36.944-57.024 182.24 182.24 0 0 0 10.032-68.288 196.88 196.88 0 0 0-15.424-68.528A179.424 179.424 0 0 0 836.8 545.744a166.8 166.8 0 0 0-57.024-37.696 184.176 184.176 0 0 0-65.84-13.216 180.528 180.528 0 0 0-66.08 11.504 157.472 157.472 0 0 0-57.28 36.96 187.92 187.92 0 0 0-41.36 61.92 183.68 183.68 0 0 0-14.4 70.736h49.92a10.576 10.576 0 0 1 6.608 2.448 15.04 15.04 0 0 1 4.896 6.848c1.216 3.504 1.536 7.088 0.976 10.752-0.784 5.024-2.656 9.6-5.632 13.712a543.568 543.568 0 0 1-22.016 34.096c-5.536 8-11.664 16.32-18.352 24.96a248.496 248.496 0 0 1-20.8 23.744 127.312 127.312 0 0 0-11.744 13.216 17.232 17.232 0 0 1-12.224 6.848 22.304 22.304 0 0 1-13.216-1.952 39.376 39.376 0 0 1-12.24-10.768 538.048 538.048 0 0 1-36.464-49.44c-9.6-15.024-17.68-27.424-24.24-37.216a31.36 31.36 0 0 1-5.632-13.952c-0.56-4-0.16-7.92 1.216-11.744 1.168-3.248 3.04-6.032 5.632-8.32a11.92 11.92 0 0 1 8-3.2h44.576c0.08-14.048 1.216-28 3.424-41.856 2.416-15.36 6.24-30.384 11.504-45.024 5.6-15.68 12.8-30.624 21.536-44.8a223.824 223.824 0 0 1 33.04-41.6 236.208 236.208 0 0 1 79.792-53.104 238.976 238.976 0 0 1 223.808 22.64 243.68 243.68 0 0 1 67.632 67.776 244.032 244.032 0 0 1 22.576 42.48 239.92 239.92 0 0 1 17.84 90.624 240.048 240.048 0 0 1-17.632 90.672 233.44 233.44 0 0 1-52.8 79.552 263.04 263.04 0 0 1-65.104 47.728 248.416 248.416 0 0 1-74.4 25.216 211.008 211.008 0 0 1-75.92-0.992l0.016 0.016z m17.6-126.784a29.216 29.216 0 0 1-8.816-21.536 29.952 29.952 0 0 1 8.816-21.776 28.688 28.688 0 0 1 21.536-9.056 31.168 31.168 0 0 1 17.12 5.232 31.024 31.024 0 0 1 13.552 22.576c0.112 1.008 0.16 2.016 0.16 3.024a28.64 28.64 0 0 1-9.056 21.536 30.032 30.032 0 0 1-21.776 8.816 29.12 29.12 0 0 1-21.52-8.864l-0.016 0.048z m0-91.792a30.032 30.032 0 0 1-8.816-21.776v-92.032a30.096 30.096 0 0 1 30.4-30.4 29.92 29.92 0 0 1 17.12 4.992c1.68 1.12 3.232 2.384 4.656 3.808a28.688 28.688 0 0 1 9.056 21.536v92.032a31.168 31.168 0 0 1-5.232 17.12 31.024 31.024 0 0 1-22.576 13.552c-1.008 0.112-2.016 0.16-3.024 0.16a28.64 28.64 0 0 1-21.568-8.992h-0.016z"  /></svg>