<?xml version="1.0" standalone="no"?><!DOCTYPE svg PUBLIC "-//W3C//DTD SVG 1.1//EN" "http://www.w3.org/Graphics/SVG/1.1/DTD/svg11.dtd"><svg class="icon" width="200px" height="200.00px" viewBox="0 0 1024 1024" version="1.1" xmlns="http://www.w3.org/2000/svg"><path fill="#ffffff" d="M192 1009.472a33.44 33.44 0 0 1-6.24-0.608 26.768 26.768 0 0 1-3.04-0.768 27.264 27.264 0 0 1-5.76-2.4 25.568 25.568 0 0 1-2.72-1.616 48.96 48.96 0 0 1-2.56-1.872 26.464 26.464 0 0 1-2.4-2.112 99.072 99.072 0 0 0-2.08-2.32 25.68 25.68 0 0 1-1.76-2.528 15.68 15.68 0 0 1-1.6-2.688 29.312 29.312 0 0 1-1.44-2.848 15.12 15.12 0 0 1-0.96-2.944 30.112 30.112 0 0 1-1.28-12.432c0.096-1.04 0.256-2.08 0.48-3.104l0.64-3.04c0.32-1.008 0.688-2 1.12-2.96l1.28-2.848c0.528-0.928 1.12-1.824 1.76-2.688 0.528-0.88 1.12-1.712 1.76-2.528l2.08-2.32c0.736-0.752 1.536-1.44 2.4-2.112a48.96 48.96 0 0 1 2.56-1.872c0.848-0.576 1.76-1.12 2.72-1.6a23.6 23.6 0 0 1 5.76-2.4c0.96-0.32 1.968-0.576 3.04-0.784a33.44 33.44 0 0 1 6.24-0.608h256v-60.8H236.32a61.888 61.888 0 0 1-9.92-0.832 58.16 58.16 0 0 1-4.96-1.008 59.328 59.328 0 0 1-9.6-3.104 57.408 57.408 0 0 1-8.96-4.544 40.048 40.048 0 0 1-4.16-2.768 58.112 58.112 0 0 1-4-3.104 123.632 123.632 0 0 1-3.84-3.376 60.128 60.128 0 0 1-3.36-3.68c-1.184-1.248-2.24-2.56-3.2-3.904-0.96-1.344-1.92-2.72-2.88-4.16a262.72 262.72 0 0 1-2.56-4.352 69.76 69.76 0 0 1-2.08-4.544l-1.92-4.688-0.64-2.048-49.76-262.4v-7.44c0-2.048 0.048-4.08 0.16-6.112 0.208-2.048 0.528-4.064 0.96-6.08 0.32-2 0.8-3.984 1.44-5.952a55.328 55.328 0 0 1 4.48-11.344c0.96-1.808 1.968-3.568 3.04-5.28a82.32 82.32 0 0 1 7.68-9.536c1.488-1.456 2.976-2.848 4.48-4.16a83.808 83.808 0 0 1 10.08-6.896 70.928 70.928 0 0 1 11.36-4.8 64.592 64.592 0 0 1 18.08-2.88h41.44c5.648-10.144 11.936-19.888 18.88-29.248 6.928-9.344 14.4-18.24 22.4-26.656a270.4 270.4 0 0 1 25.6-23.68c8.96-7.376 18.336-14.16 28.16-20.352 12.048-7.68 24.64-14.4 37.76-20.176 13.12-5.792 26.56-10.56 40.32-14.32a199.36 199.36 0 0 1-19.68-17.344 182.512 182.512 0 0 1-11.52-12.56c-3.744-4.352-7.2-8.848-10.4-13.488a194.64 194.64 0 0 1-17.28-29.328 206.56 206.56 0 0 1-16.16-48.32 222.72 222.72 0 0 1-2.56-16.832 179.088 179.088 0 0 1 0.96-55.36c1.056-6.08 2.4-12.096 4-18.048 1.696-5.952 3.68-11.808 5.92-17.552 2.24-5.76 4.8-11.376 7.68-16.88 2.88-5.488 5.968-10.816 9.28-16 3.408-5.168 7.04-10.176 10.88-14.976a206.96 206.96 0 0 1 28.32-29.696 213.6 213.6 0 0 1 33.28-23.76 200.32 200.32 0 0 1 38.08-16.992c13.328-4.32 26.976-7.2 40.96-8.608a195.728 195.728 0 0 1 55.52 2.624c6.08 1.152 12.048 2.592 17.92 4.304 5.856 1.712 11.68 3.696 17.44 5.952 5.76 2.256 11.36 4.784 16.8 7.568 5.536 2.768 10.88 5.808 16 9.088 5.216 3.28 10.288 6.8 15.2 10.56 4.8 3.744 9.488 7.712 14.08 11.904 4.48 4.112 8.736 8.416 12.8 12.912 4.048 4.512 7.936 9.184 11.68 14.032a219.52 219.52 0 0 1 19.2 30.928c2.656 5.44 5.12 10.992 7.36 16.64a197.392 197.392 0 0 1 10.24 34.96c1.168 5.968 2.08 11.984 2.72 18.032a204.704 204.704 0 0 1 0 39.28c-0.64 6.496-1.6 12.96-2.88 19.36-1.28 6.416-2.832 12.752-4.64 18.992-1.92 6.256-4.16 12.4-6.72 18.432a182.608 182.608 0 0 1-18.56 34.448 196.848 196.848 0 0 1-44 46.704 279.84 279.84 0 0 1 72.32 31.68c10.016 6.192 19.568 13.024 28.64 20.48a268.16 268.16 0 0 1 25.92 24.08c8.096 8.592 15.568 17.68 22.4 27.248 6.928 9.584 13.168 19.568 18.72 29.968H848l3.84 0.96c3.936 0.864 7.776 2.096 11.52 3.712 3.616 1.6 7.088 3.536 10.4 5.824 3.296 2.272 6.4 4.864 9.28 7.728 2.768 2.88 5.28 6 7.52 9.36 2.128 3.456 3.888 7.088 5.28 10.88 1.376 3.808 2.336 7.728 2.88 11.728 0.64 4 0.848 8.032 0.64 12.08a64.64 64.64 0 0 1-1.76 11.968L848.48 838.56l-0.64 2.048c-0.544 1.6-1.12 3.152-1.76 4.688l-2.24 4.544c-0.752 1.488-1.6 2.944-2.56 4.352a39.296 39.296 0 0 1-2.88 4.16c-0.96 1.344-1.984 2.656-3.04 3.92a144 144 0 0 1-3.52 3.664 58.288 58.288 0 0 1-7.68 6.48 94.448 94.448 0 0 1-4.16 2.768 87.648 87.648 0 0 1-8.96 4.544 76.656 76.656 0 0 1-9.6 3.12 72 72 0 0 1-9.92 1.6 68.368 68.368 0 0 1-5.12 0.224H576v60.8h256a33.472 33.472 0 0 1 6.24 0.608 26.88 26.88 0 0 1 5.92 1.824c1.056 0.4 2.016 0.848 2.88 1.344 0.96 0.496 1.856 1.04 2.72 1.616 0.848 0.576 1.696 1.2 2.56 1.872a56.416 56.416 0 0 1 4.48 4.432c0.64 0.8 1.216 1.648 1.76 2.528 0.64 0.864 1.168 1.76 1.6 2.688 0.528 0.928 1.008 1.872 1.44 2.848l0.96 2.944a31.024 31.024 0 0 1 1.28 12.432 30.48 30.48 0 0 1-1.28 6.16l-0.96 2.944c-0.432 0.96-0.912 1.92-1.44 2.848a15.568 15.568 0 0 1-1.6 2.688c-0.544 0.88-1.12 1.712-1.76 2.528a72.848 72.848 0 0 1-4.48 4.432c-0.864 0.672-1.712 1.28-2.56 1.872a25.76 25.76 0 0 1-2.72 1.6 23.504 23.504 0 0 1-5.76 2.4 26.88 26.88 0 0 1-3.04 0.784 33.472 33.472 0 0 1-6.24 0.608H192z m0-420.88l41.44 218.784a22.24 22.24 0 0 0 1.92 5.12c0.528 0.8 1.056 1.552 1.6 2.256 0.64 0.704 1.328 1.344 2.08 1.936 0.64 0.592 1.376 1.12 2.24 1.568a13.44 13.44 0 0 0 5.12 1.872c0.848 0.16 1.76 0.256 2.72 0.256h524.48c0.96 0 1.856-0.096 2.72-0.256a15.04 15.04 0 0 0 2.72-0.72c0.848-0.32 1.696-0.688 2.56-1.152a23.36 23.36 0 0 0 2.24-1.568c0.64-0.592 1.28-1.232 1.92-1.936a11.248 11.248 0 0 0 1.6-2.24 19.744 19.744 0 0 0 1.92-5.136l41.44-218.784 0.32-1.744v-1.76a9.76 9.76 0 0 0-0.16-1.744l-0.32-1.728a10.56 10.56 0 0 1-0.48-1.664 10.16 10.16 0 0 0-0.8-1.6 9.072 9.072 0 0 0-1.92-2.944 18.08 18.08 0 0 1-1.12-1.28 10.864 10.864 0 0 0-1.44-1.152 9.872 9.872 0 0 0-1.44-0.992 9.2 9.2 0 0 0-1.44-0.832 12.528 12.528 0 0 0-1.76-0.656 15.552 15.552 0 0 0-3.36-0.768 14.832 14.832 0 0 0-1.76-0.096H207.84a14.496 14.496 0 0 0-3.52 0.384c-0.544 0.128-1.12 0.288-1.76 0.48a18.72 18.72 0 0 0-1.6 0.656 9.12 9.12 0 0 0-1.44 0.832 9.76 9.76 0 0 0-1.44 1.008 10.704 10.704 0 0 0-2.56 2.432 10.16 10.16 0 0 0-1.92 2.928 10.08 10.08 0 0 0-1.28 3.28l-0.32 1.712a9.76 9.76 0 0 0-0.16 1.76v1.76c0 0.576 0.048 1.152 0.16 1.728z m542.4-82.976a144.64 144.64 0 0 0-7.84-9.312c-2.784-3.04-5.6-5.984-8.48-8.848-2.88-2.88-5.872-5.648-8.96-8.352a146.56 146.56 0 0 0-9.44-7.84c-3.2-2.512-6.464-4.928-9.76-7.264a178.56 178.56 0 0 0-10.24-6.72 176.176 176.176 0 0 0-10.56-6.112 266.048 266.048 0 0 0-10.88-5.504c-3.744-1.744-7.52-3.36-11.36-4.88a202.592 202.592 0 0 0-35.04-10.704 202.848 202.848 0 0 0-24.16-3.76 215.36 215.36 0 0 0-24.32-0.976h-88.8a222.272 222.272 0 0 0-47.36 5.504c-7.792 1.76-15.472 3.936-23.04 6.512-7.584 2.576-14.944 5.552-22.08 8.928-7.264 3.36-14.304 7.12-21.12 11.248-6.832 4.112-13.44 8.592-19.84 13.44-6.304 4.816-12.32 9.968-18.08 15.456-5.872 5.472-11.36 11.248-16.48 17.312l225.12 1.84 202.72 0.032zM508.8 79.152a142.8 142.8 0 0 0-27.68 6.176c-4.592 1.488-9.024 3.2-13.28 5.12-4.384 1.92-8.592 4.048-12.64 6.4-4.16 2.336-8.16 4.88-12 7.616-3.952 2.736-7.68 5.664-11.2 8.768-3.632 3.104-7.04 6.4-10.24 9.84-3.312 3.44-6.4 7.04-9.28 10.8-2.56 3.12-4.96 6.368-7.2 9.744-2.24 3.36-4.272 6.848-6.08 10.416-1.92 3.584-3.632 7.248-5.12 10.992a141.776 141.776 0 0 0-4 11.456 145.84 145.84 0 0 0-2.72 11.792 149.92 149.92 0 0 0-1.44 12.016 114.88 114.88 0 0 0 0.64 24.176l0.16 1.216 0.64 5.76c0.32 1.92 0.688 3.808 1.12 5.712a104.48 104.48 0 0 0 4.32 16.848c0.528 1.84 1.168 3.664 1.92 5.472a102.528 102.528 0 0 0 4.48 10.688c0.848 1.744 1.696 3.472 2.56 5.184l2.88 5.072c0.96 1.68 1.968 3.328 3.04 4.96 1.056 1.632 2.128 3.232 3.2 4.816a96.992 96.992 0 0 0 7.04 9.216c1.28 1.488 2.56 2.944 3.84 4.384 1.28 1.44 2.608 2.832 4 4.208 1.376 1.376 2.768 2.72 4.16 4.048 1.376 1.312 2.816 2.592 4.32 3.856 1.488 1.264 2.976 2.48 4.48 3.68 1.488 1.184 3.04 2.352 4.64 3.488 1.6 1.12 3.2 2.224 4.8 3.28 1.6 1.056 3.248 2.08 4.96 3.088 1.6 0.992 3.248 1.952 4.96 2.88 1.696 0.912 3.408 1.792 5.12 2.64 1.808 0.864 3.568 1.664 5.28 2.448a165.152 165.152 0 0 0 16.32 5.952c1.92 0.56 3.776 1.056 5.6 1.536a148.72 148.72 0 0 0 17.12 3.136h27.68a132.64 132.64 0 0 0 12.96-1.856 117.856 117.856 0 0 0 12.96-3.152c2.016-0.64 4.096-1.312 6.24-2.048a153.488 153.488 0 0 0 12.16-5.008c2.016-0.928 4-1.92 5.92-2.944s3.84-2.112 5.76-3.232 3.776-2.304 5.6-3.52c1.808-1.216 3.616-2.48 5.44-3.792a209.76 209.76 0 0 0 10.24-8.352c1.6-1.472 3.2-2.992 4.8-4.544 1.488-1.552 2.976-3.152 4.48-4.768a114.528 114.528 0 0 0 8.32-10.208c1.376-1.76 2.656-3.568 3.84-5.392 1.28-1.824 2.448-3.68 3.52-5.584a124.48 124.48 0 0 0 3.36-5.744l2.88-5.904c0.96-1.984 1.856-4 2.72-6.032 0.848-2.032 1.6-4.096 2.24-6.16a131.36 131.36 0 0 0 7.2-32.16 135.152 135.152 0 0 0 0.48-19.776 68.64 68.64 0 0 0-0.64-6.576l-0.64-6.176a119.36 119.36 0 0 0-1.12-6.128l-1.28-6.064a120.832 120.832 0 0 0-1.76-6 115.136 115.136 0 0 0-1.76-5.92 1118.24 1118.24 0 0 0-2.24-5.84 113.856 113.856 0 0 0-5.12-11.36 61.312 61.312 0 0 0-2.88-5.472 62.496 62.496 0 0 0-3.2-5.36 108.128 108.128 0 0 0-7.04-10.24 63.088 63.088 0 0 0-3.84-4.864 105.056 105.056 0 0 0-8.32-9.184 261.2 261.2 0 0 0-4.48-4.304 245.104 245.104 0 0 0-9.6-7.952 70.976 70.976 0 0 0-5.12-3.648 68.464 68.464 0 0 0-5.12-3.424 102.336 102.336 0 0 0-10.88-6.096 105.712 105.712 0 0 0-5.6-2.688 152.448 152.448 0 0 0-11.52-4.576 109.136 109.136 0 0 0-5.92-1.888 149.984 149.984 0 0 0-18.24-4.016 134.912 134.912 0 0 0-18.56-1.52c-4.16 0-8.48 0.192-12.64 0.592zM487.36 768a22.496 22.496 0 0 1-6.88-1.04 27.744 27.744 0 0 1-4.48-1.792 31.456 31.456 0 0 1-5.6-4.192 52.384 52.384 0 0 1-1.6-1.76 33.04 33.04 0 0 0-1.44-1.888 15.68 15.68 0 0 1-1.12-2.016 8.848 8.848 0 0 1-0.96-2.128 16.928 16.928 0 0 1-0.8-2.224 515.808 515.808 0 0 1-0.64-2.272 1298.656 1298.656 0 0 0-0.32-2.336 17.568 17.568 0 0 1-0.16-2.352v-96c0-0.8 0.048-1.568 0.16-2.352l0.32-2.336 0.64-2.272c0.208-0.752 0.48-1.504 0.8-2.224a8.848 8.848 0 0 1 0.96-2.128 15.68 15.68 0 0 1 1.12-2.016c0.528-0.656 1.008-1.28 1.44-1.904 0.528-0.608 1.056-1.184 1.6-1.744a16.16 16.16 0 0 1 1.76-1.584 38.144 38.144 0 0 1 3.84-2.608 32.384 32.384 0 0 1 4.48-1.792 24.48 24.48 0 0 1 4.48-0.928 26.88 26.88 0 0 1 4.8 0c0.736 0.08 1.488 0.192 2.24 0.352a20.704 20.704 0 0 1 4.64 1.36l2.08 1.008 2.08 1.216c0.64 0.432 1.216 0.896 1.76 1.392 0.64 0.512 1.216 1.04 1.76 1.6 0.528 0.544 1.056 1.12 1.6 1.728a17.168 17.168 0 0 1 2.56 3.92 17.472 17.472 0 0 1 2.4 6.624c0.208 0.768 0.32 1.552 0.32 2.336 0.096 0.784 0.16 1.568 0.16 2.352V720h40a23.52 23.52 0 0 1 7.04 1.04c0.736 0.224 1.488 0.48 2.24 0.8l2.08 0.992 2.08 1.216c0.64 0.432 1.216 0.896 1.76 1.392 0.64 0.512 1.216 1.04 1.76 1.6 0.528 0.544 1.056 1.12 1.6 1.728 0.528 0.608 1.008 1.248 1.44 1.904l1.28 2.016 0.96 2.128a16.72 16.72 0 0 1 1.28 4.496c0.208 0.768 0.32 1.552 0.32 2.336a17.568 17.568 0 0 1 0 4.704 8.704 8.704 0 0 1-0.32 2.336 16.96 16.96 0 0 1-1.28 4.496l-0.96 2.128a99.376 99.376 0 0 1-1.28 2.016c-0.432 0.656-0.912 1.28-1.44 1.904a54.176 54.176 0 0 1-1.6 1.744 16.32 16.32 0 0 1-1.76 1.568 14.496 14.496 0 0 1-3.84 2.624l-2.08 1.008a20.704 20.704 0 0 1-4.64 1.36 22.56 22.56 0 0 1-4.64 0.464h-64z"  /></svg>