<?xml version="1.0" standalone="no"?><!DOCTYPE svg PUBLIC "-//W3C//DTD SVG 1.1//EN" "http://www.w3.org/Graphics/SVG/1.1/DTD/svg11.dtd"><svg class="icon" width="200px" height="200.00px" viewBox="0 0 1024 1024" version="1.1" xmlns="http://www.w3.org/2000/svg"><path fill="#ffffff" d="M288 976a32.048 32.048 0 0 1-30.624-22.72 32.24 32.24 0 0 1 0-18.56 31.696 31.696 0 0 1 8-13.344A31.888 31.888 0 0 1 288 912h448a32.048 32.048 0 0 1 30.624 22.72 32.24 32.24 0 0 1 0 18.56 31.696 31.696 0 0 1-8 13.344A31.888 31.888 0 0 1 736 976H288zM128 816a128.464 128.464 0 0 1-48.976-9.744 127.472 127.472 0 0 1-41.536-27.744A128.48 128.48 0 0 1 9.76 736.992 128.112 128.112 0 0 1 0 688V176a127.984 127.984 0 0 1 128-128h768a127.936 127.936 0 0 1 118.256 79.024A127.92 127.92 0 0 1 1024 176v512a128.416 128.416 0 0 1-9.744 48.992 127.52 127.52 0 0 1-27.744 41.52 127.76 127.76 0 0 1-65.536 35.04A128.608 128.608 0 0 1 896 816H128zM64 176v512a64.128 64.128 0 0 0 57.728 63.68c2.08 0.208 4.176 0.32 6.272 0.32h768a63.632 63.632 0 0 0 24.48-4.896 64.208 64.208 0 0 0 36.752-40.528A64.304 64.304 0 0 0 960 688V176a63.616 63.616 0 0 0-4.896-24.48A64.032 64.032 0 0 0 896 112H128a64.112 64.112 0 0 0-64 64z m447.248 504a95.808 95.808 0 0 1-39.616-8.608 96.288 96.288 0 0 1-52.272-59.6 96.016 96.016 0 0 1-2.032-7.904 151.088 151.088 0 0 1-5.2-2.992 90.88 90.88 0 0 1-110.88-40.112l-5.568-9.712a92.368 92.368 0 0 1-12.128-46.048 91.872 91.872 0 0 1 16.832-52.72 92.352 92.352 0 0 1 16.288-17.648V432v-2.672a92.032 92.032 0 0 1-24.688-109.264c1.12-2.432 2.352-4.8 3.68-7.136l5.6-9.744a91.008 91.008 0 0 1 23.456-26.864 91.536 91.536 0 0 1 55.6-18.992c10.96 0 21.552 1.936 31.808 5.792 1.712-1.04 3.44-2.032 5.184-3.008a96.032 96.032 0 0 1 40.08-59.52 96.48 96.48 0 0 1 45.696-16.24c2.72-0.224 5.44-0.352 8.16-0.352h1.6a96.112 96.112 0 0 1 93.936 76.112c1.744 0.96 3.472 1.952 5.168 2.992a90.928 90.928 0 0 1 110.912 40.096l5.584 9.76a92.592 92.592 0 0 1 10.784 30.08 91.84 91.84 0 0 1-7.456 54.8 92.288 92.288 0 0 1-24.352 31.488v5.328a92.032 92.032 0 0 1 24.688 109.264c-1.12 2.432-2.352 4.8-3.68 7.136l-5.552 9.712a90.992 90.992 0 0 1-95.488 44.4 90.592 90.592 0 0 1-15.44-4.288c-1.696 1.024-3.424 2.016-5.168 2.992a96.336 96.336 0 0 1-33.536 54.704 95.92 95.92 0 0 1-44.208 20.032 95.92 95.92 0 0 1-16.272 1.392h-1.52z m-77.536-141.616a130.24 130.24 0 0 0 26.304 15.328 32 32 0 0 1 19.2 29.344v0.944a32.048 32.048 0 0 0 22.72 30.624 32.24 32.24 0 0 0 9.28 1.376h1.6a32.048 32.048 0 0 0 30.624-22.72 32.24 32.24 0 0 0 1.376-9.28v-0.96a31.92 31.92 0 0 1 19.2-29.344 130.544 130.544 0 0 0 26.288-15.328 32 32 0 0 1 35.296-2.048l4.672 2.704a26.368 26.368 0 0 0 20.512 2.704 26.976 26.976 0 0 0 14.528-9.808 27.04 27.04 0 0 0 1.968-2.976l5.552-9.712a27.888 27.888 0 0 0 1.984-23.552 28.08 28.08 0 0 0-7.568-11.104 27.28 27.28 0 0 0-4.384-3.184l-4.656-2.704a32.048 32.048 0 0 1-15.712-31.312 134.784 134.784 0 0 0 0-30.768 32.144 32.144 0 0 1 5.568-21.968 31.92 31.92 0 0 1 10.144-9.344l4.656-2.688a27.92 27.92 0 0 0 13.344-19.52 27.632 27.632 0 0 0-3.36-18.304l-5.648-9.744a27.024 27.024 0 0 0-13.12-11.6 27.312 27.312 0 0 0-10.432-2.112 26.464 26.464 0 0 0-13.456 3.664l-4.656 2.704a31.872 31.872 0 0 1-22.592 3.648 32.016 32.016 0 0 1-12.688-5.728 129.76 129.76 0 0 0-26.288-15.312 32 32 0 0 1-19.2-29.344v-0.96a32.048 32.048 0 0 0-22.72-30.624 32.24 32.24 0 0 0-9.28-1.376h-1.6a32.048 32.048 0 0 0-30.624 22.72 32.24 32.24 0 0 0-1.376 9.28v0.96a31.888 31.888 0 0 1-11.36 24.448 31.776 31.776 0 0 1-7.84 4.88 130.24 130.24 0 0 0-26.304 15.328 31.904 31.904 0 0 1-26.624 5.536 31.936 31.936 0 0 1-8.672-3.456l-4.656-2.704a26.368 26.368 0 0 0-20.512-2.72 26.976 26.976 0 0 0-14.528 9.808 27.04 27.04 0 0 0-1.968 2.976l-5.6 9.744a27.808 27.808 0 0 0 10 37.808l4.656 2.688a32.048 32.048 0 0 1 15.712 31.312 134.784 134.784 0 0 0 0 30.768 32.144 32.144 0 0 1-5.568 21.968 31.744 31.744 0 0 1-10.144 9.344l-4.656 2.704a27.888 27.888 0 0 0-13.632 22.192 27.312 27.312 0 0 0 1.424 10.688 27.968 27.968 0 0 0 2.224 4.928l5.568 9.728a27.264 27.264 0 0 0 23.552 13.744 26.4 26.4 0 0 0 13.456-3.664l4.64-2.688a32.112 32.112 0 0 1 27.104-2.4 32.272 32.272 0 0 1 8.192 4.464h0.08zM441.152 432a71.984 71.984 0 0 1 2.128-17.216 73.12 73.12 0 0 1 4.672-13.088 72.272 72.272 0 0 1 9.28-14.656 69.84 69.84 0 0 1 15.424-13.968 72.032 72.032 0 0 1 15.488-7.792 71.808 71.808 0 0 1 20.4-4.064 71.984 71.984 0 0 1 20.704 2.048 73.76 73.76 0 0 1 9.888 3.264 70.304 70.304 0 0 1 22.992 15.36 71.232 71.232 0 0 1 16.608 26.24 73.12 73.12 0 0 1 3.376 13.488 71.52 71.52 0 0 1-1.36 27.616 69.76 69.76 0 0 1-7.952 19.2 71.04 71.04 0 0 1-40.224 31.392 71.712 71.712 0 0 1-24.048 2.96 69.728 69.728 0 0 1-20.4-4.064 70.336 70.336 0 0 1-26.24-16.624 71.232 71.232 0 0 1-16.592-26.24A71.136 71.136 0 0 1 441.152 432z"  /></svg>