<?xml version="1.0" standalone="no"?><!DOCTYPE svg PUBLIC "-//W3C//DTD SVG 1.1//EN" "http://www.w3.org/Graphics/SVG/1.1/DTD/svg11.dtd"><svg class="icon" width="200px" height="200.00px" viewBox="0 0 1024 1024" version="1.1" xmlns="http://www.w3.org/2000/svg"><path fill="#ffffff" d="M511.68 874.912a213.104 213.104 0 0 0-48.48-18.88 210.208 210.208 0 0 0-51.52-6.448h-5.6a208.608 208.608 0 0 0-48.64 7.072 211.04 211.04 0 0 0-45.92 18.16 206.672 206.672 0 0 1-48.48 18.848 209.76 209.76 0 0 1-92.8 2.304c-3.408-0.688-6.768-1.44-10.08-2.288a196.144 196.144 0 0 1-19.84-6.032 195.472 195.472 0 0 1-19.2-7.952c-3.088-1.488-6.192-3.04-9.28-4.672a274.688 274.688 0 0 1-8.96-5.12 203.28 203.28 0 0 1-25.44-17.92 217.456 217.456 0 0 1-22.56-21.44 152.4 152.4 0 0 1-6.72-7.872 154.496 154.496 0 0 1-6.4-8.16 157.952 157.952 0 0 1-11.52-17.264 158.72 158.72 0 0 1-5.12-9.024c-1.712-3.04-3.312-6.144-4.8-9.28a1324.64 1324.64 0 0 1-4.16-9.472 296.08 296.08 0 0 1-7.04-19.52c-0.96-3.328-1.872-6.656-2.72-10.016-0.848-3.36-1.6-6.72-2.24-10.112a111.952 111.952 0 0 1-1.76-10.24c-0.528-3.408-0.96-6.848-1.28-10.288a112.16 112.16 0 0 1-0.8-10.352 168.688 168.688 0 0 1 0-20.736 112.16 112.16 0 0 1 0.8-10.352c0.32-3.44 0.752-6.88 1.28-10.304 0.432-3.424 1.008-6.832 1.76-10.224 0.64-3.392 1.392-6.768 2.24-10.112 0.848-3.36 1.76-6.704 2.72-10a309.072 309.072 0 0 1 7.04-19.536l4.16-9.488c1.488-3.12 3.088-6.208 4.8-9.264 1.6-3.04 3.312-6.064 5.12-9.024a154.432 154.432 0 0 1 11.52-17.248c2.032-2.784 4.16-5.504 6.4-8.176 2.128-2.688 4.368-5.296 6.72-7.872a228.048 228.048 0 0 1 22.56-21.44 210.976 210.976 0 0 1 25.44-17.92c2.992-1.776 5.968-3.488 8.96-5.12 3.088-1.632 6.192-3.2 9.28-4.672a193.6 193.6 0 0 1 19.2-7.952 188.48 188.48 0 0 1 19.84-6.032 217.984 217.984 0 0 1 40.96-6.128 211.52 211.52 0 0 1 36.32 1.344 210.608 210.608 0 0 1 50.4 12.656c8.112 3.152 16 6.768 23.68 10.88a213.232 213.232 0 0 0 48.48 18.88 210.208 210.208 0 0 0 51.68 6.448h5.44a209.808 209.808 0 0 0 39.2-4.768c13.008-2.832 25.6-6.832 37.76-12.016 2.24-1.536 4.528-3.04 6.88-4.48 7.472-4.56 14.56-9.568 21.28-15.008a208.224 208.224 0 0 0 50.72-58.976l2.72-4.8c3.952-7.248 7.472-14.704 10.56-22.352 2.992-7.648 5.552-15.456 7.68-23.424 2.24-7.952 3.952-16 5.12-24.16 1.168-8.16 1.872-16.352 2.08-24.592 0.32-8.688 1.12-17.344 2.4-25.936 1.28-8.608 3.152-17.088 5.6-25.456 2.352-8.384 5.232-16.576 8.64-24.576a207.52 207.52 0 0 1 27.2-46.72c5.76-7.456 11.952-14.48 18.56-21.12 6.72-6.608 13.808-12.752 21.28-18.432A205.84 205.84 0 0 1 732.96 143.472a209.632 209.632 0 0 1 25.92-8.56 213.28 213.28 0 0 1 108.64 0.32 213.728 213.728 0 0 1 84.64 45.2c5.232 4.576 10.192 9.376 14.88 14.432 4.8 5.056 9.28 10.336 13.44 15.84 4.272 5.488 8.208 11.184 11.84 17.072 3.632 5.888 6.992 11.936 10.08 18.16 2.992 6.208 5.712 12.56 8.16 19.04 2.448 6.496 4.528 13.088 6.24 19.792 1.808 6.688 3.312 13.44 4.48 20.272 1.168 6.832 1.968 13.712 2.4 20.624a224.48 224.48 0 0 1-1.28 41.44c-0.96 6.88-2.192 13.68-3.68 20.432a209.536 209.536 0 0 1-13.44 39.248c-2.88 6.304-6.032 12.464-9.44 18.448-4.368 7.52-9.168 14.768-14.4 21.712-5.232 6.928-10.88 13.52-16.96 19.776-6.08 6.24-12.48 12.096-19.2 17.552a222.4 222.4 0 0 1-21.28 15.056c-7.36 4.56-14.448 9.568-21.28 15.008a208.48 208.48 0 0 0-50.72 58.976l-2.72 4.8c-3.952 7.232-7.472 14.672-10.56 22.32a223.84 223.84 0 0 0-7.68 23.392c-2.128 7.952-3.84 16-5.12 24.128-1.168 8.16-1.872 16.32-2.08 24.56a209.392 209.392 0 0 1-5.6 42.304c-0.64 2.896-1.328 5.792-2.08 8.656l-2.56 8.56a123.856 123.856 0 0 1-2.88 8.448 123.36 123.36 0 0 1-3.2 8.32c-1.168 2.752-2.352 5.472-3.52 8.16-1.28 2.72-2.608 5.392-4 8.032a121.12 121.12 0 0 1-4.16 7.84c-1.488 2.592-3.04 5.136-4.64 7.664-1.6 2.512-3.2 5.008-4.8 7.456-1.712 2.464-3.472 4.864-5.28 7.248a530.88 530.88 0 0 1-5.44 7.04c-1.92 2.288-3.84 4.544-5.76 6.768-2.032 2.24-4.048 4.4-6.08 6.544-2.128 2.128-4.272 4.224-6.4 6.272a190 190 0 0 1-13.44 11.712c-2.352 1.872-4.688 3.68-7.04 5.44-2.448 1.76-4.912 3.456-7.36 5.12-2.448 1.648-4.96 3.248-7.52 4.8-2.56 1.552-5.12 3.04-7.68 4.496a179.456 179.456 0 0 1-16 8 179.04 179.04 0 0 1-8.16 3.472c-2.768 1.104-5.552 2.144-8.32 3.136-2.88 0.992-5.712 1.92-8.48 2.784a232.272 232.272 0 0 1-17.28 4.48c-2.88 0.608-5.808 1.184-8.8 1.68a193.872 193.872 0 0 1-17.6 2.272 213.04 213.04 0 0 1-69.6-5.568 211.152 211.152 0 0 1-48.48-18.736z m-40.16-175.12c0 4.48 0.208 8.96 0.64 13.408a112 112 0 0 0 1.76 13.312c0.848 4.4 1.92 8.752 3.2 13.056 1.168 4.32 2.608 8.544 4.32 12.72 1.6 4.16 3.408 8.256 5.44 12.256 2.032 4 4.208 7.888 6.56 11.68 2.448 3.808 5.008 7.472 7.68 11.04 2.768 3.536 5.712 6.96 8.8 10.24 3.2 3.04 6.608 5.92 10.24 8.64 3.52 2.72 7.152 5.28 10.88 7.664 3.84 2.384 7.728 4.576 11.68 6.592a145.392 145.392 0 0 0 24.96 9.776 141.648 141.648 0 0 0 46.88 5.408 144.64 144.64 0 0 0 48-10.816 172.48 172.48 0 0 0 12.8-6.048c2.032-1.12 4.048-2.272 6.08-3.488 2.032-1.2 4-2.464 5.92-3.776 2.032-1.312 3.952-2.656 5.76-4.064a121.44 121.44 0 0 0 5.6-4.352c1.808-1.488 3.632-3.04 5.44-4.608 1.712-1.6 3.408-3.2 5.12-4.88 1.6-1.664 3.2-3.36 4.8-5.12a127.36 127.36 0 0 0 8.96-10.912c1.392-1.888 2.768-3.824 4.16-5.776 1.28-1.968 2.512-3.952 3.68-5.968 1.28-2.032 2.448-4.08 3.52-6.144 1.072-2.08 2.128-4.192 3.2-6.32l2.88-6.448 2.56-6.592 2.24-6.72c0.64-2.24 1.232-4.512 1.76-6.8 0.64-2.288 1.168-4.576 1.6-6.88l1.28-6.976a156.144 156.144 0 0 0 1.28-14.048c0.208-2.368 0.32-4.72 0.32-7.072a140.8 140.8 0 0 0-2.56-26.672 179.472 179.472 0 0 0-3.04-13.056c-1.28-4.288-2.72-8.528-4.32-12.688-1.712-4.16-3.52-8.256-5.44-12.24a128.56 128.56 0 0 0-6.72-11.68 148.384 148.384 0 0 0-7.52-11.008 144.88 144.88 0 0 0-8.8-10.256 115.68 115.68 0 0 0-10.24-8.672c-3.52-2.72-7.152-5.28-10.88-7.68a145.28 145.28 0 0 0-11.84-6.608 136.608 136.608 0 0 0-24.96-9.824 140.112 140.112 0 0 0-39.68-5.616 143.568 143.568 0 0 0-41.76 6.24 170.112 170.112 0 0 0-13.44 4.768c-2.128 0.896-4.272 1.856-6.4 2.88-2.128 0.992-4.208 2.064-6.24 3.168a122.112 122.112 0 0 0-12.16 7.264c-1.92 1.312-3.84 2.672-5.76 4.08a121.616 121.616 0 0 0-10.88 8.96c-1.808 1.584-3.52 3.2-5.12 4.864a127.632 127.632 0 0 0-17.92 21.824 79.312 79.312 0 0 0-3.84 5.968c-1.168 2.016-2.352 4.064-3.52 6.144l-3.2 6.304-2.88 6.464a142.656 142.656 0 0 0-2.4 6.592c-0.848 2.224-1.6 4.448-2.24 6.72-0.752 2.24-1.392 4.512-1.92 6.8-0.64 2.288-1.168 4.576-1.6 6.88-0.432 2.32-0.8 4.64-1.12 6.976a78.592 78.592 0 0 0-0.96 7.008 156.864 156.864 0 0 0-0.64 14.112z m-408-8a157.792 157.792 0 0 0 1.44 21.12l1.28 6.96c0.432 2.32 0.96 4.608 1.6 6.88 0.528 2.304 1.168 4.576 1.92 6.816 0.64 2.256 1.328 4.496 2.08 6.72l2.56 6.592 2.88 6.448c1.072 2.128 2.128 4.24 3.2 6.32 1.168 2.08 2.352 4.112 3.52 6.144 1.168 2.016 2.448 4 3.84 5.968a130.032 130.032 0 0 0 12.96 16.688c1.6 1.76 3.2 3.456 4.8 5.12 1.712 1.664 3.408 3.296 5.12 4.88 1.808 1.568 3.632 3.12 5.44 4.608 1.808 1.488 3.68 2.944 5.6 4.352 1.808 1.392 3.728 2.752 5.76 4.064a117.232 117.232 0 0 0 12.16 7.264c2.032 1.12 4.112 2.176 6.24 3.2 2.128 0.992 4.272 1.952 6.4 2.848 2.24 0.912 4.48 1.76 6.72 2.56a115.808 115.808 0 0 0 13.44 4.096 125.152 125.152 0 0 0 13.92 2.768 127.072 127.072 0 0 0 13.92 1.408 151.584 151.584 0 0 0 14.24 0 142.656 142.656 0 0 0 34.72-6.064c2.24-0.688 4.48-1.44 6.72-2.224 2.128-0.8 4.32-1.648 6.56-2.544a175.216 175.216 0 0 0 12.8-6.048c2.032-1.12 4.048-2.272 6.08-3.488 2.032-1.216 4-2.464 5.92-3.776a82.72 82.72 0 0 0 5.76-4.08 121.44 121.44 0 0 0 5.6-4.336c1.808-1.504 3.632-3.04 5.44-4.624 1.712-1.584 3.408-3.2 5.12-4.864 1.6-1.664 3.2-3.376 4.8-5.12a128.336 128.336 0 0 0 8.96-10.912c1.392-1.904 2.768-3.84 4.16-5.776 1.28-1.968 2.512-3.952 3.68-5.968 1.28-2.032 2.448-4.08 3.52-6.16l3.2-6.304 2.88-6.464 2.56-6.592 2.24-6.704c0.64-2.24 1.232-4.512 1.76-6.8a77.92 77.92 0 0 0 1.6-6.88l1.28-6.976a155.808 155.808 0 0 0 1.28-14.064 77.808 77.808 0 0 0 0-14.112 154.544 154.544 0 0 0-1.28-14.064l-1.28-6.96a77.92 77.92 0 0 0-1.6-6.88 147.968 147.968 0 0 0-1.76-6.816l-2.24-6.72a923.584 923.584 0 0 0-2.56-6.576l-2.88-6.464a698.352 698.352 0 0 0-3.2-6.304 78.704 78.704 0 0 0-3.52-6.144 133.68 133.68 0 0 0-3.68-5.968 440.528 440.528 0 0 0-4.16-5.776 127.28 127.28 0 0 0-8.96-10.928c-1.6-1.744-3.2-3.456-4.8-5.12a271.408 271.408 0 0 0-5.12-4.864 256.72 256.72 0 0 0-5.44-4.624 121.44 121.44 0 0 0-5.6-4.336 82.16 82.16 0 0 0-5.76-4.08 116.448 116.448 0 0 0-5.92-3.776 188.544 188.544 0 0 0-6.08-3.488 182.72 182.72 0 0 0-12.8-6.048c-2.24-0.896-4.432-1.76-6.56-2.56-2.24-0.784-4.48-1.52-6.72-2.208a125.2 125.2 0 0 0-6.88-1.888 123.376 123.376 0 0 0-6.88-1.552 148.8 148.8 0 0 0-28-2.8 151.648 151.648 0 0 0-14.24 0.72 152 152 0 0 0-20.8 3.648 150.704 150.704 0 0 0-13.44 4.096c-2.24 0.8-4.48 1.648-6.72 2.56-2.128 0.896-4.272 1.856-6.4 2.864-2.128 1.008-4.208 2.08-6.24 3.184a122.112 122.112 0 0 0-12.16 7.264c-1.92 1.312-3.84 2.656-5.76 4.064a122.592 122.592 0 0 0-10.88 8.96c-1.808 1.6-3.52 3.2-5.12 4.88a127.392 127.392 0 0 0-17.92 21.808 78.896 78.896 0 0 0-3.84 5.968c-1.168 2.016-2.352 4.064-3.52 6.144-1.072 2.08-2.128 4.176-3.2 6.32-0.96 2.128-1.872 4.272-2.72 6.448-0.96 2.176-1.808 4.368-2.56 6.592-0.848 2.224-1.6 4.448-2.24 6.704-0.752 2.24-1.392 4.528-1.92 6.8l-1.6 6.896c-0.432 2.32-0.8 4.64-1.12 6.96a78.4 78.4 0 0 0-0.96 7.008 156.96 156.96 0 0 0-0.64 14.112z m600-344a157.424 157.424 0 0 0 1.44 21.12l1.28 6.96c0.432 2.304 0.96 4.608 1.6 6.88 0.528 2.304 1.168 4.56 1.92 6.816 0.64 2.256 1.328 4.48 2.08 6.72l2.56 6.576 2.88 6.464c1.072 2.128 2.128 4.24 3.2 6.304 1.168 2.08 2.352 4.128 3.52 6.144 1.168 2.032 2.448 4.016 3.84 5.968a129.792 129.792 0 0 0 17.92 21.824c1.6 1.664 3.312 3.28 5.12 4.864a117.968 117.968 0 0 0 10.88 8.96c1.808 1.408 3.728 2.768 5.76 4.08a118.272 118.272 0 0 0 12.16 7.264c2.032 1.12 4.112 2.176 6.24 3.184s4.272 1.952 6.4 2.864a172.672 172.672 0 0 0 13.28 4.768c2.352 0.688 4.64 1.312 6.88 1.888a125.152 125.152 0 0 0 13.92 2.768 127.072 127.072 0 0 0 13.92 1.408 146.688 146.688 0 0 0 14.24 0 142.656 142.656 0 0 0 34.72-6.064c2.24-0.672 4.48-1.424 6.72-2.208 2.128-0.8 4.32-1.648 6.56-2.56a169.92 169.92 0 0 0 12.8-6.032c2.032-1.12 4.048-2.288 6.08-3.488 2.032-1.216 4-2.48 5.92-3.792 2.032-1.296 3.952-2.656 5.76-4.064a121.44 121.44 0 0 0 5.6-4.352c1.808-1.488 3.632-3.04 5.44-4.608 1.712-1.6 3.408-3.2 5.12-4.88 1.6-1.664 3.2-3.36 4.8-5.12a128.384 128.384 0 0 0 8.96-10.912c1.392-1.888 2.768-3.824 4.16-5.776 1.28-1.952 2.512-3.952 3.68-5.968 1.28-2.016 2.448-4.064 3.52-6.144s2.128-4.192 3.2-6.32l2.88-6.448 2.56-6.592 2.24-6.72c0.64-2.24 1.232-4.512 1.76-6.8 0.64-2.288 1.168-4.576 1.6-6.88l1.28-6.976a155.808 155.808 0 0 0 1.28-14.064 77.808 77.808 0 0 0 0-14.128 154.48 154.48 0 0 0-1.28-14.048l-1.28-6.96a77.808 77.808 0 0 0-1.6-6.88 148.032 148.032 0 0 0-1.76-6.816l-2.24-6.72a923.584 923.584 0 0 0-2.56-6.592l-2.88-6.448a709.392 709.392 0 0 0-3.2-6.32 78.512 78.512 0 0 0-3.52-6.144 133.872 133.872 0 0 0-3.68-5.968 432.08 432.08 0 0 0-4.16-5.76 127.76 127.76 0 0 0-8.96-10.928c-1.6-1.76-3.2-3.456-4.8-5.12a269.776 269.776 0 0 0-5.12-4.88 257.76 257.76 0 0 0-5.44-4.608 122.672 122.672 0 0 0-5.6-4.352 82.176 82.176 0 0 0-5.76-4.064 117.552 117.552 0 0 0-5.92-3.792 186.096 186.096 0 0 0-6.08-3.472 184.144 184.144 0 0 0-12.8-6.048 267.36 267.36 0 0 0-6.56-2.56c-2.24-0.8-4.48-1.52-6.72-2.208a125.776 125.776 0 0 0-6.88-1.888 124.24 124.24 0 0 0-6.88-1.552 147.36 147.36 0 0 0-28-2.8 153.376 153.376 0 0 0-14.24 0.72 151.584 151.584 0 0 0-20.8 3.648 151.792 151.792 0 0 0-13.44 4.112c-2.24 0.8-4.48 1.632-6.72 2.544-2.128 0.896-4.272 1.856-6.4 2.88-2.128 0.992-4.208 2.048-6.24 3.168a122.336 122.336 0 0 0-12.16 7.264c-1.92 1.312-3.84 2.672-5.76 4.08a121.76 121.76 0 0 0-10.88 8.96c-1.808 1.584-3.52 3.2-5.12 4.864a127.952 127.952 0 0 0-17.92 21.808l-3.84 5.968-3.52 6.144c-1.072 2.08-2.08 4.192-3.04 6.32a78.048 78.048 0 0 0-2.88 6.448c-0.96 2.176-1.808 4.368-2.56 6.592-0.848 2.224-1.6 4.448-2.24 6.72-0.752 2.24-1.392 4.512-1.92 6.8l-1.6 6.88c-0.432 2.32-0.8 4.64-1.12 6.96a78.448 78.448 0 0 0-0.96 7.008 156.96 156.96 0 0 0-0.64 14.112z m-536 344v-3.92l0.32-3.92c0.112-1.296 0.272-2.608 0.48-3.904l0.64-3.856a970.64 970.64 0 0 1 1.92-7.616l1.28-3.728c0.432-1.248 0.912-2.464 1.44-3.68 0.432-1.2 0.96-2.4 1.6-3.584 0.528-1.184 1.12-2.352 1.76-3.504 0.528-1.152 1.168-2.288 1.92-3.424 0.64-1.12 1.328-2.224 2.08-3.312 0.752-1.088 1.488-2.16 2.24-3.2a47.84 47.84 0 0 1 2.4-3.104l2.56-2.976c0.848-0.96 1.76-1.92 2.72-2.848a154.144 154.144 0 0 1 5.76-5.28 131.04 131.04 0 0 1 6.4-4.656c1.072-0.736 2.192-1.44 3.36-2.112a49.12 49.12 0 0 1 3.36-1.92 97.664 97.664 0 0 1 7.04-3.36l3.68-1.424 3.68-1.232a90.048 90.048 0 0 1 11.52-2.56 75.712 75.712 0 0 1 15.68-0.768 92.912 92.912 0 0 1 7.84 0.752 79.952 79.952 0 0 1 15.2 3.808c1.28 0.448 2.512 0.912 3.68 1.424a92.24 92.24 0 0 1 10.56 5.28c1.072 0.688 2.128 1.376 3.2 2.112 1.168 0.72 2.24 1.472 3.2 2.256l3.2 2.4a134.256 134.256 0 0 1 5.76 5.28c0.96 0.928 1.872 1.888 2.72 2.848 0.848 0.96 1.712 1.968 2.56 2.976 0.848 1.008 1.648 2.048 2.4 3.104 0.848 1.04 1.6 2.112 2.24 3.2 0.752 1.088 1.44 2.192 2.08 3.312 0.752 1.12 1.44 2.272 2.08 3.424 0.528 1.152 1.12 2.32 1.76 3.52l1.6 3.584 1.28 3.664c0.528 1.232 0.96 2.464 1.28 3.728a48.16 48.16 0 0 1 1.92 7.6l0.64 3.872c0.208 1.296 0.368 2.608 0.48 3.904l0.32 3.92a48 48 0 0 1 0 7.84l-0.32 3.92a47.84 47.84 0 0 1-0.48 3.904l-0.64 3.856a46.704 46.704 0 0 1-1.92 7.616 626.368 626.368 0 0 1-2.56 7.392l-1.6 3.6c-0.64 1.184-1.232 2.352-1.76 3.504-0.64 1.152-1.328 2.288-2.08 3.408-0.64 1.12-1.328 2.24-2.08 3.328-0.64 1.088-1.392 2.16-2.24 3.2a47.84 47.84 0 0 1-2.4 3.104l-2.56 2.976c-0.848 0.96-1.76 1.92-2.72 2.848a154.224 154.224 0 0 1-5.76 5.28 125.216 125.216 0 0 1-3.2 2.4 30.24 30.24 0 0 1-3.2 2.256c-1.072 0.736-2.128 1.44-3.2 2.112a108 108 0 0 1-10.56 5.28c-1.168 0.512-2.4 0.976-3.68 1.424l-3.68 1.232a90.64 90.64 0 0 1-11.52 2.56 78.624 78.624 0 0 1-27.36-0.656 84.8 84.8 0 0 1-11.36-3.152l-3.68-1.408a94.848 94.848 0 0 1-10.56-5.296 111.872 111.872 0 0 1-9.6-6.8 133.6 133.6 0 0 1-5.76-5.28 47.616 47.616 0 0 1-2.72-2.832c-0.848-0.96-1.712-1.968-2.56-2.976a47.424 47.424 0 0 1-2.4-3.104 242.944 242.944 0 0 1-2.24-3.2 46 46 0 0 1-2.08-3.328 25.184 25.184 0 0 1-1.92-3.424 47.216 47.216 0 0 1-1.76-3.52 25.472 25.472 0 0 1-1.6-3.584 47.776 47.776 0 0 1-1.44-3.664 657.12 657.12 0 0 1-1.28-3.728 1043.504 1043.504 0 0 1-1.92-7.616l-0.64-3.872a48.64 48.64 0 0 1-0.48-3.904l-0.32-3.92v-3.92 0.064z m396.8-0.08v-3.92l0.32-3.904c0.112-1.296 0.272-2.592 0.48-3.888l0.64-3.872a1477.776 1477.776 0 0 1 1.92-7.6l1.28-3.712a47.68 47.68 0 0 1 1.44-3.664c0.432-1.2 0.912-2.4 1.44-3.584 0.64-1.168 1.232-2.336 1.76-3.488 0.64-1.152 1.328-2.288 2.08-3.424 0.64-1.12 1.328-2.224 2.08-3.296a26.08 26.08 0 0 1 2.24-3.2c0.752-1.056 1.552-2.08 2.4-3.104 0.848-1.008 1.712-2 2.56-2.96 0.848-0.96 1.76-1.92 2.72-2.848 0.848-0.928 1.76-1.824 2.72-2.704 1.072-0.864 2.08-1.728 3.04-2.56 0.96-0.816 1.968-1.632 3.04-2.4 1.072-0.8 2.128-1.536 3.2-2.256l3.36-2.096 3.36-1.936c1.168-0.624 2.352-1.2 3.52-1.76 1.168-0.56 2.4-1.088 3.68-1.6 1.168-0.496 2.352-0.96 3.52-1.408a93.76 93.76 0 0 1 15.2-3.808 72.352 72.352 0 0 1 7.84-0.768 78.24 78.24 0 0 1 19.52 1.44 82.192 82.192 0 0 1 15.04 4.544 94.704 94.704 0 0 1 7.04 3.36c1.168 0.608 2.288 1.248 3.36 1.92 1.168 0.672 2.288 1.376 3.36 2.096 1.072 0.736 2.128 1.472 3.2 2.256 1.072 0.784 2.08 1.6 3.04 2.4 1.072 0.848 2.08 1.696 3.04 2.56l2.88 2.72 2.56 2.832c0.96 0.96 1.808 1.968 2.56 2.976 0.848 1.008 1.648 2.032 2.4 3.088 0.848 1.056 1.648 2.112 2.4 3.2 0.64 1.088 1.328 2.192 2.08 3.312l1.92 3.408c0.64 1.152 1.232 2.32 1.76 3.52l1.6 3.568c0.432 1.2 0.912 2.432 1.44 3.664 0.432 1.216 0.8 2.464 1.12 3.712a48.512 48.512 0 0 1 1.92 7.6c0.32 1.28 0.528 2.56 0.64 3.872 0.208 1.28 0.368 2.576 0.48 3.888l0.32 3.904a47.84 47.84 0 0 1 0 7.84c0 1.296-0.112 2.608-0.32 3.904a46.336 46.336 0 0 1-0.48 3.888c-0.112 1.296-0.32 2.592-0.64 3.872a47.152 47.152 0 0 1-1.92 7.6c-0.32 1.248-0.752 2.48-1.28 3.712l-1.28 3.664-1.6 3.584c-0.528 1.168-1.12 2.336-1.76 3.488l-1.92 3.408c-0.752 1.12-1.44 2.24-2.08 3.312a49.536 49.536 0 0 1-2.4 3.2c-0.752 1.056-1.552 2.08-2.4 3.104a27.04 27.04 0 0 1-2.56 2.96c-0.848 0.96-1.76 1.92-2.72 2.848a45.664 45.664 0 0 1-5.76 5.248c-0.96 0.832-1.968 1.632-3.04 2.416a118.496 118.496 0 0 1-3.2 2.256 51.12 51.12 0 0 1-3.36 2.096 49.072 49.072 0 0 1-3.36 1.92 100.272 100.272 0 0 1-7.04 3.36c-1.28 0.512-2.512 0.96-3.68 1.408a92.736 92.736 0 0 1-15.2 3.808 78.624 78.624 0 0 1-27.36-0.672 84.8 84.8 0 0 1-3.84-0.864 91.376 91.376 0 0 1-7.52-2.272 85.84 85.84 0 0 1-3.52-1.44 55.68 55.68 0 0 1-3.68-1.584 97.664 97.664 0 0 1-3.52-1.76 881.344 881.344 0 0 0-3.36-1.92 433.808 433.808 0 0 0-3.36-2.112 118.576 118.576 0 0 1-3.2-2.256 196.48 196.48 0 0 0-3.04-2.4 138.08 138.08 0 0 1-2.88-2.56 29.008 29.008 0 0 1-2.88-2.72 47.52 47.52 0 0 1-2.72-2.848c-0.848-0.96-1.712-1.952-2.56-2.96a46.352 46.352 0 0 1-2.4-3.088 231.888 231.888 0 0 1-2.24-3.2 47.168 47.168 0 0 1-2.08-3.328 25.248 25.248 0 0 1-1.92-3.408 46.512 46.512 0 0 1-1.76-3.504 24.944 24.944 0 0 1-1.6-3.584 47.712 47.712 0 0 1-1.44-3.648 623.968 623.968 0 0 1-1.28-3.728 806.4 806.4 0 0 1-1.92-7.6l-0.64-3.872a47.728 47.728 0 0 1-0.48-3.888l-0.32-3.904v-3.92 0.064z m205.76-341.664a48 48 0 0 1 0.16-3.92l0.32-3.92c0.112-1.312 0.272-2.608 0.48-3.904l0.64-3.872a47.472 47.472 0 0 1 1.92-7.6 668.672 668.672 0 0 1 2.56-7.392l1.6-3.6c0.64-1.184 1.232-2.352 1.76-3.504 0.64-1.152 1.328-2.288 2.08-3.424 0.64-1.12 1.328-2.224 2.08-3.312 0.64-1.088 1.392-2.16 2.24-3.2 0.752-1.056 1.552-2.08 2.4-3.104l2.56-2.976c0.848-0.96 1.76-1.92 2.72-2.848a154.16 154.16 0 0 1 5.76-5.28c1.072-0.816 2.128-1.616 3.2-2.4 0.96-0.784 2.032-1.536 3.2-2.256 1.072-0.736 2.128-1.44 3.2-2.112a107.84 107.84 0 0 1 10.56-5.28c1.168-0.512 2.4-0.976 3.68-1.424l3.68-1.232a87.504 87.504 0 0 1 11.52-2.56 79.072 79.072 0 0 1 31.2 1.52c1.28 0.32 2.56 0.672 3.84 1.04l3.68 1.232 3.68 1.424a92.72 92.72 0 0 1 7.04 3.36c1.168 0.608 2.288 1.248 3.36 1.92 1.168 0.672 2.288 1.376 3.36 2.112a119.04 119.04 0 0 1 6.4 4.672 138.24 138.24 0 0 1 5.76 5.28c0.96 0.912 1.872 1.872 2.72 2.832 0.848 0.96 1.712 1.968 2.56 2.976 0.848 1.008 1.648 2.048 2.4 3.104 0.752 1.04 1.488 2.112 2.24 3.2 0.752 1.088 1.44 2.192 2.08 3.312 0.752 1.12 1.392 2.272 1.92 3.424 0.64 1.152 1.232 2.32 1.76 3.52 0.64 1.168 1.168 2.368 1.6 3.584 0.528 1.2 1.008 2.432 1.44 3.664l1.28 3.728 0.96 3.776 0.96 3.84 0.64 3.856c0.208 1.296 0.368 2.592 0.48 3.904l0.32 3.92v7.84l-0.32 3.92a47.28 47.28 0 0 1-0.48 3.904l-0.64 3.856-0.96 3.84-0.96 3.776-1.28 3.728a47.616 47.616 0 0 1-1.44 3.68c-0.432 1.2-0.96 2.4-1.6 3.584-0.528 1.184-1.12 2.352-1.76 3.504a25.392 25.392 0 0 1-1.92 3.408c-0.64 1.12-1.328 2.24-2.08 3.328-0.752 1.088-1.488 2.16-2.24 3.2-0.752 1.056-1.552 2.08-2.4 3.104l-2.56 2.976c-0.848 0.96-1.76 1.92-2.72 2.832a154.16 154.16 0 0 1-5.76 5.28 137.712 137.712 0 0 1-6.4 4.672c-1.072 0.736-2.192 1.44-3.36 2.112a49.12 49.12 0 0 1-3.36 1.92 97.664 97.664 0 0 1-7.04 3.36l-3.68 1.424-3.68 1.232a89.408 89.408 0 0 1-11.52 2.56 75.584 75.584 0 0 1-15.68 0.768 78.88 78.88 0 0 1-15.52-2.304c-1.28-0.32-2.56-0.656-3.84-1.04a53.6 53.6 0 0 1-3.68-1.232 54.416 54.416 0 0 1-3.68-1.424 89.856 89.856 0 0 1-3.52-1.6 107.936 107.936 0 0 1-7.04-3.712 103.616 103.616 0 0 1-3.2-2.08 30.688 30.688 0 0 1-3.2-2.272 135.488 135.488 0 0 1-3.2-2.416 138.528 138.528 0 0 1-2.88-2.56 29.04 29.04 0 0 1-2.88-2.72 47.152 47.152 0 0 1-2.72-2.848c-0.848-0.96-1.712-1.968-2.56-2.976a47.296 47.296 0 0 1-2.4-3.104 26.176 26.176 0 0 1-2.24-3.2 46.72 46.72 0 0 1-2.08-3.328 49.744 49.744 0 0 1-2.08-3.424 63.632 63.632 0 0 0-1.76-3.504 45.552 45.552 0 0 1-1.44-3.6 47.888 47.888 0 0 1-1.44-3.664 669.392 669.392 0 0 1-1.28-3.728 49.152 49.152 0 0 1-1.12-3.776c-0.208-1.28-0.48-2.56-0.8-3.84l-0.64-3.872a47.936 47.936 0 0 1-0.48-3.904l-0.32-3.92v-3.92l-0.16 0.08z"  /></svg>