<?xml version="1.0" standalone="no"?><!DOCTYPE svg PUBLIC "-//W3C//DTD SVG 1.1//EN" "http://www.w3.org/Graphics/SVG/1.1/DTD/svg11.dtd"><svg class="icon" width="200px" height="200.00px" viewBox="0 0 1024 1024" version="1.1" xmlns="http://www.w3.org/2000/svg"><path fill="#ffffff" d="M860.471615 951.985733H60.490864a31.99923 31.99923 0 0 1-20.319511-7.263825 66.366403 66.366403 0 0 1-4.479892-4.431894 25.567385 25.567385 0 0 1-1.759957-2.527939 15.80762 15.80762 0 0 1-1.599962-2.687935 29.439292 29.439292 0 0 1-1.439965-2.847932 14.639648 14.639648 0 0 1-0.959977-2.959928 30.719261 30.719261 0 0 1 0-18.575553 14.719646 14.719646 0 0 1 0.959977-2.94393c0.43199-0.959977 0.911978-1.919954 1.439965-2.847931a15.871618 15.871618 0 0 1 1.599962-2.687935c0.527987-0.879979 1.119973-1.711959 1.759957-2.52794a67.806368 67.806368 0 0 1 4.479892-4.431893c0.84798-0.655984 1.711959-1.279969 2.559939-1.871955 0.84798-0.591986 1.759958-1.119973 2.719934-1.615961a24.847402 24.847402 0 0 1 5.759862-2.399942 29.91928 29.91928 0 0 1 6.079853-1.215971A32.479218 32.479218 0 0 1 60.490864 887.987273h159.996151v-31.99923c0-1.567962 0.047999-3.135925 0.159996-4.703887 0-1.567962 0.111997-3.135925 0.319992-4.703887a35.199153 35.199153 0 0 1 0.639985-4.671887c0.207995-1.551963 0.479988-3.103925 0.79998-4.639889l0.959977-4.591889 1.279969-4.543891a68.094361 68.094361 0 0 1 3.199923-8.863787c0.527987-1.439965 1.167972-2.879931 1.919954-4.303896a67.038387 67.038387 0 0 1 4.479892-8.3038 60.158552 60.158552 0 0 1 5.119877-7.839812c0.959977-1.26397 1.919954-2.49594 2.879931-3.71191 1.071974-1.215971 2.127949-2.399942 3.199923-3.567914 0.959977-1.167972 2.031951-2.303945 3.199923-3.407918a64.750442 64.750442 0 0 1 7.039831-6.319848c1.167972-1.007976 2.399942-1.967953 3.679911-2.895931 1.279969-0.943977 2.559938-1.839956 3.839908-2.719934 1.279969-0.879979 2.607937-1.711959 3.999903-2.527939a72.846247 72.846247 0 0 1 8.3198-4.431894 120.477101 120.477101 0 0 1 4.1599-1.919954 129.820876 129.820876 0 0 1 8.959784-3.167923 100.349585 100.349585 0 0 1 9.119781-2.303945 119.805117 119.805117 0 0 1 9.279777-1.391966A92.317779 92.317779 0 0 1 316.484705 759.990353h47.998845V588.570478a129.548883 129.548883 0 0 1-19.679527-29.839282 133.532787 133.532787 0 0 1-6.559842-16.703599 122.17306 122.17306 0 0 1-4.1599-17.45558L168.008277 358.368017a114.189252 114.189252 0 0 1-7.199826-1.359968 141.356599 141.356599 0 0 1-7.039831-1.759957 187.355492 187.355492 0 0 1-6.879835-2.143949 121.35708 121.35708 0 0 1-13.27968-5.439869 110.12535 110.12535 0 0 1-12.799692-6.927833 107.341417 107.341417 0 0 1-5.919858-3.983904 81.02205 81.02205 0 0 1-5.759861-4.319896 117.59717 117.59717 0 0 1-15.839619-14.815644 120.317105 120.317105 0 0 1-4.639888-5.519867 79.758081 79.758081 0 0 1-4.479892-5.759861 131.404838 131.404838 0 0 1-7.679816-12.207706 147.420453 147.420453 0 0 1-3.359919-6.415846l-2.87993-6.591841c-0.959977-2.239946-1.807956-4.479892-2.559939-6.751838a80.942052 80.942052 0 0 1-2.239946-6.879834 153.788299 153.788299 0 0 1-3.199923-14.095661 80.590061 80.590061 0 0 1-0.959977-7.151828c-0.319992-2.399942-0.527987-4.799885-0.639984-7.199827a161.436115 161.436115 0 0 1 0-14.447652c0.111997-2.399942 0.319992-4.799885 0.639984-7.199827l0.959977-7.151828c0.43199-2.367943 0.911978-4.719886 1.439965-7.07183a79.998075 79.998075 0 0 1 1.919954-6.991832c0.639985-2.319944 1.391967-4.607889 2.239946-6.879834 0.751982-2.271945 1.599962-4.511891 2.559939-6.735838 0.959977-2.239946 1.919954-4.431893 2.87993-6.591841a139.836635 139.836635 0 0 1 3.35992-6.399846c1.167972-2.09595 2.447941-4.1599 3.839907-6.207851a126.572954 126.572954 0 0 1 8.3198-11.743717c1.487964-1.871955 3.087926-3.695911 4.799885-5.487868a126.588954 126.588954 0 0 1 10.239753-10.143756c1.807956-1.599962 3.679911-3.135925 5.599865-4.623889 1.807956-1.487964 3.72791-2.91193 5.759862-4.303896 1.919954-1.375967 3.951905-2.703935 6.079853-3.967905 2.031951-1.26397 4.111901-2.463941 6.23985-3.615913 2.127949-1.151972 4.271897-2.239946 6.399846-3.263921a115.069231 115.069231 0 0 1 13.439677-5.40787 121.069087 121.069087 0 0 1 13.919665-3.855907 125.708975 125.708975 0 0 1 28.639311-2.91193c2.447941 0.016 4.847883 0.111997 7.199827 0.287993a118.301153 118.301153 0 0 1 14.399653 1.791957 137.708686 137.708686 0 0 1 14.079661 3.391918c2.239946 0.703983 4.479892 1.471965 6.719839 2.303944a115.309225 115.309225 0 0 1 13.27968 5.711863c2.127949 1.071974 4.271897 2.207947 6.399846 3.407918a114.317249 114.317249 0 0 1 12.159708 7.871811H732.474695V104.006137a30.719261 30.719261 0 0 1 1.439965-9.295776 14.751645 14.751645 0 0 1 0.959977-2.943929c0.43199-0.959977 0.911978-1.919954 1.439965-2.847932a15.743621 15.743621 0 0 1 1.599962-2.687935 25.119396 25.119396 0 0 1 1.759958-2.527939 65.790417 65.790417 0 0 1 4.479892-4.431893c0.84798-0.655984 1.711959-1.279969 2.559938-1.871955 0.84798-0.575986 1.759958-1.119973 2.719935-1.615962a24.671406 24.671406 0 0 1 5.759861-2.399942A30.063277 30.063277 0 0 1 761.274002 72.166903a32.239224 32.239224 0 0 1 15.519626 2.271946c0.959977 0.39999 1.871955 0.84798 2.719935 1.343967 0.959977 0.495988 1.871955 1.039975 2.719935 1.615962 0.84798 0.591986 1.711959 1.215971 2.559938 1.871955a64.382451 64.382451 0 0 1 4.479892 4.431893c0.639985 0.799981 1.23197 1.64796 1.759958 2.527939 0.639985 0.879979 1.167972 1.759958 1.599961 2.687935 0.527987 0.927978 1.007976 1.871955 1.439966 2.847932 0.43199 0.959977 0.751982 1.935953 0.959977 2.943929A29.807283 29.807283 0 0 1 796.473155 104.006137v56.798634h31.99923c3.087926 0 6.191851 0.303993 9.279777 0.895978 1.167972-3.199923 2.447941-6.335848 3.839907-9.423773 1.391967-3.087926 2.92793-6.127853 4.639889-9.103781 1.599962-2.975928 3.359919-5.887858 5.279872-8.73579 1.807956-2.831932 3.791909-5.599865 5.919858-8.3038 2.031951-2.687935 4.207899-5.295873 6.559842-7.823812a123.00504 123.00504 0 0 1 14.719646-14.063661 143.77254 143.77254 0 0 1 16.6396-11.64772c2.991928-1.727958 6.031855-3.34392 9.11978-4.847883 2.991928-1.503964 6.079854-2.879931 9.279777-4.143901 3.087926-1.279969 6.287849-2.415942 9.599769-3.439917a124.157012 124.157012 0 0 1 19.839522-4.623889 131.516835 131.516835 0 0 1 20.319512-1.567962 32.255224 32.255224 0 0 1 9.279776 1.375967 39.359053 39.359053 0 0 1 5.759862 2.399942c0.959977 0.479988 1.871955 1.023975 2.719934 1.615961a55.998653 55.998653 0 0 1 2.559939 1.871955c0.751982 0.655984 1.487964 1.359967 2.239946 2.111949 0.751982 0.735982 1.439965 1.503964 2.07995 2.319945 0.751982 0.799981 1.391967 1.64796 1.919953 2.527939 0.639985 0.879979 1.167972 1.759958 1.599962 2.687935 0.527987 0.927978 1.007976 1.871955 1.439965 2.847932l0.959977 2.943929a31.759236 31.759236 0 0 1 1.439966 9.295776 30.719261 30.719261 0 0 1-1.439966 9.295776l-0.959977 2.943929c-0.43199 0.959977-0.911978 1.919954-1.439965 2.847932a15.199634 15.199634 0 0 1-1.599962 2.687935c-0.527987 0.879979-1.119973 1.711959-1.759957 2.527939a66.334404 66.334404 0 0 1-4.479892 4.431894c-0.84798 0.655984-1.711959 1.279969-2.559939 1.871955-0.84798 0.591986-1.759958 1.119973-2.719934 1.615961a38.879064 38.879064 0 0 1-5.759862 2.399942 30.287271 30.287271 0 0 1-9.279776 1.375967 65.982412 65.982412 0 0 0-10.239754 0.607985c-1.167972 0.159996-2.351943 0.319992-3.519915 0.527988-1.071974 0.207995-2.191947 0.447989-3.359919 0.703983a90.557821 90.557821 0 0 0-6.559843 1.887954 77.358139 77.358139 0 0 0-12.479699 5.695863 89.997834 89.997834 0 0 0-5.759862 3.727911c-0.959977 0.671984-1.871955 1.359967-2.719934 2.07995-0.959977 0.703983-1.871955 1.439965-2.719935 2.191947a123.197036 123.197036 0 0 0-2.559938 2.335944c-0.751982 0.799981-1.551963 1.615961-2.399943 2.447941l-2.239946 2.575938a36.799115 36.799115 0 0 0-2.07995 2.671935c-0.751982 0.911978-1.439965 1.839956-2.07995 2.783933l-1.919953 2.879931c-0.527987 0.959977-1.119973 1.951953-1.759958 2.959929l-1.599961 3.055926a47.134866 47.134866 0 0 1-1.439966 3.119925 563.186448 563.186448 0 0 0-1.279969 3.183924c-0.319992 1.071974-0.687983 2.159948-1.119973 3.247921l-0.959977 3.295921c-0.319992 1.119973-0.591986 2.223946-0.799981 3.34392l-0.639984 3.375918c-0.207995 1.119973-0.367991 2.271945-0.479989 3.407918l-0.319992 3.423918v3.439917a18.431556 18.431556 0 0 0 0 3.439918c0 1.135973 0.047999 2.287945 0.159996 3.423917l0.319992 3.423918 0.639985 3.391918 0.639985 3.375919a38.047084 38.047084 0 0 0 1.919953 6.607841 37.327102 37.327102 0 0 0 2.559939 6.383846c0.43199 1.039975 0.911978 2.07995 1.439965 3.087926l1.599962 3.023927 1.919953 2.92793c0.527987 0.959977 1.167972 1.919954 1.919954 2.847931 0.639985 0.927978 1.327968 1.839956 2.07995 2.735934 0.639985 0.895978 1.327968 1.775957 2.07995 2.639937 0.84798 0.863979 1.64796 1.711959 2.399942 2.527939 0.751982 0.81598 1.551963 1.615961 2.399943 2.399942 0.84798 0.799981 1.711959 1.551963 2.559938 2.287945l2.719935 2.159948 2.87993 2.015952a38.527073 38.527073 0 0 0 5.759862 3.631912 69.598325 69.598325 0 0 0 6.23985 3.023928 93.885741 93.885741 0 0 0 9.599769 3.391918l3.359919 0.799981c1.167972 0.239994 2.287945 0.463989 3.359919 0.639984 1.167972 0.175996 2.351943 0.335992 3.519915 0.479989a76.04617 76.04617 0 0 0 6.879835 0.431989h2.07995a32.031229 32.031229 0 0 1 20.319511 7.263826c0.751982 0.655984 1.487964 1.359967 2.239946 2.111949 0.751982 0.735982 1.439965 1.503964 2.07995 2.319944 0.751982 0.799981 1.391967 1.64796 1.919953 2.527939a15.999615 15.999615 0 0 1 1.599962 2.687935c0.527987 0.927978 1.007976 1.871955 1.439965 2.847932l0.959977 2.943929a31.823234 31.823234 0 0 1 1.439966 9.295776 30.703261 30.703261 0 0 1-1.439966 9.295777l-0.959977 2.943929c-0.43199 0.959977-0.911978 1.919954-1.439965 2.847931a15.167635 15.167635 0 0 1-1.599962 2.687936c-0.527987 0.879979-1.119973 1.711959-1.759957 2.527939a66.366403 66.366403 0 0 1-4.479892 4.431893 56.478641 56.478641 0 0 1-2.559939 1.871955c-0.84798 0.591986-1.759958 1.119973-2.719934 1.615961a38.671069 38.671069 0 0 1-5.759862 2.399943 29.90328 29.90328 0 0 1-6.079853 1.21597c-1.071974 0.111997-2.127949 0.159996-3.199923 0.159996a130.604857 130.604857 0 0 1-20.159515-1.535963 141.692591 141.692591 0 0 1-19.679527-4.54389 129.24489 129.24489 0 0 1-9.439773-3.359919 113.821261 113.821261 0 0 1-9.279776-4.063903 165.372021 165.372021 0 0 1-8.959785-4.767885 142.316576 142.316576 0 0 1-16.639599-11.439725 156.524234 156.524234 0 0 1-14.719646-13.807667c-2.239946-2.47994-4.431893-5.055878-6.559842-7.695815-2.031951-2.639936-3.999904-5.359871-5.919858-8.159804a219.178726 219.178726 0 0 1-5.279873-8.591793c-1.599962-2.92793-3.151924-5.919858-4.639888-8.959785-1.391967-3.039927-2.719935-6.143852-3.999904-9.295776-3.199923 0.655984-6.447845 0.991976-9.759765 0.991976h-31.99923v55.198672a31.18325 31.18325 0 0 1-1.439965 9.295776 14.847643 14.847643 0 0 1-0.959977 2.94393 30.239272 30.239272 0 0 1-1.439966 2.847931 15.087637 15.087637 0 0 1-1.599961 2.687935 24.959399 24.959399 0 0 1-1.759958 2.52794c-0.751982 0.799981-1.487964 1.583962-2.239946 2.319944a15.151635 15.151635 0 0 1-2.239946 2.111949c-0.84798 0.655984-1.711959 1.279969-2.559938 1.871955-0.84798 0.591986-1.759958 1.119973-2.719935 1.615961a24.543409 24.543409 0 0 1-5.759861 2.399942 29.791283 29.791283 0 0 1-6.079854 1.215971 31.98323 31.98323 0 0 1-23.519434-7.103829 64.942437 64.942437 0 0 1-4.479892-4.431893 24.959399 24.959399 0 0 1-1.759958-2.52794 14.97564 14.97564 0 0 1-1.599962-2.687935 29.50329 29.50329 0 0 1-1.439965-2.847931l-0.959977-2.94393a29.775284 29.775284 0 0 1-1.439965-9.295776v-23.199442H369.923419l87.197902 87.245901H460.48124a121.837068 121.837068 0 0 1 18.239561 1.327968 125.484981 125.484981 0 0 1 17.919569 3.919906 128.732902 128.732902 0 0 1 17.119588 6.415845c2.767933 1.279969 5.551866 2.655936 8.319799 4.127901a133.40479 133.40479 0 0 1 15.359631 9.935761c2.447941 1.839956 4.799885 3.775909 7.03983 5.775861 2.351943 1.999952 4.59189 4.095901 6.719839 6.271849 2.127949 2.159948 4.207899 4.399894 6.23985 6.719838a113.933258 113.933258 0 0 1 10.879738 14.703647c1.711959 2.575938 3.247922 5.215874 4.639888 7.903809 1.487964 2.687935 2.879931 5.423869 4.1599 8.207803 1.279969 2.799933 2.399942 5.631864 3.359919 8.495795a125.292985 125.292985 0 0 1 6.719839 26.62336 129.116893 129.116893 0 0 1 1.279969 18.28756c-0.111997 3.039927-0.271993 6.095853-0.479989 9.15178-0.207995 3.039927-0.527987 6.079854-0.959977 9.10378-0.43199 3.039927-1.007976 6.031855-1.759957 9.007784-0.639985 2.991928-1.391967 5.951857-2.239946 8.879786-0.959977 2.92793-1.967953 5.80786-3.039927 8.671791a121.597074 121.597074 0 0 1-17.759573 31.951232c-1.807956 2.431941-3.72791 4.799885-5.759861 7.087829v171.419875h47.998845a90.557821 90.557821 0 0 1 9.439773 0.463989 90.541821 90.541821 0 0 1 18.399557 3.695911 108.205396 108.205396 0 0 1 8.959784 3.183923c1.391967 0.591986 2.767933 1.23197 4.1599 1.903955a65.918414 65.918414 0 0 1 8.3198 4.447893c1.391967 0.799981 2.719935 1.631961 3.999904 2.511939a144.908513 144.908513 0 0 1 7.679815 5.615865c1.167972 0.991976 2.351943 2.015951 3.519915 3.071926 1.167972 1.055975 2.287945 2.143948 3.359919 3.247922 1.167972 1.119973 2.239946 2.239946 3.199923 3.423918l3.199923 3.551914c0.959977 1.215971 1.919954 2.463941 2.879931 3.72791 0.959977 1.26397 1.871955 2.543939 2.719935 3.839908l2.559938 3.983904 2.239946 4.095902c0.751982 1.391967 1.439965 2.783933 2.07995 4.207898 0.751982 1.423966 1.391967 2.847931 1.919954 4.303897a67.582374 67.582374 0 0 1 3.199923 8.863787l1.279969 4.54389c0.43199 1.519963 0.751982 3.055926 0.959977 4.59189 0.319992 1.535963 0.591986 3.087926 0.799981 4.639888 0.319992 1.551963 0.527987 3.119925 0.639984 4.671888 0.207995 1.567962 0.319992 3.135925 0.319993 4.703886 0.111997 1.567962 0.159996 3.135925 0.159996 4.703887v31.99923h159.99615a31.98323 31.98323 0 0 1 20.319511 7.263825c0.84798 0.655984 1.64796 1.359967 2.399942 2.11195l2.07995 2.319944c0.639985 0.799981 1.23197 1.64796 1.759958 2.527939 0.639985 0.879979 1.167972 1.759958 1.599961 2.687935 0.527987 0.927978 1.007976 1.871955 1.439966 2.847932a14.879642 14.879642 0 0 1 0.959977 2.943929 29.775284 29.775284 0 0 1 1.439965 9.295776 31.18325 31.18325 0 0 1-1.439965 9.295777 14.847643 14.847643 0 0 1-0.959977 2.943929 30.239272 30.239272 0 0 1-1.439966 2.847931 15.839619 15.839619 0 0 1-1.599961 2.687936 24.959399 24.959399 0 0 1-1.759958 2.527939 118.717143 118.717143 0 0 0-2.07995 2.319944c-0.751982 0.751982-1.551963 1.439965-2.399942 2.111949a54.078699 54.078699 0 0 1-2.559938 1.871955c-0.84798 0.591986-1.759958 1.119973-2.719935 1.615961a24.543409 24.543409 0 0 1-5.759861 2.399942 29.791283 29.791283 0 0 1-6.079854 1.215971c-1.071974 0.111997-2.127949 0.159996-3.199923 0.159996V951.985733z m-543.98691-127.99692a32.495218 32.495218 0 0 0-12.319704 2.431941c-0.959977 0.39999-1.871955 0.84798-2.719935 1.343968-0.959977 0.479988-1.871955 1.023975-2.719934 1.615961a56.430642 56.430642 0 0 0-2.559938 1.871955 66.318404 66.318404 0 0 0-4.479893 4.431893c-0.639985 0.799981-1.23197 1.64796-1.759957 2.52794a15.79162 15.79162 0 0 0-1.599962 2.687935 29.50329 29.50329 0 0 0-1.439965 2.847931 14.751645 14.751645 0 0 0-0.959977 2.943929A29.775284 29.775284 0 0 0 284.485475 855.988043v31.99923h351.99153v-31.99923a31.18325 31.18325 0 0 0-1.439966-9.295777 14.847643 14.847643 0 0 0-0.959976-2.943929 30.239272 30.239272 0 0 0-1.439966-2.847931 15.919617 15.919617 0 0 0-1.599961-2.687935 25.34339 25.34339 0 0 0-1.759958-2.52794 64.894438 64.894438 0 0 0-4.479892-4.431893 56.430642 56.430642 0 0 0-2.559939-1.871955 24.591408 24.591408 0 0 0-2.719934-1.615961 24.831402 24.831402 0 0 0-5.759862-2.399942 29.791283 29.791283 0 0 0-6.079853-1.215971A32.463219 32.463219 0 0 0 604.477775 823.988813H316.484705z m111.997305-196.027283v132.044822h63.99846v-131.996823a128.172916 128.172916 0 0 1-49.118818 2.911929l-1.439966 1.471965-1.919954-1.983952c-3.839908-0.671984-7.679815-1.471965-11.519722-2.399942v-0.047999zM460.48124 439.998053a62.494496 62.494496 0 0 0-18.559554 2.751933c-2.031951 0.607985-3.999904 1.311968-5.919857 2.11195s-3.839908 1.711959-5.759862 2.687935c-1.807956 0.991976-3.567914 2.07995-5.279873 3.231922-1.807956 1.167972-3.519915 2.399942-5.119876 3.74391-1.599962 1.327968-3.151924 2.735934-4.639889 4.223898-1.487964 1.487964-2.879931 3.039927-4.1599 4.639889a54.686684 54.686684 0 0 0-7.03983 10.431749 102.397536 102.397536 0 0 0-2.719935 5.679863c-0.751982 1.935953-1.439965 3.919906-2.07995 5.919858a114.189252 114.189252 0 0 0-1.439965 6.095853 60.318549 60.318549 0 0 0-0.959977 18.751549c0.207995 2.07995 0.527987 4.1599 0.959977 6.20785 0.43199 2.06395 0.911978 4.095901 1.439965 6.095854 0.639985 1.999952 1.327968 3.983904 2.07995 5.919857 0.84798 1.919954 1.759958 3.823908 2.719935 5.679863a55.102674 55.102674 0 0 0 7.03983 10.431749c1.279969 1.615961 2.671936 3.167924 4.1599 4.639889 1.487964 1.487964 3.039927 2.879931 4.639889 4.223898 1.599962 1.327968 3.31192 2.575938 5.119876 3.74391 1.711959 1.167972 3.471916 2.239946 5.279873 3.231922 1.919954 0.975977 3.839908 1.871955 5.759862 2.671936s3.887906 1.519963 5.919857 2.127949a66.446401 66.446401 0 0 0 12.319704 2.447941 62.494496 62.494496 0 0 0 12.4797 0 63.99846 63.99846 0 0 0 18.239561-4.57589c1.919954-0.799981 3.839908-1.695959 5.759861-2.671936 1.807956-0.991976 3.567914-2.07995 5.279873-3.231922 1.807956-1.167972 3.519915-2.399942 5.119877-3.74391 1.599962-1.327968 3.151924-2.735934 4.639888-4.223898 1.487964-1.471965 2.879931-3.023927 4.1599-4.639889 1.391967-1.615961 2.671936-3.31192 3.839908-5.055878 1.071974-1.743958 2.127949-3.535915 3.199923-5.39187 0.959977-1.839956 1.871955-3.72791 2.719934-5.663864 0.751982-1.935953 1.439965-3.919906 2.07995-5.919857 0.527987-1.999952 1.007976-4.031903 1.439966-6.095854A59.822561 59.822561 0 0 0 524.4797 503.996513a61.90251 61.90251 0 0 0-1.279969-12.4797 112.653289 112.653289 0 0 0-1.439966-6.095853 109.997353 109.997353 0 0 0-2.07995-5.919858 102.397536 102.397536 0 0 0-2.719934-5.679863 241.562187 241.562187 0 0 0-3.199923-5.375871 54.958678 54.958678 0 0 0-3.839908-5.055878 53.118722 53.118722 0 0 0-4.1599-4.639889 71.630276 71.630276 0 0 0-4.639888-4.223898 51.10277 51.10277 0 0 0-5.119877-3.74391 63.550471 63.550471 0 0 0-5.279873-3.231922 87.293899 87.293899 0 0 0-5.759861-2.687935 60.766538 60.766538 0 0 0-11.999712-3.631913A64.494448 64.494448 0 0 0 460.48124 439.998053z m-166.076004-136.188723c-3.087926 4.479892-6.399846 8.73579-9.919761 12.783692a135.596737 135.596737 0 0 1-11.519723 11.455724 128.124917 128.124917 0 0 1-26.719357 18.159563l99.997594 99.997594c2.447941-4.815884 5.231874-9.471772 8.319799-13.935665 2.991928-4.479892 6.287849-8.751789 9.919762-12.799692a122.60505 122.60505 0 0 1 24.159418-21.375485l-94.237732-94.285731zM188.487785 168.004597a62.542495 62.542495 0 0 0-12.4797 1.231971 66.750394 66.750394 0 0 0-11.999711 3.631912c-1.919954 0.799981-3.839908 1.711959-5.759862 2.687936-1.807956 0.991976-3.567914 2.07995-5.279873 3.231922-1.807956 1.167972-3.519915 2.399942-5.119877 3.74391-1.599962 1.327968-3.151924 2.735934-4.639888 4.223898a53.438714 53.438714 0 0 0-4.1599 4.639889 54.44669 54.44669 0 0 0-7.03983 10.431749c-0.959977 1.855955-1.871955 3.74391-2.719935 5.679863-0.751982 1.935953-1.439965 3.919906-2.07995 5.919857a114.045256 114.045256 0 0 0-1.439965 6.095854 60.638541 60.638541 0 0 0-0.959977 18.751549c0.207995 2.07995 0.527987 4.1599 0.959977 6.20785 0.43199 2.06395 0.911978 4.095901 1.439965 6.095853 0.639985 1.999952 1.327968 3.983904 2.07995 5.919858 0.84798 1.919954 1.759958 3.823908 2.719935 5.679863a55.118674 55.118674 0 0 0 7.03983 10.431749c1.279969 1.615961 2.671936 3.167924 4.1599 4.639889 1.487964 1.487964 3.039927 2.879931 4.639888 4.223898 1.599962 1.327968 3.31192 2.575938 5.119877 3.74391 1.711959 1.167972 3.471916 2.239946 5.279873 3.231922 1.919954 0.975977 3.839908 1.871955 5.759862 2.671936s3.887906 1.519963 5.919857 2.127949a66.430402 66.430402 0 0 0 12.319704 2.447941 62.494496 62.494496 0 0 0 12.479699 0 63.99846 63.99846 0 0 0 18.239561-4.57589c1.919954-0.799981 3.839908-1.695959 5.759862-2.671936 1.807956-0.991976 3.567914-2.07995 5.279873-3.231922 1.807956-1.167972 3.519915-2.399942 5.119877-3.74391 1.599962-1.327968 3.151924-2.735934 4.639888-4.223898 1.487964-1.471965 2.879931-3.023927 4.1599-4.639889a54.542688 54.542688 0 0 0 7.03983-10.431749 102.397536 102.397536 0 0 0 2.719935-5.679863c0.751982-1.935953 1.439965-3.919906 2.07995-5.919858 0.527987-1.999952 1.007976-4.031903 1.439965-6.095853A59.822561 59.822561 0 0 0 252.486245 232.003057a61.886511 61.886511 0 0 0-1.27997-12.479699 112.365296 112.365296 0 0 0-1.439965-6.095854 110.14135 110.14135 0 0 0-2.07995-5.919857 102.765527 102.765527 0 0 0-2.719935-5.679863 237.594283 237.594283 0 0 0-3.199923-5.375871 54.718683 54.718683 0 0 0-3.839907-5.055878 53.118722 53.118722 0 0 0-4.1599-4.639889 71.90227 71.90227 0 0 0-4.639888-4.223898 51.054771 51.054771 0 0 0-5.119877-3.74391 63.678468 63.678468 0 0 0-5.279873-3.231922 87.197902 87.197902 0 0 0-5.759862-2.687936 60.894535 60.894535 0 0 0-11.999711-3.631912A64.39845 64.39845 0 0 0 188.487785 168.004597z m121.917066 24.815403c3.31192 10.39975 5.279873 21.071493 5.919857 31.99923h407.990183v-31.99923H310.404851z"  /></svg>