<?xml version="1.0" standalone="no"?><!DOCTYPE svg PUBLIC "-//W3C//DTD SVG 1.1//EN" "http://www.w3.org/Graphics/SVG/1.1/DTD/svg11.dtd"><svg class="icon" width="200px" height="200.00px" viewBox="0 0 1024 1024" version="1.1" xmlns="http://www.w3.org/2000/svg"><path fill="#ffffff" d="M832.00003 960.00001a90.399986 90.399986 0 0 1-9.439999-0.464 115.631982 115.631982 0 0 1-9.279998-1.376c-1.488-0.32-3.04-0.64-4.639999-1.04a102.495984 102.495984 0 0 1-17.759998-6.335999 115.871982 115.871982 0 0 1-4.159999-2.127999 64.15999 64.15999 0 0 1-3.999999-2.32 67.487989 67.487989 0 0 1-4-2.511999 41.855993 41.855993 0 0 1-3.839999-2.72 159.071975 159.071975 0 0 1-3.839999-2.88 172.239973 172.239973 0 0 1-3.52-3.087999 62.84799 62.84799 0 0 1-3.359999-3.248 67.391989 67.391989 0 0 1-3.36-3.423999 151.871976 151.871976 0 0 0-3.039999-3.568c-0.96-1.2-1.92-2.448-2.88-3.711999a65.42399 65.42399 0 0 1-2.72-3.839999 345.119946 345.119946 0 0 1-2.559999-4l-2.24-4.095999a65.80799 65.80799 0 0 1-2.079999-4.207999 35.519994 35.519994 0 0 1-1.92-4.304 67.839989 67.839989 0 0 1-3.2-8.863998 974.655848 974.655848 0 0 1-1.279999-4.544 34.303995 34.303995 0 0 1-0.96-4.607999l-0.96-4.639999a66.51199 66.51199 0 0 1-0.48-4.671999 34.799995 34.799995 0 0 1-0.32-4.704A69.103989 69.103989 0 0 1 736.000045 864.000025v-127.99998c0-1.568 0.048-3.136 0.16-4.703999 0-1.584 0.112-3.136 0.32-4.704 0.112-1.568 0.272-3.12 0.48-4.671999l0.96-4.639999c0.208-1.552 0.528-3.088 0.96-4.607999l1.279999-4.544a67.02399 67.02399 0 0 1 3.2-8.863998c0.528-1.44 1.168-2.88 1.92-4.32 0.64-1.408 1.328-2.816 2.079999-4.191999l2.24-4.111999c0.848-1.344 1.712-2.672 2.559999-3.968 0.848-1.312 1.76-2.592 2.72-3.855999 0.96-1.28 1.92-2.512 2.88-3.711999 1.072-1.216 2.08-2.4 3.039999-3.568 1.072-1.168 2.192-2.304 3.36-3.423999 1.072-1.12 2.192-2.192 3.359999-3.248 1.168-1.056 2.352-2.08 3.52-3.071999 1.28-0.992 2.56-1.968 3.839999-2.896 1.168-0.944 2.448-1.84 3.839999-2.72 1.28-0.864 2.608-1.712 4-2.511999 1.28-0.8 2.608-1.6 3.999999-2.32 1.392-0.752 2.768-1.456 4.159999-2.127999l4.32-1.92a116.191982 116.191982 0 0 1 8.959998-3.168 76.671988 76.671988 0 0 1 9.119999-2.287999 115.631982 115.631982 0 0 1 9.279998-1.376A102.943984 102.943984 0 0 1 832.00003 640.00006h15.999998v-31.999995a54.287992 54.287992 0 0 0 0-5.919999c0-1.952-0.16-3.919999-0.48-5.871999a36.383994 36.383994 0 0 0-1.12-5.807999 52.799992 52.799992 0 0 0-3.84-11.151999 36.063994 36.063994 0 0 0-2.719999-5.247999 49.103992 49.103992 0 0 0-3.2-4.959999 73.919988 73.919988 0 0 0-7.679999-8.863999 67.11999 67.11999 0 0 0-4.639999-3.807999 45.743993 45.743993 0 0 0-4.799999-3.359999 78.415988 78.415988 0 0 0-5.119999-2.88 73.119989 73.119989 0 0 0-5.439999-2.352A62.87999 62.87999 0 0 0 791.680036 544.000075H544.000075v95.999985h15.999998a90.399986 90.399986 0 0 1 9.439998 0.464 115.631982 115.631982 0 0 1 9.279999 1.376 76.671988 76.671988 0 0 1 9.119998 2.287999 106.127983 106.127983 0 0 1 13.279998 5.088c1.392 0.672 2.768 1.376 4.159999 2.127999 1.392 0.736 2.72 1.504 4 2.32 1.392 0.8 2.72 1.648 3.999999 2.511999 1.392 0.88 2.672 1.776 3.84 2.72 1.28 0.928 2.56 1.904 3.839999 2.88 1.168 1.008 2.352 2.032 3.519999 3.087999 1.168 1.056 2.288 2.144 3.36 3.248 1.168 1.12 2.288 2.24 3.359999 3.423999 0.96 1.152 1.968 2.352 3.04 3.568 0.96 1.2 1.92 2.448 2.879999 3.711999 0.96 1.264 1.872 2.544 2.72 3.839999 0.848 1.312 1.712 2.64 2.56 4l2.239999 4.095999c0.752 1.376 1.44 2.784 2.08 4.207999 0.752 1.408 1.392 2.848 1.92 4.304a67.839989 67.839989 0 0 1 3.199999 8.863998l1.28 4.544c0.432 1.52 0.8 3.056 1.12 4.607999 0.208 1.536 0.48 3.088 0.8 4.639999 0.208 1.552 0.368 3.104 0.48 4.671999 0.208 1.568 0.32 3.136 0.32 4.704 0.112 1.568 0.16 3.136 0.16 4.703999v127.99998c0 1.568-0.048 3.136-0.16 4.703999 0 1.584-0.112 3.136-0.32 4.704a66.51199 66.51199 0 0 1-0.48 4.671999l-0.96 4.639999a34.303995 34.303995 0 0 1-0.96 4.607999l-1.28 4.544a67.02399 67.02399 0 0 1-3.199999 8.863998 35.519994 35.519994 0 0 1-1.92 4.32c-0.64 1.408-1.328 2.816-2.08 4.191999l-2.239999 4.111999a345.119946 345.119946 0 0 1-2.56 3.968c-0.848 1.312-1.76 2.592-2.72 3.855999-0.96 1.28-1.92 2.512-2.879999 3.711999-1.072 1.216-2.08 2.4-3.04 3.568a67.391989 67.391989 0 0 1-3.359999 3.423999c-1.072 1.12-2.192 2.192-3.36 3.248-1.168 1.056-2.352 2.08-3.519999 3.071999-1.28 0.992-2.56 1.968-3.839999 2.896a41.855993 41.855993 0 0 1-3.84 2.72c-1.28 0.864-2.608 1.712-3.999999 2.511999a64.15999 64.15999 0 0 1-4 2.32c-1.392 0.752-2.768 1.456-4.159999 2.127999l-4.319999 1.92a116.191982 116.191982 0 0 1-8.959999 3.168 76.671988 76.671988 0 0 1-9.119998 2.287999 115.631982 115.631982 0 0 1-9.279999 1.376A102.943984 102.943984 0 0 1 560.000073 960.00001h-95.999985a90.399986 90.399986 0 0 1-9.439999-0.464 115.631982 115.631982 0 0 1-9.279999-1.376c-1.488-0.32-3.04-0.64-4.639999-1.04a102.495984 102.495984 0 0 1-17.759997-6.335999 115.871982 115.871982 0 0 1-4.159999-2.127999 64.15999 64.15999 0 0 1-4-2.32 67.487989 67.487989 0 0 1-3.999999-2.511999 41.855993 41.855993 0 0 1-3.84-2.72 159.071975 159.071975 0 0 1-3.839999-2.88 172.239973 172.239973 0 0 1-3.519999-3.087999 62.84799 62.84799 0 0 1-3.36-3.248 67.391989 67.391989 0 0 1-3.359999-3.423999 151.871976 151.871976 0 0 0-3.04-3.568c-0.96-1.2-1.92-2.448-2.879999-3.711999a65.42399 65.42399 0 0 1-2.72-3.839999 345.119946 345.119946 0 0 1-2.56-4l-2.239999-4.095999a65.80799 65.80799 0 0 1-2.08-4.207999 35.519994 35.519994 0 0 1-1.92-4.304 67.839989 67.839989 0 0 1-3.199999-8.863998 974.655848 974.655848 0 0 1-1.28-4.544 34.303995 34.303995 0 0 1-0.96-4.607999 70.687989 70.687989 0 0 1-0.8-4.639999 35.039995 35.039995 0 0 1-0.64-4.671999 34.799995 34.799995 0 0 1-0.32-4.704A69.103989 69.103989 0 0 1 368.000103 864.000025v-127.99998c0-1.568 0.048-3.136 0.159999-4.703999 0-1.584 0.112-3.136 0.32-4.704 0.112-1.568 0.272-3.12 0.48-4.671999l0.96-4.639999c0.208-1.552 0.528-3.088 0.96-4.607999l1.28-4.544a67.02399 67.02399 0 0 1 3.199999-8.863998c0.528-1.44 1.168-2.88 1.92-4.32 0.64-1.408 1.328-2.816 2.08-4.191999l2.239999-4.111999c0.848-1.344 1.712-2.672 2.56-3.968 0.848-1.312 1.76-2.592 2.72-3.855999 0.96-1.28 1.92-2.512 2.879999-3.711999 1.072-1.216 2.08-2.4 3.04-3.568 1.072-1.168 2.192-2.304 3.359999-3.423999 1.072-1.12 2.192-2.192 3.36-3.248 1.168-1.056 2.352-2.08 3.519999-3.071999 1.28-0.992 2.56-1.968 3.839999-2.896 1.168-0.944 2.448-1.84 3.84-2.72 1.28-0.864 2.608-1.712 3.999999-2.511999 1.28-0.8 2.608-1.6 4-2.32 1.392-0.752 2.768-1.456 4.159999-2.127999l4.319999-1.92a116.191982 116.191982 0 0 1 8.959999-3.168c1.488-0.448 2.992-0.864 4.479999-1.247999 1.6-0.384 3.152-0.736 4.639999-1.04a115.631982 115.631982 0 0 1 9.279999-1.376A102.943984 102.943984 0 0 1 464.000088 640.00006h15.999997v-95.999985H232.320124a62.87999 62.87999 0 0 0-17.279998 3.775999 73.119989 73.119989 0 0 0-5.439999 2.352 78.415988 78.415988 0 0 0-5.119999 2.88 45.743993 45.743993 0 0 0-4.799999 3.359999c-1.6 1.2-3.152 2.464-4.639999 3.807999a67.935989 67.935989 0 0 0-7.679999 8.863999c-1.168 1.6-2.24 3.247999-3.2 4.959999a36.063994 36.063994 0 0 0-2.719999 5.247999 52.047992 52.047992 0 0 0-3.84 11.151999c-0.528 1.92-0.912 3.839999-1.12 5.807999-0.32 1.952-0.48 3.919999-0.479999 5.887999A54.287992 54.287992 0 0 0 176.000133 608.000065v31.999995h15.999997a90.399986 90.399986 0 0 1 9.439999 0.464 115.631982 115.631982 0 0 1 9.279998 1.376 76.671988 76.671988 0 0 1 9.119999 2.287999 106.127983 106.127983 0 0 1 13.279998 5.088c1.392 0.672 2.768 1.376 4.159999 2.127999 1.392 0.736 2.72 1.504 3.999999 2.32 1.392 0.8 2.72 1.648 4 2.511999 1.392 0.88 2.672 1.776 3.839999 2.72 1.28 0.928 2.56 1.904 3.839999 2.88 1.168 1.008 2.352 2.032 3.52 3.087999 1.168 1.056 2.288 2.144 3.359999 3.248 1.168 1.12 2.288 2.24 3.36 3.423999 0.96 1.152 1.968 2.352 3.039999 3.568 0.96 1.2 1.92 2.448 2.88 3.711999 0.96 1.264 1.872 2.544 2.72 3.839999 0.848 1.312 1.712 2.64 2.559999 4l2.24 4.095999c0.752 1.376 1.44 2.784 2.079999 4.207999 0.752 1.408 1.392 2.848 1.92 4.304a67.839989 67.839989 0 0 1 3.2 8.863998l1.279999 4.544c0.432 1.52 0.752 3.056 0.96 4.607999l0.96 4.639999c0.208 1.552 0.368 3.104 0.48 4.671999 0.208 1.568 0.32 3.136 0.32 4.704 0.112 1.568 0.16 3.136 0.16 4.703999v127.99998c0 1.568-0.048 3.136-0.16 4.703999 0 1.584-0.112 3.136-0.32 4.704a66.51199 66.51199 0 0 1-0.48 4.671999l-0.96 4.639999a34.303995 34.303995 0 0 1-0.96 4.607999l-1.279999 4.544a67.02399 67.02399 0 0 1-3.2 8.863998 35.519994 35.519994 0 0 1-1.92 4.32c-0.64 1.408-1.328 2.816-2.079999 4.191999l-2.24 4.111999a345.119946 345.119946 0 0 1-2.559999 3.968c-0.848 1.312-1.76 2.592-2.72 3.855999-0.96 1.28-1.92 2.512-2.88 3.711999-1.072 1.216-2.08 2.4-3.039999 3.568a67.391989 67.391989 0 0 1-3.36 3.423999c-1.072 1.12-2.192 2.192-3.359999 3.248-1.168 1.056-2.352 2.08-3.52 3.071999-1.28 0.992-2.56 1.968-3.839999 2.896a41.855993 41.855993 0 0 1-3.839999 2.72c-1.28 0.864-2.608 1.712-4 2.511999a64.15999 64.15999 0 0 1-3.999999 2.32c-1.392 0.752-2.768 1.456-4.159999 2.127999l-4.32 1.92a116.191982 116.191982 0 0 1-8.959998 3.168 76.671988 76.671988 0 0 1-9.119999 2.287999 115.631982 115.631982 0 0 1-9.279998 1.376A102.943984 102.943984 0 0 1 192.00013 960.00001H96.000145a90.463986 90.463986 0 0 1-9.439999-0.464 115.247982 115.247982 0 0 1-9.279998-1.376 145.599977 145.599977 0 0 1-4.639999-1.04 101.887984 101.887984 0 0 1-17.759998-6.335999 115.807982 115.807982 0 0 1-4.159999-2.127999 63.67999 63.67999 0 0 1-3.999999-2.32 66.92799 66.92799 0 0 1-4-2.511999 41.839993 41.839993 0 0 1-3.839999-2.72 159.327975 159.327975 0 0 1-3.839999-2.88 173.135973 173.135973 0 0 1-3.52-3.087999 62.76799 62.76799 0 0 1-3.359999-3.248 67.311989 67.311989 0 0 1-3.36-3.423999 152.351976 152.351976 0 0 0-3.039999-3.568c-0.96-1.2-1.92-2.448-2.88-3.711999a65.32799 65.32799 0 0 1-2.72-3.839999 344.879946 344.879946 0 0 1-2.559999-4l-2.24-4.095999a66.73599 66.73599 0 0 1-2.079999-4.207999 35.759994 35.759994 0 0 1-1.92-4.304 68.847989 68.847989 0 0 1-3.2-8.863998 930.959855 930.959855 0 0 1-1.279999-4.544 34.479995 34.479995 0 0 1-0.96-4.607999l-0.96-4.639999a67.13599 67.13599 0 0 1-0.48-4.671999 34.783995 34.783995 0 0 1-0.32-4.704A68.959989 68.959989 0 0 1 0.00016 864.000025v-127.99998c0-1.568 0.048-3.136 0.16-4.703999 0-1.584 0.112-3.136 0.32-4.704 0.112-1.568 0.272-3.12 0.48-4.671999l0.96-4.639999c0.208-1.552 0.528-3.088 0.96-4.607999l1.279999-4.544a66.87999 66.87999 0 0 1 3.2-8.863998c0.528-1.44 1.168-2.88 1.92-4.32 0.64-1.408 1.328-2.816 2.079999-4.191999l2.24-4.111999c0.848-1.344 1.712-2.672 2.559999-3.968 0.848-1.312 1.76-2.592 2.72-3.855999 0.96-1.28 1.92-2.512 2.88-3.711999 1.072-1.216 2.08-2.4 3.039999-3.568 1.072-1.168 2.192-2.304 3.36-3.423999 1.072-1.12 2.192-2.192 3.359999-3.248 1.168-1.056 2.352-2.08 3.52-3.071999 1.28-0.992 2.56-1.968 3.839999-2.896 1.168-0.944 2.448-1.84 3.839999-2.72 1.28-0.864 2.608-1.712 4-2.511999 1.28-0.8 2.608-1.6 3.999999-2.32 1.392-0.752 2.768-1.456 4.159999-2.127999l4.32-1.92a117.423982 117.423982 0 0 1 8.959998-3.168c1.488-0.448 2.992-0.864 4.48-1.247999 1.488-0.384 3.04-0.736 4.639999-1.04a115.247982 115.247982 0 0 1 9.279998-1.376A102.911984 102.911984 0 0 1 96.000145 640.00006h15.999998v-31.999995a57.663991 57.663991 0 0 1 0-6.079999c0-2.048 0.112-4.079999 0.319999-6.095999a112.415982 112.415982 0 0 1 1.28-12.095998l1.28-5.983999a112.847982 112.847982 0 0 1 3.2-11.759998l1.919999-5.76c0.752-1.888 1.552-3.775999 2.4-5.631999 0.752-1.856 1.6-3.711999 2.559999-5.519999a58.719991 58.719991 0 0 1 2.88-5.391999 103.359984 103.359984 0 0 1 6.399999-10.335998c1.168-1.664 2.352-3.311999 3.519999-4.912 1.28-1.6 2.56-3.2 3.84-4.735999 1.392-1.552 2.768-3.056 4.159999-4.543999 1.392-1.472 2.832-2.928 4.32-4.319999a62.71999 62.71999 0 0 1 4.479999-4.128c1.488-1.344 3.04-2.64 4.639999-3.903999 1.6-1.264 3.2-2.48 4.799999-3.664a187.455971 187.455971 0 0 1 10.239999-6.591999 163.583974 163.583974 0 0 1 10.879998-5.551999c1.808-0.848 3.679999-1.632 5.599999-2.383999a141.183978 141.183978 0 0 1 11.519998-3.904c2.032-0.56 3.999999-1.072 5.919999-1.519999 2.032-0.48 3.999999-0.88 5.92-1.248A130.86398 130.86398 0 0 1 232.320124 480.000085H480.000085v-95.999985h-31.999995a90.399986 90.399986 0 0 1-9.439999-0.464 115.631982 115.631982 0 0 1-9.279998-1.376c-1.488-0.32-3.04-0.64-4.639999-1.04a102.495984 102.495984 0 0 1-17.759998-6.335999 115.871982 115.871982 0 0 1-4.159999-2.127999 64.15999 64.15999 0 0 1-3.999999-2.32 67.487989 67.487989 0 0 1-4-2.511999 41.855993 41.855993 0 0 1-3.839999-2.72 159.071975 159.071975 0 0 1-3.839999-2.88 172.239973 172.239973 0 0 1-3.52-3.087999 62.84799 62.84799 0 0 1-3.359999-3.248 67.391989 67.391989 0 0 1-3.36-3.423999 151.871976 151.871976 0 0 0-3.039999-3.568c-0.96-1.216-1.92-2.448-2.88-3.711999a65.42399 65.42399 0 0 1-2.72-3.839999 319.53595 319.53595 0 0 1-2.559999-4l-2.24-4.095999a65.80799 65.80799 0 0 1-2.079999-4.207999 35.519994 35.519994 0 0 1-1.92-4.304 67.839989 67.839989 0 0 1-3.2-8.863998 974.655848 974.655848 0 0 1-1.279999-4.544 34.303995 34.303995 0 0 1-0.96-4.591999 70.687989 70.687989 0 0 1-0.8-4.639999 35.039995 35.039995 0 0 1-0.64-4.687999 34.799995 34.799995 0 0 1-0.32-4.704A69.103989 69.103989 0 0 1 352.000105 288.000115V160.000135c0-1.568 0.048-3.136 0.16-4.703999 0-1.568 0.112-3.136 0.32-4.704 0.112-1.568 0.272-3.12 0.48-4.671999l0.96-4.639999c0.208-1.552 0.528-3.088 0.96-4.607999l1.279999-4.544a67.263989 67.263989 0 0 1 3.2-8.863998c0.528-1.44 1.168-2.88 1.92-4.32a65.91999 65.91999 0 0 1 2.079999-4.191999l2.24-4.111999c0.848-1.344 1.712-2.672 2.559999-3.968 0.848-1.312 1.76-2.592 2.72-3.855999 0.96-1.28 1.92-2.496 2.88-3.711999 1.072-1.216 2.08-2.4 3.039999-3.568 1.072-1.168 2.192-2.304 3.36-3.423999 1.072-1.12 2.192-2.192 3.359999-3.248 1.168-1.056 2.352-2.08 3.52-3.071999 1.28-0.992 2.56-1.968 3.839999-2.896 1.168-0.944 2.448-1.84 3.839999-2.72 1.28-0.864 2.608-1.712 4-2.511999 1.28-0.8 2.608-1.6 3.999999-2.336 1.392-0.736 2.768-1.44 4.159999-2.111999l4.32-1.92a113.695982 113.695982 0 0 1 13.439998-4.415999c1.6-0.384 3.152-0.736 4.639999-1.04a116.159982 116.159982 0 0 1 9.279998-1.376A100.655984 100.655984 0 0 1 448.00009 64.00015h127.99998a90.047986 90.047986 0 0 1 9.439999 0.464 116.159982 116.159982 0 0 1 9.279998 1.376 77.871988 77.871988 0 0 1 9.119999 2.287999 106.687983 106.687983 0 0 1 13.279998 5.088c1.392 0.672 2.768 1.376 4.159999 2.111999 1.392 0.752 2.72 1.52 3.999999 2.336 1.392 0.8 2.72 1.648 4 2.511999 1.392 0.88 2.672 1.776 3.839999 2.72 1.28 0.928 2.56 1.904 3.839999 2.88 1.168 1.008 2.352 2.032 3.52 3.087999 1.168 1.056 2.288 2.144 3.359999 3.248 1.168 1.12 2.288 2.24 3.36 3.423999 0.96 1.152 1.968 2.352 3.039999 3.568 0.96 1.216 1.92 2.448 2.88 3.711999 0.96 1.264 1.872 2.544 2.72 3.839999 0.848 1.312 1.712 2.64 2.559999 4l2.24 4.095999c0.752 1.376 1.44 2.784 2.079999 4.207999 0.752 1.408 1.392 2.848 1.92 4.304a68.095989 68.095989 0 0 1 3.2 8.863998l1.279999 4.544c0.432 1.52 0.752 3.056 0.96 4.591999l0.96 4.639999c0.208 1.568 0.368 3.12 0.48 4.687999 0.208 1.568 0.32 3.136 0.32 4.704 0.112 1.568 0.16 3.136 0.16 4.703999v127.99998c0 1.568-0.048 3.136-0.16 4.703999 0 1.568-0.112 3.136-0.32 4.704a66.51199 66.51199 0 0 1-0.48 4.671999l-0.96 4.639999a34.303995 34.303995 0 0 1-0.96 4.607999l-1.279999 4.544a67.02399 67.02399 0 0 1-3.2 8.863998 35.519994 35.519994 0 0 1-1.92 4.32c-0.64 1.408-1.328 2.816-2.079999 4.191999l-2.24 4.111999c-0.848 1.344-1.712 2.672-2.559999 3.968-0.848 1.312-1.76 2.592-2.72 3.855999-0.96 1.28-1.92 2.496-2.88 3.711999-1.072 1.216-2.08 2.4-3.039999 3.568a67.391989 67.391989 0 0 1-3.36 3.423999c-1.072 1.12-2.192 2.192-3.359999 3.248-1.168 1.056-2.352 2.08-3.52 3.071999-1.28 0.992-2.56 1.968-3.839999 2.896a41.855993 41.855993 0 0 1-3.839999 2.72c-1.28 0.864-2.608 1.712-4 2.511999a64.15999 64.15999 0 0 1-3.999999 2.32c-1.392 0.752-2.768 1.456-4.159999 2.127999l-4.32 1.92a116.191982 116.191982 0 0 1-8.959998 3.168 76.671988 76.671988 0 0 1-9.119999 2.287999 115.631982 115.631982 0 0 1-9.279998 1.376A102.943984 102.943984 0 0 1 576.00007 384.0001h-31.999995v95.999985h247.679961a124.84798 124.84798 0 0 1 47.199993 10.991998 154.031976 154.031976 0 0 1 10.879998 5.551999 167.711974 167.711974 0 0 1 10.239999 6.591999c1.6 1.184 3.2 2.4 4.799999 3.664 1.6 1.264 3.152 2.56 4.639999 3.903999 1.6 1.328 3.088 2.704 4.479999 4.112 1.488 1.408 2.928 2.864 4.32 4.335999 1.392 1.488 2.768 2.992 4.159999 4.543999 1.28 1.552 2.56 3.12 3.84 4.735999 1.168 1.6 2.352 3.247999 3.519999 4.912a103.711984 103.711984 0 0 1 6.399999 10.335998c1.072 1.76 2.032 3.567999 2.88 5.391999 0.96 1.808 1.808 3.663999 2.559999 5.519999 0.848 1.856 1.648 3.743999 2.4 5.647999l1.919999 5.744a111.839983 111.839983 0 0 1 3.2 11.759998l1.28 5.967999a116.047982 116.047982 0 0 1 1.28 12.111998c0.208 2.016 0.32 4.047999 0.32 6.079999A57.759991 57.759991 0 0 1 912.000018 608.000065v31.999995h15.999997a90.399986 90.399986 0 0 1 9.439999 0.464 115.631982 115.631982 0 0 1 9.279998 1.376 76.671988 76.671988 0 0 1 9.119999 2.287999 106.127983 106.127983 0 0 1 13.279998 5.088c1.392 0.672 2.768 1.376 4.159999 2.127999 1.392 0.736 2.72 1.504 3.999999 2.32 1.392 0.8 2.72 1.648 4 2.511999 1.392 0.88 2.672 1.776 3.839999 2.72 1.28 0.928 2.56 1.904 3.839999 2.88 1.168 1.008 2.352 2.032 3.52 3.087999 1.168 1.056 2.288 2.144 3.359999 3.248 1.168 1.12 2.288 2.24 3.36 3.423999 0.96 1.152 1.968 2.352 3.039999 3.568 0.96 1.2 1.92 2.448 2.88 3.711999 0.96 1.264 1.872 2.544 2.72 3.839999 0.848 1.312 1.712 2.64 2.559999 4l2.24 4.095999c0.752 1.376 1.44 2.784 2.079999 4.207999 0.752 1.408 1.392 2.848 1.92 4.304a67.839989 67.839989 0 0 1 3.2 8.863998l1.279999 4.544c0.432 1.52 0.752 3.056 0.96 4.607999l0.96 4.639999c0.208 1.552 0.368 3.104 0.48 4.671999 0.208 1.568 0.32 3.136 0.32 4.704 0.112 1.568 0.16 3.136 0.16 4.703999v127.99998c0 1.568-0.048 3.136-0.16 4.703999 0 1.584-0.112 3.136-0.32 4.704a66.51199 66.51199 0 0 1-0.48 4.671999l-0.96 4.639999a34.303995 34.303995 0 0 1-0.96 4.607999l-1.279999 4.544a67.02399 67.02399 0 0 1-3.2 8.863998 35.519994 35.519994 0 0 1-1.92 4.32c-0.64 1.408-1.328 2.816-2.079999 4.191999l-2.24 4.111999a345.119946 345.119946 0 0 1-2.559999 3.968c-0.848 1.312-1.76 2.592-2.72 3.855999-0.96 1.28-1.92 2.512-2.88 3.711999-1.072 1.216-2.08 2.4-3.039999 3.568a67.391989 67.391989 0 0 1-3.36 3.423999c-1.072 1.12-2.192 2.192-3.359999 3.248-1.168 1.056-2.352 2.08-3.52 3.071999-1.28 0.992-2.56 1.968-3.839999 2.896a41.855993 41.855993 0 0 1-3.839999 2.72c-1.28 0.864-2.608 1.712-4 2.511999a64.15999 64.15999 0 0 1-3.999999 2.32c-1.392 0.752-2.768 1.456-4.159999 2.127999l-4.32 1.92a116.191982 116.191982 0 0 1-8.959998 3.168 76.671988 76.671988 0 0 1-9.119999 2.287999 115.631982 115.631982 0 0 1-9.279998 1.376A102.943984 102.943984 0 0 1 928.000015 960.00001h-95.999985z m-31.999995-223.999965v127.99998a30.623995 30.623995 0 0 0 1.44 9.279999 15.151998 15.151998 0 0 0 0.96 2.959999c0.432 0.96 0.912 1.92 1.439999 2.848a15.679998 15.679998 0 0 0 1.6 2.687999c0.528 0.88 1.12 1.712 1.76 2.528a72.847989 72.847989 0 0 0 4.479999 4.431999c0.848 0.656 1.712 1.28 2.56 1.872 0.848 0.576 1.76 1.12 2.719999 1.6a23.359996 23.359996 0 0 0 5.759999 2.399999c0.96 0.32 1.968 0.576 3.04 0.784A33.471995 33.471995 0 0 0 832.00003 896.00002h95.999985a33.471995 33.471995 0 0 0 6.239999-0.608c1.072-0.208 2.08-0.48 3.04-0.768a23.359996 23.359996 0 0 0 5.759999-2.399999c0.96-0.496 1.872-1.04 2.719999-1.616 0.848-0.576 1.712-1.2 2.56-1.872a56.415991 56.415991 0 0 0 4.479999-4.431999c0.64-0.8 1.232-1.648 1.76-2.528a15.679998 15.679998 0 0 0 1.6-2.687999c0.528-0.928 1.008-1.872 1.439999-2.848a15.151998 15.151998 0 0 0 0.96-2.943999A29.727995 29.727995 0 0 0 960.00001 864.000025v-127.99998a30.623995 30.623995 0 0 0-1.44-9.279999 15.151998 15.151998 0 0 0-0.96-2.959999 29.343995 29.343995 0 0 0-1.439999-2.848 15.679998 15.679998 0 0 0-1.6-2.687999 25.727996 25.727996 0 0 0-1.76-2.528 72.847989 72.847989 0 0 0-4.479999-4.431999 48.943992 48.943992 0 0 0-2.56-1.872 25.615996 25.615996 0 0 0-2.719999-1.6 23.359996 23.359996 0 0 0-5.759999-2.399999 26.783996 26.783996 0 0 0-3.04-0.784A33.471995 33.471995 0 0 0 928.000015 704.00005h-95.999985a33.471995 33.471995 0 0 0-6.239999 0.608c-1.072 0.208-2.08 0.48-3.04 0.768a23.359996 23.359996 0 0 0-5.759999 2.399999c-0.96 0.496-1.872 1.04-2.719999 1.616a48.943992 48.943992 0 0 0-2.56 1.872 56.415991 56.415991 0 0 0-4.479999 4.431999c-0.64 0.8-1.232 1.648-1.76 2.528a15.679998 15.679998 0 0 0-1.6 2.687999 29.343995 29.343995 0 0 0-1.439999 2.848 15.151998 15.151998 0 0 0-0.96 2.943999A29.727995 29.727995 0 0 0 800.000035 736.000045z m-367.999942 0v127.99998a30.623995 30.623995 0 0 0 1.439999 9.279999 15.151998 15.151998 0 0 0 0.96 2.959999c0.432 0.96 0.912 1.92 1.44 2.848a15.679998 15.679998 0 0 0 1.6 2.687999c0.528 0.88 1.12 1.712 1.759999 2.528a72.847989 72.847989 0 0 0 4.48 4.431999c0.848 0.656 1.712 1.28 2.559999 1.872 0.848 0.576 1.76 1.12 2.72 1.6a23.359996 23.359996 0 0 0 5.759999 2.399999c0.96 0.32 1.968 0.576 3.039999 0.784A33.471995 33.471995 0 0 0 464.000088 896.00002h95.999985a33.471995 33.471995 0 0 0 6.239999-0.608c1.072-0.208 2.08-0.48 3.039999-0.768a23.359996 23.359996 0 0 0 5.759999-2.399999c0.96-0.496 1.872-1.04 2.72-1.616 0.848-0.576 1.712-1.2 2.559999-1.872a56.415991 56.415991 0 0 0 4.48-4.431999c0.64-0.8 1.232-1.648 1.759999-2.528a15.679998 15.679998 0 0 0 1.6-2.687999c0.528-0.928 1.008-1.872 1.44-2.848a15.151998 15.151998 0 0 0 0.96-2.943999A29.727995 29.727995 0 0 0 592.000068 864.000025v-127.99998a30.623995 30.623995 0 0 0-1.44-9.279999 15.151998 15.151998 0 0 0-0.96-2.959999 29.343995 29.343995 0 0 0-1.44-2.848 15.679998 15.679998 0 0 0-1.6-2.687999 25.727996 25.727996 0 0 0-1.759999-2.528 72.847989 72.847989 0 0 0-4.48-4.431999 48.943992 48.943992 0 0 0-2.559999-1.872 25.615996 25.615996 0 0 0-2.72-1.6 23.359996 23.359996 0 0 0-5.759999-2.399999 26.783996 26.783996 0 0 0-3.039999-0.784A33.471995 33.471995 0 0 0 560.000073 704.00005h-95.999985a33.471995 33.471995 0 0 0-6.24 0.608c-1.072 0.208-2.08 0.48-3.039999 0.768a23.359996 23.359996 0 0 0-5.759999 2.399999c-0.96 0.496-1.872 1.04-2.72 1.616a48.943992 48.943992 0 0 0-2.559999 1.872 56.415991 56.415991 0 0 0-4.48 4.431999c-0.64 0.8-1.232 1.648-1.759999 2.528a15.679998 15.679998 0 0 0-1.6 2.687999 29.343995 29.343995 0 0 0-1.44 2.848 15.151998 15.151998 0 0 0-0.96 2.943999A29.727995 29.727995 0 0 0 432.000093 736.000045zM64.00015 736.000045v127.99998a30.575995 30.575995 0 0 0 1.44 9.279999 15.135998 15.135998 0 0 0 0.96 2.959999c0.432 0.96 0.912 1.92 1.439999 2.848 0.432 0.928 0.96 1.824 1.6 2.687999 0.528 0.88 1.12 1.712 1.76 2.528a74.847988 74.847988 0 0 0 4.479999 4.431999c0.848 0.656 1.712 1.28 2.56 1.872 0.848 0.576 1.76 1.12 2.719999 1.6a23.455996 23.455996 0 0 0 5.759999 2.399999c0.96 0.32 1.968 0.576 3.04 0.784A33.439995 33.439995 0 0 0 96.000145 896.00002h95.999985a33.471995 33.471995 0 0 0 6.239999-0.608c1.072-0.208 2.08-0.48 3.04-0.768a23.359996 23.359996 0 0 0 5.759999-2.399999c0.96-0.496 1.872-1.04 2.719999-1.616 0.848-0.576 1.712-1.2 2.56-1.872a56.415991 56.415991 0 0 0 4.479999-4.431999c0.64-0.8 1.232-1.648 1.76-2.528a15.679998 15.679998 0 0 0 1.6-2.687999c0.528-0.928 1.008-1.872 1.439999-2.848a15.151998 15.151998 0 0 0 0.96-2.943999A29.727995 29.727995 0 0 0 224.000125 864.000025v-127.99998a30.623995 30.623995 0 0 0-1.44-9.279999 15.151998 15.151998 0 0 0-0.96-2.959999 29.343995 29.343995 0 0 0-1.439999-2.848 15.679998 15.679998 0 0 0-1.6-2.687999 25.727996 25.727996 0 0 0-1.76-2.528 72.847989 72.847989 0 0 0-4.479999-4.431999 48.943992 48.943992 0 0 0-2.56-1.872 25.615996 25.615996 0 0 0-2.719999-1.6 23.359996 23.359996 0 0 0-5.759999-2.399999 26.783996 26.783996 0 0 0-3.04-0.784A33.471995 33.471995 0 0 0 192.00013 704.00005H96.000145a33.439995 33.439995 0 0 0-6.239999 0.608c-1.072 0.208-2.08 0.48-3.04 0.768a23.455996 23.455996 0 0 0-5.759999 2.399999 25.599996 25.599996 0 0 0-2.719999 1.616 49.023992 49.023992 0 0 0-2.56 1.872 57.775991 57.775991 0 0 0-4.479999 4.431999c-0.64 0.8-1.232 1.648-1.76 2.528a15.791998 15.791998 0 0 0-1.6 2.687999 29.343995 29.343995 0 0 0-1.439999 2.848 15.135998 15.135998 0 0 0-0.96 2.943999A30.047995 30.047995 0 0 0 64.00015 736.000045zM416.000095 160.000135v127.99998a30.623995 30.623995 0 0 0 1.44 9.279999 15.151998 15.151998 0 0 0 0.96 2.959999c0.432 0.96 0.912 1.92 1.439999 2.848a15.679998 15.679998 0 0 0 1.6 2.687999c0.528 0.88 1.12 1.712 1.76 2.528a72.847989 72.847989 0 0 0 4.479999 4.431999c0.848 0.672 1.712 1.28 2.56 1.872 0.848 0.576 1.76 1.12 2.719999 1.6a23.359996 23.359996 0 0 0 5.759999 2.399999c0.96 0.32 1.968 0.576 3.04 0.784A33.471995 33.471995 0 0 0 448.00009 320.00011h127.99998a33.471995 33.471995 0 0 0 6.239999-0.608c1.072-0.208 2.08-0.48 3.04-0.768a23.359996 23.359996 0 0 0 5.759999-2.399999c0.96-0.496 1.872-1.04 2.719999-1.616 0.848-0.576 1.712-1.2 2.56-1.872a56.415991 56.415991 0 0 0 4.479999-4.431999c0.64-0.8 1.232-1.648 1.76-2.528a15.679998 15.679998 0 0 0 1.6-2.687999c0.528-0.928 1.008-1.872 1.439999-2.848a15.151998 15.151998 0 0 0 0.96-2.943999A29.727995 29.727995 0 0 0 608.000065 288.000115V160.000135a30.655995 30.655995 0 0 0-1.44-9.279999 15.151998 15.151998 0 0 0-0.96-2.959999 29.279995 29.279995 0 0 0-1.439999-2.848 15.615998 15.615998 0 0 0-1.6-2.687999 25.647996 25.647996 0 0 0-1.76-2.528 72.527989 72.527989 0 0 0-4.479999-4.431999 50.271992 50.271992 0 0 0-2.56-1.872 25.567996 25.567996 0 0 0-2.719999-1.6 23.311996 23.311996 0 0 0-5.759999-2.399999 37.151994 37.151994 0 0 0-6.079999-1.216 33.359995 33.359995 0 0 0-3.2-0.176h-127.99998a33.359995 33.359995 0 0 0-6.239999 0.608c-1.072 0.208-2.08 0.48-3.04 0.768a23.311996 23.311996 0 0 0-5.759999 2.399999c-0.96 0.496-1.872 1.04-2.719999 1.616a50.271992 50.271992 0 0 0-2.56 1.872 56.783991 56.783991 0 0 0-4.479999 4.431999c-0.64 0.8-1.232 1.648-1.76 2.528a15.615998 15.615998 0 0 0-1.6 2.687999 29.279995 29.279995 0 0 0-1.439999 2.848 15.151998 15.151998 0 0 0-0.96 2.943999A29.647995 29.647995 0 0 0 416.000095 160.000135z"  /></svg>